/* XPM */
static char *f67835c50a0e4e3a8f217ce9e37362441LQg1JV5Zt6uudXo[] = {
/* columns rows colors chars-per-pixel */
"70 73 203 2 ",
"   c #092D47",
".  c #032D4D",
"X  c #082C4A",
"o  c #04324D",
"O  c #02384E",
"+  c #113E43",
"@  c #022E53",
"#  c #0B2F56",
"$  c #042E5A",
"%  c #0A2E59",
"&  c #033355",
"*  c #0A3254",
"=  c #033954",
"-  c #02345C",
";  c #0A345C",
":  c #02395E",
">  c #0B3B5D",
",  c #0C3956",
"<  c #143C53",
"1  c #19365C",
"2  c #153B5D",
"3  c #1A395E",
"4  c #163258",
"5  c #2F2D43",
"6  c #202F56",
"7  c #243F57",
"8  c #2F3658",
"9  c #29375A",
"0  c #333558",
"q  c #303D5A",
"w  c #062E62",
"e  c #0C2F63",
"r  c #092A68",
"t  c #023564",
"y  c #0A3563",
"u  c #053966",
"i  c #063D66",
"p  c #023B64",
"a  c #0C3962",
"s  c #0A3B64",
"d  c #023669",
"f  c #0A366B",
"g  c #023B6B",
"h  c #0B3C6B",
"j  c #123C64",
"k  c #1B3D62",
"l  c #133C6A",
"z  c #1C3F6D",
"x  c #163464",
"c  c #043671",
"v  c #033C72",
"b  c #093D73",
"n  c #013F7A",
"m  c #0D3B7A",
"M  c #073576",
"N  c #103B71",
"B  c #123E7E",
"V  c #283A6C",
"C  c #6B3D58",
"Z  c #593860",
"A  c #02425F",
"S  c #1A4953",
"D  c #13425C",
"F  c #1A4858",
"G  c #1C465E",
"H  c #28434E",
"J  c #21474C",
"K  c #245447",
"L  c #3B554F",
"P  c #28475D",
"I  c #224959",
"U  c #325658",
"Y  c #3B5C5A",
"T  c #014165",
"R  c #0B4164",
"E  c #02426D",
"W  c #0A426C",
"Q  c #094A6A",
"!  c #144265",
"~  c #194364",
"^  c #194966",
"/  c #14436C",
"(  c #19436A",
")  c #134A6B",
"_  c #194B6B",
"`  c #11526A",
"'  c #024372",
"]  c #0B4373",
"[  c #0C4875",
"{  c #03437A",
"}  c #09447B",
"|  c #0C4A79",
" . c #07497D",
".. c #124472",
"X. c #1B4672",
"o. c #134A74",
"O. c #1B4B74",
"+. c #1D4778",
"@. c #14497A",
"#. c #1B4E7D",
"$. c #13477A",
"%. c #1C547C",
"&. c #1F5E79",
"*. c #1E5B77",
"=. c #224466",
"-. c #264E60",
";. c #2F4A60",
":. c #244C6C",
">. c #26456A",
",. c #334C6E",
"<. c #37456A",
"1. c #265364",
"2. c #2A556C",
"3. c #265E6E",
"4. c #355A64",
"5. c #234B73",
"6. c #264F79",
"7. c #294E7A",
"8. c #2A5175",
"9. c #25537A",
"0. c #28527A",
"q. c #215C78",
"w. c #2B5A7D",
"e. c #3C5E7D",
"r. c #345979",
"t. c #3F6462",
"y. c #28627F",
"u. c #22617A",
"i. c #33637D",
"p. c #316A7F",
"a. c #5B4D4C",
"s. c #4F485E",
"d. c #424459",
"f. c #59445A",
"g. c #415A5E",
"h. c #794D4F",
"j. c #6E4952",
"k. c #794A54",
"l. c #436259",
"z. c #526255",
"x. c #4E7755",
"c. c #637449",
"v. c #717E4E",
"b. c #564A60",
"n. c #5F4068",
"m. c #455664",
"M. c #415E7E",
"N. c #416667",
"B. c #476A67",
"V. c #546D61",
"C. c #557F6E",
"Z. c #55776D",
"A. c #466C72",
"S. c #9A4D3A",
"D. c #894350",
"F. c #76887A",
"G. c #979A5C",
"H. c #043E81",
"J. c #024283",
"K. c #0E4D83",
"L. c #074B8B",
"P. c #1D5583",
"I. c #185986",
"U. c #0D509F",
"Y. c #224F84",
"T. c #2C5782",
"R. c #215887",
"E. c #2C5B82",
"W. c #2C5D8B",
"Q. c #265784",
"!. c #345C8A",
"~. c #2C5F91",
"^. c #22618F",
"/. c #306183",
"(. c #3B668A",
"). c #3F688B",
"_. c #386385",
"`. c #2D6494",
"'. c #356697",
"]. c #39719F",
"[. c #3976A5",
"{. c #416689",
"}. c #426D97",
"|. c #4D7997",
" X c #45719F",
".X c #4C799A",
"XX c #577E99",
"oX c #5A7899",
"OX c #427CA2",
"+X c #698C8C",
"@X c #64839D",
"#X c #7AA487",
"$X c #5780AF",
"%X c #5483A7",
"&X c #6898AD",
"*X c #6498AA",
"=X c #6E9CBE",
"-X c #72A1C4",
";X c #95B0BE",
":X c #87A8B9",
">X c #96B4C2",
",X c #A2B8C6",
"<X c #A4BCCA",
/* pixels */
"& o * & ; & $ $ :.,.4 @ X X @ $ - - - - - : : > > - p i u u p ! l.L k t M c p d t - & - $ @ @ @ @ @ @ $ & @ . . X X X . @ @ . @ @ $ @ @ @ & ",
"& 2.< * @ $ $ $ & X @ $ w t w r $ - - - - - & }./.i : u u u i R p > s 2 ; i p p p - t & & @ @ @ $ @ @ @ @ . . . . . . . @ . . . @ @ $ $ & @ ",
"= 2.< o @ $ $ $ % % - f e 1 s M $ $ - - & - t w.O.s p p u u s a / l O./ > p p p p : - : - @ $ $ @ $ & @ @ . . @ . @ @ @ @ @ @ @ . @ @ @ # @ ",
"&   . . @ $ $ t t $ & : 6 C f.^ a - - - - $ & t : p A : p : u ^ M.k j ! G s g p p t : : - $ @ & & $ & $ & @ @ @ @ @ @ @ . @ @ @ @ @ @ @ @ . ",
"& . @ @ @ - - & d & @ ; 0 D.k.< 6.a - $ & - & t : p p p : T R _ {.! y 3 <.3 p p p : : : : - - $ - - & - $ & $ @ $ @ & & @ @ & - & & , o . . ",
"o & @ - s j & - w & * f x 5 q h %.s - - w - t - - : T p : p s ( r.! T > 1 4 p p p p p t t - - & t - - t - t - $ & $ & - $ $ & & O * & & & & ",
"@ $ $ ; ( ! ; - t - = p g s j d p p t t t t t - p : p p R p > :.e.! u u g p W R p p p p d t d t $ & - - - : t : t : - : = & & < N.P @ & & & ",
"- - - & ; ; : > : p p p p T p T g g g g d t t d t p p p T g : > > y u u i p / E p p g p g g g d d - : & - t : t t t t p = & y G B.;.; @ & & ",
"- : : : A : : p p p p p T T T g E E T g g d g p d p p g T g i i R p p p p p R i T g g g g E ' g d d : p t : : u p : t : = & t , + , & - & & ",
"t p : p p : T p p p p i T g T T ' E ' E E E g g p d p g g g ' E E g p T T p p g g E E E T R T g d u 2 > p p p p p p : : & : t = O - - & - & ",
"s p p T R p p A p p i R i p T T E E E E ' E E i d d p g g E ' v ' g T p T p p g g E E g g E v h s 2 g.-.p u p : p : t - & : t & - t t - t - ",
"p p T g T p p T T T s s i g T E E ' E ' E ' E E g p g g g g ' v E E g T p i g g ' g ' ' v n { h W 1.F.A.! p p t : p : : - t t = : p ; : : : ",
"p T p R g g p p T T / T.s i E Q ' E E ' ' Q E g g g d d g g E E g ' g v g i E W | v ' ' T T ' i g / m.:.p t : t : t t : : t t = t t - - : : ",
"g p p T g E T T p p O.-XE.s E E T ' ' v { E E E g g g t p h g E E v v g b v ' P.[.E g v E T ' g v i ; f d w t t d t d t & t ; - - - - : : : ",
"T p T T T T T T T i : 0.j W E g E v g g T ' ' E g g d t y / Q.E E E E v v g ] [ ' g E E v E g g p d g d t t t t t d d w t t & & - t : : : - ",
"E p T g T p T g T E E W W h ' ' ' T R W [ ' E E g d u d t j @.E E E ' ' ' ' v ' ' g g v g g g g g d d d t t t d t t t d y y $ & - t - : : - ",
"] p T T g T g T T E ' E ' ' ' { ' T ) p.q.' ' v g g g d s y y i ] ' ' E E ' g E ' g g g g g g d d d d d d t d t d t t d t y z j % t - : : : ",
"g i g g T g g E E ' ' ' ' ' ' { ' E R ) ) g ' ' E g d d i s ! u i g ' ' T g E g g g g g g g p d p d d d p d p d d p d u e a !.8.t t t : t & ",
"R p g p i g E g Q E ' { { { ' ' ' W E T T ' v E g g d d f 5.(.: d g g g i g g g g g p g g d p g g p d p p d d d t t t t t y % & - $ : p : : ",
"> g p d g i g g E E Q ' ' ' ' Q ' ' ' b v T E g g g d d t > / ; f d d $.( d g g g g d g g p d g d d d d d p p g p d d d t y - ; - - : : p : ",
": g d d g d g g E ' ' ' ' ' Q ' ' ' ' v ' g E g p d d d d t i u d f h W.0.i d g g g p g g g d d d / E./ d p p d d d t d t - y t d d : : p : ",
"t t d d d g g g { ' ' ' { { ' ' ' ' ' ' ' E v g d d d p d d d i ../ d +.l u d d d d d d d d d f f 5.oX8.u u d d d d d w t t t t g M d : p p ",
"u t d d g g g ' { {  .{ ' ' ' ' ' ' ' ' ' ' E g d d p d d d p s / ..v v f d d d d d d d d g u t y ( 7.( f d d h d d t t t : t d ] K.i : p p ",
"t p d g g g ' ' ' ' K. .' ' ' E ' ' ' ' E g g d d d d d d d d f a f g d i u d d g g d d d d u u j ! j f u @.b d d d d t t t t t v } g p : s ",
"t d d g g ' ' ' ' { } ' ' v E ' ' ' E E g g g d d d g g d d f l 7.h g p p d d d d ] '.@.d c p u R R f h d @.f d d d d d d d t t d d t t p p ",
"- d g g E ' ' ] ' ' b ' ' E E E ' E ' E g g g d d d d d d ..{.@X@Xk g v d d d d d h ~.$.d g d p p y f d d f d d d p d d d g t t w d t t p u ",
"d g g g ' ' ' ' ' b ' ' E E E E ' ' ' g g d d d d d d d d h M.,X<X_.h g g d d d d d b h d g g g d i p p p d t d d d d c d d p t t d t p p u ",
"s g g E E ' ' ' ' ' ' ' E E ' [ | ' ' v g d p g d d d d g d V oXM.j y p p d d g d d d d d p d d c g i g d d g p g g g d g p p d t t t t : u ",
"d g g ' E ' ' E ' ' ' ' Q E ] P.%.' { { v g i g g g d g d g b W.W f g g d d d d d g d g g g g g g g g ' ' v E ' { ' E T g g g p t t - $ - : ",
"d v ' E E ' ' ' ' ' ' ' ' ' ' ' g g E E ' T g g g g g g d d g g d g d g g g g g g g g v E g g g ' ' ' v h D R h E T E E E E g g d d - - : : ",
": T E g E E ' ' ' ' ' ' ' ' E v ] E T T E E ' v g g g g g g g g E g g g g E E E E E E E ' ' E ' ' E E ] R *Xw.] W R E E E E E E g p - - - - ",
"T T ' E v ' ' ' ' E ' ' ' E ' ' ' W ` ` T T b ' ' ' ' ] E E ' ] ] ' ' ' ' ' E ' ' ' ' ' ' ' ' ' ' ' E E R y.) E b ' ' E E E E g g g t - - : ",
"T E E ' ' W ' ' g E ' [ ' ' ' ' { W q.u.R ' { ' ' ' ' ' ' E ' ' ' ' E ' ' ' ' ' ' ' ' ' ' ' ' ' ' ' ' Q ' ' Q E J.J.' E E E E i T g g p : : ",
"i E ' E ' ' ' ' ' ' E ' ' ' ' ' ' E [ ) ' g ' ' ' ' ' ' ' ' ' ' ' ' ' ' ' ' ' Q ' ' E ' ' ' ' ' ' ' ' ' ' ' Q ' { { ' ' ] ] ] E E g T W R : ",
"s o.E ' E ' ' ' ] ' E ' ' Q E E ' ' E ] | ' ' ' ' ' ' ' ' ' ' ' ' ' E ' ' ' ' ' E ' ' ' ' ' ' ' Q ' ' ' { E Q { ' ' E W #.R.] g g g E @...: ",
"w..X@.] E ' n v W E ' ' E W ,.=.W ] ' [ [ W b ' I.[ Q ' ' ' E ' E E E E E ' ' ' ] g E ' ' ' ' Q '  .' ' ' Q ' ' ' ' E ] P.`.@.' E E Q g g p ",
").=X%.' ' J.J.R T E ' ' W z ,.>.W n $.8./ v b ] ^.| Q ' ' E E g E g T T T ' ' E v g E v g ' E g ' ' g ' ' ' ' ' ' ' ' g ] $.' ' ' ' ' T T p ",
"( /.$.[ Q ' { ' Q E ' ' ' l j ! } l d.h.b.+.] ' [ '  .' ' ' v E E E g g g p g v g g c g i d g g h ] b ] ' ' ' Q ' ' ' ] b ' ' ' ' ' ' E T i ",
"u W g ' R E / i.*.' ' { } v E E ] =.a.S.j.5.W Q E [ ' ' ' ' ' g E g g p p u g c p p M d i d d d ..@.g ] ' ' ' ' E ' ' E ' E E ' ' ' v ' E g ",
"i c v ' E h ! N.3.' ' ' ' ' ' ' E } :.s.<.] Q E ' ' ' ' ' ' ' ' E E p p t : v c = : M f s d d g g f d g E ' ' ' ' ' ' ' ' ' E ' ' ' v n { E ",
"p p g E T g b ( ] ' ' ' ' ' ' Q g { ' ( ..' W E ' ' ' ' ' E ' E E g g i t : d f F -.l d i d p d d d g g E E ' ' ' ' ' ' ' ' ' E ' ' ' { { T ",
"g - t g ' L.U.L.{ { ' ' ' ' E Q E ' E E Q E } ' ' ' ' ' ' ' ' ' g i u u - u c ; B.+Xl M g g d d d g d g ' E E E ' Q ' ' ' ' ' ' ' ' E T E v ",
"d t d g v J.L. .' b ' ' ' Q ' ' ' ' ' E ' ' ' n { ' ' E E E p g d d u ; & t v u D ^ d v g d d d d g g d g T T v [ K ( ] ' ' ' ' ' ' E T g v ",
"t d p g g g g g E E ' ' ' ' ' ' ' ' ' ' ' ' ' ' ' ' E E W i g g d d b f V j d g g v c c g d p d d d g c T T A n Y.#X>.b ' ' ' ' W [ Q E g d ",
"t d g d g g g g g ' ' ' E ' ' ' E ' ' ' ' ' ' W h E g g g d d p g c ! V.G.l.i d d c g c g d d g g p d d g Q E ' W S j ' ' ' Q ) ! XX*.i u t ",
"t d d d d p p g g g g ' ' ' ' ' ' ' ' ' ' ' E W W d g d f M d d g g > Y v.4.s d g g g d d g d g d d d g E E E ' E W E ' ' ' ` |.>X;XE.i & : ",
"t t d g d p d g g g g g E E ' E E E g v ' g h E.X.i g d c d g g f M f h j t l u g d d d d d d d g g g g ' ' ' ' E { ' ' ' E W ! :X;X%XO.; t ",
"t d d d g d g d d g g g g g g g g g g g g g u j / s i d c d p d f f d c d d t t d d d d d g g d d g d ' ' ' ' Q ' { ' ' ' E E ) |.e.O.R ; t ",
"w d d d g d d p d g g g g g g g g g d g d d t y X.l t p g d M d : t p d f t t t w t u u d d p d g g d ' { ' E Q ' ' { ' E ' ' | | W [ p > f ",
"t t d d d d g d g g g g g g g E g g g g g g d i t u d p p d c d p g g d % ; s t t t t t t d d p g g g v ' ' E T E E { ' ' ' ' ' ' ' E p t d ",
"- t d d g g g g g g E g g E ' g ' g E g d d d d p d p d d p d d d d d d t d Q...t t t t t t p t p T T ' ' { E A R ] { { ' { ' ' ' ' ' T p p ",
"- t d p g g v g g v g ' E v g E g ' g g g d g d d d g d d g d d d d d d d f Q.l t t t t t t t t p g g T g ' n E s } ' ' ' ' ' ' ' ' E T g p ",
"u t t p g g g v E v g ' g g E g g ' f i g g g g d g d d g d d d d d d d t t u t t t t t t t t p p g T T T p X.F.4.} Q E ' ' ' ' ' ' E E T p ",
"t t d d d g v ' g g E g v E E v ' g R h d g g g d d g d p d p d d p d d d t t t t t d w t t t p p g g T T g j x.U m T E ' E ' Q E ' E Q i p ",
"t u u g g E g g ' g ' g g E g E i h W l i E g g p g d d d d d d d d d d d t d t t t d t t t t p p g T T T p M G 3 b T T E ' E E E g Q ) R p ",
"t u u g g v v v ' g g g ' g v v b W :.^ p h v g d d d p d g d d d d g d d t d d d d d d d : t t T T g T T ' J.n f c ' g E g T E E T E [.) p ",
"; : i T i E v g g g g E g E g g W b W ! i E g g d d d d d d d p p t u t u t t t d d t d t t t p g T g T T ' ' E Q p g T E T g E g T p o.W p ",
"G , p p T g g E ' g P.W g g E b | [ g g g g g g g g p g g g d t / i.5.( ( l l ; $ - & - : t : p p g T E g T E T T g T T p T g T T T T p T p ",
"&XO.M M c T v v g E ].'.] g i d v g g ' ' ' d g d p g d g d g u i ! > y  XXX5.- - - & : : t t p p p g T T T T g g g T g T T T p T T p p p p ",
"_ : c M p T ' g h h @.P.] g g i ' g g g g g g g d d d g d d c d u - ; / ~. Xz $ - - - & & d t t p p g T T g g T T T g T p p T p p p p p : p ",
"> A p : A T v g h g g E i d v g g g g g E g g d g d d d d d d c t t t s f l s - - j / - - d t t p p p p g T T T T p p p p p p p p p : : : - ",
": T T = = h b ' E g v c g g g d d g d d d d v ..d d i d d d d d t f t t f w - & - 0.T.- - $ - - t t : p p p g g g T p p p p p p p p : - - ; ",
"p d g T > 7 H > d g c g g c g g p d d d g d d #.b g d d d t t d d d t t d - & - - $ - - - $ t t t p t p p p p p p p p u p p p p t t - - & $ ",
"p a u p j z.c.J h d d g g d d g d d d d i d d h d f d d d d t d t t t t : & - - & - ; $ $ t - t : t t t p t p p t p u - t t - - - - & - & - ",
"p ; d d j B.Z.:.f d d d g g g d d p p l / u d d b d d d d t t t t t : t - & & - - $ t & t - t t : t t : t t t : - - - t w - & # 1 , & w - & ",
": - d d t > s f d d d d d d p p p t p / ( y d d d d t d t d t t : t - - - - - - - - - t : - - : : - t - : & - & - - - & $ & , 0 Z 9 & $ - - ",
"& - t w t : & d d d d d d p d t t d d - y t d d t t t t t t t : t - - - $ - - - : - : : - t t : - - - : : - t & - - - = & & , 0 Z 9 & - t - ",
"- w - - & w t d d d t d d t t : t p d t - w d d d t t t t t t - - t - - t - - : t - : t : - : t : & - - - t - - & : & - $ w = * 4 , & t - t ",
"$ - - & & - d t t d d t t t i - p g } d t t t t t t t t t t w - - - t - - - : : : : p : : : t & - - & - - : - - - - - $ w w t & & - - - t - ",
"- % j F & t w t t t t t y f - y i  .K.' t t t t t t t t t t : t t : : t t t : : : : : : : - - $ $ - $ - - - : - : - $ w $ t r % # w t t - : ",
"$ 4 4 I * & $ - t d d t X.=Xl ; t v } c t t w t t p p t t t t : t : : t t : : t t : : : - - $ - $ - - $ - - - - - - - & $ w & & & % w - - : ",
"% & e ; $ w - & & t t y s 6.y t t g g p u t t - - : t : t : t : : t : : : t : t p : - & t $ - $ - $ $ - $ - $ - - - - - - - & - - - ; t - t ",
"t $ & $ $ t $ & t t t y '.+.l t t t t i h d - - - : t : : : t : : : : t : = o d t y t & $ - $ & $ - $ - $ - $ - - t $ - y : & - - : t - - - "
};
