/* XPM */
static char *aab8f7452081495bcd921b4afd34d58fNVyhAQD29uonDNYR[] = {
/* columns rows colors chars-per-pixel */
"70 72 255 2 ",
"   c #020102",
".  c #0B0402",
"X  c #020904",
"o  c #0B0904",
"O  c #03040A",
"+  c #0A040A",
"@  c #020A0C",
"#  c #0C0A0A",
"$  c #120402",
"%  c #140A04",
"&  c #1A0806",
"*  c #130D0B",
"=  c #04130B",
"-  c #15120D",
";  c #1A140B",
":  c #020512",
">  c #020B13",
",  c #080815",
"<  c #020B1B",
"1  c #190916",
"2  c #0A1315",
"3  c #04131B",
"4  c #0C141B",
"5  c #081819",
"6  c #141413",
"7  c #181719",
"8  c #250806",
"9  c #37090B",
"0  c #28160B",
"q  c #36170A",
"w  c #280815",
"e  c #360717",
"r  c #271815",
"t  c #231D1B",
"y  c #391716",
"u  c #11241C",
"i  c #2A231B",
"p  c #312710",
"a  c #38261A",
"s  c #020C23",
"d  c #150A29",
"f  c #031423",
"g  c #0B1B23",
"h  c #081826",
"j  c #0C1B2A",
"k  c #141C23",
"l  c #181C26",
"z  c #091C33",
"x  c #141B36",
"c  c #370B2E",
"v  c #271728",
"b  c #351926",
"n  c #291535",
"m  c #3A1836",
"M  c #0B2527",
"N  c #0B232C",
"B  c #132224",
"V  c #182627",
"C  c #15242C",
"Z  c #1B232B",
"A  c #1E2A2C",
"S  c #092837",
"D  c #0C2A34",
"F  c #132432",
"G  c #142C34",
"H  c #1B2A34",
"J  c #192739",
"K  c #142B3A",
"L  c #0F3135",
"P  c #183539",
"I  c #1C343C",
"U  c #282626",
"Y  c #222B2D",
"T  c #352A25",
"R  c #2F322D",
"E  c #39332A",
"W  c #242B36",
"Q  c #362638",
"!  c #24343B",
"~  c #283638",
"^  c #373634",
"/  c #480617",
"(  c #4B1012",
")  c #551817",
"_  c #651419",
"`  c #4E2C11",
"'  c #452919",
"]  c #59371B",
"[  c #653319",
"{  c #550B26",
"}  c #471727",
"|  c #581826",
" . c #4C0D30",
".. c #591534",
"X. c #6B112D",
"o. c #681838",
"O. c #761936",
"+. c #462A27",
"@. c #582825",
"#. c #473728",
"$. c #573828",
"%. c #512836",
"&. c #493A34",
"*. c #573934",
"=. c #6E2D2E",
"-. c #6A2A38",
";. c #79353A",
":. c #21413D",
">. c #5E461E",
",. c #714A19",
"<. c #54452A",
"1. c #494339",
"2. c #574837",
"3. c #664829",
"4. c #754828",
"5. c #674B39",
"6. c #764D32",
"7. c #6B5737",
"8. c #775638",
"9. c #79643A",
"0. c #361D47",
"q. c #0A2B43",
"w. c #152C44",
"e. c #0B3342",
"r. c #0A3947",
"t. c #143746",
"y. c #1C3343",
"u. c #1C3944",
"i. c #1C3C4C",
"p. c #0A3956",
"a. c #193C54",
"s. c #242A48",
"d. c #34284F",
"f. c #263946",
"g. c #353C46",
"h. c #293A56",
"j. c #393B58",
"k. c #353661",
"l. c #511549",
"z. c #6D164F",
"x. c #4D2E51",
"c. c #472A58",
"v. c #72304E",
"b. c #4A3666",
"n. c #6E356C",
"m. c #0A444C",
"M. c #18444A",
"N. c #0A4554",
"B. c #1B4554",
"V. c #184959",
"C. c #0F525C",
"Z. c #1A555B",
"A. c #284647",
"S. c #24444C",
"D. c #2B434B",
"F. c #384549",
"G. c #284756",
"H. c #234B5B",
"J. c #354A57",
"K. c #295359",
"L. c #38555B",
"P. c #11506D",
"I. c #195668",
"U. c #284C65",
"Y. c #354B64",
"T. c #275867",
"R. c #375968",
"E. c #345A76",
"W. c #156170",
"Q. c #176678",
"!. c #296369",
"~. c #296677",
"^. c #376576",
"/. c #3A6B72",
"(. c #4E4C4E",
"). c #554B46",
"_. c #6F4A4A",
"`. c #675849",
"'. c #775645",
"]. c #6A5855",
"[. c #736954",
"{. c #4D5069",
"}. c #6D4D6D",
"|. c #45626A",
" X c #59666F",
".X c #486877",
"XX c #717174",
"oX c #972F1B",
"OX c #AD3C1A",
"+X c #8C1638",
"@X c #8A2E32",
"#X c #AA3331",
"$X c #8C5215",
"%X c #BC441D",
"&X c #A86E18",
"*X c #8A4F33",
"=X c #B3522F",
"-X c #916B33",
";X c #AA7133",
":X c #CA6337",
">X c #8D154B",
",X c #A7165A",
"<X c #882D4E",
"1X c #A83552",
"2X c #8C1966",
"3X c #943B6E",
"4X c #A53365",
"5X c #C7285D",
"6X c #8F504B",
"7X c #B15150",
"8X c #856648",
"9X c #906F4F",
"0X c #AC704F",
"qX c #935367",
"wX c #A94D69",
"eX c #936D6E",
"rX c #AE6C71",
"tX c #CF6C50",
"yX c #D95D64",
"uX c #D3706E",
"iX c #BC8417",
"pX c #B78531",
"aX c #D6912B",
"sX c #93835A",
"dX c #B49051",
"fX c #8E8D74",
"gX c #B58F74",
"hX c #D28A52",
"jX c #E1A052",
"kX c #D58C69",
"lX c #F1CB4F",
"zX c #1F6C8C",
"xX c #197386",
"cX c #286883",
"vX c #2E738B",
"bX c #226491",
"nX c #754A8E",
"mX c #507489",
"MX c #676792",
"NX c #957389",
"BX c #AE6A8C",
"VX c #C9798A",
"CX c #DB7DA6",
"ZX c #3B8591",
"AX c #518694",
"SX c #678B9E",
"DX c #5596B3",
"FX c #9E9F9A",
"GX c #AEAC91",
"HX c #DA8E96",
"JX c #C4BAAA",
"KX c #E9CF9F",
"LX c #D4D1B6",
"PX c #8DA4C7",
"IX c #F4E8FA",
/* pixels */
"O G.k @ _.w z.%.eXv.6X6.;.>X*X0 r . [.+ + )..     . ].o   .   O -       O U       6     X o #   (.o o t ).. $ LX  + r T . T fXy &.XX(.^ $ r ",
"J.Z . x.| ;.6Xv.HXv.3.7Xv.-.2.X o . . . 7 +   6 U ; &.    . .   6 + i 6   +       o   .   *     +   o   * t   o fX. . Q . X   ].].o 7       ",
"AX~ r v.6X@.qX-.-._.6X<X#.*.# o   1.U *     .   . &.  O   r U       7   6 U X i       U o   .           R     X ].7 o b % XXv V * +         ",
"h.-   v.eXBX>X6X/ O.@.$.*.;   + $ $ .       t o * (.X   . T R   # U   +             7 .     + X # 6 .     X # U o [.  r 8 o ].O     * .   o ",
"@ O , qXv._ 4Xv.7X@X8 [.0   o . 2.U         . ; + 1.    1.            +             6           +     . 6 . - U + GX. + $ GX1 X     o R . 1 ",
"X {.b X.wXrX7X5XrX] 3.  - . 0 & * #     7 * ; -   X   &.r         X               @     O .             7 @ + 7 O o . XX).Q . 7 v o . o (.r ",
"|.T uX3XBXgXO.@X;.eXR 2.O . 1.2.    +   . ;       . U -   U O                     XX        .         X   2 O O     p U .   .   .   - E . & ",
"8 qX3X3XgX{ ;.-.[ 7.* i . T . .         T . T o     *                         O g.> .     O             Y @ . X   + LX. 7 ^ i . 1 7 .   ).o ",
"n._.( z.0X| <X#.sX[.i . 7 U % .           6 - v # U                         O W O +     J.B 5 7 l Y Z X + O U     R fXo o 7 # . . . o # + U ",
"3X[...eX7X<X9Xo 9.3.X O E r ^ .     . `.  .   &.]..                     O Y 5 @ O l A D.@   2 U O                   - o o + X ^ X + . U O . ",
"3X& NX-.-.} '.1.2.;   # $ ;     X   )..     . 2.+   Y +         X O @ l @ V k @ B f.O                 , V 4 X     .   sXo     U   % . o $ : ",
"4X/ eX} | $ 0XR 2.[.X ; . E       ; %       % U X   .   X         Y = H @ , C V X O   O > O O O O O   X X . = A V @ . LX  +         + &.).& ",
"qXBXHX#X=.9X- O   i . 1.T .   + - i .       `.-               , C 4 V 4 g 4 4 U 7 @ O   O   O X     O 4 A  XX     + 7 GXo X           E 6 eX",
"{ HXuX7X) $.2 X 6 + . . ^     U   7 o 7   o i   .         X f.D |.O G 3 Y @ @ @ @ 2 V Z B k l 4 2 g l Y ! @ Y +     2 ).% 5 ~ 7 # t   X   $ ",
"z.VXkX9X6X% &.  E . ).  .       + .   + X i       +     O 4 G G N 5 I.O X < D P M g g < 2 g C G M P S.f.C O   X C W @   `.Z   @ ~ Y W Y     ",
"1XrX0X-.8Xi ;   o ).2.o . * . -   * X . 2.            X D.j p.M.F G.> :.f.f F B O > g.@ O   .   X A A u 2 : > 3 I V y.A.fXJ.V   o   .       ",
"@XVX4.=.6.7 1.* . U v .   * 2.o X `.. t &.            3 P U.~.j K , AXj C M > : f.g M.:.P A.P 5 @ @ .     O O k f.u.G.> GX~ ~ + .           ",
"rX6X8 =X8 @ $   6 ^ o .   * $ 2.  .   &.% 7 6 +       L.w.p.> N g I.a.L.X @ I t.^.N u.M.I S.M.F f D.G O           2 , F.GXR W X R   .   + # ",
"VXq -X0Xq o . o [.r .   &.  7 `.  . . `.  o         2 < t.vX! w.M.a.T.: G T.h T.a.~.t.7 @ > g M D H.P J M.>   X + Y O   JX@ X 4   . X     . ",
"X.( 5.hX& ^   T i T E E O   + a . * 0 &             L.t.xX3 A.B.T.r.r.P.z Q.~.W.V.3 h g B B K N 3 D L P y.M ! A : W     LX7 + 2 O # 7     V ",
"[ % 7.-X8.1.1 $ 0 . o . O   `.. 7 . #.          k < G ~.R.! V.AXu.< D.F J.t.y.bXI.cXP.zXxXP.P.C.~.Q.V.S F h S.@ 4 B :   LXX   : k +         ",
"_.&.7.9X] . > 2.#.  o     . 2.. 1 0 .           4 s 5 P.~ @ 4                 g cXQ.p.vXzXxXP.N.e.3 H.m.~.z G A.G > 5 f. X    l > ~ @   O   ",
"eX`.9.8.9.T . 7 &.  O     U `.. O 2.            ~ t.P U.(.                        f DXzXz s r.N.I.p.T.m.S r.B.J.P A B A Y X   X ~ @ 7       ",
"'.&.2.'.#.2.$ 0 0   . # .   #.. - 2.            C V.~ O                           X < N.T.z q.r.i.F H.q.!.r.Z.N > 2 ! R Y @ Y @ @ A > +     ",
"2.$ 9X'.[.. . 3.o . . . o   t % . #.            : ^.                                    z P.P.Q.Q.I.q.f t.t.m.I.i.3 < JXA 5 # @ @ @ ! V     ",
"'.- *X2.*.O 2.8X; O o * X * T i . &             ^ O                                     . G.P.P.N.S T.L K K V.I.I.e.5 GXM.M 4       X Z   . ",
"eXa kX# #.E #.$.. -   . o   T & ; E             O           X o                           O DXP.p.cXxXS M.e.< C.a.T.= 1.7 h.M 2   . X C H X ",
"$.,.0X6 +.r . & + #.  + ^ . % a . a           ^           # XXIX                          . : I.I.P.N.~.I.m.T.s V.S  X|.~   A., O O   F.g # ",
"U 9.8X} ] 7 . % $ #.7 + o 6 E p * 2.          .             (.XX                        O   # R.I.p.f T.N.r.K B.e.N.FXJ.M.  @ D Y < U > ~ 6 ",
"a &.*.*.& T #.#.8X. 6   . R 0 i . $.. .     7 .                                               O ~.P.t.D.G r.S m.V.T.k l I U.{.f.L W X   @ @ ",
"b v _.#.y q 2.#.a 0 E     . . % . $ 0     X   X                                                 SXQ.m.L u.S V.B.D S I.J.s.PXIX  u.> ,     f.",
"& r ;X#.y ).9.$ & 0 . . . 6   a &.  3.T   x.                                                  . w.Q.P.m.L K t.I.S f.W.V.x d x O 2 g.B     > ",
"8 w 9X0 &.8 a   1.5.* &.U   6 <.$ #.[ p   NX                                                    O cXbXP.m.N.e.I.e.g t.V.S y.k F : u.Y O .   ",
"eX2.p 8 8.b $.* . $.$ o .   # . #.#.3.>.7 [.                                                    O U.S xXW.S Y.V.I.D h H.w.r.2 J.W 3 @ I     ",
"( 9.U 6.' $.0 #.i 8 2.-   . o 6 $ . #.6.,.'.                                                    : N.P.p.P.r.f u.~.N.H t.V.i.K h G 2 A.@ C k ",
"<X9XT 9X9 ` + 8 t i $.o i       #.1.& #.4.gX                                                  O O r.p.Q.L q.~.T.P.r.> D U.a.A.@ S.  j   4 X ",
"*X( 0 $ 2.8 [.2.a i 0 0 7   o   . a <.q -XKX+                                                 O l h.B.P.I.~.I.V.B.I.< M i.p.f A P 2   ~ O ! ",
"rX0X6X= -Xp 8X0 8 T o #.o * ; * . . ] 8.y LX  X                                               . x.i.q.P.I.r.r.L w.V.R.H L cXI.@ h B > 4 Y @ ",
"1X*X6Xw a 4.} ' 5.$ $ 8.U i t -   = % #.r kX%                                                 . CXq.q.S V.S C.t.I.a.V.y.> V.V.@ A u.V @ O J.",
">XwX*Xy T y >.0 &.E ' r T a U % o E ; 6 ; ;XLX                                              + l.2Xl.x z D B.cX~.T.vXT.e.5 S.G.g + G.@ U 4 O ",
"+XwX*XrXb @.eX. r #.5.$ a T a * . . % 0 a $ 9XU   +                                       O $ l.l.l.h.S.M e.~.N.^.AXt.T.k D.B.k ~ {.V + X D.",
"wX_ 8 _ 6.r 2.+.).a a `.0 y p r - o X & ] T 6XLXX                                           eX4Xd.z.l.T.j S C.U.r.DXD !.G C T.g F.Y f.  B Z ",
"4X1X1X=.( 6X8 0 2.% $ a 7.$ &.a *   7 7 ; a a gXeXO                                     . 0 { X.l.z.v.V.S h Z.T.M.vXD .XB l K.< ! W D.C + @ ",
"3X>Xo./ q 9X6X4.9X*.y r #.a a $ ' a X   2   X r +.JX                                O   gXjX6X{ o.l.l.MXr.S M.N I.cXA ^.O O vXl G X U..   X ",
"K.,X5X{ @.8 _ 0 9X` $.r T +.r p 8 <.; ; * X % % ; dXXX                                $ tX:X0X/ { c.n.{.S t.D F L !.I vXO + ~.2 L @ K.    . ",
"w ..X.+X+Xy @.( ` q 8Xq . T - q 0 o R o T 0 0 * X 0 KXfX,     X                 O   3.pXoX:X=X .w n.c k.t.M.D N h !.PX!.O , ^.B D.B U.      ",
"1 }.-.O.>X6Xr 8X( ] _.6.r i i & 8.0 6   E o ; 0 r ; p dXKX[.X X                 ' hX;X%XOX#X:X{ 1 c.k.U.N.D S.f.D B.B.!.: : AXg.R.@ r.  .   ",
"l.n.../ O.,Xo.+._.6.$.6.8Xq *.r % -X' a   o E >.7.` >.` pX&XKX9.p . . .   8 =.tXoXOXOX:XtXoX@X..c c.k.z r.G K.~ V.5 H.!., @ ~.(.W P V..     ",
"z m l.| <X{ O.X.8 6X$.q 8X@.4.5.#.% 0 #.2.0 0 ; i 0 >.-X$X$Xq ;X$X&XlXaXjXjX_ jX:X:X%X=X=X*XO.z.c s.q.V.Z.G H.5 |.@ N.M.S.3 mXG.! H C F g + ",
"V.R.c.e 9 O.X.+X;.e & *.b ' 6.$.` 3.8.y 0 0 <.` ` q 9.>.[ q aX$X&XiX$X&XaX=XjX%X:XhXuXhX@XO.6Xl.c.nXh I.M H L < ! F Q.R.I H Z.f.u.Y # 3 4 7 ",
"a..XMX}.e & %.4X/ O.X.= ].. -.5.=.q ` -X4.$.a p 0 ` 3.8.*X,.$.y ;X&X&X&X[ :XpXyXhXhX=XoXwXwXVXz.n.Y.F V.P y.D L . a.Z.y.: I K.mX.X2 @ A.@ , ",
"x Y.U.m m / *.%.>X@X@XX.0 +.i $ 5.' r $.[ 3.;Xa 0 % p 9X' $ ] -XpX;X[ [ [ &XoX#X:XkXtX7X>X4Xz.c.nXh cXU.> a.: /.O ^.a.t.O M.|.j 3   O 3 O f.",
": f.cXMXc.e 6X..{ v.o.yX+X) ( y q 0 5.+.9 *X*X9X8.` ] ` 9.,.dX*X9X3.[ $X0X*X=X7XkXtX#X7X,Xl.l.nXcX, P.f.g ~.w.M.3 h ^.M.O ^.J H.@ O @ (.> O ",
"@ d {.(.nXs.x.z.e 8  ...} O.1X=.%.r w 8 a [ ( [ ] ` ' q q ` +.#.] <.) ) #XuX#XkX_ +XCX>XnX3Xk.bXs x M.f m.^.B.g.vX/.R.M y.R.> S C @ @ @ k . ",
": , > Y.mX.Xd. .o.X.8 / @.v.=.) o.6X` ( 9 & $ $ 8 ' 4.*.[ 4.) 0X[ 6X#X+X7XyXtX{ 1X,XCXz.c.k.nXY.: Y.E.M.S S M.I G.mXI   t.a.! A.+ A.G ! :   ",
"M.5 . D.w.cXMXk.n c o.O.8 _ O./ _ O.9 @.@.@.$.v.-.=.-.-.;.*X*X=X7XoX#XHX1XuX/ 5Xz.2Xx.b.s.MXU.N g.h.B.H.S.V.S.R.U.P.O   mXK.S.U . h h @ O   ",
"a.3 5 O Y.Y.{.n.G.m v.<X/ / e ..{ { X.O.X.{ v.} y ( ) X._ +X@X#X1XuX5X5X( wX,X2X .c.s.n.k.q.t.f.D h.t.g G.K.j f zXQ.    R.I 3 O X H.J.+     ",
"w.W = < , G.U.F n.1 g.b 1 b { w & w z.o.z./ { ( v.X./ / X.1X7X1X+X+X6X1XO.>Xv.l.l.x 0.d.h.a.S.3 S f.y.G.K.T.vXQ.vXw.X 5 j R.<   X K.: 7 X . ",
"< D V.X F.< s I.a.< c.Q x.1 $ 7 XXn v Q w r e ..v.6.) e } <X/ -.6X[ 2Xc n n 0.> /.J k.h.h ~ G.a.S t.t.K.H R.G.DXP   f K C < g.O Y > O     O ",
"N V w.N @ ~ = < vXh W x j.b.J m v : # 1 w Q b } 9 e 8 &.-.) 9 X.wXz.y c  .d.z u.r.b.b.S.y.K.B.C.C B.J > M T.m.vXR > H.@ AX2 J.: O   (.  + O ",
"S.j f..X< 4 H ~ < /.s j.b.d.x.0.n x.0.n Q - y 6X%. .m m l.v.m c.3X .x (.3 H.a.w.U.l.d > Q.R.f G 3 G f.u.K.h.zX> f.> A.> < @ @ R.  O .   *   ",
"K.G.h.: M.3   l k D.s.{.w.D W 1 0.Q ^ Q w v.1 w c w l.x.z.c j j.h.h.w.Y.e.mXN.V.Q O W Z..X< f.< M t.!.I.f cXI   J.S.> ^.X 7 < (.+   7       ",
"@ ~ I P f.O R.> < D u.N f M.r.H SX! C  XY z W v + : s.b.S < d M 3 3 D !.M.f.: , {.z ~.T.< f./.G.< R.M @ T.mX  . |.M.P > + > @ X             ",
". X F.M K.J @ h F.> @ L.: 2 {.|.N P #.^ y.A h d.s.s.W M y.2 : f a.T.V.P I 4 Z S V.vX^.j i.f.SXf !.G.: ^.w.5   f ^.j @ O @ 2             +   ",
"b U X S.G G s B.J.@ W > M ~ B N F y.E.{.J i.d.n x l B u.N y.!.t.z ! D.7 W P : I.cXK F P B.R.G.L g.|.u.f.= O ^ T.E.:   l : +           # 7   ",
"g.> $ +.U FXn x.V x B X V 5 l H : B Y v F K mX|.j.s.}.H ! u.P G + T F.K.3 L.i.Q.r.I N M.!.M.: F.I h.A.O A.f.N N O . ~ O                 7 o ",
"1 x.FXW + f.mX~ E ].b , N < F C 3 H I R g.~.G.L.! S.FX> 4 ! g H v < G R.t.V.E.I.G.R.N R.> @ f.U.z K.: @ G.2 G.. . H O               #       ",
": :   F.2 : F ^.T.S z G.{.O f.K D < ! D G G 6 O     n :  XG T.Y.{.G.G.R.e.e.t.R.= g.R.g H.I.K x A.H W u.F.R.@ ! @ .     X                 + ",
"      O         3 cXvXs < {.k.h.K R.R..X!.i..XJ L.h.|.t.W.cXE.J f.f.T.w.ZXp.B.y.y.cXS.i.I.J : A.I F 2 X @ H.g.              X         6     ",
"      .       k 4 : P B R.f.! +.T P T.h : H.!.K.V.H.U.V.t.P H.!.I.h.z H.~ O @ N f.W N ~ h W L.> F.@ O + < y.                + + +   1.      ",
"@ O O         + O   . X W < O < u eXn.W H j.x z T.e.~.V.K e.I.e.f g.j.f.~ R.M.J x.G F .X+ 5 M.@ O O   @ B f.                                ",
"  O @ k Y Y 2   O     . O : f.O X j.+.z.BX).& n F g J.~ G.I D |.~ 1.4 > t.I W ! A.N D.> f.|.X     O k @ O D.  #                     6 X     "
};
