/* XPM */
static char *_14cf6dbede347e59ab2d342affd384fQXhzf4aG8ZWJ6Etl[] = {
/* columns rows colors chars-per-pixel */
"72 70 255 2 ",
"   c #020102",
".  c #0B0402",
"X  c #020904",
"o  c #0B0904",
"O  c #03040A",
"+  c #0A040A",
"@  c #020A0C",
"#  c #0C0A0A",
"$  c #120402",
"%  c #140A04",
"&  c #1A0806",
"*  c #130D0B",
"=  c #04130B",
"-  c #15120D",
";  c #1A140B",
":  c #020512",
">  c #020B13",
",  c #080815",
"<  c #020B1B",
"1  c #190916",
"2  c #0A1315",
"3  c #04131B",
"4  c #0C141B",
"5  c #081819",
"6  c #141413",
"7  c #181719",
"8  c #250806",
"9  c #37090B",
"0  c #28160B",
"q  c #36170A",
"w  c #280815",
"e  c #360717",
"r  c #271815",
"t  c #231D1B",
"y  c #391716",
"u  c #11241C",
"i  c #2A231B",
"p  c #312710",
"a  c #38261A",
"s  c #020C23",
"d  c #150A29",
"f  c #031423",
"g  c #0B1B23",
"h  c #081826",
"j  c #0C1B2A",
"k  c #141C23",
"l  c #181C26",
"z  c #091C33",
"x  c #141B36",
"c  c #370B2E",
"v  c #271728",
"b  c #351926",
"n  c #291535",
"m  c #3A1836",
"M  c #0B2527",
"N  c #0B232C",
"B  c #132224",
"V  c #182627",
"C  c #15242C",
"Z  c #1B232B",
"A  c #1E2A2C",
"S  c #092837",
"D  c #0C2A34",
"F  c #132432",
"G  c #142C34",
"H  c #1B2A34",
"J  c #192739",
"K  c #142B3A",
"L  c #0F3135",
"P  c #183539",
"I  c #1C343C",
"U  c #282626",
"Y  c #222B2D",
"T  c #352A25",
"R  c #2F322D",
"E  c #39332A",
"W  c #242B36",
"Q  c #362638",
"!  c #24343B",
"~  c #283638",
"^  c #373634",
"/  c #480617",
"(  c #4B1012",
")  c #551817",
"_  c #651419",
"`  c #4E2C11",
"'  c #452919",
"]  c #59371B",
"[  c #653319",
"{  c #550B26",
"}  c #471727",
"|  c #581826",
" . c #4C0D30",
".. c #591534",
"X. c #6B112D",
"o. c #681838",
"O. c #761936",
"+. c #462A27",
"@. c #582825",
"#. c #473728",
"$. c #573828",
"%. c #512836",
"&. c #493A34",
"*. c #573934",
"=. c #6E2D2E",
"-. c #6A2A38",
";. c #79353A",
":. c #21413D",
">. c #5E461E",
",. c #714A19",
"<. c #54452A",
"1. c #494339",
"2. c #574837",
"3. c #664829",
"4. c #754828",
"5. c #674B39",
"6. c #764D32",
"7. c #6B5737",
"8. c #775638",
"9. c #79643A",
"0. c #361D47",
"q. c #0A2B43",
"w. c #152C44",
"e. c #0B3342",
"r. c #0A3947",
"t. c #143746",
"y. c #1C3343",
"u. c #1C3944",
"i. c #1C3C4C",
"p. c #0A3956",
"a. c #193C54",
"s. c #242A48",
"d. c #34284F",
"f. c #263946",
"g. c #353C46",
"h. c #293A56",
"j. c #393B58",
"k. c #353661",
"l. c #511549",
"z. c #6D164F",
"x. c #4D2E51",
"c. c #472A58",
"v. c #72304E",
"b. c #4A3666",
"n. c #6E356C",
"m. c #0A444C",
"M. c #18444A",
"N. c #0A4554",
"B. c #1B4554",
"V. c #184959",
"C. c #0F525C",
"Z. c #1A555B",
"A. c #284647",
"S. c #24444C",
"D. c #2B434B",
"F. c #384549",
"G. c #284756",
"H. c #234B5B",
"J. c #354A57",
"K. c #295359",
"L. c #38555B",
"P. c #11506D",
"I. c #195668",
"U. c #284C65",
"Y. c #354B64",
"T. c #275867",
"R. c #375968",
"E. c #345A76",
"W. c #156170",
"Q. c #176678",
"!. c #296369",
"~. c #296677",
"^. c #376576",
"/. c #3A6B72",
"(. c #4E4C4E",
"). c #554B46",
"_. c #6F4A4A",
"`. c #675849",
"'. c #775645",
"]. c #6A5855",
"[. c #736954",
"{. c #4D5069",
"}. c #6D4D6D",
"|. c #45626A",
" X c #59666F",
".X c #486877",
"XX c #717174",
"oX c #972F1B",
"OX c #AD3C1A",
"+X c #8C1638",
"@X c #8A2E32",
"#X c #AA3331",
"$X c #8C5215",
"%X c #BC441D",
"&X c #A86E18",
"*X c #8A4F33",
"=X c #B3522F",
"-X c #916B33",
";X c #AA7133",
":X c #CA6337",
">X c #8D154B",
",X c #A7165A",
"<X c #882D4E",
"1X c #A83552",
"2X c #8C1966",
"3X c #943B6E",
"4X c #A53365",
"5X c #C7285D",
"6X c #8F504B",
"7X c #B15150",
"8X c #856648",
"9X c #906F4F",
"0X c #AC704F",
"qX c #935367",
"wX c #A94D69",
"eX c #936D6E",
"rX c #AE6C71",
"tX c #CF6C50",
"yX c #D95D64",
"uX c #D3706E",
"iX c #BC8417",
"pX c #B78531",
"aX c #D6912B",
"sX c #93835A",
"dX c #B49051",
"fX c #8E8D74",
"gX c #B58F74",
"hX c #D28A52",
"jX c #E1A052",
"kX c #D58C69",
"lX c #F1CB4F",
"zX c #1F6C8C",
"xX c #197386",
"cX c #286883",
"vX c #2E738B",
"bX c #226491",
"nX c #754A8E",
"mX c #507489",
"MX c #676792",
"NX c #957389",
"BX c #AE6A8C",
"VX c #C9798A",
"CX c #DB7DA6",
"ZX c #3B8591",
"AX c #518694",
"SX c #678B9E",
"DX c #5596B3",
"FX c #9E9F9A",
"GX c #AEAC91",
"HX c #DA8E96",
"JX c #C4BAAA",
"KX c #E9CF9F",
"LX c #D4D1B6",
"PX c #8DA4C7",
"IX c #F4E8FA",
/* pixels */
"O @     : 1 j.b   @ K.A.x > e.h.B.> O O z V.N.S l.8 w Y.3XwX4X>X+X1X0X6X6X( 9X8 & y U b *.eX'.2.'.9X_.@.=.uXrX@X1Xz.{ }.4X4Xv.n.1 |.  @ h.mXJ.O ",
"O O     , (.+ U @ ~ G.h C L J 3 4 + 1 S.Y..XR.m n.}...,Xz.1X_ wXwX6X6X( 9X'.2.e r v &.9.9.q - + 1.].&.& y q 6XVXrXVXHXBX_ & qX'.qX} {.O - D.Z G.",
"@ O     # NX$   F.f.S.f.w.V.@ 5 + : {.I.U.MXl.z. .-...5XX.1Xw *X*X6X6Xy U Y i 9X;X`.*.8X;XkX-X9X5.9.7.7.5.8X8 ,.7XkXuXVXrXNXx.q wXrXb 1 X v O u ",
"7     O A.W +.B.5 u.O .XN X > @ D.Y.b.MXc.}.w } } +X+X/ / =._ rX( 8 2 $ 9X*X& 0 #.$.-.y 1 . &.'.'.6.9X-XhXtX*X=.=.dX7X1X/ =.eXz.3X3XX.eX<X-.x.X ",
"H       2 @ Y K K.u.M.< X F.3 J.h.cXNXd.m y 9 >XO.+X+X@.9 ) 6.b +.' -X7.q ' '.*.y y * #.+.#.*.[.#.9.$.7.& q 0 6.8X6X) =.| -.7X0XkXVXqXz.qX6X%.v.",
"Y       O f.FXA J O 2 g :., G.{.^.E.0.c e & O./ 1X3Xy 8 9X'.; ] r 3.0 8 ` ] y & 2.q T v r E O $ 2.T $ 1.^ . # 7 p * <.9X$ } v.} / gXrX{ rX+.-.w ",
"4       l MXv s @ R.  H = s Y.{.MXd.x.6X@.-.X.+XX.y | _ 7X& 2.eX>.} 8X[.+ 0 *.a 9.2.#.$ . #.2.o o O + 6 . . . &.% &.6 6 0X'.0X<X;.O.1XwX2XqX6X-.",
"  O B . ~.! x.Z.g , k I s P.z n.j.m v...%.4X>Xo.+.'.y 0 4.0 +.$ r ' 8 2.& #.- . . #.#.% % $.8X3.0 r 2.o T o   *       O ~ 1.o +.;.@X1Xv.6X;.v.l.",
"    4 5 T.E V G.g.< k < /.a.n.U.m o.e { +X/ ;.8 8.( ) 9X9X&.`.r <._.$ a t i . &.& a 9X. + . ; . 0 &.#.0 a [.; . . ^ 6 . 2.5.7.sX=.;.0XwX} =.VXNX",
"  O : vXF ].C : > D J./.f f d m c { 8 v.@XO.( _.5.] ( ` 2.# y #.a o T i i 0 $.5.8 0   <.#.- O +       . T ; ^ U )..   i `.0 <.[.8.sX$.@X+X_._.<X",
"O   G vXx v M R @ I s.s W c.g.-...8 ..X.@Xo.& $.$._.8X#.' $ i 5.' $ o 0 $.2.$ ; . E 6 7 .   X . . O o % ^   o v 1.).o . O . X a * R 3.8 @.6X$.6X",
"+ X j s J.> X @ L.C {.h.x 0.b <XO./ ..yXX.@ $.y 5.4.p r r y 7.. r '.#.0 $ - . ^ .     + + . * % +     . ^   . . o . . 1.7 X O o i 2.. [.$.@X7X8.",
"O W R.< {.g Z M : h w.{.d.x.7 / 9 @.} O.0 ].T 8X8Xy . T #.7.r a T i o 7 i   . i . . + o ^ X   #     O   O &.O   . . ^ T o . T r O + 6 8 =.#.v.@X",
"O < f.{.: < 4 ! < a.F d.b.7 b / | -.+X) +.. ' ] q i U #.a $ y T T i %     .     6   U 6 . . # O . U .     . o - -     . E ; r U T   O   ; $.*.>X",
"f.+ I j.S.G l B {.m.W c.n + { / +X=.6X} t -.6.4.&.i & i a <.a a i i 2 o   . # 6   . 0 E % E i t #.`.2.`.. 7 o 2..           ^ % . 2.; % X # ).*X",
"  > Q j.K C A k |.H 1 n Q 4 w ../ ) O.y $ 5.=.5.0 ; q q % a ; % * - * .   6 + <.a & i p a & p % . .   + a `.2.. 6   U       . o . 2.& . X o   r ",
"o u T w.D < : S N SXx.n v XX& { X.| %.q 5.=.` #.0 6.0 8 ` - - + .   . o #.$ #.% &.%   - . 7 . . * + 1 7   .   .     . -   X         * 2.$ O + r ",
"J.eXP R.> H l y.H P U b.: c w { O.qX0 0 ' y >.% '.q X <.p . . . ^ # . a <.. #.&.. . $.*.a a 8 E 2.2.0 . *   $ `.;   7 i - .         # i o &.. $ ",
"m n.R.R.f.I A ^.E G Q m 2 v o.O.9 ' 9 5.t ` 8.0 a ; R ; @ 7 . o ; % ] <.& #.3.[ 3.0 o   . X       . o #.q . .   O   . . * ).      O     . U $ [.",
"v.x 4 .XM R v {.&. XQ n , m o.O.) ( 8 +.$.-Xq #.a X o ;   7 % 0 - #.8.p #.4.$.i i O                     & `.^ i + o 7       `..           * . o ",
"BXJ + !.F D.F G y.Y w Q 1 w v.X.@.q a 9 [ 4.0 2.. E E # * 1 ] T ; 7 y -X4.,.1 O                             % &.1.            . T o 6     . 7 O ",
").J.H.h.A ~.w.f.F z v.; d.w / | _ % =.4.3.$.q 0 X . 0     a T & -XjXLXKXgX[.[.eX).                        . 7   O p *     O O * . ; # .     . ).",
"& x !..X4 G.mXd.h Q ; y y e { v.$.& ` *X;Xi $.0 #.; 0 o O a '.9XLX% + O             7 O                     7       p `.&     6 U . ; . 7 .   . ",
"n z H.J + J.|.n s.v w 6Xb ..{ } -.$ [ 9Xa p ] ; <.0 % % p gXLXT +                 O .   ^                           O - i 2.&.i o   6 ; o   7   ",
"Z T.B.Y.  s.h.l y., c -.9 _.;.y -.8 [ 8.0 0 ` 0 7.r o ; +.eX@   . .                       O ^ : Z ! 4 k                     ].# .       - . U   ",
"g t.H.i.  i.s.V s.: 1  .y v.X./ -.' ` ` . ` q p ' ; ; dXJX    +                           O   ^.N.i.< <           o O   .   o U   . . 1.(.1.;   ",
"J.~.U.|.Q FX}.l W s.m c 8 ) / { -.4.y $.p 3.9.] >.p KX].                                        ~ P 3 L R.>               U   . % U         &.].",
"! V.V.t.> @ H u.F b.b. .%.9 / =.=.3.q ` 9X8.3.-X` dXFXX                                         O Y.P.~.u.< L.4           @       * &..   O O o ",
"G.K t.I. Xg ~ N f.N z.l.-. .X.) ;.$.` 9.' ,.` $XpXKX,                                             (.~ T.vXr.w.K F.O     o     O   + 7 1..     . ",
"y.e.I ~.G ! t.y., s v v.} @X1X+X@X,.' ,.% $Xq $X&X[.                                                @ ! = vXm.U.N 3 O             Y     T r . . ",
"G I.H.~.T.h P !.: d l  .9 / 1X@X*X` +.dX` >.aXq KXX X                                 {.XX          7 V.G.P > ~.p.F ~                   R U     ",
"|.e.!.J Y.H H t.s N j.c.o.-.7X#X7X0X] *X8X( $X;X9.X                                   fXIX            AXV.w.N j M.F D >                       o ",
"^ 3 W.s.{.Z : N a.f h.3XwX6X+X@X7X4.$.0X;X;X$X$Xp                                                     t.T.M.h K F M |.Z O               o   7 # ",
"F.d.G.f.H., b ~ T.3 h.} -._ ,XyX@X*X<.3.;X&XiX&X.                                                     , r.i.I.> G.M   2 A O         O   t O +   ",
"4 J.z K.J.K F.D.V.D w.n b <X7X5X#X+X` [ ] $X&XlX.                                                     D.q.T.a.AXO I.G V @ @               7 U   ",
", ! H.u.R.Y.K.7 I !.Y.k.c c 1XwXkX+X) OX,.&XiXaX.                                                     F I.O |.h P > 3 5 P k O           #   6   ",
"y.! ~ ZXr.t.f ~ H M.t.> m n o./ 7XyX<X;X[ [ :XjX.                                                     J.z K @ C f.X Y k + @ O             6     ",
"P R.O N.e.V.J.H 4 M.mXK.d.n >XwXuXyXuX@X;X=X&XjX8                                                     t.Q.T.O M f > @ 4 2 Z A             U o U ",
"! M.@ B.t.E.i.: Y : a.p.z l.x.,X/ :X#X=XoXaXjX[ =.                                                    u.~.j I = F D O 4 Z l 2 X           .     ",
"H K B s.T.U.Q.I.S > V.w.y.< z.2X5X_ kX7X%XyX%XhXtX                                                  g bXP.I.a.O u u.O V V O : ! O         t     ",
"D.g.u.y.> H.r.xXV.{.%.h.t.^.l. .z.4X_ uX:XuXtX:XoXa o                                             O cXQ.V.t.^.f.O M O 7 O B > X g.          .   ",
"C J W ^.f.|.W G vXS O c.b.w.x c.2X,X+XtXjXhXaX:X=XhX  O                                           s W.bX< ~.N g > u 2 @ O ~ l O > XXO     . X 6 ",
"D.G N B.R.g j F ^.~.W , c.k.d.w.c.HXCX#XtX=XtX:X%X=X,.. O                                       O DXp.P.h t.S.M.D.g l O   O A   .     6 6       ",
"> .X! f.4 /.M.u.j U.I.: S.k.h.n.b.z.2X1X0XoXtX=X=X=XiX&                                         m.zXZXxX4 u M.:.@ < Z O O   A.        . o U .   ",
"f., f T.V.> !.B.u.3 ^.~.s.4 h.k.s.b.nX,X>XwX=.=XtXOXoXyXgXO O                         O     O x E.z xXzXC O I P O 2 B O >   + J.  O       X   . ",
"|.= W J T.@ B.R.f.f.h R.K.f.i.J nXk.2Xl.4X7X+X6XoX#X:X%XjX0   O                         . O a.P.f f xXP.l > i.:.  g l   @   O B     O     X * # ",
"O M.L.: P f.: G.SX^.f.f B.G.S.m.k.nXk.l.z.VX6X;.@XtX&X7X6X) NX$ O                     # > DXP.W.e.e.P.P.G h M.P   C B   O   2 2   .       .   * ",
"  O @ M.x Y.A.P f G.> G C.t.3 i.z E.bXnXb.z...X. . . .{ { X.,Xz. .> O   O             R.I.P.p.xXr.C.N.C.j B D u   H 4 O   . V k     O       O   ",
"    F.u.D.j y.~ !.3 G > F S S S D.O < cXnXn.b.c c 1 w  .X.l.d.l.2XCXx.l O O O O w.SX~.I.I.p.N.W.i.I.q.!.3 D 3 @ @ N 4   O   O k         # O   (.",
"O O @ F H K.h.|.G.^.y.D B.P f.G.H.Y.q., d b.{.0.c.c.n.l.0.z.z.z.l.x h.a.t.p.T.bXxXcXN.a.W.cXS U.F p.< xXD H.D.O A P 4   O     Y         6     o ",
"k   O 2 I , :.t.O g T.S.J M.t.t.S.T.M.P.cXx h a.k.b.0.z.l.v.0.h.x q.e.B.p.P.S bXN.p.m.h N.xXT.q.V.!.H.V.L P G O A A.k O       V       O   . . . ",
"O #   O ! @ O f.^.@ W.I O J.G.h G.B.5 u.V.V.T.V.z U.k.cXMXS.T.S.z q.C.P.Q.N.xXP.m.S f.!.Q.S e.g q.m.m.D P J O   u A.A 4 O ,   o O     .       i ",
"O N > O J.S.g.= w.~.f H.M W Z.G.h.S m.k : P g Z.r.N.P S r.S j N S m.I.T.e.P.I.m.S f.G N.I.M.G e.T.e.~.N u.M.    2 C ~ A   Y   X W   7 6 . Y # ).",
"g.f.I G./.> f.: 5 .XvXh.T.T.T.K.H.K /.Q.a.f.G L J F M.t.S h S e.N.S t.cXq.r.S B.w.S r.m.p.e.K t.q.r.z g B >     @ O @  X  4   O O 5   o .   t . ",
"O     D.O D.z ^     H zXm.G.vXl M.M.B.t.: C L K.H.S.D G m.I.Z.~.~.P.q.I.~.f T.L t.V.S S T.f Z.m.V.G.A S.!     O > O Y . >     U   # o 6 #     $ ",
"#     X ~ O N !.3   O > vXDX~.f R.I g.m./.S , f ! f.N F N T.T.r.vXt.S Z.K.M.V.Z.I.V.t.V.s C.V.I.D K.S.@ A O   k > O @   A         X 7 U U X . LX",
"  .     @ . + E.^..XJ.f.R H vXxXT.H.cXs O . ~ |.V.N h L !.V.e.E.I.T.t.B.P.cXI.S D D V.e.C.a.I.t.@ H F k :     f.I A     V           @ . . ].fX. ",
"        O W O > g M.G.> # O K Q.I.mXvX4 ^.a.F : g B.!.!.~.vXDXAXvXa.V.I.q.C.D h u.S T.V.S I.e.5 5 H > g W Y 4 i.V H O @ @ .   R o X o GX[.- + . ",
"          O ~   @ t.@ f.H.5     O t.R./.a.V.Q.N.Z.M.PX:.C D N t.R.B.L.< @ H N e.W.T.5 FX X= u > s.C 5 : O   , G.t.@ # 7 O o % fXJXE . . # $ + r ",
"            O 7 @ @ ^.> > L 3 O   o 5 V.u.y.R.M.~.!.!.vX^..X!.T.r.t.H M F t.H.V.V.J.V J.|.1.GXJXp A f.  .   F.= f.. ).GXLXsXo . + v XX+ t U Q T ",
"              < O O O 3 AXJ j Y.mXu.t.# @ : P M.: + O O # k G C 3 > K M.I.V.w.e.z y.y.M.~ l i.Y P Y  XLXLXGXGXGXfX`.% # X . . . r o ).1 & & O . ",
"              O 2 2 B @ # > /.P K.M.R.^.M.P H 3 @ : , O > l F D.G.V.~.p.i.s.e.y.d PXk.O   S.N 5 = X O O 7 @ ^ A.L.V 5   X .   7 ^   R GX. XX  T ",
"                  @ < @ J.D.: < S.I : J |.J.I.mX^.mX^.^.vXK.T.B.H.V.T.3 D.L 3 l x IX}.> A.5 7 O Y o     @ o Y ~ V   ~   X . O * i   . & ].i   fX",
"    #               (.L.@ O   O v A.D H.j mXf.D.L.F.B 3 l > 4 g g X @ H > h J.N O @ u.N < 4   @ @   l : 2 4 O     # 4   . U ^     . 7   O Y ].y ",
"                  .   O O Y O   + O Z @ 3 .Xu.! ~ L.G.G L ! J.R + A g P S.H Y : 4 u.G Y X   . @ O ! , B O   R + o ~ #   .   o . 1 . U   . # ].+.",
"    .                 O   > K.K.h A.> O @ # W G L @ k @ o Y W J.G.u.M 2 O 3 3 i.f.> W 2 O O   @ A @ ~   o O       A V     o .   6   .     # o XX",
"6   1.    2         7 O (.O : F.5 L O O O @ # Z H.r.H.H.U.F.f.Y @ V O   g D.@ Y B @ O U O   X ~ > 7 @   7 . .     R     . . . # . 6 . . - . 7 (.",
"      6       #       .     7 O @ ~   |.5 ! f H O   . +   V O + U @ 4 ~   @ H O O O   @ g.Z Z B       O O       O U O T &.+ R + . E + R       ^ ",
"      .     7 7 .     # o O X   O O k > O O 3 4 .   O     O B X 5 @ Y O 4 C   .     + ~ g H         @       o   O     * ).$ O # ).. ).. . O   $ ",
"O         .           O O O         O O f.# 7 +           @ A D.O J.@ ! O 7 O   = f.@ 6 # X O     .     i @ @     . $ eX& O   U   ; v * .     7 "
};
