/* XPM */
static char *ff896acc8b1843a1ebfb3e07f7048fbaMMf6RgjqpFVOddMf[] = {
/* columns rows colors chars-per-pixel */
"70 72 256 2 ",
"   c #020102",
".  c #0B0402",
"X  c #020904",
"o  c #0B0904",
"O  c #03040A",
"+  c #0A040A",
"@  c #020A0C",
"#  c #0C0A0A",
"$  c #120402",
"%  c #140A04",
"&  c #1A0806",
"*  c #130D0B",
"=  c #04130B",
"-  c #15120D",
";  c #1A140B",
":  c #020512",
">  c #020B13",
",  c #080815",
"<  c #020B1B",
"1  c #190916",
"2  c #0A1315",
"3  c #04131B",
"4  c #0C141B",
"5  c #081819",
"6  c #141413",
"7  c #181719",
"8  c #250806",
"9  c #37090B",
"0  c #28160B",
"q  c #36170A",
"w  c #280815",
"e  c #360717",
"r  c #271815",
"t  c #231D1B",
"y  c #391716",
"u  c #11241C",
"i  c #2A231B",
"p  c #312710",
"a  c #38261A",
"s  c #020C23",
"d  c #150A29",
"f  c #031423",
"g  c #0B1B23",
"h  c #081826",
"j  c #0C1B2A",
"k  c #141C23",
"l  c #181C26",
"z  c #091C33",
"x  c #141B36",
"c  c #370B2E",
"v  c #271728",
"b  c #351926",
"n  c #291535",
"m  c #3A1836",
"M  c #0B2527",
"N  c #0B232C",
"B  c #132224",
"V  c #182627",
"C  c #15242C",
"Z  c #1B232B",
"A  c #1E2A2C",
"S  c #092837",
"D  c #0C2A34",
"F  c #132432",
"G  c #142C34",
"H  c #1B2A34",
"J  c #192739",
"K  c #142B3A",
"L  c #0F3135",
"P  c #183539",
"I  c #1C343C",
"U  c #282626",
"Y  c #222B2D",
"T  c #352A25",
"R  c #2F322D",
"E  c #39332A",
"W  c #242B36",
"Q  c #362638",
"!  c #24343B",
"~  c #283638",
"^  c #373634",
"/  c #480617",
"(  c #4B1012",
")  c #551817",
"_  c #651419",
"`  c #4E2C11",
"'  c #452919",
"]  c #59371B",
"[  c #653319",
"{  c #550B26",
"}  c #471727",
"|  c #581826",
" . c #4C0D30",
".. c #591534",
"X. c #6B112D",
"o. c #681838",
"O. c #761936",
"+. c #462A27",
"@. c #582825",
"#. c #473728",
"$. c #573828",
"%. c #512836",
"&. c #493A34",
"*. c #573934",
"=. c #6E2D2E",
"-. c #6A2A38",
";. c #79353A",
":. c #21413D",
">. c #5E461E",
",. c #714A19",
"<. c #54452A",
"1. c #494339",
"2. c #574837",
"3. c #664829",
"4. c #754828",
"5. c #674B39",
"6. c #764D32",
"7. c #6B5737",
"8. c #775638",
"9. c #79643A",
"0. c #361D47",
"q. c #0A2B43",
"w. c #152C44",
"e. c #0B3342",
"r. c #0A3947",
"t. c #143746",
"y. c #1C3343",
"u. c #1C3944",
"i. c #1C3C4C",
"p. c #0A3956",
"a. c #193C54",
"s. c #242A48",
"d. c #34284F",
"f. c #263946",
"g. c #353C46",
"h. c #293A56",
"j. c #393B58",
"k. c #353661",
"l. c #511549",
"z. c #6D164F",
"x. c #4D2E51",
"c. c #472A58",
"v. c #72304E",
"b. c #4A3666",
"n. c #6E356C",
"m. c #0A444C",
"M. c #18444A",
"N. c #0A4554",
"B. c #1B4554",
"V. c #184959",
"C. c #0F525C",
"Z. c #1A555B",
"A. c #284647",
"S. c #24444C",
"D. c #2B434B",
"F. c #384549",
"G. c #284756",
"H. c #234B5B",
"J. c #354A57",
"K. c #295359",
"L. c #38555B",
"P. c #11506D",
"I. c #195668",
"U. c #284C65",
"Y. c #354B64",
"T. c #275867",
"R. c #375968",
"E. c #345A76",
"W. c #156170",
"Q. c #176678",
"!. c #296369",
"~. c #296677",
"^. c #376576",
"/. c #3A6B72",
"(. c #4E4C4E",
"). c #554B46",
"_. c #6F4A4A",
"`. c #675849",
"'. c #775645",
"]. c #6A5855",
"[. c #736954",
"{. c #4D5069",
"}. c #6D4D6D",
"|. c #45626A",
" X c #59666F",
".X c #486877",
"XX c #717174",
"oX c #972F1B",
"OX c #AD3C1A",
"+X c #8C1638",
"@X c #8A2E32",
"#X c #AA3331",
"$X c #8C5215",
"%X c #BC441D",
"&X c #A86E18",
"*X c #8A4F33",
"=X c #B3522F",
"-X c #916B33",
";X c #AA7133",
":X c #CA6337",
">X c #8D154B",
",X c #A7165A",
"<X c #882D4E",
"1X c #A83552",
"2X c #8C1966",
"3X c #943B6E",
"4X c #A53365",
"5X c #C7285D",
"6X c #8F504B",
"7X c #B15150",
"8X c #856648",
"9X c #906F4F",
"0X c #AC704F",
"qX c #935367",
"wX c #A94D69",
"eX c #936D6E",
"rX c #AE6C71",
"tX c #CF6C50",
"yX c #D95D64",
"uX c #D3706E",
"iX c #35817D",
"pX c #BC8417",
"aX c #B78531",
"sX c #D6912B",
"dX c #93835A",
"fX c #B49051",
"gX c #8E8D74",
"hX c #B58F74",
"jX c #D28A52",
"kX c #E1A052",
"lX c #D58C69",
"zX c #F1CB4F",
"xX c #1F6C8C",
"cX c #197386",
"vX c #286883",
"bX c #2E738B",
"nX c #226491",
"mX c #754A8E",
"MX c #507489",
"NX c #676792",
"BX c #957389",
"VX c #AE6A8C",
"CX c #C9798A",
"ZX c #DB7DA6",
"AX c #3B8591",
"SX c #518694",
"DX c #678B9E",
"FX c #5596B3",
"GX c #9E9F9A",
"HX c #AEAC91",
"JX c #DA8E96",
"KX c #C4BAAA",
"LX c #E9CF9F",
"PX c #D4D1B6",
"IX c #8DA4C7",
"UX c #F4E8FA",
/* pixels */
"      6                     #   g.X O l O       |.f.3 D.N D.I ! I t.: 4 F.^ |.L y.G.! J.g F n & `.VXz.m J.  + f.:   . O     O 2 W Y 4 @   X ",
"                                A.j @   O O @ M.3 + .XN L x.J M.R.W f.F.d.3 r.I.e.K H.~.t.T.z J J.J x n.eXu > O < ! X X O   O       O O X : ",
"      1.X   X                   y.>   + , F.> Y.W f ! N J u.B @ O ~ H.z G.I.!.H.I t.Z.U.H.V.H.T.H., 2 R.I T +.I s.|.g H : 2 k       .       ",
"    6       + +               F.H.:   4 C P A.@ K Z.f.H.^.y.y.B.N.AXy.T.f.d.J !.vXI.t.R.f.Y.I .XB.T./.R.E.w.h.j.{.< s bXvX3 .         O O   ",
"                  +       @ ~ @ /.g.f.J H A.x I I.Z.3 R.g.@ E.t.e.e.R.K.V.{.Y.T.G  X< n O   O 6 A D N f.: D K S.: (.G.F D R.~.l : > A.# , : ",
"      2               @ W . . G.< A.@ : K.N U.u.> : /.N R.H.U.!.H.t.Y.G 2 v H h ! 4 @ GXh.! J.h.!.g.R y.K < C H < N , b ].E I NXf.@ ~ BXx.1 ",
"+ 7                 X ~   O N z f.D.  A.h.I g.@ M.T.M.N W r.Q.i.L.f K.F.m O H P u.~ H }.s.g..XMXK K l Y B : H k h Y X M C V x.n GXW +.$ @ F.",
"  7 -             < 7 + : E.T.^ O = f.u.|.g.e.S.|.B.I Z K cXI., H ~ 7 A.! j t.!.I D P B C x n d.f.K {.|.y.x N B I g > W > A.G.f A K S.. U T ",
"  .             2 : @ = j vX4 X = q.^.> G.!.f DXf.f.z ~.bXB.D Z 4 H P Z.T.a.f O 2 s.N W s.s.d.h Z I &.#.! N |.{.2 : J.@ , F.h @ J K.g g.X   ",
"          + X @ 2   > P M.|.    MXE.@ g R.< G..XS.5 U.~.q.{.> : I B.!.D 4 g N d s S b.s.: , v W z V  XG I DXJ r.B.f N y.D > , R.: f.I A.~ @ ",
"      7     (.< l X E.> S.J.  ! bXf !.I.t.L > y.f ^.Z.W O %.V.a.MXw.Y.w.h.h.j.d c z.x. .1 c w - v.6 Q Q n x.1 Y N w.{.s.D.g B   > M.: f.G.K.",
"  *   O   O L.O @ 3 > f.> g.> xXf.H.I S.S > H f Y.~.> < l.U.w.p.H., J.n m <Xc.c _.l.0.}  .%.6Xq w Q n Q x.v 0.c.d.{.j.s /., ! H h < .Xf.j A.",
"+ +   (.  @ > J.2 SX> H.: R bXN.T.h > J Z.F C.B.K.s.S.c.k.t.y.z d.m c c O.qXX.e | -.%.8 y 9 } b &.w , , : v m n x.h.l W h iXs @ ~ @ N t.C z ",
"O X     > W X D.> F G 3   H FXG.!.H L.t.L S t.H.! 4 h.k.s.^.< l.n n c <X@.qX-._ <X .e ) 6.v...e w d Q v v XX4 + k x.0.c.s a.I.s , D.X V.L < ",
"O   7 : K.  X , R.j 2 X t.xXQ.bXT.K.G.y.f.S 3 S.i.Y.h.d.x  .z.x.>Xo.1X@X+X+X5X1X1XX./ / X.v.{ | / -.o.z.e 1 w { b 1 b F.d n.K Y.G.< < = W q.",
"X   O J.H.  O < P R.  X Q.vXf l K.G.h t.h.S f.t.w.k.n.w.c.l.2X,XwX/ yX5XuX1X*XoX@X) _ | y e } v.{ X.O.X.{ { ..y / / <Xz.m a.n.{.{.J.X 5 3 h.",
"  + @ f h . Y f.K.MX+ X I.T.R.S.H.f.H.G.H.D.z k.mXs.b.c.2Xz.5X_ uX#XJX#X@X7X;X@X@X;.-.=.-.-.-.@.X.@.@.( O._ / O._ 9 o.X.v c j.NXvXs.h.+ 4 B.",
"  O ! G A.O A.I a.u.X P MXa.y.M.S S M.R.Y.X R.mXk.b.n.ZX>X,X/ tXCX7X#X+X*X[ 0X[ 4.$.3.4.' 8 $ $ & q ( ' qX@.| -.-.%./ 8 | o.} d.{.nXY.: + : ",
"O k @ X : Z D @ R.t.g R.bXvXg.B.^.m.h M.x : vXk.n.n.,XZX>X_ lX#XyX#X` ) 3.@.$.+.' ` q p ` [ ] ) [ a & 8 0 @.X.6X+X) ....8 e v.x.s.BXb.{.d X ",
"O @ |.  O > G.H /.X B.^.h s M.w.~.j u.P.< nXmXl.z.,X=X@XuXjX=X7X@X0XOX[ 3.dX*XfX,.8.` $.` 8.8X-X@X9 @.5.0 9 ' } { O.yXo.v.{ ..qXb c. X!.A.  ",
"g.O 2 X   3 h |.B.O u.i.^.X /.: a.: V.vXh mXb.z.4X>X7XtXkX:XOXoX;X[ [ [ ;XaX*X` $ ` 9Xp o 0 p ;X3.] $.r ' 5.$ y +.0 X.@X<XO.| @.y c x.U.U.z ",
", X f.@ 2 .XMXG.G : y.I.a.+ S D h.H V.J Y.n.z.CX7XwXoX=XjXuXyXsX:X[ &X$X&X;Xa >.$X8.8.>.` p q a $.4.-X` q =._.*.. ].X o.+X/ 4X*.& e }.NXMXV.",
"4 4 < # W u.f.T.P I R.Q.C ! > L G M T.s MXl.l.7X+X=.jXyXjX:X%XkX&X:XpX$XpX&X$XsXq [ 3.-Xq ` ` <.q 0 p 7.3.` $.6.' a +.1 y @X>XX.O.e e 0.Y.V.",
"O 4 H C G ! K.MX2 :.B.N.: |.3 K.L V.V.w.0.c z.-.6X=X=X=XsX=XjX[ kXzXsXzX$X,.;Xq $X,.-X<.; p ; 0 r 2.#.0 & #.6.4.@.8Xy @.6X8 X.O.) >X} z.0.z ",
"    . B.L W L.^.@ , ~.Z.g V.~ K.F m.N j.0. . .6XoXtX:XOXOXoXtX=.9 o . . $ p [.LX&XaX' >.` 7.] E o o a a 8X8 0 *.q 8X8.$.6._.+.o.1Xo.e  .n.l.",
"  .   a.@ R.F.MXO O T.M.B.D f.S.F N.U.k.c.d  .:X#XoX%X=XjX' +                 X [.LXfXa t 0 p ; . E X - 0 6.; i i 0 6.*.$.( 8Xy wX+X+X-.}.w ",
"    + V.B A.k /., O !.IXT.h N D i.w.k.c n.w / ;X:XOXaX3.  O                       + GXLX; o % 0 0 E o T . 0 q - T . y 8X( [ y ) e +X+Xo...w ",
"    . H.@ K 2 ^.@ @ iXA.I.D G K t.S E.n.l. .{ 7X%XtX%                                  XfX; % % X o ; ; <.8 0 p #.T r #.' 9X0 _ 8 | { 1X,XJ.",
"X     U.X L l bXO # ^.A vXI.N m.S r.NXl.l.o.{ 6XkXhX  O                                 KX#.t X   # + + a ' o p a #.r a $.9X4.0X6Xq / X.>X3X",
"@ O C F.W ! < K.l M .XN bXM.T.Z.h S H.x.z.l.X.| r +                                       eXhXa a ; 7 6   * a *.$ 5.a % $ #.0 & 8X( =.4X1XwX",
"A B X f.Y F.k T.F G !.N FXL T.I.S j T.l.z.d.,XrX  O                                         PX6XT ] % X . 6 r p a 0 `.y a ).+.2.0 8._ w { 4X",
"D.@ + Z J.Q g B.D.l T.t.FX^.r.~.S N S.h.o.l.l.1                                         . O U 9X$ a 0 % . . * a T a $ 5.#.0 . eX$.a rX@XrX+X",
"> 4 U @ G.+ g B.G.2 r.T.bXI.bX~.B.L f x l.2Xl.O                                             + PX-X; 6 - E + # U a T r ' E &.0 $.r +.q *XwX>X",
"J.O X A u.W @ V.V.@ t.V.h.I.P P.N N.q.e.q.ZXX                                               O % kXt #.% *   - t i i 8.$ $ 5.' } 3.T 0 6X*X1X",
"@ A 2 @ B h @ T.~.K F L.V.t.D e.r.W.V.e.a.c.                                                    PXy 9.] .   * 6 * o $.$ T & ; 8Xq -X2 6X7X0X",
"~   ~   5 L A 3 N.B.C < I.B.Z.I.~.I.P.B.a.v                                                     LX-Xp <.a . . o X 7 & r i a 5.[.8 7.$ q ( 6X",
"O 4 O h X S.@ G.t.U.D @ q.P.T.~.q.q.Q.N.t.X :                                                   hX=.<.& #.#.      U o $.i i 8 . ) 0 9XU 9X<X",
"l l @ f.4 C h L s.I.e.H C.~.t.f r.P.p.P.p.O                                                     8X,.6.#.. & 6 . .   ; 5.8 i E 0 $.' *XU 9.( ",
"    ! @ 3 H J.2 L t.H.j L I.V.T.S W.Q.S U.:                                                     [.7 ] 3.#.#.. +     o $ #.. ; $.y '.& p 2.eX",
"    O Y i.: F l t.q.B.t.h L I.L N.N.P.nXvXO                                                     BX  a ] #.$ <.6   i ^ * 6.<.X a & *.0 9X0 8 ",
"3     C g.2 > x d q.a.I.f.S I.t.w.S m.P.Q.w.                                                  . (.  U 3.. #.a . 6 . . . 8 & $ 9.).y $.-Xt & ",
"~     > > I O UXIXf.J.I.S K V.V.K y.L m.Q.DX                                                        . 0 $ % % $   .   E r a #.2.0 e $.'.v T ",
"@ @     ~ G t.{.U.I u u T.N.M.S r.G A.t.N.vXO                                                 l       o $.O i ; U . + 6 X 8X#.#.T & *.*.*.t ",
"6 ~ 3 U , W j + X M.F.GXV.r.B.S p.N.T.h p.T.R..   O                       X XX{.            .           2.* p E 6 o # 7 #.$ & . t $.b 8X9.b ",
"# g g.  + X < D.+ ! |. XS V.s T.m.I.Q.N.W.P.U.s .                           UXgX            ^           +.X a % o ^ .   #.$ & $ r T w ;X4.$.",
"X W C X     2 g f.l 1.X T.a.C.s t.m.S cXvXp.P.FXO                                       O               T 6 8 T X X +   - o <.+.E &.o lXp eX",
"    Z X       4 M M.HXg r.I.V.Z.F K e.T.q.p.N.P.G..                                     O ^             & . r T * X * . + * 8X<.O *.2.*X; '.",
"    V ! @ @ # @ 5 A KX< 5 t.I.N.t.t.h q.V.Q.W.cXP.z                                     ^.O             #.$ % t   o o o . o 3.o . [.'.9X% 2.",
"      2 Y O X W @ Y i f.5 @ N H.e.!.q.H.x i.r.e.f T.t.O                             O ! M.x             2.* o #.X . # . + 0 0 o 2.#.`.5.1.].",
"      4 @ ~ O   X R Y F C P K.G.r.q.m.W.r.I.N.e.h z xXFXs .                       (.Y.L t.~             2.O . `.U         &.r   T 8.8.9.].9X",
"  X   O ~ , l X    Xs.4 > G :.G N ~.m.U.< q.N.P.cXxXxXP.W.vXh                 4 @ ~ I.3 f 4           o 0 1 . 1.. O   o X #.2.: $ ] 9X7.&._.",
"      + o k O   O PX  : B k @ A.h C S V.cX~.Z.T.P.Q.cXxXnXQ.bXy.t.J.F D., t.SXC.! !.~.G < k           #.o 6 . `.    . $ . 8 o 1 2.8.-X7.$ @.",
"U     7 # O 2 O 2 PX    W : A ~ g f.P L D 3 N C z M 4 h < V.P.~.Q.z W.q.r.T.B.G.> bXt.R.            & q *   a + O O ^ E T i T . ^ & jX5.q @.",
"+     X +   4 O X KX  O Y X     > M.K K K.D k h > O u t.~.r.I.j T.G : T.i.M.w.I bXt.< 2         .   `.X .   '.7   &.    r [.. o . q 0X-X( CX",
"X X   .   R O Y R HXF., 2         O O G D.f G M.i.I M.f.N ^.i.I O @ L.a.I.h N > p.w.L.      + 6 6 * &.. $   2.o *   . $ ^ 6   . , 0 *X8 *XrX",
"  +       . X ~ A.HX> G.i.f.k O       O X @ M P :.P :.M.M f.@ > B Z j SX> K j ~.H.I 5           X &.r   `.  . 2.*   o i U . * &.; 6.@X4.CX<X",
"        X o   Z F.gXf.u.V ! 3 > > 2 u A V X         @ g.> @ B x f f.:.: G.G M.p.z D.              2..   * . - . 6   $ 1.).. X ; p 8X=.;XVX1X",
"  + U R A W # . A `.X @ H Z X   O C A.S.P M F H k 5 < h g M P D > X @ I.5 M F G 5 O +   X       i   + X . O       . o ).. E   &.; 6XfXuXCXz.",
".   X   U X 4 ~ 5 % `.#     O W = ! Z l 4 4 4 l k B Z l 5 X O X @ Y < G O |.D ~           .   i *   7 . 7 X U     ^ . o   7   , <.) 7XyXCX..",
"eX; E           X o HX5       X  XV d X X     X O O O X @ 7 U 4 4 M 4 V 2 C 2             X - `.      . i - +   . T 1.. r . O - 9X=.1XCXVXqX",
"+ ).&.+   . +   X X PX  > V A @     X   O O O   @ @ O   X   V V , O P > H         +   +   X i &       * ;       E $ 7 . `.5.R dX$ | } eX/ 4X",
": $ + . %   U   . o dX. .       4 Y 2               O O f.k : k A X V O O           X U   + 2.. +   . ).  +     - . o X 0 2.1.6X} -.=.BX8 4X",
"    T   . @ ^   + X . -             .   O O A 2 @ > f.A l : : 4 Y X                     . ].#.X .   `.      . ^ r T O X 2.7.o 0Xv.7XrX%.qXn.",
"T + + # . .   * 7 . . gXR     U   + X k Y k 7 5 B F.    . O ! X                   O   X U o v 6 *   X       o % U t # i 9.dX#.v.{ 0Xz.9 '.}.",
"+ )..   6 1 . t ^ ; . PX    +   X W             O       @ g.X                         *     . T . T         $ . T   i - 5.=.;.;.( hX3XqXqX8 ",
";   ^ ; . .   . O & U E     O @ 2             .       O XXO                 O   U   * T       X ; .     .   2.1.O o 2.R rX6.@XO.hXCX3XuXm R.",
"v ).+   o U 7 o Q (.XXo o O 7 . X 6             O       O           + .           r ^ .     # 0 # 6 X   + * & 8 @ - . 3.#.0X4X1XrXwXX.b {.  ",
"* . R .       % HX$ .   HXo U - o 6   +   .         . 6                           1.  X ).. 7 o         U 2.o #   ; '.8 @X7Xv.wX{ z.qX1 # > ",
". X . *   +   ].o & r + [.o U # X X   . 6 # X       . 6             X   U +   R T . +   (.* o 7         o $ .   w 3.$.%.+X/ 6X>XrXwX<XX = f.",
"        % + Y b XX$ b . 7 ]..     T     O     + . X U     X t   U 6   7       U r     X &..         * T &.X . o $.#.@X6X_.=.-.wX+.6Xv.r D.SX",
"    . t @ ].].  +   Q . o gX.   7 *   .       + # X X . .   X   +   6 U . 6   + .     ^ ; U 6     t . . . +   ).=._.7X=._.JXv.6Xv.@.x.o l J.",
"r $ ^ (.XXT y gXT . T r # X PXo o ).t o # (.  # o .     6       U .       2 .   . X % ].    . . ).+ % [.$ 6 r *X>X;.7.6X2XXXx.-.w ).@ k G.O "
};
