/* XPM */
static char *_ddb0b24a44f475ef0d3f8ad74a0cf7aBYvsPIEAozoZ2UPe[] = {
/* columns rows colors chars-per-pixel */
"72 70 256 2 ",
"   c #020102",
".  c #0B0402",
"X  c #020904",
"o  c #0B0904",
"O  c #03040A",
"+  c #0A040A",
"@  c #020A0C",
"#  c #0C0A0A",
"$  c #120402",
"%  c #140A04",
"&  c #1A0806",
"*  c #130D0B",
"=  c #04130B",
"-  c #15120D",
";  c #1A140B",
":  c #020512",
">  c #020B13",
",  c #080815",
"<  c #020B1B",
"1  c #190916",
"2  c #0A1315",
"3  c #04131B",
"4  c #0C141B",
"5  c #081819",
"6  c #141413",
"7  c #181719",
"8  c #250806",
"9  c #37090B",
"0  c #28160B",
"q  c #36170A",
"w  c #280815",
"e  c #360717",
"r  c #271815",
"t  c #231D1B",
"y  c #391716",
"u  c #11241C",
"i  c #2A231B",
"p  c #312710",
"a  c #38261A",
"s  c #020C23",
"d  c #150A29",
"f  c #031423",
"g  c #0B1B23",
"h  c #081826",
"j  c #0C1B2A",
"k  c #141C23",
"l  c #181C26",
"z  c #091C33",
"x  c #141B36",
"c  c #370B2E",
"v  c #271728",
"b  c #351926",
"n  c #291535",
"m  c #3A1836",
"M  c #0B2527",
"N  c #0B232C",
"B  c #132224",
"V  c #182627",
"C  c #15242C",
"Z  c #1B232B",
"A  c #1E2A2C",
"S  c #092837",
"D  c #0C2A34",
"F  c #132432",
"G  c #142C34",
"H  c #1B2A34",
"J  c #192739",
"K  c #142B3A",
"L  c #0F3135",
"P  c #183539",
"I  c #1C343C",
"U  c #282626",
"Y  c #222B2D",
"T  c #352A25",
"R  c #2F322D",
"E  c #39332A",
"W  c #242B36",
"Q  c #362638",
"!  c #24343B",
"~  c #283638",
"^  c #373634",
"/  c #480617",
"(  c #4B1012",
")  c #551817",
"_  c #651419",
"`  c #4E2C11",
"'  c #452919",
"]  c #59371B",
"[  c #653319",
"{  c #550B26",
"}  c #471727",
"|  c #581826",
" . c #4C0D30",
".. c #591534",
"X. c #6B112D",
"o. c #681838",
"O. c #761936",
"+. c #462A27",
"@. c #582825",
"#. c #473728",
"$. c #573828",
"%. c #512836",
"&. c #493A34",
"*. c #573934",
"=. c #6E2D2E",
"-. c #6A2A38",
";. c #79353A",
":. c #21413D",
">. c #5E461E",
",. c #714A19",
"<. c #54452A",
"1. c #494339",
"2. c #574837",
"3. c #664829",
"4. c #754828",
"5. c #674B39",
"6. c #764D32",
"7. c #6B5737",
"8. c #775638",
"9. c #79643A",
"0. c #361D47",
"q. c #0A2B43",
"w. c #152C44",
"e. c #0B3342",
"r. c #0A3947",
"t. c #143746",
"y. c #1C3343",
"u. c #1C3944",
"i. c #1C3C4C",
"p. c #0A3956",
"a. c #193C54",
"s. c #242A48",
"d. c #34284F",
"f. c #263946",
"g. c #353C46",
"h. c #293A56",
"j. c #393B58",
"k. c #353661",
"l. c #511549",
"z. c #6D164F",
"x. c #4D2E51",
"c. c #472A58",
"v. c #72304E",
"b. c #4A3666",
"n. c #6E356C",
"m. c #0A444C",
"M. c #18444A",
"N. c #0A4554",
"B. c #1B4554",
"V. c #184959",
"C. c #0F525C",
"Z. c #1A555B",
"A. c #284647",
"S. c #24444C",
"D. c #2B434B",
"F. c #384549",
"G. c #284756",
"H. c #234B5B",
"J. c #354A57",
"K. c #295359",
"L. c #38555B",
"P. c #11506D",
"I. c #195668",
"U. c #284C65",
"Y. c #354B64",
"T. c #275867",
"R. c #375968",
"E. c #345A76",
"W. c #156170",
"Q. c #176678",
"!. c #296369",
"~. c #296677",
"^. c #376576",
"/. c #3A6B72",
"(. c #4E4C4E",
"). c #554B46",
"_. c #6F4A4A",
"`. c #675849",
"'. c #775645",
"]. c #6A5855",
"[. c #736954",
"{. c #4D5069",
"}. c #6D4D6D",
"|. c #45626A",
" X c #59666F",
".X c #486877",
"XX c #717174",
"oX c #972F1B",
"OX c #AD3C1A",
"+X c #8C1638",
"@X c #8A2E32",
"#X c #AA3331",
"$X c #8C5215",
"%X c #BC441D",
"&X c #A86E18",
"*X c #8A4F33",
"=X c #B3522F",
"-X c #916B33",
";X c #AA7133",
":X c #CA6337",
">X c #8D154B",
",X c #A7165A",
"<X c #882D4E",
"1X c #A83552",
"2X c #8C1966",
"3X c #943B6E",
"4X c #A53365",
"5X c #C7285D",
"6X c #8F504B",
"7X c #B15150",
"8X c #856648",
"9X c #906F4F",
"0X c #AC704F",
"qX c #935367",
"wX c #A94D69",
"eX c #936D6E",
"rX c #AE6C71",
"tX c #CF6C50",
"yX c #D95D64",
"uX c #D3706E",
"iX c #35817D",
"pX c #BC8417",
"aX c #B78531",
"sX c #D6912B",
"dX c #93835A",
"fX c #B49051",
"gX c #8E8D74",
"hX c #B58F74",
"jX c #D28A52",
"kX c #E1A052",
"lX c #D58C69",
"zX c #F1CB4F",
"xX c #1F6C8C",
"cX c #197386",
"vX c #286883",
"bX c #2E738B",
"nX c #226491",
"mX c #754A8E",
"MX c #507489",
"NX c #676792",
"BX c #957389",
"VX c #AE6A8C",
"CX c #C9798A",
"ZX c #DB7DA6",
"AX c #3B8591",
"SX c #518694",
"DX c #678B9E",
"FX c #5596B3",
"GX c #9E9F9A",
"HX c #AEAC91",
"JX c #DA8E96",
"KX c #C4BAAA",
"LX c #E9CF9F",
"PX c #D4D1B6",
"IX c #8DA4C7",
"UX c #F4E8FA",
/* pixels */
"r     . * v & . U X : & eX.       # # 7 . X .       @ # 6 @ f.> X   k X ~ : J.@ D.V @   @       + 7 2 g.@           O + X         + . X         ",
".       . (.. ).+   $ ).1         X       @   X     W 5 ~ @       X Z s O U @ 5 @ B .           4 3 @   @ k : O X + X   #     . 7 7             ",
"^ X   . R % R . + T + &.T X Y       X .       . Z Z F g.@       @ H @   Y 4 O U . @ C     +   . H 3 ! 3 |.  ~ @ O 7 O           # X     6 X     ",
"(.t . # X . - . # . . X .   R +   . + 7   + 4 > Y X X X U O 2 k U @ D.j @ @ Z @ A g.D.U.H.H.p.H.x # O @ O @ P 5 F.: O (.+ 7         #   . &.  6 ",
"XX. #     + . 6 . . #   X V U         + + ~ @ A @ X   O 2 W > D.f.3 2 @ 2 M u.G.J.W W X @ B @ G H W # X O @ D.f K.K.>                     .     ",
"+.].# .   U . 1 . X   .   # W o . R   O k : ~ O @     @ W L y.< > A G S.K g Y + ^ F.W G P D.R.! ! I .X3 > Z O .   X Y @ O   +                   ",
"y ].A X   7 . o . ^ U .   7 # X X   4 = : l X X @ X 4 , D f.+ O D J.g @ A @ @ g k h > l > B ^ L.G.f.MXz H.D f.Z O     , R.(..     X     X +     ",
"gX  v ].& . . 7 * X     O ~   k ~ W + @ X . X Y + 4 5 D.O {.UXd l 3 K D.f I.V.G.B.K.T.bX^./.SXE.SXZ.J.|.J @ ! A.< : D.J.@ > @           . X     ",
"E . XX  HXR X ^ 7 O   . X 5 V J.~ R # 5 X . X = 5 M S.X   k.IXd s.r.i.t.p.~.V.G.A.C k , O , : > 2 K P S.^.R.B.K.t.R.> 2 @ l 2 = O               ",
".   & 1 1 ).o ; .   o X . % `.gXHXHXKXPXPX XR Y Y f.k Y M.y.s.K L w.V.U.M.K > 3 C G M # # X O , M.I : : + y.u.MXR.j F SX< @ O O <               ",
"T Q b r + XXU . . . dXPXHX).X A.> F.X .   s.Y U PXGX1.|.J.Z K.V.V.H.r.F M H y.r.T.R..X^.iX!.!.~.i.R.u.t.V.5       > L : @ ^.@ + k X             ",
"r . $     $ E KXgX; . @ 7 # @ y.h.<   O : g C ! @ 5 = |.GXk T.W.t.h H > > R.V.R.e.S N C M.IXM.V.N.Q.V.M.^./.y., + X 5 K.D.> t.@ o ~ O           ",
"+   - [.HX. X . R   . : @   H C i.2 Y W B > F 4 5 r.I.S C.K.S u.h D C.e.I.V.a.bXSXFXbXvXI.!.G.5 @ Z a.^.f /.MXP.Q.w.  @ > S.i.j :   W .         ",
". gX].# * O           Z X   Z ! f.    : g G Y @ t.U.a.Z.e.N.K S e.Z.vXP.a.t.W.I.^.r.M.T.S h D V.|.!   @ , bXH.I.cXbXH ~ f.J..X^.E.O . @         ",
"PXo X R U 7 X         Y   X @ > k   X A @ S.K.M I.V.C.f V.M.B.I.I.V.u.K.C.q.y./.m.I.T.N D M D.W 3 > S /.M.f.I R.f ~.FXbX:     3 T.N   ~ .     # ",
"$ .   # 6 + O   U     @ X W X > O     ~ S.G G.H.N.Z.< T.S S B.t.L T.f ~.I.q.I.vX~.I.Z.M.K D S.K.H.P G : w.B.M.S.k bXG.m.xXI   X ^ z G.X F.    X ",
". 7     o . 2 @ +   5    X@ O @ O   > B h z r.q.t.D t.p.m.t.S w.a.S p.q.^.r.N N.e.S h S t.M.N F K F u.a.~.^.D V.K.T.R.T.f.vXMX5 O g.< /.H.s.f.g.",
").* R   6 7   W .   A X H ~ V 2     M.i.C ~.e.!.t.K m.I.N.G f.S N.W.C.L I.W.N.S N j S r.S t.N.p.Z.M H > M m.S h.G.Z.H g U.f T.K = D.S.D.@ > j @ ",
"t .         X   X . , X 7 Z D.u   O J P S m.N.S j e.S Q.R.f.D N.P.cXp.Q.P.V.q.z S.T.V.NXR.Y.U.z V.T.V.Z.t.f B.H.g G.K.> ! W.> ^.f.  @ f.    # > ",
". o X           l       O k M.Y O G K L V.U.!.V.S T.cXN.f m.m.C.nXS P.p.V.e.q.x i.l.z.l.n.c k.c.t.h F vXP.:.E.h.u.u.u.J S.I.B > t.A.> W 3     l ",
"#     6         Y     O X 4 P A @ D.K.D Q.< p.F V.q.vXP.p.p.W.cXnXU.p.p.a.h.S l.z.z.z.l.l.n.c.d.0.MXk.z s q.Y.V.h.h.L Z.D t.R.G.|.h.K.H A , . O ",
"(.    # .       B O   O X 2 M O @ f N 3 ~.e.I.i.cXN.p.P.T.~.DXI @ O X . v x.ZX2Xl.d.l.X. .e d } c l.n.BXE.s : h.S S S C > G 3 !.~ I N A.I D.O   ",
".     .         7 Z   O X g F   5 G B N Z.N.N.r.Q.p.P.I.E.:           O X   . l.l.,XX. .{ /  ...z.X.z.b.mXE.k.q.f.= t.C.G < S.f e.g.U.x A.@ @   ",
"#   + +         2 2   O   l Z O P M.h J I.P.e.e.Q.P.FX> +                     + + rX{ 6X0X=X;X<X=.6XVXz.l.k.mXk.M.S.H.B.f s./.DXG.: f.I : L.M.@ ",
"# # . X   O     C O   @   l g   M.M.@ Z P.cXf s P.H.O .                         O   0 kX=X:X#XoX*X+XwX4Xl.n.k.NXJ i.f.L.Y.s S.f.R.B.> I.I W > |.",
". X .         O F.>   , @ k 2 X ! I @ B xXcXz T.x :     O                           X hXyXoX%XtX=X=.wX>X,XmXc.s.k.h., y.~.^.3 u.G.!.> V.I.5 , f.",
"  X U X           A.  O   Z < O :.i.u 4 cXxXcXP                                         & pX=X=X=XtXoX0X1X,Xz.b.}.k.h.a.> Z.U.N I M.R.4 f.! .X> ",
"  .   6 6         G O   @ l g D.M.f.t.h nXP.FX                                        O $ ,.=XOX:XtX%XyXoXZXZXx.w.d.k.c.< W ~.^.F j N R.B.M C D.",
"- .       @ XX@ + l f.X + 3 M > g N ~.< vXW.f   X                                         X jXOX:XjXjXlXtX+X,X2Xc.x w.b.x.@ q.bXK K |.D.^.W G N ",
"  X .       X g.X O B X 7 @ M . f.^.p.V.Q.vX                                              O ' oX:X:XlX:XuX_ 4Xz.l. .^.r.k.Q {.V.xXr.G.@ y.u.g.g.",
"    t         O W O O V Z   P B @ a.I.P.nXg                                                 . tXkX%XyXOX=XlX{ 5X2Xz.: u.w.C., F I.Q.I.R.y.C K I ",
"    .           @ 4 l Z 4 @ D F = I j !.f.                                                    [ _ kXsXoX7X#XtX( ,Xx.l.z a.a.: U < f.!.w.V.: B.! ",
"U X U           X Z Y > 5 X > f g @ T.Q.t.                                                    8 kX=X=X;X@XuXyXuXwX>Xn d.K.MXI 4 A L.V.e.N.+ R.P ",
". . 6             X @ @ g W X i.V @ K z J.                                                    . kXsX[ [ -X@XtX1X/ o.n l.: q.B.H ~ 3 t.e.AX~ W y.",
"  6   +   X       O Z A 4 < # :.j L.> I.F                                                     . sX&X;X[ $X_ +XJXyX1Xc c j.L.!.I 7 K.Y.R.y.V.f.> ",
"  U 7               @ > Z L I.: SXa.T.q.D.                                                    . zX$X&X[ [ ) #X#X5X#Xv.c n w.D V.D.F.G Y.T.z j.4 ",
"  #   U             O A 2 O h D., I.i.r.2                                                   X % &XpX&X;X*.<.*X@XuX+X@.z.m h.f T.! T , G.f.G.g.F.",
"# 7   .     O           Z |.M G K g M.T.t.                X                                   p $X&X;XaXfX@.4.7X1X+X6XwX<XY.5 a.z O l {.g.I.s ^ ",
".   O                   > D F M.j D w.V.SX            UXXXo                                   [.pX,.q *X8.] 0X=X#X7X-.X.c.j.M f t.H H Y.J E.r.|.",
"    Y T                 X ~ G p.~.> P S.V.4           gX(.                                    LXq sX>.] fX+.) *X@X1X/ 8  .j d : !.I h T.!.B.I.S ",
"+ . 0 R   . U             X 3 z U.p.bX2 ! @ @                                               [.&X$Xq ,.% ,.q 4.<X+X1X<X) v.n < 3 y.t.! G vXP e.y.",
".     . &.7     O     .     + D.K I r.cXR.~ &.                                            . LXaX$X` -X' 9.` [ ;._ X.{ -.l.z.N f.N Q 5  XI.t.J G.",
"# o + O . ^ -       #           3 L.< u.~.P.R.:                                         X GXfX] -X3.*X9X` q $.=.=./ e %. .b.b.C y.H @ < t.Z.V.! ",
"`.^ X       T *     Y       X       2 R.G 3 P !                                          XLXp >.] 8.3.p >.p 6.=.) / ) 8 m m f.n l {.GXQ |.U.~.J.",
"  - &.(.).X   . U .   X     X           < < t.V.^.O O                             . @ KXfX1 ; ` 0 p ` % ` ` a -.( X.;.y  .1 : s.l s.h.X h.H.t.g ",
"  U . -         # [.  .   .             k 4 ~ C : ^                           .   X eX' 0 X 0 7.0 ` 0 0 9.[ 8 -.e v._.8 @.c , s.l j.!   K.V.T.Z ",
". 6   o ; -   . v #.2.i -         X                   ^ .                   O o T PXlXi % * ; >.r ` p a 9X[ $ *.} ) ..} 6Xw v d.n |.L.O w.H.z n ",
".   . 7 . ; . U 6   . % `.i       6                       t X X             % PX9X_.i , % 0 ; #.0 $.p ;X*X( & =.v.{ e v y 1 W h d.MXG.5  XT.J * ",
").. X     * ; . * +       * i X + 6 X .                     . x.BX[.[.hXLXPXkX-X$ T p X X 0 . o 0 0 <.3.;.[ & @.{ { w d.w v.N G f.q.^.A M.H.j._.",
"+ 7       7 . T X             2.&.%   .                         X & ,.4.-Xy 7 - a ] 6 - # E E + 2.0 4.[ ( a q @._ v.w w Q w Y I G J g.D T.@ w.qX",
"% . *             `.    X 7 . . t &.`.&                     . U r $.6.<.i 8.] 6 0 % 7 . ; o . i #.p -X$.+.8 ( ) X.o.m , v Q  X#.{.v R N .X5 W n.",
"[.. T             . ).* . .   O     . 0 #.+ .             # 0 3.] 3.#.8 <.] % ; $   7 X ; T 6 a 0 7.` y ).9 ` 9 O.o.v 2 Q Q S #.^.Y I y.R.T.n.} ",
". . 1.$ i # .         - i 7 . * `..   & . 0 <.2.E 8 T ' 2.$.$   #.#.. <.a . o R . . . i <.. 0 -X$ 3.q ' 0 0 qXO.{ w v : b.W H H y.l K > R.I eXj.",
"r +   $ 2.*         +   -   X . .   . X 6 7 + 1 . . ; . *   % &.& #.$ #.. .   + . 6 - ' 8 i 6.8 +.` =.5.q *.| X.{ 1 XXn n l.DXN F : < G w.T u X ",
"r . . .   & 2.$ . .     X i   1 . 2.`.a + . $ . % r & a p i % a *.. - . + * - # % r a % 0 q & w 5.3.5.. y O.) / { w 4 m m * ! |.M F C w.h.+.> + ",
"6.).+   * ; 1.. o ^       X . . 2.% 7   ].<.`.&.i U E % E 8 o . 6 # X   o - t U a p *.p p & i *.4.4.-.U ( 6X;.O./ { + s.x.W r.{.B l J f.J.y.O f.",
">X-.*.0   @   T a t & ^ + X   - * #         U     *   o 7 U X 6 X   +   . % i a T a $ a #.U t ' ] ' $ T ) +X;.{ / b 7 c.d.F B.< I 5 < : {.! < : ",
"@Xv.#.$.8 6 + O 7 E . $ T ^ . .   X &.+   O     # X . ^ o .   . i     i 7 o U T a 0 5.#.T . r 8X8Xa ].0 O.} ..8 / 7 x.j.{.w.h : g Y M {.: |.W @ ",
"8.0X;.$.[.. 2.i   O # ; 1.. . o o   . E .   X # o * . + + .   . ^ . - # 0 #.8.r $ `.a r r a 6.6.e $.X X.yX../ O.<Xb Q x j.{.N L.: @ : G.s j X . ",
"6X=.6X@.8 3.R & i X   + . $ ).1.v # . E $ o   . . X   X 7 6 E . ; $ 5.$.r % % a 5.y + ' ' 8X5.$.*.& o.@XX...8 ..z.g.c.W s s.P + R M b x bXK   + ",
"<X_._.z.@X$.dX`.[.2.; ].i . . ).U ^ r T .     . . O - #.#.. 0 8 7.$.& i t a $ ' #.a & <.` q $.;.6X( O.@X<X8 | c m 1 f f bXD.D > @ C ].D vX: O   ",
"eXCX=.) wX0X@X3.dX7.5.2.  6 E X . - [.i 0 #.&.r . & $ + # 8Xa & #.. i i T & ).<.r ).&.9X9X[ q '.& O.( z.{ y o.c h.n.V./., 7 < F.K.V T T.3 4 O X ",
"%.v.O.6Xv.1X@X;.#.% <.R O X     -   O T . 2.; 0 3.8X$.& % #.#.$ . ; #.& 2.& ` r + +.q 4.8 ( 8X} o.+X4X..| z.m k.n.q.I.< ~ B > h G.x.! ~.. u .   ",
"-.qXqX>X4X7XO.;.v.0X].0X* 1 ^ 0 &.$ o + & , . o o 2.#.. $ #.2.9.a *.w , 8X8X+.] 9X2.0 6X_ @.y o.O.X.-.$.qXx.d.NX{.U.s = H   R.@ s v NXZ       2 ",
"w ;.| VX{ eXuX( { v.| $ 9X<.# r 7 # o ^ 2.# T 2.% @ E r v a 0 5.8 y $.) 8 q 4.y $.; '.9X& y 3X1X{ O.& / v s.MXE.{.G.< :.k > : J A GXf.@       Y ",
"_...6XeXv.wXCXhX0X7X=.| =.) 6X-X8.8 q & 7.] 9.#.[.*.#.+.#.& r y <.'.a q 2.-Xa +.y 6.( / | +X+XO.<X9 e c x.mXE.a.J.2 D.O < M.u.K.K W = 2       H ",
"O x.-.<XqXX.3XqXz.eX-.| 1X7XdXO.=.6X0XjX-X9X6.`.'.2.+ 6 b *.$.#.0 & 8.9X% 2 8 y rX_ =.e { +X+Xy { 9 }.0. Xb.Y.D.O > X N .XO y.5 M.+.! F.X   O 7 ",
"k O r   d n uX3Xy ..BXeXlXuXlX0X[ 8 -X7.7.7.9.5.8X*XlX0X6X).`.;X9Xi U b r 6X6X*X*X8 1XO.5X@.z.{ l.x.NXU.^.{.: + 5 @ V.w.f.S.f.F.  $ BX,     O @ ",
"G.x ~ 2 O {.T qX'.qX& / VXCXCXVXJX=X9 y & #.`.*.o - p 6.9.&.v r 9 2.'.8X` 6X*XwXwX{ 4X+X,X..}.n.0.R..XU.f.1 + g 3 y.S C j D.f.@ U , x.:     @ O ",
"# L.MXf.@   |.8 n.}.3X1XqXX.z.1X;.rXCXX.@._.eX'.<.8.eX*.y T y & 8 eX( 6X*XuX1X>X+XwXwX3XY.w 1 l.x V.H.z @ @ : B.i.w.> F D.K.@   b F.* :     O O "
};
