/* XPM */
static char *result[] = {
/* columns rows colors chars-per-pixel */
"70 73 256 2 ",
"   c #040104",
".  c #0C0204",
"X  c #04020A",
"o  c #0B010A",
"O  c #090A06",
"+  c #140103",
"@  c #13010C",
"#  c #190805",
"$  c #0A1607",
"%  c #191708",
"&  c #0D181E",
"*  c #131A16",
"=  c #120914",
"-  c #260705",
";  c #271608",
":  c #36130B",
">  c #371A15",
",  c #2E1312",
"<  c #17280A",
"1  c #1C3D0C",
"2  c #183709",
"3  c #1A2817",
"4  c #1D3B13",
"5  c #1F3418",
"6  c #0E2712",
"7  c #272707",
"8  c #38280B",
"9  c #28370B",
"0  c #252A15",
"q  c #263919",
"w  c #363817",
"e  c #392D12",
"r  c #0C1B29",
"t  c #111F2D",
"y  c #361E25",
"u  c #0D2429",
"i  c #172B26",
"p  c #1A3427",
"a  c #0B2639",
"s  c #142A36",
"d  c #193738",
"f  c #232C28",
"g  c #283826",
"h  c #313B28",
"j  c #222836",
"k  c #243B35",
"l  c #3B2A2D",
"z  c #590B09",
"x  c #441A15",
"c  c #481A15",
"v  c #5B1B16",
"b  c #4F120F",
"n  c #6A0909",
"m  c #661718",
"M  c #761919",
"N  c #71100F",
"B  c #43370D",
"V  c #452A17",
"C  c #582815",
"Z  c #483814",
"A  c #553914",
"S  c #502B0D",
"D  c #692915",
"F  c #6A3A19",
"G  c #713C1B",
"H  c #75391B",
"J  c #702917",
"K  c #4D1E22",
"L  c #771D23",
"P  c #473B25",
"I  c #572F23",
"U  c #642528",
"Y  c #783A25",
"T  c #6D2E27",
"R  c #1D440B",
"E  c #1B4305",
"W  c #1E4614",
"Q  c #21440C",
"!  c #224A0B",
"~  c #294A0A",
"^  c #2B530D",
"/  c #275606",
"(  c #315A0B",
")  c #234413",
"_  c #244A13",
"`  c #2C4D15",
"'  c #294618",
"]  c #374818",
"[  c #2C5213",
"{  c #2D5319",
"}  c #345B14",
"|  c #345C1A",
" . c #3B5D1C",
".. c #375517",
"X. c #33460D",
"o. c #39680C",
"O. c #3A6614",
"+. c #3E6B13",
"@. c #36631C",
"#. c #3B641B",
"$. c #3C681C",
"%. c #356215",
"&. c #3B6D0F",
"*. c #1C4132",
"=. c #2B4724",
"-. c #334C22",
";. c #364928",
":. c #3C5B24",
">. c #3C552C",
",. c #375626",
"<. c #26453A",
"1. c #384B32",
"2. c #3B5732",
"3. c #2E5224",
"4. c #3C6323",
"5. c #3E6236",
"6. c #464618",
"7. c #534717",
"8. c #46571B",
"9. c #47440D",
"0. c #79441E",
"q. c #467D03",
"w. c #4A7E04",
"e. c #44740D",
"r. c #467D0B",
"t. c #4B7D0B",
"y. c #4B760B",
"u. c #527B0C",
"i. c #44651C",
"p. c #436C1C",
"a. c #4A671A",
"s. c #457414",
"d. c #4B7614",
"f. c #467B13",
"g. c #4B7B13",
"h. c #46731B",
"j. c #4B751C",
"k. c #467A1A",
"l. c #4D7A1B",
"z. c #52741D",
"x. c #527B1C",
"c. c #517715",
"v. c #526D1F",
"b. c #454A26",
"n. c #455929",
"m. c #465936",
"M. c #575231",
"N. c #6B462B",
"B. c #7A4323",
"V. c #774834",
"C. c #6D4B32",
"Z. c #436B24",
"A. c #4B6E23",
"S. c #446B2B",
"D. c #4A6B2B",
"F. c #476427",
"G. c #556B2B",
"H. c #4C7423",
"J. c #4D7923",
"K. c #4C732B",
"L. c #4A7527",
"P. c #537523",
"I. c #537A23",
"U. c #53752B",
"Y. c #517A2A",
"T. c #587229",
"R. c #4B6C33",
"E. c #496536",
"W. c #546836",
"Q. c #4D7334",
"!. c #557335",
"~. c #042D4D",
"^. c #0B2B47",
"/. c #132E49",
"(. c #0C314C",
"). c #07324A",
"_. c #133846",
"`. c #022D53",
"'. c #052E5A",
"]. c #0B2E55",
"[. c #033355",
"{. c #0A3454",
"}. c #02345C",
"|. c #02395D",
" X c #0C3A5E",
".X c #083658",
"XX c #163859",
"oX c #2C3553",
"OX c #023564",
"+X c #023B64",
"@X c #0B3C64",
"#X c #023769",
"$X c #023B6B",
"%X c #0A3969",
"&X c #143B65",
"*X c #033D72",
"=X c #043E76",
"-X c #093167",
";X c #243D61",
":X c #4D3644",
">X c #593860",
",X c #124257",
"<X c #294754",
"1X c #024365",
"2X c #02426D",
"3X c #0A436B",
"4X c #094668",
"5X c #144369",
"6X c #024372",
"7X c #0B4472",
"8X c #02427A",
"9X c #0C4776",
"0X c #154976",
"qX c #1A5776",
"wX c #274967",
"eX c #2C5472",
"rX c #31636E",
"tX c #4C5D4C",
"yX c #556846",
"uX c #4C6B47",
"iX c #524B66",
"pX c #496D6B",
"aX c #8F1A15",
"sX c #953D0B",
"dX c #84221B",
"fX c #893F15",
"gX c #953E12",
"hX c #8D3E0F",
"jX c #863124",
"kX c #A41615",
"lX c #94400A",
"zX c #9B410C",
"xX c #8D4313",
"cX c #8B431B",
"vX c #83451D",
"bX c #934112",
"nX c #984117",
"mX c #8F400F",
"MX c #844526",
"NX c #824C34",
"BX c #458103",
"VX c #4A8003",
"CX c #46810B",
"ZX c #4B810A",
"AX c #4D8113",
"SX c #518217",
"DX c #51810A",
"FX c #748F7B",
"GX c #134D83",
"HX c #2B5C87",
"JX c #306491",
"KX c #4D7796",
"LX c #427CA2",
"PX c #5483A7",
"IX c #8EACBC",
"UX c #96B4C2",
/* pixels */
"[.).~.[.}.'.'.`.eXwXXX].^.^.`.'.}.}.}.}.}.}.|. X X[.@X+X+X+X+X5XtX<XXX-X*X*X#X+XOX}.}.}.[.`.`.'.`.`.'.`.`.[.~.~.~.^.^.~.`.~.`.`.`.`.`.}.`.{.",
"[.eXXX{.{.`.`.~.s s d k d _./././.{.'.}.}.}.{.JXJX4X+X).^._._._._._.&X{.'.%X+X+X+X}.}.}.}.`.`.`.`.`.`.`.~.[.`.~.~.~.~.~.`.`.`.~.`.`.'.`.'.`.",
"~.eX,X).`.^.p ..P.I.P.I.P.T.P.P.T.F.1.XX}.}.OXHX0X{.p F.P.T.U.U.Q.:.p <X{.+X+X+X+X}.OX}.}.`.'.`.`.`.}.`.~.~.`.`.~.`.`.`.`.`.`.~.`.`.`.`.`.`.",
"[.).).~.r ,.G.l.y.t.u.t.u.w.w.y.t.d.j.G.<.`.}..X_.p A.c.DXt.c.u.x.d.L...q ^.+X+X+X+X|.|.}.`.`.}.}.'.}.`.`.`.`.`.`.`.`.`.`.`.`.`.[.`.`.~.`.~.",
"~.~.~.u ,.P.t.ZXw.w.w.q.q.w.w.VXZXVXw.c.D.k ^.a h Z.f.t.CXq.VXVXq.r.l.h.R.;.^.+X+X|.+X|.}.}.'.'.}.}.}.}.[.}.'.`.`.'.[.[.`.`.}.[.[.|.[.[.~.~.",
"[.[.u ..H.g.ZXVXt.q.q.q.q.q.q.q.q.w.w.w.d.K.< R.Y.t.ZXBXBXVXVXVXZXZXZXq.g.L.W .X+X+X|.+XOX}.}.}.}.}.}.}.}.}.}.}.}.`.}.|.`.'.[.[.(.[.[.~.[.[.",
"[.a :.I.g.CXCXBXZXw.q.w.VXt.w.w.q.w.w.w.g.J.[ | x.w.VXBXr.CXt.t.ZXt.t.t.BXg.K.p  X+X+X+X+XOXOXOX}.'.}.}.}.}.}.}.}.}.}.|.|.[.}.XXpX<X`.[.[.[.",
").2.j.t.ZXBXBX&.r.y.d.g.c.g.g.c.d.g.d.k.H.Q.K.! J.y.ZXq.CXw.q.w.ZXt.t.t.q.g.j.F.u +X+X$X$X$X*X#XOXOX}.}.}.OX+X+X+X+X|.|.|.[.}.<XpXwX].[.[.[.",
"d P.AXBXBXBXq.CXf.j.H.A.A.a.#. .:.| | :.| ,.5.W K.l.g.w.VXVXVXZXt.t.t.g.g.g.g.U.' XX$X$X$X2X2X$X#X#X XOX}.+X|.+X+X+X+X}.[.|.|..X*..X}.[.[.[.",
"2.d.ZXBXBXCXr.k.H.#.` Q ` [ } i.$.+.$.O.@.4.{ 2 4.L.d.t.w.d.H.H.I.J.I.L.j.d.l.Y.E.i $X$X1X1X1X$X#X%XXX-X+XOX+X+XOX+X|.}.[.|.+X[.[.}.OX}.}.}.",
",.SXBXCXBXf.l.L...~ #.j.x.z.z.x.u.ZXt.t.CXg.j.S.W _ S.Y.U.Q.4.{ _ _ _ _ ! ^ Z.K.uX1.[.6X6X$X7X%X%X,XrX<X@X+X+X+X|.OX|.|.[.}.}.|.|.OXOX}.}.|.",
"4.CXCXCXCX&.J.{ ' j.c.y.q.u.w.q.t.t.t.t.ZXt.t.l.L.{ ' 2.3.4 [ $.H.H.j.I.U.} ! W 3.E.a 6X=X=X=X%X3XwXFXpX4X@X+X+X+X+X+X}.|.#X|.[.}.+X}.}.|.}.",
"@.BXBXBXAXl./ ^ H.t.q.VXq.VXZXBXt.r.t.t.r.g.t.t.g.x.^ 4 m.Q.J.f.t.w.t.u.t.c.l.J.4.R 6 %X1X1X6X$X2X5XiXwX#XOX}.}.+X}.OX.X|.#X}.[.OX}.}.|.|.|.",
"O.BXq.VXr.g.k.d.s.w.VXZXw.t.r.w.w.w.t.ZXZXt.ZXCXZXg.P. .R L.k.g.t.w.t.w.w.VXt.d.J.L.,.i |.$X2X2X$X$X@X$XOX}.OX#XOXOX#XOX}.}.|.|.}.}.+X}.}.}.",
"O.BXq.q.w.t.u.w.w.q.q.VXw.w.w.r.y.w.t.t.t.t.ZXBXZXt.d.J.| R J.k.t.w.VXt.w.q.q.ZXf.f.H.D.q ~.$X$X#X+X#X#XOXOXOXOX#X#X#XOXOX}.}.[.OXOX+X}.|.}.",
"@.VXq.VXw.w.w.w.w.q.VXq.t.w.q.t.u.t.d.d.x.l.g.t.t.g.g.l.H.R Z.j.t.t.t.q.q.BXBXBXBXBXr.d.H.;..X#X#X#X#X#X#XOXOX#XOXOX#X#X-X X'.'..XOX}.}.|.|.",
"@.BXq.VXVXq.w.w.VXw.t.SXt.t.r.l.I.U.L.H.A.K.Y.J.j.J.I.j.Y.:.! H.g.CXCXq.w.w.q.w.q.r.w.w.x.T.g }.#X#X+X#X#X#XOX#X#X#XOX#X}.-X5X&X'.OX+X}.|.}.",
"$.BXw.q.w.ZXt.t.t.j.p.#.#.p.#.[ ` ' q ' ' q 1 9 ' .. . .| uX_ } l.r.BXq.w.w.w.d.d.l.z.x.P.D.W.d +X#X#X#X#X+X+X+X#XOX#X#X-X&XHXeX'.OX+X|.|.}.",
"$.q.q.ZXw.t.t.x.j.| R | ,.5.F.,.2.m.>.1.1.;.>.m.>.-.,.F.| ) ,.1 l.t.BXCXZXw.t.j.#.....} ..| ;.;.s }.#X+X+X#X#X+XOXOXOXOX-XOX].'.}.}.|.+X|.|.",
"@.q.w.t.t.t.l.Z.W { Z.Q.4.;.q q 0 3 i k f p 5 0 n.yX..{ Q.Z.4 4 D.g.ZXr.t.t.l.:.;.' -.] -.,.,.>.;.d (.#X#X#X+X#X+X#X#X#X+X-X'. X}.OX}.|.+X1X",
"#.q.VXZXt.l.A.1 :.!.F.9 q g 6 $ 3 ^.$X*X$X@X[.^.u h E.-.` U.R.< 4.x.t.CXl.d.a.-.;.m.m.>.b.>.m.W.m.1.f /.}.#X#X#X#XOXOXOXOX}.OX XOXOXOX|.|.+X",
"$.q.w.ZXd.L.| ] W.,.0 m.3 {.%X+X$X6X6X6X6X6X2X$XOX~.i >.,.' Q.E.2 p.g.d.h.i.` m.h h g h h 1.=.q -.yX1.0 /.#X%X$X#X#X#XOX-X}.OX#X*X*X#X}.+X@X",
"$.q.w.y.j. .< yX-.0 m.f .X6X6X6X6X6X6X2X*X6X2X%X#X#XOXt g ;.9 !.F.^ j.l. .~ m.* & a ^.t & O $ h ;.' yX1.oX#X%X$X#X#XOXOXOXOXOX+X8XGX%X+X+X+X",
"$.q.t.j.p.2 E.m.% l f @X6X6X2X6X6X6X6X6X2X2X$X#X#X#X#X#Xa q ;.,.!.1 P.c.] yX3 ].-X-X*X#XOX^.& * f 3 m.f k 0X%X#X#X#XOX#X#X}.OX#X*X8X@X|.+X+X",
"O.VXt.L.R | W.0 * r %X7X6X6X2X6X6X6X2X2X$X$X$X#X#X#X$X#X#Xa 1.9 uXq v.c.G.g ^.#X#X*XJXGX#X*X+X@X&Xs $ 1.h XX$X#X#X#X#X#X#X#X#XOX#X#XOXOXOX+X",
"O.ZXg.K.2 !.tX* i %X6X*X6X2X2X2X6X2X6X$X$X$X$X#X#X#X%X#X*X&Xj m.' 3.i.T.W.r %X#X%X$XJX0X#X#X#X#X+XXX& 2.q a #X#X#X#X#X#X#X#X+XOXOX#XOXOX+X+X",
"O.BXAXH.! >.3 O /.7X*X6X6X2X2X2X6X6X6X$X$X#X#X#X#X#X$X#X#X%Xs uX4 3.4.!.q '.#X#X#X#X=X%X#X#X#X#X#X$Xa n.R.s OX%X#X#X#X#X#X#X#XOXOXOXOXOX+X+X",
"+.q.DXg.d.` 5 O a 6X6X6X2X2X2X6X9X6X6X*X$X#X+X#X#X#X$X$X%X-Xs 3.5.4 Q.,.s #X#X#X#X%X%X$X#X#X#X$X*X$X X-.!.k +X#X$X*X#X$X$X+X+XOXOX#XOXOXOX+X",
"p.q.w.w.u.P.m., y 6X6X6X2X2X6XHXqX8X6X8X6X$X@X#X#X#X#X$X#X$Xr 6 Q.Q !.h '.#X#X#X#X#X$X#X$X#X$X$X#X$X$Xp F.n.{.3X8X6X2X1X$X$X#X#X#XOX}.}.}.|.",
"O.q.w.w.w.I.b.e K @X6X6X6X2X*X7X*X$X2X2X2X$X$X$X$X#X#X#X#X#Xr O D.Z.G.1.@X$X$X$X$X$X$X*X2X2X$X$X6X6X6Xk ..D.s 2X6X1X2X2X6X2X2X$X+X#X'.}.}.|.",
"+.q.w.w.u.P.b.> U /.*X6X6X6X$X6X7X1X1X1X2X2X6X*X6X$X$X$X$X$Xr $ A.d.A.< ^.*X6X2X2X6X6X2X6X2X2X6X6X2X6X<X9 U.=.5X3X1X2X2X2X6X2X1X$X+X}.}.}.OX",
"O.q.w.t.g.U.w : T * %X6X6X6X6X6X6X3X4XqX1X1X=X6X6X2X7X6X7XoX# < I.g.l.F.g u @X6X2X6X6X6X6X6X6X6X6X2X5Xj 3 U.n.{.7X*X2X2X2X$X2X2X$X$X+X}.}.}.",
"a.q.q.r.L.] 0 % 0 ; u  X3X2X6X7X9X4XqXeX3X$X=X=X2X2X6X;X:Xz C 9 j.y.d.H.W.% = j XX@X$X6X6X6X6X2X X_.i 4 2 R.E.a 8XGX6X3X6X2X2X2X$X$X+X+X|.}.",
"i.t.j.J.E n. .< f 3 3 * * j XX@X6X6X9X=X3X$X6X*X6X&XoXU m U > 7 k.t.f.$.) q @ , K , j XX7X6X^.r g < E.Q.F.1 3.d 8X8X2X2X7X7X2X$X2X$X1X4X3X+X",
"8.g.R._ } z.Y.R.q _ Q.:.b.A C I l oX;X;XwX&X;XoXP K U z L L ; X.k.r.y.j.F.2 O , K b v c y :XO 3 g  .Y.A.Y.Q._ 6 @X6X2X7XGXHX9X*X$X$X1X0X3X|.",
"S.L.{ ` d.l.R._ | AXk.Q.W.6.; x U U U U U U U U m m z M M z S X.k.t.t.f.g.A.-.; > K z n m U : w yXm.` Q L.I.H.n._.1X2X*XGXJX0X2X2X6X6X$X$X+X",
"E.[ ^ J.g.K.,.` g.t.l.K.R { m.< # x v m m v z n L N N dXn D 7.X.f.r.t.ZXw.c.x.n.; K L M N N z x : 7 ;.1 { I.I.H.E.,X6X*X9X7X7X6X6X6X6X2X+X+X",
"g ! s.r.Y._ E l.c.U.K.1 #.H.z.a.,.h - x b v L dXM N dXn aXJ 7.~ AXBXZXt.w.q.q.d.6.# c m M L L L T V P n.q @.L.Y.E._.6X3X7X7X6X6X6X6X6X1X1X%X",
"3.J.f.y.J.( e.g.Y.uXW } l.t.u.x.uX3.$ 9 Z : U N n dXN M dXS M.~ k.CXu.t.w.VXBXt.P.w # b m m N n z ; 6.n.4 q 2 p.D.d 6X6X6X2X$X6X6X6X=X6X2X2X",
"#.k.g.t.t.w.g.j.4._ ^ l.u.u.g.Q.,.< i.z.F.< ; z dXN aXkXL S G.( g.r.w.w.w.w.VXq.r.j.9 # c T L L D 8 A. .' m.E J.K.d 6X6X2X6X6X6X6X6X6X=X8X$X",
"4.J.e.t.t.w.r.k./ o.d.u.d.H.Z.{ Q i.j.l.T.n.e C m aXkXaXD w F.( CXBXw.w.w.w.VXVXu.g.A.9 7 V x 8 8 ] W.X.w w ..Y.K._.6X6X6X6X6X6X6X6X6X6X8X2X",
"4.%./ AXt.t.t.y.d.w.q.t.j.$.R [ k.y.t.l.d.A.G.: M kXaXM 8 G.%.&.CXZXw.w.w.DXVXw.DXw.f.J.} X.X.X.,.n.-.7 e 6.F.L.R.,X6X6X6X6X6X6X6X6X2X1X2X$X",
"4.$.f.t.t.g.g.ZXt.q.ZXAXh.E O.l.r.BXw.d.( p.G.b aXaXD : n.4./ CXq.q.w.w.t.VXw.w.w.w.q.w.y.g.a.} ` ' 7 ; M.] } F.2.<.5X6X6X6X6X6X6X6X6X2X1X*X",
"O.CXAXZXSX&.o.g.t.q.g.l.k.e.y.t.CXZXy.K.1 j.T.C aXJ 7 n.K./ h.f.r.q.ZXt.w.w.w.t.t.y.u.w.ZXt.t.d.a.W.P P 6.8.h.W d FXwX9X6X6X6X6X4X9X4X2X*X#X",
"O.t.q.w.g.+.+.e.t.t.t.CXZXt.r.q.CXt.j.R.< D.U.: C S n.G.^ i.l.g.y.CXy.r.t.t.t.t.g.t.t.g.g.CXx.x.z.n.8 P ] l.k.R.p <X5X6X6X6X4X4X&XKXeX1X+XOX",
"O.q.q.w.w.t.ZXCXZXf.( &.f.r.g.AXCXr.} 5 < :.W.7 8 n.n.< -.!.T.z.z.z.P.P.c.c.c.d.d.c.z.z.J.P.T.8.8 V N.w d.CXg.H.3. X1X6X6X4XqXPXUXUXHX%X}.}.",
"| q.q.w.w.ZXw.ZXBXd.+.f.e.AXf.o.CXJ...;.yXM.8 7 8.G.w 8 C A Z Z 7.7.7.7.7.7.7.7.7.6.7.7.7.7.7.x N.C.Z i.g.BXZXx.S.6X6X6X6X2X1X,XIXUXPX0X X}.",
"%.VXq.w.BXq.ZXq.ZXt.r.ZXr.AX&.o.g.I.n.w P 8 7 X.T.9.S cXMX0.B.G G G G G H G G G G 0.G F F 0.N.N.C.7.8.j.ZXBXZXd.5.7X8X6X6X6X3X5XKXrX0X5X.XOX",
"| VXq.q.w.VXq.w.w.VXVXVXVXt.g.AXAXK.] 7 7 8 b.W.Z Z C.NXMXMXMXMXMXMXMXMXMXMXMXB.B.Y V.MXV.V.T M.l ..c.u.ZXBXZXJ.,.1X8X6X6X6X6X9X9X3X7X@X+X%X",
"%.BXVXq.VXq.q.q.q.VXVXVXVXVXg.g.h.S.q m.W.W.M.0 % % > > > x x x x c x c x x x : : : : , , # & XXa p.y.q.&.SXAXH.=.|.8X6X6X6X6X6X6X6X2X+X#X#X",
"O.VXVXVXVXVXVXq.q.q.VXVXVXZXCXg.!.< * 0 w 0 %   o = o O O @ @ @ @ @ @ @ @ @ . @ @ @ . . o o a #Xs A.c.d.k.L.A.K.=.3XGX6X6X8X6X6X6X6X6X1X+X#X",
"| q.q.VXVXVXq.q.q.w.w.q.q.BXt.g.,.O X O .   X   o o @ o o       X   .               X X o @ }. X3 G.I.s.} _ E Z.1.7X=X6X6X6X6X6X6X6X2X2X+X+X",
"| t.VXVXVXVXVXq.w.q.w.w.VXVXw.u.F.O X X   X X   X   .   .                                 O OX Xq D...1 _ p.z.K.1.0X2X2X6X6X6X6X6X6X2X4X1X+X",
"@.BXVXVXVXw.VXw.ZXBXt.VXq.w.ZXd.D.$ o X   . .   o o o o o                           X     X OX^.:.h.O.j.d.d.t.P.1.7X1X2X6X2X2X2X6X2X2X1X1X+X",
"#.q.q.q.q.VXw.VXVXVXVXVXVXw.t.u.D.% X X X     o o o o o o                           X X O   -Xp G.y.u.w.DXw.w.j.=.%X1X1X2X2X2X2X2X2X1X0X$X+X",
"#.BXVXw.q.q.VXw.VXBXVXVXVXw.t.g.S.< = X X X X o X X                                 X X   O /.q !.c.y.t.w.t.u.P.k *X6X$X2X2X1X2X2X1X3XLX5X1X",
"$.r.r.t.t.w.q.VXVXVXVXVXq.w.u.l.W.% - # . + O     O O                               X   . . # w 6.a.z.ZXBXt.d.P.<.%X$X1X$X1X$X1X$X1X+X0X4X+X",
"4.f.l.f.r.w.VXBXVXq.BXq.q.w.t.x.M.S F D S : - @ + . . + .                         .   . + + # V 7.X.z.y.BXZXd.U.<.+X1X+X1X$X$X1X1X1X1X+X+X+X",
"Q.o.A.SXJ.l.r.t.VXVXw.VXq.y.c.T.A Y nXlXxXfXY T C x : - - + + . . . . . + + + + + + + + - : C C.N.X.z.w.BXZXt.H.*.1X+X1X+X1X1X+X1X+X+X+X+X+X",
"4.( E R | Z.L.AXq.q.VXZXVXu.v.W.S vXnXsXsXhXfXfXfXxXMXjXfXH F D C C C D D D D D H H Y H Y cXvXB.Z ~ z.DXq.q.t.J.d 1X1X$X1X+X1X+X+X1X+X+X+X|.",
"$.AXL.Z.^ R ! +.g.w.q.CXq.AX..7 V.NXgXnXlXlXlXlXsXsXlXlXsXsXsXgXgXgXbXbXlXbXxXxXlXxXsXzXlXmXvXA Z z.g.q.q.q.g.J.d 1X@X+X+X+X+X+X+X+X|.+X}.}.",
"%.BXg.l.J.J.l.f.t.VXq.q.t.s. .< e F Y MXvXvXcXnXxXsXsXsXzXsXsXgXgXsXgXbXbXlXbXbXbXbXsXsXbXvXI 7 W.x.t.q.q.r.k.R.d +X+X+X+X+X+X+X+XOX|.}.}.}.",
"o.w.q.w.w.t.r.ZXq.VXVXq.r.d.#.:.F.9.B Z Z Z A B.MX0.MXcXxXxXxXmXxXxXxXxXbXxXbXbXxXxXMXMX0.Z 0 q K.t.w.BXr.k.K.,.~.+X+X+X+X+X+X+X}.OX}.}.}.].",
"O.w.w.VXVXVXVXVXBXBXVXBXt.r.p.,.P.z.v.P.8.8.6.B B 8 B A A A A A F A F A A A Z A A 7.A e w b.tXW d.t.q.BXr.Y.Q.u +X+XOX}.OX#X}.}.}.}.[.}.}.}.",
"+.q.w.t.w.w.w.BXVXVXVXw.w.t.h.} g.u.g.g.DXu.u.c.z.T.v.A.F.a.a.a.a.a.v.a.F.a.a.a.8.a.a.a.x.R.5.^ g.w.q.q.d.D.k [.}.}.}.'.OX}..X{.XX{.}.'.}.}.",
"p.q.DXDXw.w.w.w.w.w.VXw.t.g.p.} g.t.t.ZXVXVXu.t.t.w.t.c.t.t.r.y.t.d.t.c.u.c.u.y.u.u.DXg.L.S.Q h.y.d.y.u.A.1.(.}.[.}.}.}.`.}. XoX>X;X}.'.}.}.",
"o.q.w.w.w.q.w.w.w.w.w.t.u.s.| | t.t.t.w.VXu.w.VXw.u.w.w.w.y.y.w.t.w.t.w.y.q.y.q.w.w.u.x.S.) F.Q.K.K.O.U.n.~.}.}.}.}.}.[.].}.{.oX>XoX'.}.}.}.",
"o.q.w.w.w.w.t.w.w.q.w.t.l.J.| | g.t.t.w.u.w.w.VXw.w.w.w.w.w.w.q.q.u.w.w.q.q.q.q.w.w.l.U.1 =.3.' R 4 ) W.d }.}.}.}.}.}.}.}.'.[.{.XXXX'.}.OX}.",
"e.w.w.w.w.w.w.w.w.q.w.t.J.S.1 p.t.VXw.w.w.DXVXu.w.w.q.w.q.w.w.w.w.w.w.q.BXBXq.q.y.g.J.[ ) { 2.E.E.E.>.{ u }.+X}.}.}.}.'.-XOX'.}.}.}.OX}.OXOX",
"e.w.w.w.w.w.u.w.q.w.w.u.L.R p.u.t.t.w.w.VXw.w.w.w.w.w.w.q.w.w.w.q.q.q.q.q.BXq.t.l.j.#.^ K.U.@.) ) ^ ..n.s }.}.}.}.}.}.}.'.OX-X].].'.OX}.}.}.",
"o.w.w.w.w.w.w.w.w.t.ZXSX$.` l.w.VXw.w.VXw.VXw.VXw.w.w.w.w.w.w.w.w.w.w.q.q.q.q.l.k.F./ k.d.g.e.s.A.g.x.U.d }.}.}.}.}.'.}.'.'.}.[.{.'.}.OXOX}.",
"o.q.w.q.w.w.w.w.q.w.w.t.@.W l.q.w.w.DXw.VXw.VXw.w.w.w.w.w.w.w.w.w.w.w.q.y.r.d.j.4._ A.&.ZXq.ZXCXr.CXy.L.p }.}.}.}.}.}.OX}.'.[.[.}.}.OX}.}.}.",
"o.w.w.q.w.q.w.w.VXZXw.c.n.^ e.t.w.w.VXq.w.q.w.q.w.w.w.q.w.q.w.VXq.q.w.t.w.d.Y.[ [ j.r.t.w.ZXw.ZXZXq.r.H.p }.}.'.}.OX}.}.OX X'.}.}.}.OX X}.}."
};
