/* XPM */
static char *result[] = {
/* columns rows colors chars-per-pixel */
"70 73 249 2 ",
"   c #030303",
".  c #0B0C0B",
"X  c #080907",
"o  c #0B1508",
"O  c #12180D",
"+  c #0B0E14",
"@  c #0D1318",
"#  c #131314",
"$  c #151A15",
"%  c #13151A",
"&  c #13191D",
"*  c #1C1C1C",
"=  c #191A16",
"-  c #10090C",
";  c #2B0100",
":  c #380A05",
">  c #32160D",
",  c #172516",
"<  c #1A3414",
"1  c #14240D",
"2  c #23241E",
"3  c #242819",
"4  c #372719",
"5  c #25371A",
"6  c #2B200D",
"7  c #0A1521",
"8  c #091929",
"9  c #1D1E21",
"0  c #141C25",
"q  c #081D33",
"w  c #211E22",
"e  c #291E2B",
"r  c #3C1926",
"t  c #1E2324",
"y  c #1D2727",
"u  c #0A243C",
"i  c #092338",
"p  c #152537",
"a  c #12292D",
"s  c #242525",
"d  c #292425",
"f  c #262824",
"g  c #252529",
"h  c #2A242B",
"j  c #2A2A2A",
"k  c #262A27",
"l  c #283627",
"z  c #32382A",
"x  c #292B33",
"c  c #2D3134",
"v  c #333334",
"b  c #3C3C3C",
"n  c #36383A",
"m  c #352B31",
"M  c #540A06",
"N  c #53140D",
"B  c #620E09",
"V  c #64130B",
"C  c #681812",
"Z  c #791913",
"A  c #79180D",
"S  c #59291A",
"D  c #4F2E19",
"F  c #453B37",
"G  c #533223",
"H  c #73352A",
"J  c #722520",
"K  c #2B471B",
"L  c #2A5718",
"P  c #37501A",
"I  c #36741B",
"U  c #2D6817",
"Y  c #294525",
"T  c #334727",
"R  c #365624",
"E  c #3B423B",
"W  c #3D5032",
"Q  c #3C6727",
"!  c #3F7928",
"~  c #42423D",
"^  c #49483A",
"/  c #455A35",
"(  c #545A34",
")  c #4A4C2C",
"_  c #674836",
"`  c #456C28",
"'  c #48772C",
"]  c #486A38",
"[  c #577036",
"{  c #537729",
"}  c #0C2B44",
"|  c #042C4C",
" . c #072846",
".. c #05314D",
"X. c #15374B",
"o. c #022D53",
"O. c #042E59",
"+. c #0A2D56",
"@. c #033355",
"#. c #0A3354",
"$. c #02345C",
"%. c #0A345B",
"&. c #03395D",
"*. c #0A3A5E",
"=. c #053854",
"-. c #153959",
";. c #192D44",
":. c #29364A",
">. c #3A3B44",
",. c #2D3556",
"<. c #092D65",
"1. c #023563",
"2. c #0A3562",
"3. c #023B64",
"4. c #0A3B64",
"5. c #023569",
"6. c #023C6A",
"7. c #0A3969",
"8. c #153C65",
"9. c #033C75",
"0. c #463E46",
"q. c #623B5C",
"w. c #0E425D",
"e. c #3D4244",
"r. c #3E4548",
"t. c #2D4C56",
"y. c #014166",
"u. c #02416D",
"i. c #0B426B",
"p. c #084467",
"a. c #14446A",
"s. c #164467",
"d. c #034371",
"f. c #094475",
"g. c #174B73",
"h. c #1D577A",
"j. c #274B66",
"k. c #28537B",
"l. c #2F5572",
"z. c #3F6462",
"x. c #454545",
"c. c #4A4445",
"v. c #454844",
"b. c #4A4B43",
"n. c #434549",
"m. c #49454A",
"M. c #494949",
"N. c #474849",
"B. c #585858",
"V. c #4E4E53",
"C. c #576B4B",
"Z. c #67744E",
"A. c #4C526E",
"S. c #696969",
"D. c #777778",
"F. c #6C756E",
"G. c #596163",
"H. c #831D16",
"J. c #921414",
"K. c #AA1C16",
"L. c #882519",
"P. c #992818",
"I. c #8A200D",
"U. c #A5261E",
"Y. c #BA2F19",
"T. c #91312A",
"R. c #AA3625",
"E. c #B73727",
"W. c #AF352B",
"Q. c #C83A2E",
"!. c #974636",
"~. c #884438",
"^. c #A8473C",
"/. c #B5483B",
"(. c #B74A35",
"). c #C7442C",
"_. c #C84B3B",
"`. c #D64C3B",
"'. c #D4523D",
"]. c #DB523E",
"[. c #D25433",
"{. c #CF5A2E",
"}. c #E04838",
"|. c #8D4D4E",
" X c #A94A44",
".X c #B74C44",
"XX c #B5564D",
"oX c #AB5250",
"OX c #CC5344",
"+X c #CC554A",
"@X c #C65749",
"#X c #D75346",
"$X c #C75753",
"%X c #CF4E49",
"&X c #E24D45",
"*X c #EB5350",
"=X c #3B831B",
"-X c #568A33",
";X c #5B9938",
":X c #4F872E",
">X c #639D3A",
",X c #749959",
"<X c #6B8A54",
"1X c #68A647",
"2X c #6EB948",
"3X c #78BA4C",
"4X c #77AA58",
"5X c #7CBD53",
"6X c #7BBB5B",
"7X c #77B858",
"8X c #73A953",
"9X c #799865",
"0X c #768D69",
"qX c #7AA662",
"wX c #7CB864",
"eX c #6FBD60",
"rX c #7CC259",
"tX c #71C04D",
"yX c #82BC5D",
"uX c #82BA56",
"iX c #83BB4C",
"pX c #83AA65",
"aX c #81B561",
"sX c #84B969",
"dX c #8BB472",
"fX c #819564",
"gX c #81C15A",
"hX c #84C063",
"jX c #2E5A83",
"kX c #366487",
"lX c #0E4A83",
"zX c #4C7696",
"xX c #427CA2",
"cX c #6C99B7",
"vX c #698399",
"bX c #888888",
"nX c #969696",
"mX c #8EACBC",
"MX c #A8A8A8",
"NX c #B6B6B6",
"BX c #96B4C2",
"VX c #CCCCCC",
"CX c #C3C3C3",
"ZX c #D2D2D2",
"AX c #DBDBDB",
"SX c #E4E4E4",
"DX c #EBEBEB",
"FX c #FCFCFC",
"GX c #F4F4F4",
/* pixels */
"@.=...#.$.$.O.O.j.l.-.o. .| | O.$.$.$.$.| 7 # q *.&.4.1.3.5.3.s.C.t.-.2.9.9.5.1.1.&.$.$.@. .q 7 | o.o.O.@.o...| |  .| | o.o.o.o.o.o.O.$.o.#.",
"@.j.-.#.O.O.O.o.+.| +.1.<.$.<.<.O.O.$. .@ j & l.kX4.&.3.4.3.7.y.3.3.8.*.%.6.6.3.1.$.$.$. .+ 9 @ o.o.o.o.o.| | | | | | o.| o.o.| o.o.o.O.$.o.",
"=.j.w...#.O.O.o.O.+.$.5.<.,.7.9.O.1. .+ j n 8 k.g.p.3.3.3.1.4.*.a.7.k.a.&.3.3.3.3.1.$.i X k v 7 o.o.O.o.| @.o.o...o.@.o.o.o.| o.o.o.o.o.o.o.",
"=... .| o.O.O.$.<.$.@.$.,.q.V.s.2.| @ s b v q 2.&.&.&.y.1.4.*.s.A.a.7.a.8.4.3.3.3.$.8 # 9 n x  .$.O.O.$.o.@.o.o.o.o.o.o.o.o.o.o.o.o.o.o.o.| ",
"....o.o.o.$.$.$.1.$.+.1.,.|.q.:.k.@ s s x.s | $.%.3.3.y.&.3.p.g.zX8.4.-.V.-.4.6.1.8 # s d x.t | $.$.$.$.$.O.o.o.o.O.@.@.o.@.$.@.=.=.#.@...| ",
"@.@.o.$.4.4.$.$.1.#.@.2.8.:.,.7.p * s b b 0 o.1.$.3.3.y.&.p.7.a.l.a.3.4.8.2.3.3.q # k t v n.0 O.$.$.$.$.$.$.$.$.$.o.$.$.O.@.@.@.=.#.@.o.@.@.",
"@.O.O.%.s.s.%.%.O.$.&.3.3.4.8.+.& d j N.b + 1.1.1.&.3.3.3.3.*.j.l.s.1.3.6.1.7.#.# s k s b x.8 1.$.$.$.@.$.$.1.&.$.$.&.&.=.=.$.-.z.j.+.@.@.@.",
"$.$.$.@.*.%.$.2.1.3.3.3.3.3.4.7 g s n n.c 7 1.1.1.1.3.y.y.6.*.*.4.4.4.3.4.1.s.+ w s s k x.>.q 5.1.1.$.$.$.1.1.3.3.1.1.&.&...#.s.z.t.%.@.@.@.",
"%.&.$.&.y.&.*.3.1.3.3.y.3.y.i * s j b x.j q 3.3.3.1.3.6.6.6.u.6.4.3.3.3.3.3.8 * k s s k N.v  .6.6.5.1.2.&.3.&.3.3.1.&.&.&.=.1.=.u w.=.@.@.@.",
"1.3.&.y.&.&.y.y.3.y.3.y.y.*.& s k v x.x.j  .6.6.5.3.5.6.u.6.u.6.u.6.3.3.3.=.+ s s k s j N.j  .4.6.4.-.*.1.3.1.3.3.3.1.&.@.&.1.=.=.$.%.$.$.&.",
"4.3.y.3.y.3.3.&.y.3.p.7.4. .9 t d b x.x.j } y.6.6.1.6.3.6.y.9.u.6.u.y.y.3.7 9 s d s s j N.j | 7.7.*.C.j.p.1.1.3.1.3.1.&.@.$.1.@.&.1.1.$.$.$.",
"3.3.y.3.6.y.y.3.y.3.4.7.#.0 s k 2 >.x.x.j  .d.6.6.6.5.6.6.6.d.d.d.u.6.6.@.+ d s s s s c x.c o.7.i.j.vXz.p.3.3.1.3.&.&.&.&.1.1.=.&.1.&.$.&.&.",
"6.y.3.y.6.6.3.3.y.3.a.jXu % s d j x.x.x.j } d.u.5.+.o. . ...#.%.6.6.d.6.u * s s s s d j x.v | i.i.a.A.j.5.1.1.1.1.1.1.$.&.1.$.=.1.$.&.&.$.&.",
"3.3.6.y.u.y.6.y.y.3.g.cX0 9 s s v v.x.x.v p *.u 0 c >.b b x.0.c 0 } 7.2.@ s s s s d d j x.v | 6.6.6.%.4.1.1.1.1.3.1.3.1.$.1.%.&.$.&.$.1.&.&.",
"y.3.y.y.y.y.y.y.6.3.1.X.* s d d b n.x.N.x.& & d c ~ N.N.v.x.x.x.n.b 0 q # j g j s d d = * = 0 p ;.} o.1.1.1.1.1.1.5.2.1.1.%.$.$.1.1.1.$.$.&.",
"u.3.6.y.y.3.y.y.u.i.%.0 t k s j x.N.F v j k s d v x.x.c.x.x.x.x.x.x.e.= . s d g * # & k v b x.x.x.>.n p | 1.1.5.1.3.5.5.5.1.O.o.%.1.$.&.&.$.",
"f.3.3.y.6.y.6.y.y.u.u s s s s s v k k s g g s k b N.x.x.x.x.x.x.x.x.N.x.d - s . . j x.N.x.x.x.x.x.x.x.x.b p O.1.6.1.6.1.2.2.8.8.O.1.1.&.&.$.",
"6.4.6.6.y.6.6.u.u.u.0 s s s s d d s s s s d s s b N.x.x.c.N.x.x.x.x.N.x.v.* . * k d F x.x.x.x.c.x.x.N.N.x.N.x O.5.1.1.5.2.7.jXk.%.1.1.&.&.&.",
"p.3.6.6.6.6.6.u.d. .* s d d s s s s s d d s s s b N.x.x.x.x.N.c.x.x.x.x.x.b - w g d c N.x.F N.x.x.x.N.x.n.N.0.a $.1.5.5.2.2.<.%.$.$.&.1.1.&.",
"&.4.1.6.5.6.6.6.y.@ s j t s s s s s s s s s s s v x.x.N.x.v.x.N.N.x.x.e.x.x.v X k s d E n.e.x.N.x.c.x.N.x.b x.x.u 1.3.5.1.1.%.%.$.1.&.&.&.y.",
"4.6.5.1.4.6.6.6.=.* d g s s s s s g s s s s d s c x.x.x.x.x.x.x.x.N.x.c.x.x.x.& t s g j N.v.N.x.N.x.c.c.x.N.x.e.x o.5.1.1.%.1.1.1.1.1.&.&.y.",
"1.1.5.6.6.5.6.6.q d s s s s d s s s s d s k s s s x.x.x.x.x.x.x.x.x.v.x.x.x.x.b = s t d n x.~ x.x.N.N.c.v.x.x.N.x.p 5.2.1.1.1.1.9.9.1.1.3.3.",
"1.1.5.5.6.6.9.4.+ d s k g s s k s k s s s k t s F n.x.x.x.x.x.x.N.x.x.x.x.x.x.x.X h w s j V.e.b v j d c n ~ x.x.x.c o.2.1.1.1.1.f.lX6.&.3.3.",
"1.3.6.5.5.6.d. .s t s s s s s s s s s s s d s v N.x.x.x.N.x.x.x.b b n b b b b x.# j , - . . * d k j j c v v v F N.n.g q  .$.3.1.9.f.6.1.4.3.",
"1.5.5.6.6.d.d.8 j s s s s d s s s s s s s s j x.x.x.F j w * = * = = # % # - = #   % - 2 d s v x.x.x.N.x.N.N.x.x.x.0.N.~ v 7  .1.<.5.1.1.3.3.",
"1.1.6.6.6.d.7.& s d s s s s s s d s s s s s n N.N.b v e.x.x.x.x.N.x.c.x.c.x.x.E c k k s s s d j x.N.x.c.N.N.x.x.x.x.x.N.x.x.c q 1.5.1.1.1.3.",
"1.1.6.6.d.d.#.* j s s s s k g s s s k s s j x.x.x.x.x.x.x.N.x.x.x.N.x.x.x.x.x.x.N.v g d s s s s b x.N.x.c.x.N.c.x.v.n.x.n.x.0.j u 1.1.1.3.3.",
"6.9.6.d.d.u.8 s s k s s s s s s s d s s d v x.x.x.N.N.N.N.x.x.x.N.x.N.x.x.x.x.x.x.v.j d s s s s k F N.x.x.x.x.N.x.x.N.N.x.v.b x.x | 1.$.4.1.",
"5.9.6.d.d.$.@ s s t s s s d s d s s s s j e.x.x.x.x.x.x.0.x.x.x.x.F N.N.x.x.x.M.x.x.n d k d s d d j e.N.0.c.c.x.x.x.x.x.N.x.x.x.x.9 $.%.$.1.",
"1.6.u.u.d. .% d d s s s s s s s s s d k v x.x.x.x.x.x.x.x.x.~ x.b v v j d t s d v v x.j s s g s s s v x.0.0.F j d s * 2 s v n x.N.n.u $.$.&.",
"3.y.u.d.u.8 , d k s s s s d s s s g d k b x.x.x.x.x.x.N.x.b # + N.# .     + nXMXnXB.v s + d 2 s d k j d # - . X       S.VXMXS.j d b x | $.&.",
"y.y.u.u.%.@ h d j s s s s s s s s k s j N.N.x.x.x.x.x.2 s B.S.= ZXv   X     B.GXFXFXDXNXnX= s k & * B.MXF fXzX  X X . # SXFXFXDXNXN.k i $.$.",
"p.u.d.u.i * d s k s s s s s d s d k s v c.x.x.N.e.M.k B.NXZXS.X k X         % FXFXFXFXAXZXF.# j D.NXZXGXv 2 =         X bXFXFXFXFXZXD.g @.$.",
"3.u.d.u.+ k s s s g s s s s s s s d s b x.N.x.x.b c M.VXVXGXG.+               FXFXFXFXSXZXZXg ZXVXZXAXGXj               V.FXFXFXGXAXVXbX*.1.",
"3.g.d.4.@ s s s s s d s s s s k s s j c.x.v.x.N.V.* D.ZXVXGX|.@             * FXFXFXFXSXZXAXj VXVXZXZXFXV.              B.FXFXFXGXDXVXS.a.&.",
"k.xXg.} & d s d s d s s s k s g s s c N.x.N.x.x.x.2 E NXVXGXCXX             B.FXFXFXFXDXVXVXF VXVXVXVXGXNX          X   bXFXFXFXFXDXzXX.3.1.",
"zXcXjX8 * s s s s s s s d s s s s k n N.x.x.x.c.x.j % w S.ZXSXS.X   X     # CXFXGXFXFXSXCXF.M.MXCXVXVXDXGXm..       X v DXDXFXAXNXN.i y.y.3.",
"s.k.a.+ s j s s s s s k s s s s s s b c.x.N.N.x.x.x.j 2 # = j n # X X . . B.bXnXbXS.N.j s X * w g x.D.nXAXAXMXB.B.B.bXnXnXS.x.x.c :.4.y.y.3.",
"4.7.o.= s t d s s s s s k s s s s w ~ x.x.N.x.x.x.x.= * s k k w = # % * * s s * * j n x.b - * s h k , * # % = * * * s j x.M.x.x  .u.9.d.u.6.",
"1.6. .g s k s g s s s d s s s s s s b x.N.x.x.x.x.x.v # . X - % * w d b x.x.x.x.x.~ 0.j X j k g d s s s w h x.M.x.x.x.v.N.x.e.-.d.9.lX9.d.y.",
"6.3.8 j s d s s s s s s s s s d s s b x.x.n.N.N.x.N.x.n j d = # # .   = & = = * s s # = s g s s s s g k g k b 0.x.x.v.N.x.n -.u.d.d.d.d.d.d.",
"6.$.7 k s s s s s s s k s d s s s s b x.x.v.x.c.N.~ x.x.c.N.x.v c j d d d j h d k j c n.b k j s t d d d d d v b v v j d 0 $.u.d.d.d.u.y.u.d.",
"1.+.% s s s s d s d s s s s g k s d c v.x.x.x.x.x.N.x.x.x.~ x.x.x.x.n.x.x.b b x.x.x.N.x.N.F c * # . X X X X X # # % = + p.d.d.d.d.d.u.u.u.9.",
"1.+.* s s s s s s s k g s s s s s d j M.x.N.N.x.x.N.N.x.x.x.x.x.x.x.N.x.x.x.x.x.x.x.x.c.x.x.x.F d s w * 9 * w , s d j w i d.d.d.u.g.p.u.9.1.",
"1.q t d s s s s d s s s s s g s s s d ~ N.x.v.x.x.N.x.N.x.c.n.x.x.x.x.N.x.N.c.x.x.x.c.x.x.x.N.N.j s s s k s s s s s d s # ..u.a.s.zXk.y.4.1.",
"1.8 s s s s s g s s s s s s s d s s d c x.c.x.N.x.n.v.n.x.N.N.N.x.N.N.x.x.c.N.N.x.N.x.N.x.N.x.M.n d k s s s s s s t d h k 0 s.zXBXBXjXy.$.$.",
"1.@ k s s s k s s k f s d s g s s s f 3 z E ~ x.v.v.v.x.x.v.n.n.N.m.c.x.x.x.x.m.c.m.c.x.x.x.x.M.F d s s d t s s s s k , , 0 u s.mXBXvXg.%.1.",
"O.@ s s s s d s s g s s 2 g t d k g O P P K , 1 , , l v n x.r.n.m.m.m.c.^ v.~ 0.m.0.c.x.~ ~ N.~ ^ 3 3 2 d y s s 2 * O $ Y Q l a.zXk.g.i.&.1.",
"O.9 h s s d s g s g s f 2 y g g s , T :X8X1X-X' ] R L K K 5 5 < , , , y f h c >.r.n.x.x.b.b.e.e.E l y y k y y O o < L Q -X8XZ.-.f.p.f.y.*.5.",
"o.% s s s s s s s g s s s g x t , K I 5X5X5X5X2X2X1X1X1X;X-X:X=XI U L L K 5 5 5 < 1 O $ 2 c E e.V.:.p y , o , Y R ! ;X1X2XgXqXX.f.d.u.p.3.5.",
"| & s s s k s s s g s f g x g 0 < I >XiXuXaX6X6XsXdXdXsXdXdXsXsXrXwXrX8X1X1X;X-X{ ` ` ] R T 5 O , k , o 5 ) ` :X4XyXrX3XgXiXdXt.u.d.u.u.6.3.",
"o.# g s s s s s s g s s s h 9 , R =X3XuX6XqXZ.) D G S S _ _ _ ( ( Z.Z.<X,X4XwXwXsXsXwX2X>X;X-X{ ' Q L ' -X>X3XhX5XyX5XuX6X,XZ.F :.u.u.u.3.3.",
"+.% d s s s g d s g s k d w f 1 ` >XgX7XwX/ N P.OX$X@X+X@X@X/.!.T.H G 4 4 4 ) / C.<X,X8XuXuXaXyX7X1X>X8XyX7XwXhX4X,X<X[ ( H ~.oX|.3.d.u.y.3.",
"2.@ d s s s s s s g y s d d 3 < ` 7XrXeX( C U.&X#X].].&X].[.`.OX#X'.'.@X$XXX X!.H S > N 4 2 z ] Z.<XfX0XF.C.) 4 D S ~.oX$X%X].+X~.+.u.p.y.3.",
"2.@ g 9 k d s s s g s s e h O L I iXeXdXN K.Q.Q.R.I.Z Z Z Z L.T.R._.OX#X#X+X#X#XOXOX$X$X$X.X^.!.!.!.!.!.!.^./..X@X@X+X+X'.&X&X.Xm 4.y.g.3.3.",
"1.q g s s s s s k y s d d d o ` I 4XwX( L.K.Q.T.^.^.^.^.W.T.L.J M M M H.P.Q.Q.).}.*X&X'._._.].#X&X'.[.`.].`.'.#X#X#X].'._.(.T.r %.u.p.xXa.p.",
"2. .& s s s d s s d g y d k o Q U 1XeXZ.S J.Q./.R.E.Y.Q.Q._.&X&X*X$X.X|.C M M A J.U.K.Y.Y.Y.W.(._.+X+X+XOX%XOXE.K.U.J.J.A M e 3.y.6.3.g.p.3.",
"s.#.0 d s k s s s g d y y s o ' L 0XeXwX[ G C V V B B A Z Z Z I.P.E.E._.@X$X XT.J N C C V A C C V B B V C C C C C C J T.^.oX:.6.y.y.y.3.y.3.",
"cXj. .w g s s k s h g s y k X ' U T ,X3XgXaX,X,X,X<XZ.C.) 2 3 6 ; : C A P.U.E.Q.'.OXXXXXoXoX X/. X/.(./..XOX'.OXOX+X+X@X$XoX:.6.y.3.y.3.3.3.",
"s.&.2.+ s t s s s g s y s x X W C.Y K pXyXyXrXrXuXyXyXyXyXsXyXqX,X<X[ F > : N A L.W.).[.[.{.].].].'.}.`.`.).E.).(.E.(.R.L.r #.3.y.3.3.1.1.3.",
"=.y.y.p t d s s s d s y y g w = 1 Y Y / ,X5XgXuXiX3X3X3X3X7XrXrXgX6XwXsX9X<X( G > : N Z L.R.W.R.R.P.U.P.P.J.Z A V N M > e %.3.3.3.3.3.&.&.$.",
"u u i i . * s s s s s s k h h d k = - & < <XpXdXsXwX6X6X6XtXtXtX2X5X5XuXgX3XtX7XsXqX[ T 4 ; ; : : : ; ; > 4 F B.m.;.4.p.6.6.3.1.1.1.&.&.$.$.",
", s f 2 s s w = , s d s s s d s s g h j l f , , T W C.,X,X,XwX4XwXaXaXaXaX6XwX6X4XaXqX9X9X9XF.Z.B.C.b.v.E T 5 8 #.3.1.3.3.3.3.1.$.1.$.$.$.$.",
"s s s s d d h s & # % * s s s s s d f f d ~ b.^ n j t $ # , l l 5 T T T T T T z l 5 l , O o o O = t s k x l q 4.3.1.1.1.2.1.&.$.$.$.@.$.$.#.",
"s s s s s t s d d k 9 # . + & w 2 2 2 2 f f ~ N.c.c.M.c.c.^ F >.F b b v b n b >.b x.F x.c.c.x.x.b v v g c g  .1.$.$.$.$.1.O.%.#.-.#.$.O.$.$.",
"s s s d s d s s j d d d s * = # . . # = = # d b ^ ^ ^ b.^ b.b.N.N.m.m.m.x.0.>.n x x g 9 * w s k c n x.N.m.n.n q @.%.$.$.O.$.%.,.q.,.$.O.$.$.",
"s s s s s s s t * = = = * * s k s * * k v v x d d 2 = $ $ % = % # # # = * 9 t s s c v v b b F v v F e.~ c.n.>.v 8 @.@.=.#.+.=.,.q.,.$.$.$.$.",
"s s s s d s d * * 9 w * = % X - s d j k s c b x.v.n.n.n.e.x.x.N.N.N.x.v.x.x.x.N.x.v.e.b 9 # w e m F ~ x.c.x.c.M.~ 0 | @.O.1.=...8.#.$.$.1.$.",
"s s s s s d s t w 9 * * = % . X . # + - % # = * g c b e.~ x.v.N.c.x.c.N.c.N.~ b v d = # + # 9 9 h c 0.M.N.c.^ ~ ~ F 0  .1.<.O.%.@.$.$.1.1.1.",
"s s s s * & % # # # % - X . & s d j h * * - # . X . . # = * * s k k k j v j w # X # = s w - = s s * s v x.x.x.x.N.N.x.0 | 1.<.+.+.<.1.$.$.$.",
"d s * s s s s f s # X o w d d s s b x.E n n m s s s d d * s , w = w w w * d j h c v 0.x.N.b s X = g v N.b x.x.x.x.n.x.n.@ +.@.@.#.$.$.1.1.$.",
"s s s s d s d = . = 9 s d h s s j x.x.b l = # d x.E b j . w d =   v n E j . = j x.x.x.~ m.x.x.b w + s j v 0.x.x.x.x.x.0.0.8 @.@.$.$.$.1.%.$.",
"s s s s s t X # d d s k s s s k b M.j       * x.x.x.x.x.#       . 0.~ N.x.=       k N.N.~ N.N.n.x.b - = s v E x.x.0.x.N.x.v q $.$.$.$.%.$.1."
};
