/* XPM */
static char *result[] = {
/* columns rows colors chars-per-pixel */
"70 73 250 2 ",
"   c #040604",
".  c #050A04",
"X  c #090809",
"o  c #0B150A",
"O  c #191A18",
"+  c #13150F",
"@  c #291E17",
"#  c #182718",
"$  c #1B3119",
"%  c #10240D",
"&  c #24271A",
"*  c #24391B",
"=  c #392918",
"-  c #1B1E27",
";  c #0A1B2D",
":  c #152925",
">  c #0C2A38",
",  c #132B38",
"<  c #162E2D",
"1  c #272927",
"2  c #273725",
"3  c #323532",
"4  c #211C20",
"5  c #4E291E",
"6  c #703E1F",
"7  c #513326",
"8  c #743B2A",
"9  c #68392C",
"0  c #1E4415",
"q  c #28481C",
"w  c #2B4325",
"e  c #2C4829",
"r  c #354928",
"t  c #375B28",
"y  c #364736",
"u  c #3C5332",
"i  c #3B5B35",
"p  c #3A6425",
"a  c #3C652B",
"s  c #3E6A2C",
"d  c #376224",
"f  c #3D6532",
"g  c #3F7031",
"h  c #594924",
"j  c #465529",
"k  c #575729",
"l  c #425C33",
"z  c #455839",
"x  c #575A33",
"c  c #484D30",
"v  c #644C29",
"b  c #794829",
"n  c #66522A",
"m  c #77522D",
"M  c #774F32",
"N  c #426A2D",
"B  c #44662D",
"V  c #426433",
"C  c #436B33",
"Z  c #456D39",
"A  c #4A6838",
"S  c #566839",
"D  c #4A7335",
"F  c #4C733B",
"G  c #4A7737",
"H  c #537B3C",
"J  c #57763C",
"K  c #4D6A2E",
"L  c #617539",
"P  c #54481F",
"I  c #0D1B4F",
"U  c #032D4D",
"Y  c #082D47",
"T  c #08354C",
"R  c #163A47",
"E  c #022E53",
"W  c #042E5A",
"Q  c #0A2E57",
"!  c #023355",
"~  c #0A3353",
"^  c #02345C",
"/  c #0A325C",
"(  c #01395E",
")  c #0B3A5E",
"_  c #073955",
"`  c #163A57",
"'  c #17294C",
"]  c #293857",
"[  c #2B374D",
"{  c #082E63",
"}  c #023563",
"|  c #0A3563",
" . c #023B64",
".. c #0B3C63",
"X. c #023669",
"o. c #023C6A",
"O. c #0C3D6C",
"+. c #153B65",
"@. c #053C73",
"#. c #112B72",
"$. c #6B3D58",
"%. c #0B415E",
"&. c #184658",
"*. c #25494A",
"=. c #2C554C",
"-. c #365849",
";. c #234B58",
":. c #2A5655",
">. c #375A57",
",. c #344556",
"<. c #3E6354",
"1. c #3D6144",
"2. c #014066",
"3. c #0B4265",
"4. c #03426C",
"5. c #0B436A",
"6. c #0C486A",
"7. c #134364",
"8. c #14446B",
"9. c #184767",
"0. c #024472",
"q. c #0A4373",
"w. c #064578",
"e. c #174A75",
"r. c #274C67",
"t. c #285379",
"y. c #345A7D",
"u. c #2E546C",
"i. c #3E6561",
"p. c #49494B",
"a. c #455945",
"s. c #525255",
"d. c #72524C",
"f. c #476848",
"g. c #546C4B",
"h. c #4C7444",
"j. c #557544",
"k. c #547B43",
"l. c #5B7C44",
"z. c #557B4A",
"x. c #5A7D4C",
"c. c #587449",
"v. c #476458",
"b. c #5C7953",
"n. c #506E55",
"m. c #647B47",
"M. c #637356",
"N. c #495B6C",
"B. c #7B7A7B",
"V. c #6A716B",
"C. c #496D6B",
"Z. c #843F2B",
"A. c #86462B",
"S. c #874D34",
"D. c #924C33",
"F. c #895836",
"G. c #9D5C3B",
"H. c #985A38",
"J. c #A35B36",
"K. c #A45B3B",
"L. c #AA5A3A",
"P. c #A85739",
"I. c #A75A2B",
"U. c #96623A",
"Y. c #926236",
"T. c #A1603D",
"R. c #9C5D41",
"E. c #935C43",
"W. c #854E48",
"Q. c #A35C41",
"!. c #A85741",
"~. c #966145",
"^. c #5B8E36",
"/. c #54833C",
"(. c #568D3C",
"). c #5A8D3C",
"_. c #598838",
"`. c #56903C",
"'. c #5A903D",
"]. c #589035",
"[. c #618A3C",
"{. c #63873A",
"}. c #558442",
"|. c #5B8543",
" X c #568D42",
".X c #5B8C42",
"XX c #5C844B",
"oX c #5D8B4A",
"OX c #55854A",
"+X c #5B9142",
"@X c #579046",
"#X c #5B8453",
"$X c #638543",
"%X c #618B44",
"&X c #61854A",
"*X c #628B4A",
"=X c #69854B",
"-X c #638752",
";X c #629149",
":X c #76876A",
">X c #6E846A",
",X c #5B8760",
"<X c #85957C",
"1X c #123C98",
"2X c #103990",
"3X c #0A3BB6",
"4X c #123BAE",
"5X c #233F8C",
"6X c #0A4984",
"7X c #18468C",
"8X c #295384",
"9X c #36648E",
"0X c #1541B6",
"qX c #4A6E8D",
"wX c #427CA2",
"eX c #123BC6",
"rX c #0E3BF1",
"tX c #1642C6",
"yX c #0D43D8",
"uX c #1245D9",
"iX c #0946E9",
"pX c #0546F4",
"aX c #0349F4",
"sX c #0545FE",
"dX c #0843FB",
"fX c #024AFB",
"gX c #0947F6",
"hX c #1142ED",
"jX c #72838D",
"kX c #7597B0",
"lX c #79A185",
"zX c #8C948C",
"xX c #869BA7",
"cX c #AAA8AB",
"vX c #B6B9B8",
"bX c #ACB3AB",
"nX c #99A699",
"mX c #BAC3B9",
"MX c #C9C9BE",
"NX c #B9BCC5",
"BX c #C7C9CA",
"VX c #D5DBD5",
"CX c #CFD2D0",
"ZX c #E6EAE8",
"AX c #F3F5ED",
"SX c #FAFAF5",
"DX c #FCFCFC",
"FX c #F5F9F5",
"GX c #EDEEEF",
"HX c #E1E2D9",
/* pixels */
"! U T ! / W ^ W r.u.` E Y U E W ^ ^ ^ ^ ^ ^ ( ) ..( (  . .| o.9.v.-.` | @.@.X.} ^ ^ ^ ^ ! E E E E E ! W E ! U U Y Y Y U E E U U E E W E ! W ",
"! u.` ~ ! E W E Q U W W { W { { ^ W W ^ ^ ^ ( qX9X(  . .X. ...o. .| +./ | X. . . .} ^ ^ ^ E W E E E E E E U U U U U U E E U E U E E W W ! E ",
"! u.` T W W W W Q W / X.#.+.| @.^ ^ W ^ ^ ^ ^ t.e. .(  . .| ..+.+.O.e.e.)  . . . .^ ^ ^ ^ ! E E E E E E U ! U E U E E E E I E E E E U E Q E ",
"! Y U U E E ^ W { } ! ^ ' $.s.9.| / ^ ^ ^ ^ ^ ^ )  .%. .(  . .9.qX` +.+.+... .o. . .( ( ^ E W W W ^ W ^ E E E E E E E E E E E E E E E E U U ",
"! T U ! W ^ ^ ^ } / W / ] W.$.] t.| W ^ ^ ^ ^ } (  . . .( 2.4.9.9X+...` p.+. . . . .^ ( ^ ^ ^ E ^ ^ ^ ^ ^ ! ^ E E E ^ ! E ! ^ ! ^ ^ ! T U U ",
"! U E W ....^ ^ } ! ! | ] [ ] { t...} W ^ ^ ^ ^ ^ ( 2.2.2. .3.+.y.8.....+.|  . .}  . . . .^ ^ ^ ^ ^ ^ ^ ^ ^ ^ ^ ^ ^ ! ! ^ ! ! ! ~ _ ! ! ! U ",
"! W ^ / 8.8./ / / ^ (  .o...+.@. . . .} } } X.}  .}  . . .2.) r.y.9...X.X. .5.O. . . . . .} X.} ^ ^ ^ ! ^ ^ } ^ ^ ^ ( ( ! ! / ` i.;.! ! ! ! ",
"^ ^ ^ ! / _ _ | }  . . . . . .o.4.3.&.>.>.f.f.-.=.&.)  .2. .) ) ..)  ... .o.8.3.) ..o.o.o.o.X.o.X.^ ^ ^ ^ }  .(  . . .( ( ! / &.C.,./ ! ! ! ",
"^ ( ( ( %.( (  . . .2. .2. .2.6.=.h.OX.X.X.X).).$XXXh.:.%.o.2.2... . .) %.:.>.f.f.g.<.:.&.4.o.o.o.X.}  . .(  . . .} ^ ( ! ! ( _ *.T ^ ! ! ! ",
"|  .(  .2.( 2. . . . . .2.4.&.f..X_..X)..X).).(.+X.XoXoXj.:.6.4.4.3.;.<.k..X).|.%X|..X%XXX:.5.o.o.X.`  .} }  . . . .( ( ( ( } _ ! ^ ^ ^ ^ ^ ",
" . . .2. . . .%. . .....3.;.k.[.)..X.X.X).^.)..X.X.X.X X^.XXv.9.;.h..X.X.X'.(.).'..X)..X.X.X-.+...` N.r. . . .^ (  .( ^ ! ^ } ! ( ^ ^ ^ ^ ( ",
" . .2.o.2.2. .2.2.2. .8.=.x..X].^..X).).(.).).).).).^.).).)..Xh.F oX@X.X.X).^.'.(.'.(..X X'.|.:.6.r.:XC.3... . . .}  .^ ( }  .! ^  .} ^ ^ ( ",
" .2. .4.o.o. . .2. .8.u.m.%X'.`. X.X'.)..X.X.X.X[.%X).%XoX(.'..Xt oX@X.X.X.X(.`.`.`.'.`.`.`..Xz.9.8.N.r.X.} } } ^  .( ^ ( X.^ ! } ^ ^  .( ( ",
"o. . .2.4.o.o.2.2.2.r.z..X).`.(..X.X.X).N s C C C C C a G .X)..XOXg .X.X.X.X.X).(..X).+X+X`.(.oX=.o./ } } } } } X.} X.} ^ ^ ) ( ^ ^ ( ^ ^ ( ",
"2. .2.2.2.2.2.2.2.7.f..X].).).@X+X|.a N G |..X.X.X.X.X/.F V f XXoXa oX.X(..XoX%X.X%X%X%X.X X XoXf.O.X.X.} } } } X.} X.} } / ! ^ ^  .^ ( ( ^ ",
"4. .2.2.2.2.2.2.4.*.-X(.^.)..X.XN d |..X.X.X.X^.(.'.(.^.).%XoXa p f k.Z s g f p p d d p a a a Z c.9. .X.} } } X. .} X.} X.| W ! ^ | ( ^ ( ( ",
"q. .o.2.2.2.2.o.3.g..X(.).).(./.G oX).).).).).).^.)..X.X)..X.XoX}.0 a XXXX.X.X.X|..X.X|..X.X.X/.a l =.` | X.X.X. .X.X.X./ | +.+./ } } ^ ^ ( ",
"O. .o.o.o.o.4.4.:.XX.X.X).)..X.X@X@X).).^.).).)..X.X.X.X.X.X.XXXoXXXt XX.X^.^.'.^.(.(._.^.'.).'.(.{.%Xb.=.7. .X.} X.} X.| +.9Xt./ }  .( ( ^ ",
"3. .o. .o.o.o.6.n..X).)..X)..X)..X).).).)..X.X.X|.}.t d C s N g V f t 0 k..X.X`.+X).). X}.G s a a C k.&X*Xh.&. . .X.} } } } W W ^ ^  .( ( ( ",
"(  .o.X.X. .o.&.OX.X'.)..X).).).'.).'.). XoX}.a s D XX-Xk.F C J XX-X-Xz.Z Z -X*X}.a d N C F c.XXx.z.Z C s s r u. .X.X.X.} } / / ^ ^ ^ ( ( 2.",
"(  .X.X.X. .7.1..X X).)..X).^.^.)..X)..X.Xa g XXH a a C D G H D a N N B F f.l V Z G F g B K B B B C V V V Z H g.;.X.X.} } } ^ | X.} ^ (  . .",
"| X.X. ...;.a.D .X(..X).).(.'.^.).%X%XD a J k.f C XX.X.X).^.)..X%X)..X).D t V C a s D |..X[._..X[.)._.)..XH s f -...} } | / } X.@.@.o.}  . .",
" .X.X.7.f.&XF }..X.X)..X.X`.'.+XG p d k.XXB N  X X.X.X.X^.)..X%XXXoX.X|.=X&X|.*X.X.X|.%X(..Xl.c.J l.l.S c.k.c.oXF *.| } } ^ }  .q.7Xo. . . .",
"} X...-.).^.g }.)..X.X).+X.X.X/._./.h.a d .X/.(.(.).%X.X[.l.j.j.b.:X<X<X<X:Xm.l.=X%Xj.c.m.:XzXnXB.s.V.zXBXVXmXzXM.s.) X.X.} } X.@.q. .^  . .",
"^  .*.oX).).a oX.X)..X.X)..XD C D K G +X+X.X;XoX*X}.F g.>XM.c p.M.cXDXDXDXDXAXc c.zXmXHXSXSXcXO @       & cXDXDXFXmXr.X.X.X.| X.X.X.} ^  . .",
"} ) k..X.X.Xp %X)..X.X(..X).F N V D H |.H D J M.zXbXVX:X7 qX4 X X X s.GXDXDXGXnXFXDXSXDXDXBXo O vXp.      1 GXSXSXFXqXX.X.o.} } } } } X. . .",
"| =..X.X.X)./..X'.).^.).).)..X/.h.F i g.bXMXHXAXDXDXvXX O cX1 X 1 X X B.DXDXvXVXSXDXDXDXFXs..   O X p.zXX . cXDXSXHXy.X.X.X. .} } X.} }  . .",
"9.c..X.X).+X+X(.(.).).).).).).).+X).[.H :XVXFXSXDXSXp.X . o X 3 ZXV.X 4 ZXGXzXDXDXDXDXSXAX1 . 1 7 X B.CXX X s.GXvXqXo.o.o. . .X.X.X.^ } |  .",
"-.|.+X.X)..X(..X).).(.).)..X(.'.^.^..X.X%XA zXVXSXSX1 X X s.- + zX3 X . V.S z zXbXCXAXSXZXO   1 p.X     o + r z v.6.4.o.o.o.o.X.X.} / ^ ^ ( ",
"F )..X).)..X.X).).'.'.).).`.).'.'.).).a a l.$Xg.n.zX#     3 . . + & y c.=X;XB -X-Xj.K g.g.w w w y i f.b.-X&X_.-.7.4.2.4.0.4.o.o.X.X.^ ^ ^ ( ",
"%X|..X.X.X.X).).).'.^.).).`.). X X.X).%X|.B t D XXXX-Xx.c.z.#Xx.-X-X%XG F t .X'.(.)..X.X.X.X.X%X%X.X).).'.+X>.e.5.5.4.4.4.0.4.o.o. .^ ^ ^ ( ",
"^.)..X).).).'.).).).).).'.).).).).)..X.X.X.X.X).D p B i s s a a a C V D /.).`.'.(.).).).^.).)..X.X X).).@Xn.9.5.@.q.0.4.4.o.4.0.o.o. .^ ^ ^ ",
"^..X.X^.(.).).).^.'.).).^.'.).).).)..X.X.X.X). XoX.XoX%X.X.X%X.X&XF C *X.X).)..X).%X[.).).).^.).^.).$Xz.:.0.4.4.w.6X0.4.4.4.o.4.4.o. . .^ ^ ",
".X).).'.).'.).).).).).'.).).).'.).'.).`.'.)..X X.X(.).).).|..XG N G oX.X.X'.)..Xp G &X*X*X|.oX|./.J i 3.0.0.4.0.w.w.0.4.q.q.q.o.o.o.o.6.3. .",
" X).).).'.^.).'.).).).).).).).).).(..X.X.X.X.X X X.X).%X|.C a D -X.X.X.X).)..X.X.XC a t Z f a g s D i w.0.0.0.0.w.4.4.q.6X8Xq.q.o.o.4.e.q.( ",
"@X).).).).).).).'.(.).(.'.).(.'.).'.)..X.X(.).)..X.XF a B |.*X^.].).).(.).).^.'..X XoX}.C oX|.).).].oX<.6.4.0.0.0.0.0.O.8X9Xw.o.0.0.4.o.o. .",
".X.X).).).^.(.).).'.).).(..X.X)..X.X X). X)..X.X)..X_..X.X).).).'.).'.(.).^.).(.'.)..X(.).).).).).^.`.oX>.4.0.0.0.0.4.@.w.q.q.0.4.T , > 3.2.",
".X).).^.).'.'.).).).).).'.).)..X.X)..X.X.X)..X'..X.X.X.X(.).).).^.).).).'.).).'.).).'.).).).).'.).).(..XXX:.0.0.0.0.0.4.w.0.0.5.` : m.A # +.",
".X).).).).).).).'.).).'..X.X.X).)..X)..X.X.X)..X X.X).).).'.).).).).'.).).).).).).).).).).).).(.).%X).].`.h.4.0.0.0.0.0.@.4.4., z & D {.F ; ",
".X.X'.).).).'.).).(.^.).'.)..X.X.X.X`..X(..X.X.X).)..X.X).).).).).).).).^.'.).).^.'.).).'.).^.'.).%X).^.`..X&.0.0.4.0.0.4.q.4.*.=Xl w %X+Xi ",
".X).(.'.).).'.).'.).).'.)..X.X.X.X(.)..X)..X.X.X.X.X.X.X(.'.).).'.).).).'.).).'.).'.).).).).).`.(.`..X.X).+X>.0.0.0.0.0.0.0.0., l.-X$ e &X=X",
".X).).).).).).).).).).).)..X+X@X.X$XJ S A S =X*X.X X+X(.(.(.).^.].(.`.+X X).).).).(.`. X).).`. X`.].].+X.X*Xf.6.0.4.Y Y 0.0.0.T V [.j % .X^.",
"(.).^.'.).(.).'.).^.).).'..X.XL j n F.Y.Y.m m h h P S L =X*X%X.X.X).[.[..X).[.{.[.[.[.).'.).[.[.^. X@X*Xm.k h ,.e.*.y a.> 0.0.6.2 %XF o l .X",
".X'.).).'.^.).).(.'.).).(.).m.v H.G.T.J.K.P.P.!.Q.R.F.m v n h j x m.$X%X.X@X.X.X+X`. X X X`..X[.*Xm.j h n Y.H.W.t.lX: m.* 3.0.0., F .X2 + *X",
").).).'.).).'.).'.).).'.).%Xk H.L.P.D.D.D.S.F.G.H.I.J.P.J.G.U.U.M M M v v x x x S S S S S x x k v m Y.H.K.K.Q.s.3.&.` 2 m.# 5.5.` V .Xj.o OX",
").).).).).).).).).).).)..X$Xk U.P.L.A.A.A.A.b A.b Z.D.G.K.K.K.K.T.Q.L.L.Q.Q.R.R.H.D.D.F.F.G.T.K.K.H.J.I.Q.H.s.7.4.5.o.< m.u &.qXxXl %X$Xt }.",
" X).).).'.).).'.).).).^..Xl.v K.L.P.J.J.J.J.I.K.P.R.A.b b 8 Z.A.D.F.H.G.H.J.K.U.H.U.U.K.J.J.J.J.J.H.D.A.M [ 0.0.4.w.0.~ j m.< &.v.g..X{.^.@X",
" X.X.X).^.(.).).).)..X(.`.%Xk F.E.R.R.R.R.R.G.G.G.G.J.K.K.L.K.H.S.S.Z.8 9 9 8 8 5 5 7 8 6 6 6 8 8 b H.D.~.,.0.4.0.w.0.0.# &XV w r &X.X).)..X",
"]..X.X).'.^.).).'..X XG G ).%XK S x x x x x k h h m U.U.H.J.L.K.Q.9 5 9 @ & S.E.O u = J.P.P.L.P.J.K.K.K.H.p.4.0.0.0.0.8.o |.).[.oX.X(.`.^.'.",
"^.)..X).).).).).).).oXoXd XXoX.X_.{..X X X X.XoXl.S x k P v m F.9 & y % m.2 M S.r $X= Y.J.T.I.U.I.I.K.R.d.8.0.2.2.&.> $ j.).'.^.).'.`.'..X).",
"XX(.'.^.).).).).)..X(..X}.a Z /..X(.).^.).).[. X@X.X%X%X*Xm.m.x O H q f.k.& 7 3 S -X& b A.m M S.S.M d.,.8.w.0.R $ V z.(.).+X).).).).(..X&Xc.",
"Z oX(.].^.).).).).).).).).).G C  X@X X X(..X).). X).+XoXoX_.|.* l c.& #Xt r m.: ^.oX2 L = + d.c R ` 3.2.2.0.' 2 XX.X(. X@X.X X^.)..X.Xk.r < ",
">.u Z @X'.].).).'..X.X).)..X.X.X.X.X).).'.).^.). X`.=X$ e OXZ # -XV t .X* k.{.$ .X&Xw L * u y ) o.o.2.2.2.` 2 -X(.'.).).).).). X@XoXc.# ~  .",
"1Xy.h.i f.XXoX|..XoX.X.X)..X).).).).^.(.(.(.).). X`._.r y e e k.oXi l $X2 b.$X* ).K u A 2 k.< o. .2.2.2.2.: c..X(.)..X).^.(.`.`.*Xl : _ 3. .",
"rXtX5Xi.#Xf t g }.oX.X.X.X X+X(. X X).).(.(.(.).+X X.X2 m.O 3 $X).A e oXr l l w $XA y * f *X3 ^ o.2.o.2.%.y |.).'.^..X^.).(..X/.0 < 3.e.2. .",
"gXgXeXeX7X:.,X#XZ g d t s H oXoX;XoX.X X)..X.X^. X`.|.* J 2 2 #X.X%XOX(.H # % z.%Xz 3 $ }.oXg.!  .2.4.o.%.w ^.).).).).).+Xj.u # _ 4.4.wX9. .",
"sXsXsXdXrXeX5X;.n.#X#X*X}.Z g V f t d B N F k.)..X+X*Xq Z j . y %X{.@X`..Xz.i .X'.q l c..XoXr ~ o.2.2. .3.2  X.X.X.X).'.}.w 3 `  .2. .e.4. .",
"sXsXsXsXdXsXaXiXeX7Xt.<.b.OX#XoXoXoX)._.H D Z Z C V C r q /.u l ).)..X.X)..X.X).[.e k.(.@Xz.#  . .o.4.4.3.y @X^..X.X^.[..X.XB T 2.2.2.2.2. .",
"sXsXsXsXsXsXsXsXaXiXyX0X1X5X8Xr.>.<.<.v.n.h.}.z.XX-X&Xx.: m.m.%X(..X.X.X).).).).].OX#XoXz.: `  . .o.2.2.3.1 .X)..X.X).)..X.XB _ 2.2. . . . .",
"sXsXsXsXsXsXsXsXfXfXaXaXaXpXiXiXiXyXuXeX0X0X7X1X2X2X2X7X#.- l _..X.X.X.X[.).%X).]..X=Xc $ V.e.X. . .2.2.6., l.%X'. X).).).).B T  .2. . .(  .",
"sXsXsXsXsXsXsXrXrXsXsXsXsXsXsXfXfXdXsXsXsXfXsXdXgXgXpXpXiX4X; 1 $ g H }..X*XoX(.$Xz - - cXBXcXwX9Xe. . .2.R l %X(..X[.)..X(.F >  . .(  . .^ ",
"dXsXsXsXsXsXsXfXfXfXsXsXsXfXsXsXdXsXdXsXdXdXsXfXfXfXdXdXgXrXI >XJ C h.j.0 |.}.l.2 I 3X2X] NXCXCXCXBXxXe. .9.w ;X`..X).)..X(.j.>  . .^ ^ / ^ ",
"sXsXsXsXsXsXsXsXfXsXdXaXsXsXsXsXsXsXsXsXsXsXsXsXsXsXsXsXfXhX' *X)..X.X.X.X.Xa 2 #.rXdXpX4XI zXCXCXNXqXO. .8.2 |.^..X'.).).(.|.< ( ^ ^ ^ ^ ! ",
"sXsXsXsXsXsXsXsXfXaXpXfXsXsXsXsXsXsXrXsXsXsXsXsXrXsXsXsXsXhX' XX)..X)..X.X.X*Xu 4XgXdXrXrX4XI jXcXy. .}  .3.1 |.(..X X^.[.'.*Xy ) ^ ^ ! ^ / ",
"sXsXsXsXsXsXsXrXsXfXfXsXsXsXsXsXsXsXsXsXsXsXsXsXsXsXsXrXsXiX' &X^.)..X.X)..X Xy tXaXfXsXsXaXeXI r.^ } (  .} *.C +X.X`.(.).)..Xu ] _ ^ ^ ^ ^ ",
"sXsXsXsXsXsXsXfXsXrXrXsXpXsXsXsXsXsXsXsXsXsXrXsXsXsXsXsXsXyX, &X[.).)..X).+X@X2 yXfXsXfXiXpXaXeXI ` ( ^ ^ ^ ] Z '..X`.`..X[.).F 3 ] ^ W W ^ ",
"sXsXsXsXsXsXsXsXrXeX3XrXsXsXsXsXsXsXsXsXsXsXsXsXsXsXsXsXgX3X2 =X].)..X)..X.X X, hXfXfXdXfXfXsXiX4XI _ ^ ( ^ R h.)..X`.(.%X.X].%X1 [ W ^ ^ ^ ",
"^ W ^ ^ ^ ^ } X.X.X.} X. .X.} } } X.X.} W } X.} } } } } X.} } } ^ } ^ ^ ^ ^ ^ ^  .^ ( ^ ( ^ | ^ } ^ ^ ^ ^ ^ ( ^ ^ ^ ^ ! W / ! ~ ~ ~ ^ ^ } ^ ",
"^ W W / ^ ( X.X.X. .X.X.} |  ./ } o.w.o.} } { X.} X.} } } } ^ } } ^ ^ ^ ^ ^ ^  .( ( ( ( ( ^ ^ ^ ^ W ^ ^ ^ ( ^ ^ ^ ^ ^ W { } / ! ! ^ ^ } ^ ( ",
"W / +.&.~ ^ } ^ ^ X.} } | | } | O.w.6X@.} } } } } } } } ^ } } ^ ^ }  .} }  .( ( ( ( ( (  .^ ^ ^ ^ ^ W ^ ^ ^ ^ ( ^ ^ ^ } } } { Q Q { } ^ } ^ ",
"^ / ` ;.! ^ ^ ^ ^  .X.X.e.kXO.|  .o.w.@.} } } }  .} } } } } } ^  .^ ( } } ( ( (  .( ( ( ^ ^ W ^ W ^ ^ W ^ ^ ^ ^ ^ ^ ^ ^ W W ^ ! ! W ^ }  .^ ",
"Q Q { Q / W W ! ^ } X.| X.t.| | X.X.o.o.} } } } ^ ^  .^  .(  .( ^  .( ( ( } ^  .( ( ( ^ } / ^ W ^ W W ^ ^ ^ ^ ^ ^ ^ ^ ^ W W ^ ! ^ / ^ } / ^ ",
"^ ! ! W { ^ ^ ^ ^ } } | 9Xe.O.{ } } } X.O. .} ^ ^  .^ (  .( ( ( } ^  .( ( ! ! } } ..^ ! W W ! ^ W ^ W ^ W ^ W ^ ^ ^ ^ / | ^ ! ^ ^ ^ ^ ( ^ ^ "
};
