/* XPM */
static char *result[] = {
/* columns rows colors chars-per-pixel */
"70 73 246 2 ",
"   c #030206",
".  c #050409",
"X  c #0B0A0D",
"o  c #080707",
"O  c #17161A",
"+  c #101011",
"@  c #1C2D33",
"#  c #272729",
"$  c #2E342E",
"%  c #211F27",
"&  c #763B2A",
"*  c #6A3D31",
"=  c #4D3C3B",
"-  c #38592D",
";  c #2A463D",
":  c #3D5C34",
">  c #3C543C",
",  c #32473B",
"<  c #3D622D",
"1  c #3D6331",
"2  c #3F6831",
"3  c #594B2A",
"4  c #495C2C",
"5  c #57552B",
"6  c #465C35",
"7  c #5B5836",
"8  c #554935",
"9  c #664A2D",
"0  c #7B482F",
"q  c #7A4932",
"w  c #665836",
"e  c #795637",
"r  c #674A37",
"t  c #446A2E",
"y  c #43652D",
"u  c #436433",
"i  c #436A33",
"p  c #496C34",
"a  c #44633A",
"s  c #466B3A",
"d  c #4B6D3B",
"f  c #4B6438",
"g  c #586937",
"h  c #4C723C",
"j  c #4B7234",
"k  c #55753C",
"l  c #64673E",
"z  c #7B613F",
"x  c #032D4D",
"c  c #0A2C48",
"v  c #08334D",
"b  c #183A48",
"n  c #022E53",
"m  c #042E59",
"M  c #0A2D59",
"N  c #033355",
"B  c #0B3453",
"V  c #043854",
"C  c #02345C",
"Z  c #03395D",
"A  c #0B3A5D",
"S  c #0B365A",
"D  c #153856",
"F  c #132A4C",
"G  c #263846",
"H  c #323957",
"J  c #2F374E",
"K  c #082D65",
"L  c #023562",
"P  c #0A3563",
"I  c #023B64",
"U  c #0B3B64",
"Y  c #02356A",
"T  c #023C6A",
"R  c #0A3D69",
"E  c #153C65",
"W  c #033C75",
"Q  c #132A6A",
"!  c #623B5C",
"~  c #19414A",
"^  c #284545",
"/  c #3A5545",
"(  c #2E494D",
")  c #014166",
"_  c #03416C",
"`  c #0B436B",
"'  c #084366",
"]  c #174569",
"[  c #024372",
"{  c #044274",
"}  c #184C73",
"|  c #1D577A",
" . c #274A67",
".. c #27547B",
"X. c #37547B",
"o. c #33556D",
"O. c #3F6462",
"+. c #474753",
"@. c #475E56",
"#. c #4C4F4E",
"$. c #7B544E",
"%. c #4A6746",
"&. c #536C43",
"*. c #54694C",
"=. c #4E7342",
"-. c #537444",
";. c #557B43",
":. c #547449",
">. c #5C7C4D",
",. c #5A7846",
"<. c #496355",
"1. c #556955",
"2. c #5C7B53",
"3. c #5C7454",
"4. c #666942",
"5. c #657A4A",
"6. c #627B54",
"7. c #647659",
"8. c #6D6B4F",
"9. c #4D5372",
"0. c #496777",
"q. c #536F6B",
"w. c #697A67",
"e. c #757977",
"r. c #6A6F6D",
"t. c #874B2F",
"y. c #884A36",
"u. c #8B573B",
"i. c #94573C",
"p. c #AB663E",
"a. c #AA693E",
"s. c #A6613F",
"d. c #895D46",
"f. c #9A5E45",
"g. c #955C45",
"h. c #8B4F51",
"j. c #8A6547",
"k. c #9C6246",
"l. c #9C634B",
"z. c #976A4B",
"x. c #9A6A53",
"c. c #A46644",
"v. c #AB6643",
"b. c #A66A45",
"n. c #AB6943",
"m. c #A3664C",
"M. c #AA664A",
"N. c #A4694B",
"B. c #A9694A",
"V. c #A56851",
"C. c #AD684A",
"Z. c #847D7F",
"A. c #58853F",
"S. c #5C8349",
"D. c #5C8447",
"F. c #5F8650",
"G. c #63844C",
"H. c #648B4C",
"J. c #688A4B",
"K. c #6B9746",
"L. c #699947",
"P. c #66954C",
"I. c #6B974C",
"U. c #66994C",
"Y. c #69984C",
"T. c #659A46",
"R. c #71954E",
"E. c #70984A",
"W. c #648554",
"Q. c #6B8554",
"!. c #658C52",
"~. c #6A8C55",
"^. c #668B5A",
"/. c #6C8C5B",
"(. c #66845B",
"). c #718C53",
"_. c #718A5B",
"`. c #669553",
"'. c #6B9553",
"]. c #669951",
"[. c #6C9852",
"{. c #6D935A",
"}. c #6A965A",
"|. c #719355",
" X c #71945A",
".X c #729955",
"XX c #5D8370",
"oX c #6E8D61",
"OX c #6A886B",
"+X c #728A66",
"@X c #6D9262",
"#X c #729263",
"$X c #698872",
"%X c #798375",
"&X c #859379",
"*X c #1A3493",
"=X c #243C8A",
"-X c #1D3AA6",
";X c #1F3CB5",
":X c #223CB7",
">X c #273CA9",
",X c #264395",
"<X c #2F4E87",
"1X c #2D52A1",
"2X c #487192",
"3X c #7E7D81",
"4X c #427CA2",
"5X c #1F3EC4",
"6X c #223EC8",
"7X c #2845D8",
"8X c #2646CB",
"9X c #1F4CF7",
"0X c #1F4FEF",
"qX c #2749E9",
"wX c #234AF5",
"eX c #2447FD",
"rX c #234AFC",
"tX c #2647F6",
"yX c #6A8794",
"uX c #72A1C4",
"iX c #878786",
"pX c #999A9C",
"aX c #8D968C",
"sX c #99A397",
"dX c #A0AA97",
"fX c #A6B499",
"gX c #929DA4",
"hX c #B6B6B7",
"jX c #ABAFAA",
"kX c #BAC5B4",
"lX c #C1C7BB",
"zX c #BFBEC2",
"xX c #CACDC9",
"cX c #D5D8D4",
"vX c #CCD0CD",
"bX c #D8E1D3",
"nX c #DEE5E0",
"mX c #E7E9E6",
"MX c #EEF1E9",
"NX c #F4F4F2",
"BX c #FBFBF6",
"VX c #F5FAF9",
"CX c #FCFCFC",
"ZX c #F7F8F6",
"AX c #F1F2EE",
"SX c #DDDCE0",
/* pixels */
"N V v N N m C m  .o.D M c x n M C C C C C Z Z S A ) Z I T R P ] <./ D P W W Y I L Z C m m n n m n n n N N n x x c c c x n n n n n m n N n m ",
"N  .D B N m m m n n N m m L K K m C C C C C Z 2X<X' I Z P I T T I L E A L P I I L C Z N N n n n n n m n x n n x x x x x n x x x n n m m m N ",
"V o.D v n m m m M M C Y Q H P W m C C C C C Z <X} ' Z ) I I U U ] E } ] V I T Y I Z Z Z C n n m n m n n x x n n x n n n n n x n x n n n n n ",
"x v x x m m m L K C N Z D ! +.] P C C C m C C C A I I Z I L A ] <X .E ] ] U I I I L L Z L m N m m C m N N n n n n n n n n n n n n m x n x x ",
"x x x n m N C N L N M C H h.$.F ..P m m N C N L C I I Z ) I ' ] 2XU U E +.E U I Z I Z L Z C m C C C C C m N m n m m m N n m N Z N N N n x x ",
"V V m m E R N C K N N P Q J H K | P C C L C L C Z Z I ) ) Z R ] o.] U U D P I T I I I Z L C C N C C C C C L C m m N N N m n N N V N N N N n ",
"N m m C ] ] C L L Z Z I T U E Y I T Y L L L L L L L I I ) I A  .X.] L I T I R R L I I I I Y Y L L C C C C Z C Z Z L Z Z Z V m D O.( m N N N ",
"C C C N S C S S Z I I I I ) I _ T T T T Y L L L I L I I I _ A A A L I P T R ` R Y I T T T T Y T L C Z N L L L I I L L Z Z V P ~ q. .B n N N ",
"C Z Z Z Z Z Z I L I ' I I I ) _ _ [ _ T T T T Y Y I I T T T T R R I I I I I ' I R T T T _ _ T T T Y L L Z L L I I I L Z N N L S ~ v N N N N ",
"L I Z ) ) Z ' ) I I I I ) ) I ) _ _ _ [ _ T T I I Y T T T T _ R _ ) ) I ) I I I _ T _ _ I ) _ T P T D P I I I L I L Z Z N Z L V x Z L N C Z ",
"P I I ) ) I ) Z I I R R I ) ) _ _ b %.{.{.I.U.Y.K.I.I.I.[.[.I.'.}.>.; V I I I _ I b / >.{.[.U.K.[.I.I.[./.:.b C Z L I Z N L Z Z Z L C C Z Z ",
"I I ) I _ I I I ) ) I R U I ) ' ; W.'.I.I.P.U.Y.I.I.I.I.I.I.'.I.I.I.{.*.~ U L b @.W. X'.[.U.U.Y.I.P.I.[.[.}.W.^ Z I Z Z Z L Z V Z L L L L Z ",
"T I ) T T T I I ) ) ] <XU I ' > ~.I.L.Y.I.U.U.Y.I.K.I.I.[.P.'.I.K.Y.I. XQ.; / ^.`.U.L.Y.U.U.U.U.U.U.I.U.U.T.[./.^ Z L Z Z L C N L L C Z Z Z ",
"I I I _ T ) ) ) ) ) } uX<X' , '.I.I.K.Y.U.U.U.Y.I.I.I.I.I.[.P.'.I.I.'.'.'.Q.f '.I.T.T.U.T.Y.U.U.U.U.U.P.I.U.P.}.2.v Y L m L C Z C Z C Z Z Z ",
") I ) ) _ ) _ ) ) I Z ..] ^ {.R.I.R.].U.U.U.U.Y.I.[.'.'.'.'.'.[.[.I.I.K.K.'.h ;.}.[.P.I.Y.K.Y.U.U.U.U.[.[.P.P.{././ P Y P C N C L L L Z C Z ",
"_ I ) ) ) I ) I ' _ ' ' G W.'.I.I.Y.U.U.U.U.I.}.D.d 2 1 < < 1 i -.~.|.K.K.[.{.u {.K.U.P.Y.U.Y.U.T.U.U.U.].I.].P.[.Q.v Y P P m m N L L C Z C ",
"{ U I _ I ) T ) _ _ [ ~ 3.[.[.[.I.I.I.'.'.~.=.i s `.[.}.[.[.}.I.S.u s -.W.}.{.d !.K.L.L.L.L.T.Y.U.I.I.I.U.T.P.P.L.R.^ L P P E E m L L Z Z N ",
"R I T T _ T T _ _ _ _ / ~.P.I.I.[.P.|.~.d f W.'.}.[.I.I.I.K.P.K.[.[.{.S.i j !.Q.,.}.'.}.}.!.D.S.;.;.D.k D.D.'.{.[.~.@.P K E <X..S L L I Z C ",
"' I T T T T T _ _ _ b ~.I.I.I.[.'.'.G.- G..X[.`.`.I.Y.U.P.L.Y.P.K.P.I.I..XG.6 3.- d i < < i ;.;.>.S.D.S.>.-.1 u u -.%.c U P S S C C Z I I Z ",
"Z T Y I Y T T R ' ' s I.[.K.I.I.'.'.D.P.P.Y.Y.U.U.U.U.U.U.U.L.T.U.P.I..XI.I. X:.: oX.X[.[.[.[.I.U.I.[.[.'.P.|.}.[.'.6.3.> G B C C L Z Z Z I ",
"Z Y Y Y Y Y I T R b P.I.U.Y.Y.Y.I.I.I.I.K.I.I.[.U.I.U.P.K.P.P.P.[.I.K.K.K.P.'. X:.%.}.[.I.Y.I.I.[.].}.I.R.I.[.'.[.[.|.I.}.{.*.@ S L L Z I I ",
"L I Y Y T T T T T %.'.P.U.Y.I.I.I.I.I.I.I.I.K.U.P.I.I.[.[.'.{.!.;.=.h d d d d &.*.*.: }.P.L.L.I.I.I.I.I.|.[.'.~.H.H.~.}.}.}.[..X/ R Y L I I ",
"L I Y T T T T { b /.P.U.Y.L.I.I.I.I.I.I.I.I.I.I.K.'.}.'.=.< 1 =.F.~.'. X X X/.~.W.-.: : D.[.K.R.'.}.G.t y p p y u u u < i 1 i i 2.@.R L I U ",
"P I Y Y T T { { / '.I.U.Y.Y.I.I.I.I.I.I.I.I.I.[.'.{.s u ;.{./.F.=.%.6 6 : < p -.>.^.{.^.s h {.G.p y h !.).!.G.>.,.-.,.>.2.W././.:.6 , S I I ",
"Y Y I T T [ ` b :.P.[.I.Y.Y.I.I.L.L.Y.Y.I.I.I.{.;.< W.#XW.u y ;.~.Q.Q.5.>./././.6.h y s 6.- a -.^.>.h p y p k J.G.G.Q.5.>.k u f d -._.1.v L ",
"C Y T T R ^ 1./ !.K.I.I.I.U.U.U.Y.I.T.Y.P.[.S.t k ~.~.u -.W.6.+X%XaXfXkXkXfXfX&X*.,._.Q.f -.%.a =.;.D.}.).).&.7.7.*.6 7.+X6.f 6.oX,.f &.( U ",
"L I T L > ~.}.2 '.I.I.I.I.U.U.U.I.I.I.A.i 1 :.}.^.=.a 7.w.aXdX+.# . . O r.AXCXNXmXvX&X3.*.W.!.`.`.}.~.5._.dXr.J $     o #.SXMXlX&X&.+X7., D ",
"R T I / '.I.[.i '.I.I.I.I.U.U.[.'.{.[.'.@X#X2.s a 3.+XxXVXpX. Z.hXX o   . r.CXBXCXCXCXBXnXaX*.K.{.2.sXSXZXe.X e.pX  X o   #.NXCXNXlXw.7.7.#.",
"Y W b '.R.K.{.p [.I.I.I.I.U.U.P.}.s t t < u -.6.6.dXMXBXMX# . O % . Z.aX. + vXCXCXCXCXCXBXBXsX8.+XcXBXBXmXO . X + . jXhXo X hXCXVXCXCXMXkXJ ",
"I B :.I.I.I.`.s P.I.I.I.I.I.U.Y.`.i {.'.[.|./.oXbXBXBXBXvX  . + # + pXjX. . Z.CXCXCXCXCXCXCXcXr.MXBXCXBXvX. . O +.. 3XiXX   3XCXCXCXCXCXBXhX",
"I ^ '.L.K.[.H.D.'.I.I.I.I.].U.K.[.s s h d :.w.cXZXCXCXCXzX    # r.. X X .   r.CXCXCXCXCXCXZXjXmXCXCXCXCXhX. . O +.  . . X   r.CXCXCXCXCXBXAX",
"b >.I.K.I.P.P.[.[.I.K.I.I.].U.Y.I.{.~.~.^.3.w.MXZXCXCXCXhX.   . . . .   .   3XCXCXCXCXCXCXCXpXCXCXCXCXCXhX. . . . .   .   . iXCXCXCXCXCXCXhX",
", [.I.I.U.U.U.U.Y.I.Y.I.Y.U.U.U.Y.Y.L.T.U.}./.3.hXAXZXCXSX+     .         O cXBXCXCXCXZXZXcXpXCXCXCXCXCXmXO . . .         # mXBXBXBXZXSXaXF ",
"S.Y.I.[.U.U.U.L.L.I.I.I.I.U.U.L.U.L.U.T.T.U.H.`.5.w.lXNXVX3X            + hXZXCXCXCXZXbX%X*.1.vXNXCXCXCXVXpXX .       o # xXNXAXxXaX7.*.( S ",
" XP.U.U.Y.I.Y.I.I.I.I.I.Y.I.Y.I.Y.K.I.Y.L.[.i D._.oX6.*.aXcXpX+.% % $ r.vXVXVXmXhXiX7.6./._.6 3.1.7.w.aXdXxXjX#.# # + $ *.*.3.3.:.Q._.<. .Z ",
"'.U.].Y.I.I.I.I.I.I.Y.I.I.I.I.I.I.I.L.Y.I.[.[.;.u -.^.oX_.&.7.w.e.e.e.%XyXOX3.6 ,.oXoX_.(.u H.|.|._. X X~.5.5.-.&.:.!.). X~.~.'.|.6.b I L L ",
"I.].].Y.I.I.I.I.I.I.I.Y.I.I.I.I.I.I.Y.Y.I.I.[.'.[.S.p < k F.oXoX#X~.).~.R. X#X X{.H.t : a H.I.I.I.I.[.[.I.[.[.I.[.}.`.P.[.I.I.K.{.( [ _ ) I ",
"T.U.U.Y.I.E.Y.I.Y.I.I.I.I.I.I.I.I.I.I.K.I.[.I.P.P.[.}.'.H.;.s i u 1 < < y 4 4 u a :.J.~.'.[.[.'.[.[.[.}.[.[.[.I.].`.].'.[.}.|.)./ ) W _ ) I ",
"T.`.].Y.I.I.I.I.I.I.I.I.L.E.Y.I.I.I.K.I.I.I.I.U.I.K.I.[.I.I.I.|.'.{.{.{.}.{.{.'.k ;.{.I.Y.U.[.[.'.I.R.I.I.E.E.K.Y.U.K.I.|.{.2.( ) [ [ ) _ _ ",
"I.[.[.I.Y.I.Y.I.E.I.I.Y.I.I.I.I.I.I.I.I.I.I.K.I.I.I.I.I.I.I.[.[.[.[.[.[.}.W.i =.D.`.I.I.I.I.I.|.p p !.|.R.J.I.}.}.K.K.,.: ~ ` { [ [ [ *X{ T ",
"[.'.'.I.I.I.I.I.I.I.I.I.I.I.I.I.I.L.I.I.I.I.L.E.I.I.I.E.I.I.[.[.P.I.J.:.a d ~.'.[.Y.K.I.I.I.I.[.'.J.p u : d s i i y u -.d ~ [ [ [ [ [ [ { _ ",
"P.[.'.'.I.I.I.I.I.I.I.I.I.I.Y.I.I.I.I.I.I.I.I.I.I.I.I.L.I.I.[.[.G.y y G..XI.I.K.P.U.I.I.I.E.I.I.I.I.}.{.&.u  XI.[.`.'.[.I.*.~ [ [ [ _ ) ) [ ",
"'.[.[.I.I.I.I.I.L.E.I.I.I.I.I.I.I.I.I.I.I.I.I.I.I.I.I.I.I.I.I.J.h ^.[.I.L.I.I.Y.].U.I.I.I.L.I.L.K.I.[.[.P.I.L.L.T.U.I.I.K.'.2.I [ [ [ _ _ W ",
"[.[.[.'.I.I.I.E.I.I.I.I.Y.I.E.I.I.I.I.I.I.I.I.I.I.I.I.I.I.I.I..XI.K.P.K.[.I.I.L.U.U.I.I.I.I.I.L.K.I.I.I.P.K.Y.Y.U.I.`.}.'.L.'.<.' } ' _ W Y ",
"[.[.[.I.I.I.I.I.I.I.I.I.I.I.I.I.I.I.[.I.I.I.I.I.I.I.I.I.I.I.I.I.I.I.Y.I.I.I.I.I.I.I.I.I.I.I.I.I.I.I.I.I.I.I.I.I.I.I.'.I.I.L.[.{.; 2X..) P L ",
"R.[.[.I.I.I.I.I.I.I.I.I.I.I.I.I.I.I.I.I.I.[.[.I.I.I.I.I.I.I.I.I.I.I.I.I.Y.I.I.I.I.I.Y.Y.I.I.I.I.I.I.I.I.I.I.I.I.I.'.I.I.P.I.P.{.5.uXX.' Z C ",
"[.E.I.I.I.I.I.I.I.I.E.L.I.I.I.I.I.I.[.[.[.I.I.[.P.I.I.I.I.I.I.I.I.I.I.I.I.I.Y.I.I.I.I.I.I.I.I.I.I.I.I.I.I.I.I.I.[.I.P.'.I.Y.P.[./.e.yX} S C ",
"[.[.I.I.I.I.I.I.I.I.I.I.I.I.I.I.I.I.I.|.[.'.P.[.[.[.[.I.I.I.I.I.I.I.I.I.I.I.E.I.I.I.I.I.I.I.I.I.Y.I.I.I.I.I.I.I.I.'.[.I.[.I.`.P.^.O.} ` C L ",
"[.I.I.I.I.I.I.I.Y.I.I.I.Y.L.Y.I.I.I.[.|.}.|.{._.).{.{.}.U.I.I.I.Y.K.I.I.[.Y.L.I.I.I.I.P.P.I.K.Y.Y.U.Y.L.I.K.I.I.[.`.I.I.I.I.[.[./.*.{ U P Y ",
"I.I.I.I.E.Y.I.I.L.I.I.I.I.L.U.].[.U.[.~.4.w 9 9 9 3 5 w l 5.).|.|..X~.'.[.T.L.Y.I.I.I.I.[.I.I.Y.Y.Y.Y.K.I.I.[.[.[.I.Y.U.U.U.].'._.w b I I Y ",
"E.I.I.I.I.I.I.I.E.I.I.I.I.U.U.U.`.}.!.3 u.M.B.C.V.V.m.l.g.y.e 3 5 4.5.Q.).|._.}.[.P.I.[.[.`.K.Y.Y.I.Y.K.K.I.|.[.R.R.I.[.[.{.Q.7 9 d.g.D T T ",
"I.I.I.I.I.I.Y.I.I.I.I.I.I.[.U.U.'._.3 m.n.C.c.v.v.a.B.n.s.p.v.v.v.f.u.e 9 8 w 4.8.5.).). X|.|.E.[.'.[.[.[.[.'. X X{.Q.8.7 9 q m.M.V.V.J I I ",
"I.I.I.I.I.I.I.I.I.I.I.I.Y.[.U.U.).&.f.M.n.v.f.g.f.f.f.M.B.M.c.s.v.n.v.v.v.c.z.u.u.q e w w w w g l l l l 5.l l w 7 w e q l.N.M.M.B.N.j.D I I ",
"I.I.I.I.I.I.I.E.I.I.I.I.I.[.'.T.I.r M.M.c.c.t.t.y.t.t.& & y.g.m.V.m.n.p.p.p.p.n.v.v.c.c.c.k.k.j.d.u.u.d.u.i.d.l.c.a.b.n.a.n.p.p.N.$.G _ ' I ",
"I.I.I.I.I.I.I.Y.I.I.I.I.I.I.|.P.J.r n.a.a.n.a.n.n.p.a.M.c.f.u.0 & & y.y.g.k.l.m.N.m.B.B.B.B.B.B.b.b.b.n.a.a.a.a.b.B.M.M.m.V.l.g.= B ) ` I I ",
"I.I.I.I.I.I.I.I.I.I.I.I.I.K.[.I.[.5 z.b.B.M.M.c.v.M.v.v.v.M.M.v.M.M.f.u.y.q q & & 0 t.i.i.i.f.f.k.k.k.k.z.l.g.g.g.u.y.& & & q * D _ ` 4X} I ",
"P.[.I.[.I.I.I.I.I.I.I.I.I.I.k [.'.5.3 4.d.d.j.j.d.d.l.x.V.N.B.M.M.s.p.v.v.v.n.n.v.s.i.i.i.i.t.i.y.y.y.y.t.t.t.i.g.g.m.m.V.B.M.x.J ) ) } ' I ",
"'.`.[.[.I.I.I.I.I.I.I.I.I.[.u '.I.I.~.k j g g g g g 4 4 7 7 r u.j.z.b.c.p.M.v.v.v.M.n.C.n.p.v.n.v.v.M.v.a.a.a.p.s.v.C.B.n.p.v.x.J ) ) ) I I ",
"'.].'.'.I.K.I.K.I.I.I.I.[.'.F.d }.I.I.I.I.I.I.I.I.I.I.[.}.[.J.k g 5 5 w z j.x.x.k.N.k.a.v.s.v.n.n.n.a.p.a.n.n.n.p.a.n.B.p.s.z.#.I ) I I I I ",
"oX`.U.U.I.I.I.I.I.I.[.[.[.I.[.D.< D.[.'.I.I.I.I.I.I.I.[.[.[.[.I.I.[.'.Q.5.g g 5 5 3 5 w w w w e d.j.j.z.z.N.z.z.z.z.x.x.d.q J S I I I L I I ",
"6.'.I.].I.I.I.I.I.[.I.[.[.I.K.'.`.h 2 ;.[.I.L.I.I.I.I.I.R.I.|.|.I.U.U.].U.].].[.|.|. X X).!.5.,.g g 4 6 4 4 5 4 7 8 % F F U I I I I I Z L C ",
"( g `.}.`.I.[.'.[.[.[.[.I.I.T.P.[.].`.'.[.I.I.I.I.I.I.I.~.I.I.I.I.I.I.I.I.I.U.I.I.I.Y.[.[.|.I.[.[.[.[.[.].P.[.@X1.b I I R I I I I L Z Z C C ",
"<Xq.f p J.'.}.[.[.|.[.[.[.[.U.T.U.U.Y.Y.I.I.I.I.I.I.I.I.I.'.P.[.Y.U.U.].[.U.[.P.[.I.[.[.[.[.[.I.U.U.U.I.I.P.{.#.V I L I I I I L L C Z C N S ",
"7X*X9.w.u u >.}.I.P.[.`.].U.].].].].I.I.U.[.Y.].Y.I.I.I.[.[.[.I.I.Y.P.I.I.Y.Y.I.I.[.I.[.[.I.K.}.[.[.I.[.{.*.b Z L Y L L L L Z Z C C C N C m ",
"tX7X:X,Xq.^.;.%.a ;.P.}.I.I.I.I.I.U.T.L.L.T.K.P.I.U.U.I.].].U.].U.`.].U.].].`.[.].}.[.[.[.{.`.I.I.}.^.<.b B Z L L C C L L m N B D S N C m N ",
"eXeXwXqX8X=X0.OX/.2.1 1 =.d ;.~.{.{.}.[.P.'.[.P.I.[.[.U.].[.].].U.U.U.U.T.U.U.U.[.].[.[.I.I.{.~.>.#.@ N C C Z N C N C N m C B H ! H C m L C ",
"rXrXwXwXwXqX6X,Xo.XX@X}.!.F.;.d h u i i s ;.!.`.{.'.'.'.}.'.'.}.`.I.I.I.I.K.I.I.I.'.@X{./.OX1.b v N C Z L C C C C C C N N N V H ! H m C L Z ",
"rXrXrXwX0XwXtXqX7X-X<X0.XX^.`.}.'.I.'.I.J.A.j d < < < 1 1 u =.d =.=.:.:.-.=.d d a a : 1 @.M Q N Z N N L Z C Z C C C C N m K V B P M N L C L ",
"rXrXrXrXrXrXrXrX9X9XtX8X-X=XX.0.q.w.+XoX#X#X_.'.'.`.}.[.[.`.`.!.`.`.F.`.`.^.~.~.{./.$X2X<X8X8X*XK L m m C C C Z C C C m K L K N N m L C L C ",
"wX9XrXrXrXrXrXrXwXeXeXtXqXqX7X8X;X:X>X1X<X<XX.o.o.q.q.q.w.$XXX$X$X$X$X$X$X$Xr.0.<X<X,X:X7XwXwXqX-XK m m C C L C C C C L m L K M B K L L L C ",
"9XrXrXrXrXrXrXrXrX9X9X9XwXrXrXwXwXwXtXtXtXqXqXqX7X8X5X5X;X;X-X-X-X-X*X-X-X;X8X6XqXqXwXeXrXrXrX9XqX6X*XK C L C C Z C C N m L m V m M C C C Z ",
"9XrXrXrXrXrXrXrXrXrXrXwXrXrXrXrXrXrX0X0XwXwX9X9XtXtX9XwXwX0X9X9X9XwX9XtX9X9XrXwXwX0XrXrXrXrXrXrXrXeXqX-XK C N C m L C Z m m N Z Z N L C L L ",
"tXrXrXrXrXrXrXrXrXrXrXrXeXrXrXwXtXtXrXeXrXeXeXeXeXeXtXwXwXtXeXrXrXtXtXwXwXrXrXeXeXrXtXrXrXrXeXeXrX9X9XtX:XK m m L C C S P C N C C Z L C C C "
};
