/* XPM */
static char *result[] = {
/* columns rows colors chars-per-pixel */
"70 73 242 2 ",
"   c #030303",
".  c #040709",
"X  c #05090C",
"o  c #0A0A0B",
"O  c #040C12",
"+  c #0B0E11",
"@  c #020E19",
"#  c #0D1114",
"$  c #04121D",
"%  c #0B141A",
"&  c #0C151C",
"*  c #131314",
"=  c #121619",
"-  c #13191E",
";  c #1A1C1D",
":  c #031523",
">  c #091623",
",  c #041925",
"<  c #0C1A25",
"1  c #041A2B",
"2  c #0B1E2B",
"3  c #01162D",
"4  c #141D23",
"5  c #191F23",
"6  c #121F2A",
"7  c #031C32",
"8  c #081F31",
"9  c #0B202E",
"0  c #1B2125",
"q  c #15222D",
"w  c #1B252D",
"e  c #1A242B",
"r  c #0B2335",
"t  c #05243C",
"y  c #0C263C",
"u  c #0B293D",
"i  c #052438",
"p  c #132533",
"a  c #1C2731",
"s  c #1C2933",
"d  c #142A3C",
"f  c #1C2D3B",
"g  c #142837",
"h  c #1D303D",
"j  c #23272B",
"k  c #242A2D",
"l  c #242425",
"z  c #222C34",
"x  c #292F36",
"c  c #23323E",
"v  c #2B353C",
"b  c #2D3638",
"n  c #333537",
"m  c #032642",
"M  c #042944",
"N  c #0B2B44",
"B  c #032D4C",
"V  c #0A2C4B",
"C  c #052544",
"Z  c #132C42",
"A  c #192E46",
"S  c #04324D",
"D  c #0C304C",
"F  c #0C3143",
"G  c #143146",
"H  c #1C3345",
"J  c #14344B",
"K  c #1C364C",
"L  c #193B4A",
"P  c #022E53",
"I  c #042E5A",
"U  c #0A2E56",
"Y  c #033355",
"T  c #0B3353",
"R  c #043B55",
"E  c #02345C",
"W  c #0A345C",
"Q  c #02395E",
"!  c #0B3A5C",
"~  c #0E3957",
"^  c #133553",
"/  c #133B53",
"(  c #1C3B54",
")  c #143C5B",
"_  c #1A3C5C",
"`  c #173559",
"'  c #243543",
"]  c #293641",
"[  c #2B3943",
"{  c #243B4C",
"}  c #2B3D4B",
"|  c #23384B",
" . c #343E45",
".. c #233E52",
"X. c #28395A",
"o. c #323859",
"O. c #282E4D",
"+. c #082E63",
"@. c #023563",
"#. c #0A3563",
"$. c #023B64",
"%. c #0B3B64",
"&. c #023669",
"*. c #09356B",
"=. c #023B6B",
"-. c #0B3C6B",
";. c #133D63",
":. c #1B3C62",
">. c #123C6B",
",. c #183766",
"<. c #043672",
"1. c #033C72",
"2. c #0A3C72",
"3. c #073A78",
"4. c #113D78",
"5. c #283A6C",
"6. c #6B3D58",
"7. c #593860",
"8. c #02425F",
"9. c #16425D",
"0. c #1D435C",
"q. c #1C4656",
"w. c #27434D",
"e. c #3A4244",
"r. c #35434D",
"t. c #2C4354",
"y. c #24435C",
"u. c #2A465C",
"i. c #2C495E",
"p. c #264758",
"a. c #324654",
"s. c #3B4D5C",
"d. c #374856",
"f. c #395A5A",
"g. c #3B554F",
"h. c #024265",
"j. c #0B4164",
"k. c #02426D",
"l. c #0B436C",
"z. c #0A486D",
"x. c #144365",
"c. c #1C4564",
"v. c #14446C",
"b. c #1A456B",
"n. c #134A6C",
"m. c #1C4B6C",
"M. c #194966",
"N. c #024371",
"B. c #0B4472",
"V. c #0C4974",
"C. c #03437B",
"Z. c #0A477A",
"A. c #0C4A79",
"S. c #074874",
"D. c #134572",
"F. c #1B4772",
"G. c #134B73",
"H. c #1C4C74",
"J. c #134C7B",
"K. c #1C4E7B",
"L. c #13477A",
"P. c #145076",
"I. c #1C5275",
"U. c #16527A",
"Y. c #1B527B",
"T. c #15536C",
"R. c #294662",
"E. c #254A64",
"W. c #2C4B64",
"Q. c #224C6C",
"!. c #2B4D6A",
"~. c #214567",
"^. c #324D65",
"/. c #334D6C",
"(. c #3B4E61",
"). c #25526D",
"_. c #2B536C",
"`. c #275260",
"'. c #34536B",
"]. c #3C556C",
"[. c #3D5A6D",
"{. c #375365",
"}. c #234E74",
"|. c #274E78",
" X c #245373",
".X c #2B5374",
"XX c #23547A",
"oX c #2A547A",
"OX c #2C5B7D",
"+X c #2A5979",
"@X c #335674",
"#X c #3C5B73",
"$X c #345C7B",
"%X c #3B5D7B",
"&X c #345876",
"*X c #33617D",
"=X c #3C627E",
"-X c #346371",
";X c #4C4A56",
":X c #774C53",
">X c #43655B",
",X c #506D55",
"<X c #6A794C",
"1X c #5B4766",
"2X c #455867",
"3X c #445E77",
"4X c #4F506B",
"5X c #476A67",
"6X c #567B6E",
"7X c #46657A",
"8X c #546D61",
"9X c #6F796C",
"0X c #9A4D3A",
"qX c #894350",
"wX c #979A5C",
"eX c #023F82",
"rX c #084884",
"tX c #1C5482",
"yX c #255B83",
"uX c #2C5C83",
"iX c #265886",
"pX c #365E86",
"aX c #2C5F91",
"sX c #3A6384",
"dX c #386787",
"fX c #326897",
"gX c #3976A5",
"hX c #436884",
"jX c #426D97",
"kX c #4B7698",
"lX c #597A99",
"zX c #527387",
"xX c #427CA2",
"cX c #64839D",
"vX c #698C8C",
"bX c #7AA081",
"nX c #5483A7",
"mX c #6D98B7",
"MX c #6793AC",
"NX c #8EACBC",
"BX c #96B4C2",
"VX c #A3BAC8",
/* pixels */
"Y S S T W I Y I Q./.` V V M P I E E E @.E E W ! ! Q $.@.$.&.$.c.>Xg.,.#.<.1.=.@.Q E E Y Y I P P Y P I P Y Y B B M V V B P B P P P P I P Y I ",
"Y ).) T Y P I I I V I @.I @.+.+.I E E Y E E W fXdX$.Q $.$.#.-.$.$.! ;.) E $.$.$.@.Q E E Y P I P P P P P P B B B P M M P P P P B P P I I P T ",
"S _./ S I I I I U I W &.+.` *.3.I E I E E E @.OXm.j.h.Q $.%.%.%.v.>.H.x.R $.$.$.$.Q Q E E I I P P I I P B P B P P P Y P P C P P B P P P P P ",
"Y S B S P I Y @.@.I Y E O.6.1Xc.#.W E E Y E Y @.$.$.Q $.$.@.Q c.%X:.>.v.:.%.$.=.$.@.@.Q E Y P I Y I Y Y Y P P P P P P P P P P P P P P P P B ",
"Y S B P Y E E Y @.Y P #.o.qX:X( |.#.E E I E E W Q $.Q h.Q $.h.m.dX;.#._ ;X:.@.$.$.$.Q Q @.E E I E @.E E Y E Y I P I Y Y I Y Y Y Y W Y S B B ",
"S Y I I %.%.Y W +.Y T #.,.O.o.#.XX#.E W E E E @.E Q $.h.$.h.-.b.&XM.h.;.,.#.$.$.@.@.$.Q E E E Y E E E E E E E Y Y Y Y Q I Y Y Y S R Y Y Y Y ",
"Y I I W b.x.W E @.Y R =.$.%.%.=.v.y N _ T T %.@.@.@.h.$.h.$.~ ~.pXc.$.$.=.#.z.$.$.$.$.$.$.@.@.@.E I Y E @.E @.Q @.@.E Q R Y E / 5Xu.Y Y Y Y ",
"E E E Y W W W @.$.$.$.$.$.h.h.Q.p   + a 4 - r ) $.@.@.h.$.h.%.! %.#.$.#.$.$.l.l.$.$.=.=.=.=.=.&.@.@.E E E $.@.$.m.c.@.E Q R #.0.5XW.U Y Y Y ",
"E E Q Q 8.Q Q j.m.j.h.$.h.Q.r z . t M N t G 4 < 1 7 0.=.h.=.k.$.$.$.$.$.$.$.h.-.k.=.=.k.=.h.N.=.=.&.#.t 1 1 r ..a q 1 1 , u %.~ q.D Y Y Y Y ",
"#.$.Q h.$.$.$.h.x.-.$.r 9 5 + . # p i.m.k.P.~ M V c 5 : r -.k.-.k.=.$.8.$.h.$.$.$.h.k.=.h.h.k.=.=.C : w u t M / C M | t u L f > u %.Y E E E ",
"$.$.$.$.h.$.$.8.T.g : o .   o w.+ o p n.P.P.u $ t.b.B s + 2 U.N.N.k.h.$.$.$.$.=.k.k.k.N.1.k.B.^ $ O   + p W @.$.@.j..XQ Q ! S F 9 : T E Q Q ",
"$.$.h.$.h.$.$.h.u o . n .   b v B $ x.i./ P.r   + % E %.Y X 6 }.1.=.h.=.=.h.=.=.=.=.k.1.1.>.( # . x 9Xf.0 h $.$.m.E.% 2 E.@.E Q Y q $ P Q E ",
"=.$.h.=.=.=.$.u X     o . _ o [.i.  % # + @         . a X # :.4 N k.=.1.-.=.B.k.A.N.N.$.O O + 9 #.;.2XQ.$ o E.@.r.- i.Y M O r R #.Y Y : Y Q ",
"$.h.$.h.k. Xc s 0         o . # o   - v       o y.- . . @.%.G.s.5 y N.-.1.=.N.tXgX1.=.    & Q.#.D.Z o o     + ].%.E -.@.t o o X ] ) @.Y X j.",
"h.$.h.h.n.w.. u 9   . o =       o . o k 2XJ.k.G.$ .       b.yX}.~ * i 1.1.1.N.N.B.k.    O B.V.V       o * o     o o   o o a f . . t.j.Y '.X ",
"h.< $.h.M e c       o c.l.B.l.n } z.n.G.{ * ; o         . * } V q ^.y.V.N.B.=.B.=.X '.=.$.) * X G D.&.@.&.@.@.=.#.;.                o B Q j.",
"B.#.h.M           + c M.H.yX#XyX7X2X7XzX7XH O +           * 0 0 s.XXV V k.k.k.@.O =.=.Y . < }.@.=.=.&.l.oX%XH.oX@.=.;.- X     .     ; o D E ",
"-.l.J             q.V.s.e.N.N.Z.D.x.i.p.`.k.V.p .   .       . ; x E.G.!.M.h.-.& h =.Y + K =.=.=.@.&.&.&.=.@.$.&.@.@.&.&.V + .       . O [ Q ",
"j...  o o       . D N.E.5 G.! m.@Xv q { ).! ( r.6 @ @         o 0 a Q.N J v.( p $.B o q =.=.2.=.=.&.&.&.$.&.@.&.=.@.=.@.%.J O         N : M ",
"R   o * *   . o ; q./ B 2X*Xp d.~ OXXXJ.G.J 1 H ^ B F.1 4         = A !.s.d.-.&.B :   q =.l.G.&.@.=.&.@.&.$.=.$.@.@.@.&.&.#.C X   .     u 0 ",
"x.5         . ; j b #   '.m.i.y.N N.C.1.N.N.k.x.Z o A t |             d.] ..H.` 3 &.1 }.c.V #.=.=.>.uXv.@.&.@.=.&.@.@.&.#.W @.M +         ] ",
".Xc j 5 o z ; * w c v k e.e.r.9.N.N.N.N.N.B.1.b.m.C 7 7 y 7 1 :   o o k 5 2 ' K &.-.-.*.].N ` >.:.!.lX.X#.&.=.-.&.&.&.@.@.@.@.@.1         . ",
"' ' k j 0 d.c 5 t.pXt.2X^./  X9.k.N.N.N.N.N.=.=.&.@.&.&.&.&.&.W d j   .     5 t.y -.oX=.F.=.@.T a ..|.b.=.&.*.&.&.&.@.@.@.@.@.;.` @       o ",
". ;.o A l d.t.d s %Xc.Y.dXU.N.N.N.N.N.N.k.=.=.=.&.&.&.&.@.=.*.-.>.W.J $ q { (.~.V Z s &.&.*.=.T J :.,.#.&.L.2.&.&.&.&.&.@.@.@.Q.H.P #     . ",
". } # _ 6 u.z f ( H.A.yX7XG.B.k.N.N.k.k.=.=.=.=.@.&.=.&.&.&.*.>.|.b.Q._ !.&Xf E &.) @XJ.&.<.=.@.h.l.-.*.&.L.=.&.&.&.&.&.&.@.@.-.-.b.u.+   . ",
". = . 6 i.c.; v OXZ.N.V.XXk.k.k.N.k.N.k.=.=.&.&.&.&.=.&.&.B.hXlXcX>.-.XX^.w . @ /.-.aXL.<.&.&.@.%.#.#.*.#.*.&.&.&.&.&.&.&.=.$.@._ {.b.O . o ",
"s.` X j a.$X] } uXpXsXV.S.7XS.N.S.N.=.=.&.=.=.&.&.&.&.&.&.-.#XVXVXsX-.1.=.W.x o %.&.2.2.&.$.$.=.=.=.$.$.@.=.@.&.&.&.&.&.&.&.@.@.>.}.-.@ y.  ",
"#X- . v XXQ.v  .=XU.#XH.N.l.k.S.A.N.N.1.=.=.@.&.&.&.&.=.-.*.,.lX7X,.#.$.$.#.#.#.&.#.&.=.=.@.=.&.&.=.@.$.=.<.=.@.=.=.=.&.=.! ) =.#.'.;.'.x.z ",
"+ X &X7X_.s.b [ 7XhXOXA.k.=.B.yXU.S.C.C.1.$.$.=.=.@.&.=.&.=.-.aX-.&.&.=.$.=.&.&.=.=.&.=.=.=.=.=.=.=.=.1.N.2.k.z.C.C.h.z.}.=.$.=.H.].c.[.c #X",
"= '.* l   o . o   S k.yXS.N.N.S.XX=.k.N.k.k.k.=.=.=.=.=.&.@.=.=.=.=.=.=.=.=.=.=.=.=.=.=.k.1.=.=.N.N.N.1.k.9.j.k.k.h.h.N.k.k.l.XXv.#./.!.X Q.",
";   .     5 k k e.Q.V.N.N.k.N.1.#., z.h.h.k.B.=.1.=.=.=.=.=.-.=.-.-.=.k.k.k.k.=.=.N.k.k.k.N.k.N.N.N.N.B.j.MXOXB.-.h.z.P.k.k.S.XX#Xa.'.%.a b.",
"'.o   .   o * v I.t.M.N.N.V.N.B.A.I.-XT.h.k.1.C.B.k.N.N.N.N.C.B.N.N.N.1.N.N.N.N.N.N.N.N.N.N.N.N.k.k.k.k.h.OXn.l.B.N.k.k.k.-.k.S.+XD. X! b.Q ",
"Q 4       .   ; / G [ m.P.hXQ A.U.T.dX=Xj.l.B.S.N.N.N.N.N.N.N.N.N.N.N.N.k.N.N.N.N.N.N.N.N.N.N.N.N.N.N.N.N.N.k.z.C.rXN.k.k.N.z.XXsX@Xz.Q B E ",
"$.'.-   . + + . V OXc W.S.Y.r dXsX{.7X.XV.b.H.A.S.N.N.N.N.N.k.N.N.N.N.N.N.N.N.N.N.B.N.k.N.N.N.N.N.N.N.N.S.N.k.N.C.C.N.k.B.l.c.!.XX^.x.z.c Q ",
"-.+X' .   5 e   1 .X{.l.N.N.B.XXv.d #XJ.Y.U.S.U.I.S.S.N.N.N.N.N.N.N.k.N.N.N.N.N.k.1.N.N.N.N.N.N.N.N.N.S.N.z.N.S.N.N.k.l.K.$X{ ^ D.I.z.+X+X! ",
"OXkX= 5 * 0 o . o z = -.z.x./.~.9.G.#XB.V.I.D.C.fXP.V.N.N.N.N.N.k.k.k.k.k.N.N.k.B.k.=.N.N.N.N.N.N.N.N.N.N.k.N.N.N.k.k.B.iXkXhXsX*XV.B m.$.$.",
"dXmX- u.< E.q . o     i.v.~./.R._ tX%X|.F.F.D.B.yXA.N.N.N.N.k.=.k.k.=.h.h.N.N.k.1.=.=.1.N.=.=.N.N.z.=.B.N.N.N.N.N.N.B.B.oX!.d.W.).I.N $.h.i ",
"b.*XJ '.q u G <     . {.@X3X>.b.tX&X1X:X1XtXB.U.U.S.q.Y.N.N.N.=.k.h.=.=.h.=.1.=.=.=.1.=.=.-.=.=.k.V.B.1.N.N.N.Y.U.N.N.XX}.' + d u ) B.h.i   ",
"#.l.-.h { & d w.0     e &X .OXz.K.3X;X0X:X%XH.G.V.S.M.J.N.Y.k.N.=.k.h.$.$.@.=.<.=.$.<.&.#.=.&.@.D.G.=.B.N.N.N.P.P.N.N.I.y.# : y t $.C.y ....",
"$.=.1.J p y.k e.k .     > ~ 7Xk._.U.`.1X].Y.n.k.N.N.N.N.N.sXOXXXk.=.=.$.@.@.&.1.R Q <.*.%.&.&.&.&.-.*.=.k.N.U.N.N.N.U.Q %   % H z.G.J X B.D.",
"=.@.=.h.M < v /.;.: o . . @ 7Xa.@XA.+Xv.XX( ) S.N.N.N.N.N.G.V.V.k.=.=.$.@.$.&.*.q.`.>.<.$.=.$.&.&.&.=.=.k.k.S.N.N.U.V.{   * r T.G c e S C.=.",
"=.Q @.=.k.M o J A.&.& o   o = 7XuX7XoX).I.H B B.N.N.N.N.N.N.k.N.k.-.#.@.E @.1.I 5XvX>.<.=.&.=.&.&.&.=.=.N.k.k.N.N.*Xx.o   q ^.s N 9 D h.h.h.",
"@.@.@.=.1.1.3.C e !.@X-     o 2Xi.U.I.OXI. XY.uXA.N.N.k.k.k.$.-.=.#.$.Q W Q 1.@.9.x.*.1.=.&.&.@.=.@.G.2.=.h.8.1.hX>Xs.  2 k.XXQ.9 B k.k.=.<.",
"@.=.=.&.=.=.=.m.2X.X&X-   o o   ; [ p.S.N.XXY.Z.N.N.k.k.k.=.&.&.&.<.2.*.5.,.=.=.=.1.1.&.=.&.=.=.&.=.&.XXs 8.8.C.zXbX; * y.M i .X).V.z.h.1.&.",
"@.&.&.=.=.=.=.=.Q.4 Y k.$       # @X! ( N.N.$X7Xb.k.=.=.=.&.&.&.=.1.;.8XwX5X#.=.&.1.1.&.&.=.=.&.B.-.=.&.=.k.I.. l.5 + { x.y.m.W.E.cXY.=.#.@.",
"@.@.&.&.=.&.$.=.=.=.J ! k.H..     o o 3 k.XXI.H.=Xv.=.&.<.<.&.&.&.&.! f.<Xf.%.=.&.=.1.&.&.&.&.D.F.=.&.=.h.m.a.V.3X  0 a.+X~ p.kXBXNXOXh.E E ",
"@.&.&.=.=.$.&.=.=.&.=.: Q.y..   & Q.6 + p n.}.sXpXb.&.=.&.<.$.=.*.<.<.-.,.#.%.&.=.&.&.&.=.=.&.&.&.=.=.=.Q 2 k.*Xr.* {.' L P.n.x.NXNXnXF.R #.",
"@.&.&.&.&.&.&.=.=.=.=.=.E.$   . & I.-.V p J W %.b.Q.-.&.&.*.=.&.*.*.&.1.=.&.#.@.&.@.&.&.&.&.&.=.=.=.=.B.i  X).#X  X d j.D N.k.v.kX$XH.l.E @.",
"@.+.&.&.&.&.@.&.=.&.=.=.=.=., o # T y._ y.H N :.|.(.b.$.=.&.<.&.@.E =.&.&.#.#.@.@.@.@.&.&.=.=.=.-.2.-.Z.}.9.s.r.# a uXJ.k.N.N.A.V.l.S.$.Q *.",
"@.@.&.&.=.&.=.=.=.=.=.1.k.=.=.N q o 5 5 d >.~.R.,.c..Xv.$.&.<.&.@.=.1.&.W W =.#.@.@.@.@.@.&.@.Y Y =.B.M.y.f v 7XL OXC.N.N.N.N.N.N.N.k.$.@.*.",
"@.@.@.=.&.=.=.=.=.k.=.=.=.N.k.k.b.1 # f ` b.F.W.K b.}.%X=.=.=.&.$.=.&.&.@.#.iX>.@.@.@.@.@.@.$.P F -.z.y.F...X ).j.K.C.C.N.C.N.N.N.S.k.h.=.$.",
"@.@.@.=.=.=.1.=.=.1.=.k.=.=.k.=.=.%.3 % ( x.-.b.} | &XXX_ &.@.&.&.&.&.&.@.&.iX>.+.&.#.@.@.@.#.$.m.x.M.' d c K H.%.Z.N.N.N.N.N.N.N.N.k.k.h.$.",
"#.@.@.=.=.=.=.N.k.1.=.N.N.N.=.=.=.=.E , d v.D.l.b.D g -.;.&.&.&.=.&.@.&.&.@.&.@.@.@.@.@.&.#.@.$.l.m.&X0 w q..X6X{.L.k.N.N.N.N.N.N.N.k.h.h.$.",
"@.@.=.@.=.=.1.1.=.=.k.=.=.=.=.N.B.-.h.~ ( A ..v.=.&.B R.=.}.&.&.&.&.&.&.&.@.@.@.@.@.&.@.-.b.@.$.$.N s # / h.j.,Xf.3.h.h.N.k.k.k.N.k.k.k.h.$.",
"@.#.=.=.=.1.=.=.N.=.N.=.=.=.N.=.&.-.l.-.%.! 9 $ X.-.=.& p XX&.&.=.&.=.&.&.@.@.@.@.@.@.@.$.%.@.$./ - # u Q $.<.9.9.<.h.h.k.k.k.k.k.k.h.G.$.$.",
"@.@.$.=.&.-.N.1.N.=.=.=.N.N.=.1.2.z.Q.M.-.=.@.: & E $.P o $X|.&.@.&.&.&.&.&.&.&.&.K.|.D.@.@.@.M O X i $.h.N.rX3.*.1.1.k.k.k.h.k.=.h.l.xXn.h.",
"Q Q #.$.=.k.=.=.=.=.=.=.1.-.=.k.B.l.l.-.-.h.=.@.@ O @.oXE %XF.!.&.@.#.@.&.#.@.&.^.-.#.=.@.@.B # , Q $.h.h.N.N.k.k.$.=.h.k.h.=.k.=.h.$.G.z.@.",
"9.! $.$.h.=.1.k.B.=.tXl.k.=.-.=.A.B.=.=.k.=.=.=.@.i.O =.&.-.z # n.*X}.b.b.*.b.#.E E E E Y o o u @.=.k.h.h.k.h.=.h.h.h.$.$.h.=.h.h.h.$.h.$.$.",
"MX X3.3.=.=.1.1.=.l.gXfXl.k.=.=.k.=.k.=.=.k.=.=.@.=.D.  # &.pX^.s x.! W jXMX|.W b.E Y P   + 2 @.$.$.=.h.=.h.=.h.h.=.h.h.$.h.h.$.h.h.h.$.$.$.",
"M.! <.<.Q h.N.=.=.=.D.tX-.=.=.=.1.=.=.1.1.=.=.=.=.&.@.=.] a./.*.v.;.E b.aXjX;.I E Y Y . # $ $.@.$.$.=.h.h.=.h.h.=.h.k.=.h.$.h.$.$.$.$.$.Q $.",
"R 8.$.Q 8.8.1.=.=.=.-.1.-.=.=.=.=.=.=.=.=.=.=.&.&.&.&.&.&.@.6 Q.X.z 8 >.,.D.#.W W P = #.E @.@.@.@.$.$.$.h.=.h.=.h.=.$.$.$.$.$.$.$.$.Q Q Q E ",
"$.=.$.8.Q =.2.B.-.1.=.=.=.=.1.=.=.&.&.&.*.=.=.B.=.&.&.&.&.&.&.a 6 .XR._ *.#.E E %.# sXW E @.E E @.@.@.@.$.h.=.h.=.h.$.$.$.$.$.$.$.@.Q E E W ",
"$.&.$.h.#...w.! =.=.1.&.<.=.=.&.=.@.&.=.=.&.*.tX-.-.&.&.&.@.&.I 6 } c N =.Y Y E V ..W I Y @.E @.@.@.$.$.$.$.$.$.$.$.$.$.$.$.@.Q @.@.E E Y E ",
"$.%.$.$._ >X<Xw.=.=.=.&.=.&.=.&.&.&.&.@.&.&.&.=.&.&.&.-.&.@.@.&.) a 0 { ) #.Y M 2 Y W I I @.@.Q @.Q $.@.@.@.$.$.@.@.@.E #.@.Q E E E Y E Y W ",
"@.W &.&.;.5X6XQ.*.&.&.<.&.=.=.@.@.=.@.v.v.@.*.=.*.&.&.&.@.@.@.@.x.y.z s y.;.t 3 ;.E @.Y E #.@.@.Q @.@.@.Q @.Q E E E E @.@.E Y T ` ~ E I E E ",
"Y Q &.&.#.W #.<.*.&.&.&.&.=.$.$.$.&.@.b.b.#.=.&.@.&.&.@.&.&.@.@.j.Q.g r J T i Y Y E E @.Q Q Q E Q E E Q Q E E E E E E Y W Y W o.1XX.Y E E E ",
"E E @.@.@.E Y &.&.&.&.&.@.=.@.@.@.@.@.#.#.@.&.&.&.@.&.&.@.@.@.E @.-.B M V r P E E E Q @.@.Q E E E @.E @.@.E E E E E Y Y I Y Y o.7.o.I I @.E ",
"E @.I E E E @.&.&.&.&.&.@.@.$.@.$.=.@.@.W @.&.&.@.@.@.@.&.@.@.E @.E @.E y u W E @.Q E Q Q E @.@.E Y Y E E Q E E E E E Y I E R D ` T I E @.E ",
"E I E R Y E &.@.@.$.&.@.@.@.#.W $.=.B.&.@.#.@.@.@.$.@.@.@.@.E @.Q E @.E 3 M Q Q Q @.@.Q Q Q E E E E E E Y Q E E E E E I +.+.I W Y Y E @.E E ",
"I I ;.q.W E E @.@.&.@.@.#.#.@.E &.Z.rX1.@.@.+.@.@.@.@.@.@.@.@.E @.E Q @.P Y Q @.Q Q Q Q Q E E E I E I E E @.E Q E E E @.@.@.+.W W +.@.E @.E ",
"W W ` p.T I @.I E $.@.#.H.mX>.W @.1.Z.1.@.@.@.@.@.@.@.$.@.@.@.E @.@.Q @.Q Q @.Q Q @.Q @.E E W I E I E I E @.E E E E E Y I @.Y Y Y I E #.E @.",
"I U +.W I I E Y E @.&.#.*.XX#.&.$.=.=.&.$.@.@.@.E @.Q @.Q @.@.Q Q Q Q Q @.@.E &.h.R Q Y @.E I E I E I E Y Y E E E E E E I I E Y Y W E @.E E ",
"I Y W I @.I E Y @.@.@.+.fX}.*.#.@.@.$.#.k.#.@.E Q E Q @.Q Q Q Q Q @.Q Q Q R S @.@.#.W P @.I E Y E I E I E I E I E E E W #.E Y E E @.@.E E E "
};
