/* XPM */
static char *result[] = {
/* columns rows colors chars-per-pixel */
"70 73 205 2 ",
"   c #040404",
".  c #050708",
"X  c #06090C",
"o  c #090B0D",
"O  c #060D12",
"+  c #090E12",
"@  c #050F18",
"#  c #071017",
"$  c #0B1115",
"%  c #06121B",
"&  c #0B141B",
"*  c #10161C",
"=  c #11191E",
"-  c #071624",
";  c #0A1722",
":  c #071826",
">  c #0C1924",
",  c #061B2D",
"<  c #0B1C2B",
"1  c #121D24",
"2  c #101D2A",
"3  c #031E34",
"4  c #0A1F32",
"5  c #021F3B",
"6  c #091E3D",
"7  c #0D202E",
"8  c #13212C",
"9  c #19242E",
"0  c #1B2628",
"q  c #032136",
"w  c #0C2234",
"e  c #02223C",
"r  c #0B243B",
"t  c #05283D",
"y  c #0C293D",
"u  c #0F2836",
"i  c #132533",
"p  c #192633",
"a  c #152A36",
"s  c #1A2934",
"d  c #122539",
"f  c #132B3C",
"g  c #1B2D3B",
"h  c #1C323B",
"j  c #202B33",
"k  c #232E3C",
"l  c #2C2B39",
"z  c #332F3A",
"x  c #23323A",
"c  c #253735",
"v  c #303E38",
"b  c #363137",
"n  c #402D32",
"m  c #433133",
"M  c #57332A",
"N  c #40482C",
"B  c #565834",
"V  c #031F40",
"C  c #022641",
"Z  c #092641",
"A  c #052943",
"S  c #0B2A42",
"D  c #022649",
"F  c #022C4C",
"G  c #0A2D4B",
"H  c #132C42",
"J  c #1B2E42",
"K  c #04324C",
"L  c #153144",
"P  c #1A3144",
"I  c #11334B",
"U  c #1A354A",
"Y  c #173848",
"T  c #1F3849",
"R  c #113E43",
"E  c #022D53",
"W  c #0B2F56",
"Q  c #042E5A",
"!  c #0A2E59",
"~  c #033355",
"^  c #0A3354",
"/  c #043B53",
"(  c #02345C",
")  c #0A345B",
"_  c #02395E",
"`  c #0B3B5D",
"'  c #0D3955",
"]  c #193551",
"[  c #143C53",
"{  c #19365C",
"}  c #19395C",
"|  c #193857",
" . c #233546",
".. c #23394C",
"X. c #283D41",
"o. c #202F56",
"O. c #223F56",
"+. c #2D3C54",
"@. c #2B3759",
"#. c #333558",
"$. c #062E62",
"%. c #0C2F63",
"&. c #092A68",
"*. c #023563",
"=. c #0A3564",
"-. c #023B64",
";. c #0A3C63",
":. c #033669",
">. c #023C6B",
",. c #0B3D6B",
"<. c #123C64",
"1. c #1B3C61",
"2. c #123D6A",
"3. c #193460",
"4. c #073575",
"5. c #033D72",
"6. c #093B73",
"7. c #003F7A",
"8. c #0D3B7A",
"9. c #073576",
"0. c #123E7E",
"q. c #6B3D58",
"w. c #593860",
"e. c #02405E",
"r. c #1E4057",
"t. c #1A4858",
"y. c #19465D",
"u. c #25454D",
"i. c #3B554F",
"p. c #294C52",
"a. c #20445D",
"s. c #28445B",
"d. c #294F5A",
"f. c #334254",
"g. c #394A59",
"h. c #324658",
"j. c #375354",
"k. c #014165",
"l. c #0D4264",
"z. c #02426C",
"x. c #0B426C",
"c. c #09486D",
"v. c #144365",
"b. c #194465",
"n. c #194966",
"m. c #13446C",
"M. c #1A446B",
"N. c #14496C",
"B. c #1A4B6A",
"V. c #024372",
"C. c #0B4472",
"Z. c #0E4971",
"A. c #02437A",
"S. c #0B4979",
"D. c #08467D",
"F. c #134A73",
"G. c #1B4B74",
"H. c #174979",
"J. c #1E547C",
"K. c #234C6C",
"L. c #264664",
"P. c #334965",
"I. c #334A6D",
"U. c #2A556C",
"Y. c #375963",
"T. c #255179",
"R. c #2B587F",
"E. c #28517B",
"W. c #365B7B",
"Q. c #3F6363",
"!. c #434D46",
"~. c #42504A",
"^. c #40425B",
"/. c #59445A",
"(. c #794A54",
"). c #446254",
"_. c #526255",
"`. c #4E7755",
"'. c #637449",
"]. c #5F4068",
"[. c #415B6F",
"{. c #405F7E",
"}. c #486B69",
"|. c #557B6E",
" X c #5D6A72",
".X c #894350",
"XX c #043E81",
"oX c #084A88",
"OX c #1B5381",
"+X c #0D509F",
"@X c #2C5D81",
"#X c #366487",
"$X c #376797",
"%X c #39719F",
"&X c #416689",
"*X c #416F94",
"=X c #4C7999",
"-X c #577E99",
";X c #427CA2",
":X c #5483A7",
">X c #6898AD",
",X c #6E9CBE",
"<X c #95B0BE",
"1X c #87A8B9",
"2X c #96B4C2",
/* pixels */
"~ K ~ ^ ( Q ( Q K.I.3.E S F E ! ( ( ( ( ( _ ( ` ` _ -.-.:.:.-.n.).i.3.=.9.5.-.*.*._ ( Q Q F E ~ E E Q E ~ E K F A G G F E E F E E E Q ( Q E ",
"~ U.[ ^ ^ Q E Q ^ G E *.$.( $.&.Q ( ( ( ( ( Q *X#X-._ *.:.;.l.-.-.` <.' ) >.>.-.*._ _ ( ~ Q Q E E E E E F ~ E F F F F E F E E E E E E Q E ~ ",
"~ U.[ K E E Q Q Q Q ( :.%.{ ,.4.Q ( ( ( ( ( _ @XG.;.-.-.-.*.;.;.2.2.G.B._ -.-.-.-._ _ _ ( Q Q E Q Q ~ E E F F E E F ~ F E E D E F E E E E E ",
"~ K F F Q Q Q ( *.Q ~ ) o.q./.n.) ( ( ( Q ( ( ( ` k._ _ *.-.;.b.&X} 2.2.1.;.-.-.*.*._ _ ( ~ E Q ~ Q ~ Q E E E E E Q Q E E E E E Q E E F E F ",
"K K F E Q ( ( ~ *.( E =.#..X(.| T.=.( Q Q ( ( *._ -.-.k._ -.z.B.&X<.;.} ^.1.*.-.-.*.*._ _ ( ( Q ( ( ( ( ~ ( ~ Q Q Q ~ ~ E Q ~ ~ ~ ( ~ ~ E F ",
"~ ~ Q ( ;.;.( ( $.~ ~ %.3.l +.) K.^ E E E ( ( ( _ _ -.k._ k.l.1.W.v.,.` } <.-.-.*.-._ -._ ( ( Q ~ E Q F E F E E F ~ ( ( ( ~ ~ / K / / E ~ K ",
"Q Q Q ( b.v.) ) ( ( / ( E A S Z C e e e C D F Q ( _ *.-.k.-.` K.W.v.-.-.:.-.x.z.*.-.-.-.*.( E E D e e e 3 e e e C F E ( _ ~ Q [ }.s.E ~ / ~ ",
"( ( ( ^ ) ) ) -.) ~ F C t e e e e e e e 5 5 5 C F Q _ -.-.z.` ` ` -.;.:.;.-.x.,.-.-.>.*.( E D C 3 3 3 3 3 3 q e q e t C K ~ ) y.}.h.) Q ~ ~ ",
") _ ( _ _ _ _ / F t e q e q e t t e C e e e 5 5 5 C F _ >.>.z.-.,.-.-.-.-.-.-.z.-.>._ F C t C e 5 5 3 5 5 3 e q e q e 3 q t ~ ' u.K ( ~ ~ ~ ",
"*.-._ k.k._ / t e q q e q t q e t C C e e C e e e 5 e D _ >.x.>.z.-.-.k.k.-.,.-.,._ F C t e e e C 5 w q q e 3 e q e q 3 q q C F K ( ( ( ( ( ",
"-.-.-.-.-.K t q q q e t e e t e e C t t C t t e 5 5 5 e C ~ 5.V.V.>.k.-.-.-.-.,.~ D t e e 5 e e e w x a q e q q 3 e 3 3 q 3 e q F _ *.( ( _ ",
"-.-.k.-.( t e q e e q t q e e t C t t 7 : < : : 3 e e 5 t C _ >.V.z.>.k.-.>.-.( C e C C C Z D e r f !.v t t e e e 3 q 3 3 3 3 q e Q ( ( _ ( ",
"-.k.-._ C e e e q e y U a q t t y w % o $ > > + X O % 3 e C D *.>.5.>.5.>.,.-.S A C C C e t C e t i 0 1 & @ & > < 3 e 5 3 5 3 q 3 e ~ _ _ _ ",
">.-.-.A t e e q e e S [.T w t : $ . . o 8 f f a i : & X + < t F -.z.5.>.>.>.F I L.C e C e e t w & & ; , 3 , 4 < ; & $ > 3 3 3 q q 3 C ( ( _ ",
"k.-./ e t q t q e q q L u 8 $       . . $ w S < ; & 5 d & . 1 Z ) z.V.5.5.E Z C e e C e e e > o   & 4 5 5 5 r e 5 5 3 # $ , , 3 3 5 5 K ( ( ",
"z._ t q t q e e t e q y 8     . . $ 7 > = 8 1 8 $ . + & 5 s > + t -.z.V.>.F C C C e e e - . X : r , & < < : + @ < w 3 e 3 ; - , 3 3 q e ~ _ ",
"C.~ e e e t e e e t e > O . . . $ $ $ & . o o . X # X   # > < ; & G z.z.~ D t C t e <   O ; r 3 , ; X > d > & i < & & 4 3 4 2 2 3 3 5 3 F _ ",
",.A e e e q e t t t < o > o     o X . . o * $ + & & 1     ; 4 i 8 < ^ -.F e e e e , X o , 3 - & X X X # ; ; < < , 1 .   # 4 J 9 : 3 q q t _ ",
"` e e e e e q t t & & .     . & > 7 > 0 8 & $ $ & ; & X     + 1 2 8 H W C e e e : - 3 3 ; @ @ ; 4 4 5 6 r < +   . . .   . $ , , < , 3 e 3 ( ",
"K e 5 5 5 q t r < . o       > f a u u f 8 8 7 & O .         . + & < H f y e e < : e , ; ; 3 5 e 5 r r r e y w ; .       . o & , , , 3 q e K ",
"A 5 5 5 e 5 3 ; o         & f f a t S y u 7 7 u 2 & . .       O & > H J d 6 < & 5 : ; , 5 5 e V 5 Z U r e 5 5 e : O       . + ; 4 , 3 q q F ",
"A e 5 5 e y < X           7 f u p a r a 8 > w 7 > > ; ; X       o $ 4 d 2 4 , 3 : X < e r 5 5 5 6 H h.J 5 5 5 5 5 , @       X & 5 w q 3 e A ",
"C e e e Z H < .   .   $ o 9 = 7 s a w r r t e 3 < > ; < - O .       + > > 2 r 4 < + < 6 4 C 5 e 5 r J d e V e 5 5 5 3 @       + w r w q q t ",
"5 r 5 e y y 2 $ $ o + $ o 9 1 0 a 8 u r e e e e 5 6 > < , ; + + .     O + # > < 5 3 f < , V e w r d 6 e 5 S Z 5 5 5 5 , .       & w 3 3 e C ",
"Z 5 5 e y r < 1 $ * 1 * + f 9 g f r y t C 5 5 5 V 5 e 5 5 3 , 4 p $ .       2 4 < H O.Z 6 6 < < q r 6 e 5 S e 5 5 V 5 r ; .     X : , q e A ",
"D 5 e e Z < > > = s 0 $ = f a L L A t e e e e 5 5 5 5 5 5 Z ..g.g.i 2 ; ; & 2 4 4 2 ] S 5 5 3 e q 5 e 5 5 e 5 5 5 5 e Z w &       + ; 3 e F ",
"F 5 e C t : $ & & p s $ 9 y S L P C C 5 e 5 5 5 5 5 5 5 5 Z  . X X..i i p i < 3 5 5 Z 5 5 e 5 5 e e e 5 5 5 5 5 5 5 5 V d 2 +       + 3 3 ~ ",
"! 5 C e C 7 o o & a p * j S S H H H C C e 5 e 5 5 5 5 C 5 V d f. .6 5 r i d O & 5 5 5 C 5 3 e 5 C e 5 5 e V e 5 C V e e 4 > - O .   X w e ) ",
":.D C e C y 1 o 1 r a = p S g I L H A D t e e 5 5 5 5 e 5 5 Z ] e e 5 5 5 4 ; < 5 e 5 5 e 5 e e 5 e e C C C e C C C t t r y w < + & X 2 e _ ",
"*.E t t e ; o 2 i a p * g L f C e w t C t e e 5 5 C 5 5 5 e e e 5 e e 5 e r e e e e C e C e C e C C C C q r r t A e t t H f w 8 $ & $ , A _ ",
"-._ A t e ; + = o   o o 0 u C S C t t y e t C C C C 5 e e e C 5 Z C e C C e C Z e C t C C e C e C C C Z w Y.Y Z y t S S L f a w $ & o , ~ ) ",
"e.k.' g y < $ +     $ $ s 8 A S S t y u u t C C C C C C C C C C C C C C C C t C C C C C C C t C C t C e t Y y y C C y S L f y r $ & $ f ( _ ",
"k.c.;.H y t ; X .   . o i 8 S A S y L L u Z Z C C C C t C C t C C C C t C C t C C C C C C t C C C A t t t C e t D D S y f u t t - & 1 L _ _ ",
"-.V.z./ A C w +   . o   < i a S t f f f L f A A A C t A t C C C C t C C C C C C C t t C C C t A t C C C D C t t D D S r f f r q > O g n.,._ ",
",.Z.C.z.~ t 4 & .   $ . # g 9 y t y a J h g H S A S S C C C C C C C C C t C C C C C C C C C C C A C C C C t t D C S f u L P y 4 < & u.G.x._ ",
"R.=XF.z.*.Q 4 > $ X .     1 $ g t Z S H f f H Z I S S A A C C C e t t e t C C t C e e C C C C t t A C C C t t C t y 9 i P  .r e w 7 v.z.>.-.",
"&X,XJ.>.z.5.G > + & & o     . x H S H J J S S S r.G t t C C t e e t e e t t e C C e C C C C C C C C Z C C A t C S i 1 i d d r A u I x.z.k.-.",
"n.#XF.C.c.V.,.r * & 8 7 o   . 0 P J l m z H Z G S S S y y S C e t e e e e e 5 C e e V 5 5 5 5 5 t A Z C y A t S t = * i w Z G f Y l.V.x.k.>.",
";.z.5.A.c.z.N.d.h & > = >     O 2 j b M m H y S A A S t e A S y e e e q e 3 5 V e q V 5 5 5 C 5 Z Z Z e C C S A < . $ < y y u Y v.V.A.5.z.z.",
"*.5.5.V.k.,.n.Q.p.7 > > w #     + i x z k S S u S C C t C t S A C t e 5 5 5 V C q 3 V 5 e 5 5 5 e e 5 e C t S t o . & w < w f l.V.V.5.7.A.>.",
"-.-.>.V.k.>.6.M.m.^ & < y 7       $ s h P H y < w A t C C t C C t e 5 5 5 q 5 5 a f Z 5 e 5 e 5 5 r e e t A A &   . u : s Y ` z.z.V.z.V.A.z.",
":._ *.>.V.oX+XoXA.5.) < 7 y &     o = g P H H y G S C C C C C C e e e 5 3 5 V 3 c i.6 V e e 5 5 e Z e e t L a o o 7 w T r.v.V.V.V.V.z.z.z.>.",
"*.*.:.:.5.A.oXoXA.V.x._ < 8 y >       1 f H S F S S A t t t e e 5 5 q 3 4 3 e 5 w r e V e 5 5 e Z r e e y f = . w j f.s.y.V.V.V.V.V.z.z.z.:.",
"*.:.>.>.>.>.>.>.>.V.V.V._ < 7 t :     o ; w t C H L S S e e 5 5 5 V C 6 d 6 e e e V C V 5 5 Z Z 5 e e f f a o > 9 ~.P.` V.V.V.V.c.Z.c.k.5.:.",
"*.*.:.>.:.>.>.>.>.5.z.V.V._ t w r >   + = + > f H Z H t e 5 5 5 5 C r v B c 5 5 e C C 5 V e r 5 e e d d u & $ 8 P p.} V.V.V.c.l.b.:XT.-.:.*.",
":.:.:.*.>.*.:.>.>.>.>.V.V.z.( t > : X & a < & < r r S r V 6 C 5 5 5 3 c N x r e 5 e V C V 5 5 C 5 5 < d p . 8 T B.N.x.V.V.z.G.=X2X<XR.l.) _ ",
"*.:.:.>.>.>.:.>.>.>.>.>.z.z.z.~ y : . + p f w 1 i r Z d V 5 e 5 V V V e w 3 e 5 5 5 5 5 5 e e e 5 w p s 8 0 f B.z.A.V.V.V.z.c.v.1X<X:XF.) _ ",
"*.:.:.:.:.:.:.-.:.>.:.>.>.>.>.>.E e : O $ 1 i d p i r H r V e 5 6 V 5 V V 5 5 5 5 5 5 V 5 e r e Z a p * 8 Y c.V.V.V.V.V.V.V.z.v.=XW.F.l.) =.",
"*.:.:.:.:.>.:.>.:.:.>.>.>.>.>.>.*.E e , @ > i d d 2 ; r d e V Z e 3 5 5 5 6 3 5 5 3 3 5 5 r 4 r f g 2 > I Z.z.z.V.z.A.V.z.V.V.S.Z.x.C.-.-.:.",
"*.*.:.:.>.:.>.:.>.>.>.>.>.>.z.>.>.>.Q C 5 - > d d r & 4 d r V 5 5 e V 5 3 3 5 3 3 5 5 5 5 5 e w r 1 2 I x.V.z.z.z.c.A.V.z.V.V.V.V.V.z.-.:.:.",
"*.*.*.:.>.:.>.>.>.>.>.>.5.z.>.5.>.z.-.F C 6 : , < 5 e 4 8 Z r 5 5 e 5 5 5 5 U Z 5 3 5 r e 3 5 3 > ; S x.V.A.z.k.x.V.D.A.A.V.V.V.V.V.z.z.-.-.",
"*.*.*.>.:.>.>.>.>.5.z.5.>.>.>.z.>.5.z.*.F 5 5 , ; - 4 e , > H r 5 e 5 5 5 5 U Z 5 5 3 r e 5 3 ; $ y -.k.>.V.7.G.l.6.V.V.V.V.V.V.V.V.V.z.-.-.",
"=.*.*.>.>.>.>.5.>.z.>.V.z.V.>.>.>.>.,.,.*.F C 5 , & & e 3 < i r e 5 5 5 5 5 5 5 4 r 5 r 5 3 & & r _ k.k.k.-.G.|.Y.0.z.z.V.V.V.V.V.V.z.k.k.-.",
"*.*.*.-.>.>.5.>.5.5.>.>.>.>.>.V.V.,.k.,.:.*.F C 5 3 % % e 3 4 < r 5 V 5 5 5 5 4 r 5 5 4 : + & e _ -.>.k.k.-.<.`.j.D.k.z.z.V.z.z.V.z.c.k.-.k.",
"*.:.:.>.>.>.5.5.z.>.V.>.>.5.5.>.,.>.m.,.;.-.-.D e 5 3 : & 4 5 i 4 Z 5 5 5 5 e e 5 5 5 @ O - t _ -.>.k.k.k.-.5.n.y.4.k.z.V.z.z.z.z.z.z.Z.l.-.",
"*.*.-.,.>.5.>.5.V.>.>.>.z.z.>.5.5.x.K.n.,.>.>.*.D 5 5 5 , > 4 d 4 4 e 5 e r 6 r 5 e % + - C ( -.-.k.k.>.z.V.XX9.,.>.5.z.k.z.k.z.>.k.c.;XN.-.",
") _ -.-.z.>.5.>.>.>.>.x.>.5.>.z.C.C.,.l.,.k.>.:.Q D 5 e 5 5 , 4 r 2 < 6 y r 5 5 5 > : e e ( *.-.-.k.>.k.k.A.V.k.x.-.>.k.z.z.>.k.>.k.-.F.c.-.",
"y.' k.k.k.>.>.z.x.>.OX>.>.>.>.>.S.C.>.>.>.5.>.>.:.( C 5 e 5 e < 0 j 9 i H 6 r 4 ; < 3 e ~ *.*.*.-.>.k.>.>.k.z.z.>.>.k.-.-.k.>.k.k.k.k.-.-.*.",
">XG.4.9.>.>.5.5.>.>.%X%Xx.>.,.>.>.>.V.>.>.>.>.>.>.:.Q e 5 5 V e 3 $ 1 8 s.P.H > : 3 5 E _ *.*.-.-.>.k.z.-.k.>.k.k.>.k.k.-.k.k.-.k.k.k.-.-.-.",
"B.` 4.4.*.k.5.k.,.>.H.OXV.>.,.>.5.>.>.>.>.V.>.>.:.>.>.Q e e V 5 5 < * * J @.d & 3 3 E ( ( *.*.*.-.-.>.k.>.k.k.>.>.k.k.>.k.k.-.-.-.-.-.*.-.*.",
"_ e.-._ e.e.5.,.>.,.>.5.>.>.>.>.>.>.>.>.>.>.>.,.:.:.>.:.Q e V 5 5 4 $ $ > d w 4 3 ' M.( ( *.*.*.*.*.-.-.k.k.>.k.k.>.-.-.-.-.-.-.-.-._ _ *.( ",
"_ >.k.e._ ,.6.V.>.>.>.>.>.:.:.>.:.>.:.:.:.>.4.C.>.:.>.:.:.Q C 5 5 y < < 4 2 3 5 F T.@XQ ( ( *.( *.*.*.-.-.>.k.>.-.k.-.-.-.-.-.-.*.*._ _ ( ( ",
"-.,.-.k.-.O.u.) 5.>.5.>.:.>.5.:.>.:.:.-.>.:.>.H.6.:.:.:.:.*.E V r 5 5 q 8 < q F Q ( ) ( Q *._ *.*.*.*.-.-.-.>.-.-.-.*.-.-.:.:._ *._ ( ( ( Q ",
"-.=._ -.} _.'.u.,.:.:.5.:.:.>.:.*.:.:.:.:.:.:.,.:.;.:.:.:.*.$.E e 5 q q - , F ( ( ( ( Q Q *.*._ *.*.-.*.*.*.*.-.-.*.*.*.) *._ _ ( ( ~ ( ( ^ ",
"*.) :.:.<.}.|.M.,.:.:.:.:.>.>.:.-.>.>.2.m.:.:.,.>.:.*.:.:.:.*.Q F 5 3 3 3 F Q ( ( ( ( ( _ _ *.( *.*.*.*._ *._ ( ( ( ( _ ( *.~ ^ { ^ ( Q ( Q ",
"_ _ :.:.=.` ;.:.:.:.4.:.>.*.-.*.*.*.:.m.M.*.:.:.:.:.:.:.:.*.*.*.( F 3 e D ( ( ( ( ( ( ( *._ _ _ ( _ _ ( ( ( ( ( ( ( ( ~ E ( ^ #.].@.( ( ( ( ",
"( *.*.*.*.( ( :.:.:.:.:.:.:.-.-.*.>.*.) ( =.:.:.*.:.*.*.*.*.*.*._ Q F D Q ( ( ( _ ( _ _ ) *._ _ ( ( ( _ *.( _ ( ( ( ( ~ W ~ ~ #.w.@.^ Q ( ( ",
"Q Q Q ( ( ( =.:.:.:.:.:.*.*.*.*.*.*.>.*.=.*.:.*.*.*.*.:.*.*.*._ *.( ( Q ( ( _ _ *.( _ _ *.( ( *.( ( ( ( _ ( ( ( ( ( ( ~ Q =./ ^ | ~ ( _ *._ ",
"Q ( Q ~ ~ _ *.*.*.>.*.*.*.*.;.( *.>.C.>.*.=.*.:.*.-.*.*.*.*.$.*.( *.( ( _ _ *._ _ _ _ _ *._ ( ( ( ( ( ( ( ( _ ( ( ( ( ( $.*.Q ~ ( ( Q *.( ( ",
"( Q <.t.) ( $.*.*.:.:.*.=.=.*.*.-.D.oX5.*.*.:.*.*.*.*.*.*.*.*._ *._ *._ *._ _ _ _ _ _ _ _ ( ( ( Q ( Q ( ( ( _ ( _ ( Q $.$.*.&.! W $.*.( *._ ",
"Q ) 3.d.^ ( $.( ( *.:.*.G.,X2.) -.5.D.>.*.*.:.*.*.-.*.*.*.*.*._ *._ *.*._ *.*._ *._ _ _ _ Q ( Q ( Q ( Q ( ( ( ( ( ( ( ~ Q $.( ^ ^ Q ( *.( _ ",
"W W ! ) Q Q ( ~ ( *.*.=.=.T.=.=.:.-.>.:.*.*.*.Q *.*.*._ *.*._ _ _ _ _ _ _ *.*.*.*._ _ ~ *.Q Q ( Q ( Q ( Q ( Q ( ( ( ( ( ( ( ~ ~ ( ( ( =.( *.",
"*.Q ^ Q *.Q ( ( ( *.$.=.$XH.2.*.*.*.*.*.x.:.*.Q ( _ _ _ _ _ *._ _ _ _ *._ ~ K *.=.-.) ~ Q Q ( ( ( Q ( Q ( Q ( Q ( ( ( ( =._ ( ( ( ( _ ) _ ( "
};
