/* XPM */
static char *result[] = {
/* columns rows colors chars-per-pixel */
"70 73 192 2 ",
"   c #011E36",
".  c #011F3B",
"X  c #091E3E",
"o  c #0E2B2F",
"O  c #153129",
"+  c #012135",
"@  c #0A2336",
"#  c #01223D",
"$  c #0A243C",
"%  c #03283E",
"&  c #0C2A3E",
"*  c #102A31",
"=  c #13253D",
"-  c #152B3C",
";  c #18283D",
":  c #17303A",
">  c #113A3E",
",  c #352D2C",
"<  c #2E2737",
"1  c #272932",
"2  c #20283D",
"3  c #2E2A37",
"4  c #322B38",
"5  c #233535",
"6  c #263937",
"7  c #28323A",
"8  c #283D3A",
"9  c #263B3C",
"0  c #313F39",
"q  c #432C2F",
"w  c #592D22",
"e  c #42492D",
"r  c #585A35",
"t  c #031F41",
"y  c #022642",
"u  c #0A2541",
"i  c #022843",
"p  c #0B2A44",
"a  c #022649",
"s  c #022C4C",
"d  c #0B2C4B",
"f  c #102741",
"g  c #142C44",
"h  c #1B2E42",
"j  c #132F4B",
"k  c #03324D",
"l  c #0E324B",
"z  c #143644",
"x  c #183746",
"c  c #143847",
"v  c #1E3947",
"b  c #13324C",
"n  c #1A344B",
"m  c #17394A",
"M  c #1D3B4A",
"N  c #022D53",
"B  c #0A2E55",
"V  c #042E5A",
"C  c #0A2E5B",
"Z  c #1B2D54",
"A  c #033255",
"S  c #0A3254",
"D  c #043B53",
"F  c #02335C",
"G  c #0A345B",
"H  c #02395E",
"J  c #0B3A5D",
"K  c #133451",
"L  c #1B3653",
"P  c #143B53",
"I  c #1C3A54",
"U  c #16305B",
"Y  c #19365C",
"T  c #1A395E",
"R  c #173D5D",
"E  c #283E42",
"W  c #26364A",
"Q  c #202F56",
"!  c #293457",
"~  c #233D53",
"^  c #2F3658",
"/  c #273E59",
"(  c #293A5D",
")  c #333558",
"_  c #062E62",
"`  c #0C2F63",
"'  c #092A68",
"]  c #023563",
"[  c #0A3564",
"{  c #023B64",
"}  c #0B3B63",
"|  c #03366A",
" . c #023C6B",
".. c #0B3D6B",
"X. c #123D64",
"o. c #1B3C61",
"O. c #123D6A",
"+. c #153560",
"@. c #073575",
"#. c #043C72",
"$. c #093A74",
"%. c #003E7A",
"&. c #0D3B7A",
"*. c #073576",
"=. c #123E7E",
"-. c #6B3D58",
";. c #593860",
":. c #02405D",
">. c #1A4858",
",. c #19465D",
"<. c #28434E",
"1. c #21474C",
"2. c #3B554F",
"3. c #21455C",
"4. c #29455D",
"5. c #234E55",
"6. c #344659",
"7. c #3A4C5B",
"8. c #325658",
"9. c #3D5251",
"0. c #014166",
"q. c #02416C",
"w. c #0A426C",
"e. c #05486B",
"r. c #154266",
"t. c #1B4363",
"y. c #194966",
"u. c #14446B",
"i. c #1B456B",
"p. c #11496F",
"a. c #194B6B",
"s. c #024372",
"d. c #0A4472",
"f. c #03417A",
"g. c #08467D",
"h. c #0B4979",
"j. c #1B4774",
"k. c #134B72",
"l. c #1B4C74",
"z. c #114978",
"x. c #184B7D",
"c. c #1D577A",
"v. c #214560",
"b. c #2F4A60",
"n. c #244D6B",
"m. c #2F4F6B",
"M. c #21456A",
"N. c #334A69",
"B. c #2A556C",
"V. c #385963",
"C. c #245078",
"Z. c #28517B",
"A. c #29587F",
"S. c #3A5F7F",
"D. c #345979",
"F. c #3F6462",
"G. c #444F47",
"H. c #475F4E",
"J. c #40425B",
"K. c #59445A",
"L. c #794A53",
"P. c #446254",
"I. c #526255",
"U. c #4E7755",
"Y. c #637449",
"T. c #5F4068",
"R. c #435D72",
"E. c #405F7E",
"W. c #486B69",
"Q. c #557F6E",
"!. c #55776D",
"~. c #5F6C74",
"^. c #894450",
"/. c #023F82",
"(. c #0F4F86",
"). c #1B5381",
"_. c #2C5D81",
"`. c #326388",
"'. c #376797",
"]. c #39719F",
"[. c #416689",
"{. c #416F94",
"}. c #4D7997",
"|. c #4E7794",
" X c #577E99",
".X c #427CA2",
"XX c #5483A7",
"oX c #6898AD",
"OX c #6D9CBC",
"+X c #95B0BE",
"@X c #87A8B9",
"#X c #96B4C2",
/* pixels */
"A k k S F V F V n.N.U N d s s V V F F F F F F J J H { { { | } r.P.2.T ] $.#.{ ] H F F F N N N N N N N N A A s s p p l s N a N N N S F V F N ",
"A B.P S S V V N N B S C V ] ] ' F F F F F F S ].`.} H { { [ .. .{ J +.J F  . .{ ] H F F F N N N V N V N s A N s k a a N N N s N N N N V S N ",
"k B.P A N V V N G N F | ` Y O.@.V F V H F F F _.l.J H { { ] } } u.O.l.i.J { { { { H H F F N N N F N A N N s s N A N N N s N N N a N N N N A ",
"D s k s N V V F _ F A ] Q -.K.t.[ F F F F F F A { { 0.H H { { t.S.o.O.u.t.[ { { { ] ] H F V V F N N V F N N A N N N N N N N N N N N N N N a ",
"A k N N N F V F ] F S G ^ ^.L.P C.[ F F F F F ] H H { { { 0.w.a.[.X.[ R 7.o.{ { { { H H H F V F F F A F F F F V N N F A N A F A A F A k k s ",
"A N N V } X.F F _ S k C Z < W S M.S B N V F F F F { { 0.0.H } i.D.r.0.X.Y +.{ { ] { { H ] F F F V F N N s s a s N N A A F A A A l D A A A k ",
"N V F F i.i.F G V s i s % % u t y y y a a N F ] H H { { { { J n.`.t.{ { | { w...{ { { { { ] F N a y # + .   + # + y i N s D F P W.3.S A A A ",
"F F F S J A k d i # + # # # # # # # # # . y i N H ] ] { 0.{ J J } G [ { { { w...{ { | { { V a i + .       . . + + . . + % % B >.W.b.V A A A ",
"F H H H D s % % + # + # # % + % % # y y # # # # a N { { q. .w.{ { { { { { { 0.{ w.{  .F s i y # t . . + . # + # # + + +   + % p > S J A A A ",
"] { H D i % + + # # # + % # % # i # y # y % # # # y a {  . .q. .w. .{ :.0.{ { .. .{ A i # # # # # # @ @ + + # + # + . + +     + + N F F F F ",
"[ { k i # # # % + + # % # # % + i y i # % y # # # # # a H  .#.s.q. .q.{ 0.{ { ..{ s # # y # y $ @ $ 7 - @ # + # + # + . +   + + + y N H F H ",
"{ A % # % # + % % % # $ % + % % # y % i i % i # # # # # i { s.s.q.q. .q.{  .{ { a y y i y y a # % : G.E % # # + # + # +   .     . . + N H F ",
"A % # # # # # + # + $ n @ + # i i # i y % i i y # t # . # a  .q. .s.q. .#. .{ s p i y y # % i # # $ 7 ; + # .   .   .   + .   + . @   + A H ",
"a % # % # % % + % + g R.n % % % # y y i i % # # y . # . . % s  .q. .#. .$. .S K t.# # y # % i # # y X . . . . . . . . .       +   .   . # F ",
"% + + % % # # # # # @ b $ $ y y # y y % # i i y # y . . @ u b F d.s.q.#.#.F s y % y # y # # y y t . . + . . . + . . . .           + . + + i ",
"% + % # % + % % % # # % y # y y y # @ % i i # y # # t . . $ p d { q.s.s.{ s y y i # y # y # # # # y . . . . . . . . .   X         . . + + + ",
"y + # % # # % # # % i # i i i y y y % W z y a y # # t # . . . y A w.s.q.F i y y y y y # # y . . # # . . . . # . . # . t . X $ $       . +   ",
"% # # # # % # % i # i y y i i i y # % p % % y % y # . # . $ u @ a  .s. .s # # # y # . y t . y . . t y . # . . # . . . . . X W h   . @ + +   ",
"% # # # # # # i % i y i i i i y y y % @ # y y y # t t . . g ~   i F ..F i # # y # . # # # # # y # # . . # . . . # . . . . X         + + + + ",
"  @ . . # # # # # # y i i i y y y y y y y % # # y # . y . @ &   t N | G p # # y # # # # # # # # . t . . . # # # . # . #   .       . . + + # ",
". y . # # # # y y y y i i y y % y y i y # i # # y . . . . . $ . . a [ o.n . # # # # # # # # t . t u n $ . # . t . . . . .   .   . .     + % ",
". . . . # # # y a i i i i y i y y y i i i y y # # . t . . . y # p j B K u . . . . t t . . # . t X g 6.z # . . y y . . .   . . # t y # . + + ",
". . t # y # y y i i a i i i y i y i i y y y # y . t . y . . @ # u p s a t . . t y . # . # . t . @ = z = $ . t . t . . . . . . . a d # + # # ",
". + . . . # y y y a s a i i y i i y y y # y # # . t . . # t . X @ . t . # # . . . . t y t t . @ # u X X . d u . t . . . . . . + y a # . # @ ",
". . . # # i y y y i a i i y y % y y y y y # t . y t . y t . . t j $ # # + . t . t y Q d . t # + % @ . y . f t . . # t . . . . . . t . + + + ",
". . # y # y i i i i i y # y # i y y y # . y # . . . t . . u ~ 7.7.$ t t y . y . . u I d . y # # . # X . t y . . t . . t y . . . . t . . + # ",
". . y y y y i # i y y y y % % y y y y # . # t . . # . y . u W ~.~.W # y y t . . . t y y . # # # # # @ # . t . y # . # . y . . . . . +   # # ",
". y # # y i i i y y y y y # y i i y i y y . # . t . t . . . = 6.W = + #   # . t . . . t # . . t t y # . . y . # y t # y . # + . . . . . + # ",
". y i # i y i y i i i y y # i b b i i i y # . # # . . y . t u K $ # # # . . . t # . y . y # # # # # y y i y y y i i % # y # # # . . .   .   ",
". y # y # y y y y y y y y y y y # y % % # y # y . y . . # . y # # y # # y # # y y # # y # # y # y y y t $ @ @ y y # % i y # y # # .         ",
"+ % y y y y i i i y i i y y y y a % # % % % y y y y # y y # y # y y # y y # y y # y # y y y y y y y y y @ V.x u % % # i % i # y # +       + ",
"# # y # y y i y y y y y y y y y y % & & # # i i y y y y y y y y y y y y y y y y i i i y y y y y y % y % % m & # y y % i # # i # y # +       ",
"# % y y y y y y i # i i i y y i i % z c % y a y y y i y i y y i y y i y i y y i y y i y y i i y y i y i y y % % a a y % y % # y i # # + + + ",
"# % i y y y y a y y y % y i y i i y % i $ % y y i i y y y i y y y y y y y i i y y y y i i y y i i y y y i i i y i a y # p y y % # # % % % + ",
"% % i i i y y y y y # i i # % y y y # p p i y y y i y i i y i i y i i i y i y y y y y y i y y y y i i y y % # i i y y y d K u y # # # p p % ",
"I 6.p $ y y y % % # i i i $ ; - % u u i i y y y l i i y i y i # y # # % # i i # # y y y i y y y i i y i i i i y i y y y j I p y y i % y y A ",
"m.R.j # y a s # % % i y % = ; ; y a u j u y u a P p y i i y y y i # # # # i # i y # y y y y # y y # y y y y i y y y y y u p a y y i y # k { ",
"t.3.p i % i a y % % i i a $ $ $ p u < q 4 g y y i i i y y i # y # y # # # % y y y y t . # # # t y i y y y y y i i i y i y y # i i y i k H ..",
"} { S i # % $ v b i i y y y i # y - , w q g % # # p i i y y y y % # # # + + . t + # t t . . y . u u y u y y y y y i i # # y y i y i N  .q.q.",
"]  .#.N % % $ 6 z i y y i i i i y i - 4 2 i % % i a i i i y y y i y # # . . t y   @ t . $ # . . $ y . y y y y i i y i i i y y i y A { %.f. .",
"| { | { k % y f p y y i y y i % # a i $ p y % y i y y y i y y y # # # + .   t X * - u t + # . t . y . y y % y y y y i y y y i y A { q.f.f.q.",
"| H {  .{ ] C B a i i y i i # % % y % # % % y a y y i y i y y y i # # #   . y   8 G.t y y . y . . . . # # i # i y i y i i y i s { s.q.0.0. .",
"{ ] |  .#.#.V a i y y i % i # i y y y i # % a y i i y y y # # # t # + +     y . @ = t t t . t . t . . t # % % # p O $ u i y s { s.s.e.0. . .",
"] | |  .{  .H a # y y y y y i i y y i y i i y a i y # y # % y . . t u t ; X . y # t y y y # . . # t . y # % # y j H.; y # s { d.w.p.e.q.#.| ",
"] { | { |  .{ H i y y y i y y y y y y y i y y y y # y y # y . # # y # 0 r 6 # . # y y t . . . y . t # t # i % y % o @ i s H e.u.y.XXc.0.] ] ",
"] | |  .| | | | F i y y y y y y y y y y y i y $ % # # . t t t t . t @ 5 e 5 $ . y . # t y t . t # . . # # y % i % % # s H q.k.}.#X+XD.{ G H ",
"] | | |  .|  . .| F i y y y y y y y y y y y % n g @ # t t . # . t t t $ X   $ . . t . t . t . . . # y y y i y i y i s H s.q.w.r.@X+XXXj.J H ",
"] | |  .| | | { | | V i # # # y # . . y # # . @ u # . . y . # . . t $ t y . . . . . . y . . y . # t . y y y i i i a H s.s.q.e.u.|.D.j...J ] ",
"] | | | | | | |  .| | F y # y . # . # . # . . X f # # # # . t t + + . y . . . . . . . . . t . y . y y y i y y # s D f.s.s.s.s.h.d.w.d.{ H | ",
"] ] | |  .| |  . . . . .A i y # . y y t . y . # . @ + . . y t y # # t .   . @   . . . . . . . . y # . y i i y y A q.s.s.s.s.s.q.d.s.q.0.{ | ",
"] ] ] |  .|  . . .#.q. . .A y y y # # # y t # # . . . y . . y . . y t . . X L u .   . + . . . + # # # y i i i k H d.&.f.s.s.s.s.s.s.q.q. .| ",
"] ] { |  . . . . .q. .q. . .N y # y y y . . . t y t . . t . . # t . . . . . b u . . . . . . . # # # # # # i ] j.X.g.s.s.s.s.s.s.s.s.q.0.{ { ",
"] ] ]  . ... .#.#. . .q.#. . .F y # # @ # . # . . . . y . . . t . # . . . . . . . . . . . . + + + % % + % k u.Q.V.=.e.e.s.s.s.s.s.s.q.q.0.{ ",
"] ] ]  . . .#.#.q. .s. .q. . . .V % $ % # y y t . t . t . t # . . t . y . . . . . . . . + . . # # # # % k { r.U.8.&.0.0.s.s.e.e.q.q.e.w.0.{ ",
"] ] ..]  . .#. . .s.q.#. . .q. .{ B u $ # # y . # # . . . t . # y . t . t . # . . . . . .   . # # # % k H 0.$.t.R #.0.q.q.q.q.s.q.q.w.k.{ { ",
"] {  . ...#. .#. . . . .s.s. .#.$.0.L - % y y # . t y . y . . t . # t . . . . . . . . # . . . # # % k H q.q./.$.$.| s.q. .q.q.q.q. .e..Xa.{ ",
"F { {  .q. .#. .#. .q. .#. . . .s.$.} d % # y . # t y . . . . # . . . . . . . .     . + . . . + # s { 0.0.s.s.e.w.{ q. .0.q. .q.q.{ { k.w.{ ",
",.P { 0.0.q. . .q.q.).w.q...q. .h.d.w.{ a y # # # . . # y . y   u M z = $ $ $             . . . i H 0.{ 0.{ q.{ q.{ 0.{ 0.{ { 0.0.{ 0.0.{ { ",
"oXl.*.*. . .#.#.....].'.w.w. ...w. .q. .{ N # # . y t . . t t . @ $ @ . / N.g             . + i H  .0.q. .0.0.q.{ { q.q.0.{ 0.0.0.0.{ { { { ",
"y.J | @.{ { s. ... .h.).#. . .| #. . .s. .{ a y . . . y . . y # . .   $ Q / =             + i F { { { q.{ q. .0.q.0.0.{ { 0.{ { { { { { H { ",
"H :.{ H :.:.#.w. . .#. . . ... . . . . . . .] a t . y . . # t t . . . y @ u @     @ u   . y N ] ] { { { { q.0.q.0. .{ { { { { { { { { H ] F ",
"H q.{ :.H ..$.s. . ...#. . .|  .| | | | |  ...[ a # . t t # . t . . . . .         h n   # N F ] ] ] H { {  . .{  .{ { { { { { { { ] H F F G ",
"{ ..{ 0.} ~ <.S  .#. .| | #. .|  .{ | | |  ...x.[ y t # # . . . . .   +             . . N V F ] ] ] ] { { { { { { { { { { { H { ] H A F F F ",
"{ [ J { X.I.Y.1... .#.|  .|  .| | | | | ] | | | | V y . t . . . . . .               . N V ] ] H ] ] { ] ] ] { { ] { ] F ] { F F F H A F F N ",
"] F ] | O.W.!.M...| @.| | | | { | | { u.u.] | | ..| V t . . . .   + .   +         # N F F ] F { F ] ] H ] F ] H F F F F V ] A G Y S A F V F ",
"F H | | ] J +.| | | | | |  .{ { { ] ] u.i.[ ..| ] | ] N t . . . .     .         + a F H { F { F H F H H H F F F F F F F N F A ) T.( F F F F ",
"F ] ] ] ] H H | | | | { { { ] ] ] { | ] [ ] | | | | ] | N # .   . . .         + a F H ] F ] ] H H F F F H F F F F F H D S A D ) ;.! F V F F ",
"F V F F F F ] | | | | | ] ] | { ] | { ] F ] | | ] ] ] ] ] N + . +           + N ] F H H H F H ] F F F F F H F F F F F A C ] A l L S F H ] H ",
"F V V A A H ] ] ] | ] | ] ] { F {  .d.| ] ] | ] ] ] ] ] ] V a #   . +   + # a H H H H { H F F F F F V F F F H F H F V V _ _ C N F F ] F F F ",
"F V O.>.F F _ ] ] | ] ] [ [ ] [ { g.(.s.] ] ] ] ] ] ] ] ] ] H a # . .   # s H H H { H H H F F V F V F F F F H F F F F _ ] ] _ C B C _ ] ] H ",
"V U Y 5.A F V F F ] ] ] j.OXO.[ { #.g.#.] ] ] ] { { ] ] ] ] ] H a + + + N H H H H H H H H V F F V V V F F F F F F F F A V _ F D S F F F ] F ",
"S N ` S C _ F A H ] | [ [ Z.[ ] ] |  .| ] ] ] _ F ] ] H { H ] H H s + s F ] ] | { H F A ] V V F F F F V F F V F F F F H F V F A F F ] F F ] ",
"] S F V V _ F A F ] ] [ '.j.O.] ] ] ] ] ..{ ] F F ] H H H ] H H { A A H H D k ] ] [ F A V V F F V F V F V F V F F F F F [ F F F F H H F F F "
};
