/* XPM */
static char *result[] = {
/* columns rows colors chars-per-pixel */
"70 73 226 2 ",
"   c #040404",
".  c #050709",
"X  c #06090C",
"o  c #0B0B0B",
"O  c #0B0E11",
"+  c #060F17",
"@  c #0E1114",
"#  c #0C141A",
"$  c #131313",
"%  c #14171A",
"&  c #15181A",
"*  c #1B1B1B",
"=  c #0C1924",
"-  c #0C1D2B",
";  c #071929",
":  c #141C22",
">  c #161E25",
",  c #091F33",
"<  c #1D2225",
"1  c #14222C",
"2  c #1B252D",
"3  c #07253E",
"4  c #0D253B",
"5  c #0C2536",
"6  c #132536",
"7  c #132B3D",
"8  c #192B37",
"9  c #232323",
"0  c #2B2B2B",
"q  c #242829",
"w  c #292F36",
"e  c #2A353C",
"r  c #20303D",
"t  c #343434",
"y  c #35393B",
"u  c #3B3B3B",
"i  c #0A2D45",
"p  c #032D4D",
"a  c #072A48",
"s  c #132E46",
"d  c #04324D",
"f  c #0C314E",
"g  c #02384E",
"h  c #1C3343",
"j  c #163547",
"k  c #022E53",
"l  c #0A2E54",
"z  c #042E5A",
"x  c #0A2E59",
"c  c #033355",
"v  c #0A3353",
"b  c #033954",
"n  c #02345C",
"m  c #0A355B",
"M  c #02395D",
"N  c #0A3A5C",
"B  c #0C3956",
"V  c #143552",
"C  c #143C53",
"Z  c #133B5C",
"A  c #193C5D",
"S  c #173559",
"D  c #2F2D43",
"F  c #233745",
"G  c #353E45",
"H  c #202F56",
"J  c #293A58",
"K  c #323859",
"L  c #062E62",
"P  c #0B2D65",
"I  c #023563",
"U  c #0A3564",
"Y  c #023B64",
"T  c #0B3B64",
"R  c #03366A",
"E  c #023C6B",
"W  c #0A3C6A",
"Q  c #113D64",
"!  c #1B3D61",
"~  c #123D6A",
"^  c #183460",
"/  c #033D73",
"(  c #093A74",
")  c #063878",
"_  c #143F7C",
"`  c #6B3D58",
"'  c #593860",
"]  c #02415E",
"[  c #1C425E",
"{  c #16455B",
"}  c #25454D",
"|  c #3C444C",
" . c #384046",
".. c #20435C",
"X. c #29465E",
"o. c #284655",
"O. c #3C4952",
"+. c #364856",
"@. c #38535B",
"#. c #3B554F",
"$. c #014165",
"%. c #0D4166",
"&. c #02416C",
"*. c #0B426B",
"=. c #0A4A6D",
"-. c #144365",
";. c #14436B",
":. c #1A436C",
">. c #144A6E",
",. c #1B4B6C",
"<. c #1B4765",
"1. c #024371",
"2. c #0A4471",
"3. c #0D4974",
"4. c #01407B",
"5. c #09487C",
"6. c #144A73",
"7. c #1B4C74",
"8. c #154D78",
"9. c #1B4977",
"0. c #1D537A",
"q. c #155175",
"w. c #2E4A60",
"e. c #234968",
"r. c #324B66",
"t. c #2A556C",
"y. c #395467",
"u. c #29557B",
"i. c #2A597E",
"p. c #27557A",
"a. c #385A78",
"s. c #3F6462",
"d. c #38617A",
"f. c #434343",
"g. c #444649",
"h. c #4B4B4B",
"j. c #40425B",
"k. c #47585B",
"l. c #545454",
"z. c #5C5C5C",
"x. c #535D50",
"c. c #59445A",
"v. c #794A54",
"b. c #496253",
"n. c #637449",
"m. c #5F4068",
"M. c #475D6C",
"N. c #405F7E",
"B. c #486B69",
"V. c #5E666B",
"C. c #4B6977",
"Z. c #596E7F",
"A. c #526979",
"S. c #55776D",
"D. c #636363",
"F. c #6C6C6C",
"G. c #666769",
"H. c #686C70",
"J. c #737374",
"K. c #7C7C7C",
"L. c #777B7E",
"P. c #67747E",
"I. c #894350",
"U. c #748679",
"Y. c #094886",
"T. c #1C5583",
"R. c #2C5C82",
"E. c #2E6080",
"W. c #336284",
"Q. c #3A6688",
"!. c #376797",
"~. c #39719F",
"^. c #2E6599",
"/. c #205CA3",
"(. c #3976A5",
"). c #446D8B",
"_. c #416689",
"`. c #4C718C",
"'. c #5A7486",
"]. c #456D93",
"[. c #4C799A",
"{. c #597D95",
"}. c #7C7F81",
"|. c #6C7883",
" X c #427CA2",
".X c #5D809A",
"XX c #6E808C",
"oX c #7A8388",
"OX c #6B8699",
"+X c #798995",
"@X c #5483A7",
"#X c #6E9CBE",
"$X c #6898AD",
"%X c #838484",
"&X c #8B8B8C",
"*X c #878989",
"=X c #87939C",
"-X c #949494",
";X c #9C9C9C",
":X c #979898",
">X c #8B99A5",
",X c #9B9EA0",
"<X c #909AA0",
"1X c #9EA8B0",
"2X c #95B0BE",
"3X c #8AA6B7",
"4X c #A5A5A5",
"5X c #A7A8A8",
"6X c #ADADAD",
"7X c #A2A6A9",
"8X c #AAB1B8",
"9X c #B3B4B4",
"0X c #BCBCBC",
"qX c #B1B6B9",
"wX c #96B4C2",
"eX c #A0B3C2",
"rX c #BABEC1",
"tX c #B0C1CB",
"yX c #C3C3C3",
"uX c #CBCBCB",
"iX c #C7C9CA",
"pX c #DCDCDC",
"aX c #D3D4D5",
"sX c #DBE0E5",
"dX c #EBEBEB",
"fX c gray88",
/* pixels */
"c d c c n n k n e.r.^ l a p k z n n n n n n n N Z I Y I I R Y -.b.#.^ I ) / I I I M n n k k k k k k k k c k p p a a i p k k k k k k z z c k ",
"c t.C v z k z k z l v z z n L P n z z n n n b !.W.%.M Y Y Y W &.Y N Q Z m E E Y I M M n n k k k z k k c k k p p d a p k k p k a k k k z c z ",
"c t.C d l z z z x x n R P ^ U ) n n n n n n n R.7.$.$.Y U U T T ;.~ 0.<.M Y Y Y I M M M n k k z n k z k p p p k k k k k k a k k p k k l k k ",
"d d a p k z n n I n c n H ` c.<.U z n n n n n c N M Y M Y Y Y <.a.! ~ ~ ! T Y Y Y I I M n k n k k z k n c k k k k k k k k k k k k k k p k p ",
"c d k k k n n z I c k U K I.v.C p.U n n z n n n M Y Y $.M Y $.,._.Q R A j.! I Y Y I I M I n z z n n n n c n k z k z k b k z c n v M c c p p ",
"c c k z Q T n n I c c P ^ D K W 0.U z n I n n I M I Y $.N $.T :.u.-.%.Z A Q Y Y I Y Y M M n n n n n n n n n n n n k n n z c c c g c c d c k ",
"k z z m :.;.m n U n M Y Y T ~ E Y E I I I I I I M I Y Y $.Y N e.d.-.Y R Y I *.W I Y Y Y Y I I I I n n n n M n M M n n M b b n V B.o.z c c c ",
"n n n c N c c T I I Y Y $.Y $.Y E E E E R I I I I I Y Y Y $.T N N T Y Y W R =.W Y Y E E E E E R I n n n n I I I I I I I b b m [ B.X.x c c c ",
"n M M M N M N Y M Y Y Y $.$.$.$.$.*.E W E E Y Y R I Y Y E E W Y T Y Y Y Y Y Y T &.Y $.E &.&.1.E R Y I M I Y Y Y Y I M M b b I B j v c c n c ",
"U Y M Y $.Y $.$.$.$.Y %.&.Y $.E T j e.8.&.&.E E Y Y R E E &.&.&.&.W Y $.$.Y Y &.W E E 1.$.$.$.W E R Z T Y I M Y Y Y M M n n I b g M M n n b ",
"Y I Y $.Y $.*.t.A.Z.A.'.'.d.,.>.F 9 G M.C.R.3.E E I Y E E $.1./ 1.E $.Y Y Y Y E 1.E 1.&.&.E 1.T T Z k.e.$.Y I I M Y M n n z I b n I I n n n ",
"Y M $.Y &.%.@.V.}.oXK.&XL.V.e 8 $ 9 D.%XrXtX{.e.W E R E E &.1./ 1.&.E $.E $.E E E &.&./ / 4.) T *.t.U.B.-.-.*.Y Y I Y M n I I b M I n n M M ",
"E $.Y W =.k.V.U.-X4XqXI.y t * & $ * h.l.K.J.u e o.~ R E E E &.1.E / E / E W E 2.5.1.1./ $.=.-.V 7 1 q < & = = 1 j Z %.M M I n b U M n M M M ",
"Y $.$.6..X-X4X0XiXtXqXK.t t 9 * & * 9 * * * $ * 9 | r.T I W E &.&.&./ E / E 1.T.(.&./ Q 5 # O O o o o o o o o o O o # 6 V Y U c n M I M M M ",
"$.$.$.d.7XyXiXpXdXpX5Xh.0 u t 0 9 * * $ * t u 0 * t l.a.~ ;.R.&.1.1.1./ / E 2.2.2.*.j O . . . o o o o o o O O o o o o o @ 6 Z m n I M M M n ",
"&.M >.OXuXaXuXpXdXdX-Xf.0 0 9 0 9 * 9 9 9 h.l.f.9 9 l.F.Z.~ 3.*.$.&.&.1.1./ 1.2.Z # o o o . o o o o o o o $ o o o o o o * 9 < s m I I M n n ",
"W -.M.%X6XuXuXaXfXaXl.q 9 q * 9 * 0 u 0 t h.u t 9 0 l.f.G.M.N W 1.1.1.1.&.1.&.V $ o o o o   o o o o o o o $ o o o o o * 9 * o o 5 n M M M n ",
"2.F u z.J.&X4XrXuXU.q $ $ o $ $ $ * 0 u u 0 t u t t D.u u f.J Q W E / 2.$.E v % o o o o o o o   o o o . o o $ o o $ 9 9 * o o o @ 4 n I M M ",
"T F t h.f.D.%X&XI.#.$ o o o o o o * 0 u t t t u u 9 f.u t t y ..W E R E W n - o o o o o o o o o o o o o o o o o $ * 9 $ o o o $ o @ i M M M ",
"N C u u u l.F.J.f.9 $ o o o o o & 0 0 0 0 t 0 0 u u f.u u t q e ! R R 6.-.4 $ o o o o   o   o o o o o O $ o $ $ 9 9 * o $ $ o o o . # f M Y ",
"T Q g.f.u D.F.D.f.0 $ o   o o $ 9 9 * 9 9 0 0 t u t t t f.u 9 9 r S R R.X.# O o o o   . o o o $ o o $ & $ o $ * * o   o o o $ $ $ o o 5 N Y ",
"I U X.f.h.F.*X*XJ.h.t 9 o o 9 9 9 $ * 9 * 9 0 u t t t t u 0 9 $ * 6 U ! 2 o o $ o . o o o o o $ o $ o $ $ 9 0 * o o o   o o $ o o o o O c $.",
"I R e.h.F.:X9X6X&XJ.z.u $ $ 9 9 $ $ 9 9 9 9 0 t 0 0 0 t 9 * * $ $ % 6 - O o o o o o o o o o $ o o o $ o o 0 $ $ o o   o o $ o $ O o o o 5 Y ",
"I T @.D.-X9X0X0X;X-Xl.9 o $ * $ $ * * * 9 t u u 0 9 9 9 & * * $ & & $ $ o o o o $ $ $ * $ $ o $ $ o o . o $ o o   o o o o o o o $ o o o # N ",
"I A l.}.5X6X5X6X6X-Xt $ $ $ $ $ * * * * 9 u f.u t 0 * * $ $ $ $ $ * $ $ o o o o * $ * 9 * $ $ $ $ o o o o   o o o o o   o   o o o $ o o o s ",
"I A g.l.J.K.%X&X-XD.9 $ $ * 9 $ $ * * * 0 u u u 0 9 $ o o o $ $ $ O o o o   o $ $ * 9 * * $ * $ o $ o o o o o o   o o     o   o o $ $ o . - ",
"U R A  .P.+XXX+X&XF.9 o $ 9 9 9 9 9 0 9 0 t t t 0 0 9 * 9 o o o o o o o o o $ $ l.* $ 9 9 $ * * $ $ $ o o o o o o o o o * 0 o   o 9 $ $ o # ",
"R E E 2.7.0.q.R.OX-Xz.q $ 9 9 9 0 9 0 u u f.u u f.u t 0 * o o . o o o o o o o * f.$ $ * 9 $ $ $ * $ $ o $ $ $ o o o o o $ $   o o * $ o o & ",
"I / 1.&.1.1.2.1.Q.=X5XD.q $ 9 9 * 0 9 t f.f.f.l.D.z.g.0 9 $ o o o   o o $ $ $ * * * $ $ $ $ $ * * $ o o o o $ $ $ o o o o o   o o $ o o o # ",
"Y &.&.i.OX.X_.W.XX4X5X;Xf.* * 9 9 0 t u f.z.z.D.z.D.z.h.h.* o o o o   o $ $ * $ $ $ o $ o $ $ * * * * 9 * $ $ o o o       o o o $ $ o o . # ",
"Y $.2.Q.qXiX,XL.&X:X;X9X%X* $ 9 0 9 t h.l.z.D.F.F.U.P.F.z.9 * o o o o o o $ * 9 * o $ $ $ $ o $ * * * $ $ $ $ o o o   o o o o o $ o o . o * ",
"$.$.1.p.>X9XU.G.*XJ.*X6X;Xu & 9 u 9 t u u h.f.h.D.I.U.h.x.t $ o o o o o $ $ * * $ * 9 $ * $ $ * $ * * * $ o o o o o o o o o o o $ $ o o o ; ",
"$.=.&.3.`.,XF.l.*X:X%X:X<XP.9 9 9 9 0 9 0 0 9 0 h.F.G.D.J.h.* o o   o o $ o $ $ * 0 0 * $ * * * * * * $ o $ o o o o o o o   o o o $ o o $ 7 ",
"$.&.1.1.W.<X%XF.%X-X:X;X;XI.h.0 0 $ $ $ * 9 9 9 t f.t l.l.f.* $ o o o o * * * 9 0 0 * $ * $ 9 9 * 9 $ $ o $ o o o o o o   o   o o o o o * f ",
"Y 3.1.1.W.>X:XK.F.F.J.U.*X*XJ.l.h.9 $ * 9 0 0 9 9 t u h.f.0 $ $ o o o $ * 9 9 0 0 * * * * * 9 * o $ $ o o o o o o o o o o     o o . o O 1 b ",
"R.[.8.=.i.+X5X;XJ.F.l.x.z.J.G.z.l.0 9 * 9 0 t 0 0 t u f.0 * o o o o o o $ 0 0 9 * 9 * * * 9 * $ $ o o $ $ o o $ $ $ $ o   o   o . o o o i N ",
"_.#XT.E 8.OXyX9XJ.D.f.u t f.h.h.f.t * $ $ 9 t t t t t t * $ o o o o o * * 9 9 * $ 9 h.u 9 * $ $ o o o $ $ o o $ $ $ o   o o   o o o o # b Y ",
"<.W.6.2.q.OXaXuX&XD.h.0 0 0 t z.h.t * $ $ 9 9 0 t u t 0 9 * o o   o $ 9 9 * * * $ * h.u * $ o o o o $ $ $ $ $ $ $ $ $ o   o   o o O * 7 ] Y ",
"T &./ 1.>.OXfXpX4XD.l.u u 9 u h.l.u $ * * * * 9 0 t 0 9 o o o o o * 9 9 * o o * * * 0 9 $ o o o $ $ * * * $ * * * $ $ o o o o o o o > m &.E ",
"I / ) 1.*.`.8XiX0X%Xh.9 0 9 t f.f.0 o 9 9 9 0 t 0 0 0 $ o o   o   * * $ $ $ * o * * 9 * o o o $ $ o $ * * * 9 9 $ $ o   o o o o @ $ 4 / 4.&.",
"E I E 1.=.0.].>X9X6XL.q * o 0 f.0 9 * * $ $ 9 9 * 9 * o o o o     o o o o $ $ $ 9 * 0 * o o $ $ * * * * 0 t 9 * o o o   o $ o $ $ 1 M 1.4.E ",
"E M I E 1.Y./.^.OX8X9XK.* $ $ 0 * $ $ $ o o $ $ $ $ o o o o     o   o $ $ $ * * * * 9 * $ $ $ * * * * 9 9 9 * $ $ o o o o $ $ * $ i $.$.$.&.",
"I Y I E / ) Y.4.Q.7XrX4X0 o $ & * o $ o o o o o o o $ o o     o       o $ o $ $ $ $ $ $ $ o $ * * 9 t t 0 9 $ $ o o   o $ * 9 0 F N 1.$.E ) ",
"I R R E E E 2.8.).=X5X%Xf.$ * * * o o o o o o o o o o o $         o o o o o $ o $ o o o o o o * 0 u f.t * $ * o o o o o $ * * w -.3.=.$./ R ",
"I R E R E E >.u.W.eX,XJ.u o * 9 $ o o     o     o   o o o       o o o o o $ $ $ o o o o o $ $ 9 t F.D.t * $ * $ o $ $ $ 9 0 9 j <..X0.&.I I ",
"I R I R R E E E 9.3X,Xz.h.9 $ $ * o           o o o     .             o o o o o o o o o $ $ * 9 t 0 9 9 9 * $ o o $ $ & * 9 h `.wX2Xi.$.n n ",
"I R R E R E E W u.=X:XF.6X9 $ o o o o   o             . . .     o   o o o o o o o o o $ $ * 9 0 t 0 * 9 * $ o   o 9 * * 9 8 Q -.3X2X@X9.N n ",
"I R R R E I E E t.L.&XF.4X9 $ $ o   o       o                     o   o   o   o o o o * $ * 0 t t 9 * * * $ o o * 0 t t F V &.;.[.a.9.*.B I ",
"I R R R R R E E R a.H.f.% o & * o     . o o $ $ o                     o o o o o o $ o * 9 0 f.u 0 * 9 9 $ O o $ 9 0 g.O.{ &.1.5.3.*.5.Y N R ",
"I I R R E R R E E *.o.k.e o o o o . . . $ * * .                 o o o o o o o o o o o $ 9 f.D.t 9 0 0 * O $ * 9 0 t j.<.*.1.1.1.1.1.&.$.I R ",
"I I I E E R E E E 1.*.w.<.& . . o     $ * * o                     o   o o o o     o $ * 9 u z.f.0 0 * $ $ * q 0 u G ^ 1.5.1.1.1.1.1.1.$.E E ",
"I R I I E E E E E E E 7.*.s o o o o $ 9 $ o                       o o o   o o   o o $ * * 9 0 0 0 9 $ $ * 0 t u G r.2.1.1.1.1.1.1.1.&.&.Y Y ",
"U I I E R E E / &.E E *.*.%.- . $ $ * $                         o o o     o o o   o o 9 * * $ 9 9 * $ $ 9 u f.x.k._ $.1.1.1.1.1.1.1.&.$.$.Y ",
"I I Y Y E E / E / / &.2.2.( V o $ 9 $ o                         o   o     o o   o o o * * * * 9 * $ $ 9 t f.O.b.@.5.$.$.&.1.1.1.&.1.&.=.Y $.",
"I Y R E E E / / E &.E 1.&.E -.< * $                               o   o o     o o o * $ $ $ 9 9 $ o * t h.O.~ ..{ ) $.$.&.1.$.1.&.&.$.6.$.Y ",
"I I R W E / E / / E E 1.E E T 2 $                                               o $ $ $ * $ 9 $ o $ 9 f.@.,.Y.) W E 1.&.&.$.&.$.&.$.*. X>.Y ",
"M M I Y $.E / E E &.E / E E W v =                                           o o o   * $ * 9 * o $ 9 f.@.%.1.1.&.E E $.$.E $.&.E E $.Y 6.*.Y ",
"{ B Y I $.E E &.&.E T.*.E E E &.*.5 X                                             o * o * 9 o o * g.@.-.$.&.$.$.$.E E $.$.E Y $.$.$.E $.Y Y ",
"$X0.) ) / E / / E *.~.^.2.E E E E W 3 X                                       o o * $ $ * * o $ 0 +.;.&.$.$.$.E E $.$.$.$.Y $.$.$.$.$.Y Y Y ",
"<.N ( ( M $.1.E W E 8.T.W E E W E E E a +                           o     o   o $ * * * $ o $ 9  .Z $.E $.E $.E $.E E Y Y $.Y Y Y Y Y I M I ",
"M ] Y N ] ] / E T E E / E E E W E E E E p ; .             o       o   o o $ $ * * $ $ * o o * F -.Y Y Y E $.$.$.$.Y Y Y Y Y Y Y Y Y I M M I ",
"Y Y $.M M T ( 2./ / E E E E R / R R R R R I ; X                         o $ 9 9 $ o o O o o > s n I I Y Y Y E E E E Y Y Y Y Y Y Y I M M n c ",
"Y R Y $.T ..} m E E / R R / E R I E R E R R n - X             o       o o o * * O o   o O $ 5 k I I I Y Y E Y Y Y Y Y Y Y R R M I n c n n n ",
"Y U Y Y Q x.n.} W R E E R R E R E R R I I R R n ; .               o   o o * $ o o   o o O - c I I I I Y I I Y Y Y I M U n I M M n M c n c z ",
"I N I R ~ B.S.e.W R / R R R E I I E I ;.;.R E W n , + .         o o $ $ $ * $ o   o O O ; c M I n I I I I M I n n n n n z I c l S B c n n z ",
"M n R R I N T R R R R R R E E Y Y R I ;.:.U R R R I , + . o .   . $ * * 9 * o o o * q > p U M M M M M n M n n n n n n n z n b K m.J n z z M ",
"n I I I I n n R R R R R I E I I Y I R n m I R R I I L a = o   . . o 0 t 0 $ o $ & 2 7 v n M M I n n n n M n M n n n n b v n c K ' J z z I n ",
"n z z n n n I R R R R I I I Y I I R E I I I R I I R I I l = o . o & 0 q * o $ * 8 f n M I n M n n n n n n n n n n n n c z z d C S l n n n M ",
"z n n b c M R I I R R R I U U n I E 5.R n I I R I Y I I I k ; X o * * o O $ > h B U M M I M I n n n n n n M n n n n n z L L z z n n n I I M ",
"n x Q { m n z I I I I I I U I n W 5.Y./ I I R I I Y I I I I k 3 : 9 $ o $ q 7 c M M I M M n n z n z z n n n I n n n n L L I L x l L L n I n ",
"z S S o.l n L n I I I I 9.#X;.U I / 5.E I I I I I Y I I I I I M d > O $ 9 h b M I M M M n z n n z n n z n n M n M n n b n L z b c x z I I M ",
"l z P m z z n c M I I U U p.U I Y E R R E I I z M I I M I I M I M f 2 < 7 m U I Y M M b I z n z n z z n z n n z z n n n n z n b n n n I n n ",
"n n k n L z n n n I I U !.9.~ L I I I I W I I n n M I M M I M M M M c B c b c I U U I c z n n n z n z n z n z n n n n n U c n n n n M n m I "
};
