/* XPM */
static char *_037_fdb607c49c770f994f7c63662e21a62870d9ba69b651051e0b33c8ec6e0f698e_0[] = {
/* columns rows colors chars-per-pixel */
"70 73 256 2 ",
"   c #04335D",
".  c #043663",
"X  c #043B69",
"o  c #05365F",
"O  c #033560",
"+  c #033867",
"@  c #053F6C",
"#  c #04355B",
"$  c #05416F",
"%  c #043259",
"&  c #043C6E",
"*  c #083B65",
"=  c #054273",
"-  c #0D3C63",
";  c #083559",
":  c #042D52",
">  c #0F3759",
",  c #103F66",
"<  c #032F55",
"1  c #043965",
"2  c #043D66",
"3  c #073861",
"4  c #0B3354",
"5  c #11426B",
"6  c #083052",
"7  c #0C304D",
"8  c None",
"9  c #10395E",
"0  c #0B395E",
"q  c #053A5E",
"w  c #183045",
"e  c #0B1E32",
"r  c #123049",
"t  c #181D25",
"y  c #164166",
"u  c #3A2D2D",
"i  c #251917",
"p  c #152230",
"a  c #163D61",
"s  c #21232A",
"d  c #0B141C",
"f  c #143552",
"g  c #1E2532",
"h  c #143958",
"j  c #292222",
"k  c #232C39",
"l  c #13283C",
"z  c #383233",
"x  c #0D1114",
"c  c #0C4573",
"v  c #403636",
"b  c #17344E",
"n  c #1D2937",
"m  c #193B57",
"M  c #2A292D",
"N  c #2C303C",
"B  c #292D38",
"V  c #1D4060",
"C  c #433430",
"Z  c #09172A",
"A  c #645756",
"S  c #16466D",
"D  c #69544E",
"F  c #2E1614",
"G  c #1E374E",
"H  c #212E3E",
"J  c #D8292A",
"K  c #302E33",
"L  c #45393A",
"P  c #0F1C2A",
"I  c #0D1824",
"U  c #0A416E",
"Y  c #5F4C49",
"T  c #0C2A44",
"R  c #482F2A",
"E  c #0E2940",
"W  c #43120F",
"Q  c #4D1311",
"!  c #5B1311",
"~  c #3A1915",
"^  c #253243",
"/  c #1C191B",
"(  c #D22E30",
")  c #611917",
"_  c #82201F",
"`  c #8F1A19",
"'  c #481D1B",
"]  c #124A77",
"[  c #313741",
"{  c #191314",
"}  c #411A16",
"|  c #1C4F79",
" . c #1F1E20",
".. c #12181F",
"X. c #672421",
"o. c #544948",
"O. c #DD272F",
"+. c #6B1311",
"@. c #8E2324",
"#. c #2C3C4D",
"$. c #36120F",
"%. c #531B18",
"&. c #D02C2A",
"*. c #0A243C",
"=. c #223D55",
"-. c #20486B",
";. c #332925",
":. c #082A49",
">. c #32211F",
",. c #A73435",
"<. c #841515",
"1. c #C92F2E",
"2. c #331D19",
"3. c #304F69",
"4. c #C02D2D",
"5. c #25374A",
"6. c #AC2A29",
"7. c #56342E",
"8. c #B53334",
"9. c #781312",
"0. c #731C1B",
"q. c #B82D2D",
"w. c #AAAAAD",
"e. c #503D3C",
"r. c #25445D",
"t. c #C6C5C8",
"y. c #3B4E61",
"u. c #4D211F",
"i. c #9A2828",
"p. c #235680",
"a. c #3B2A26",
"s. c #B41F20",
"d. c #295274",
"f. c #5B2422",
"g. c #4A6379",
"h. c #C03738",
"j. c #4F2824",
"k. c #494344",
"l. c #736D6A",
"z. c #A12322",
"x. c #5B5250",
"c. c #69727A",
"v. c #7A2825",
"b. c #8A9199",
"n. c #722523",
"m. c #412322",
"M. c #A79E99",
"N. c #A28A74",
"B. c #977F6C",
"V. c #CE2726",
"C. c #645B5E",
"Z. c #B6ADAA",
"A. c #BCB7B8",
"S. c #D1393A",
"D. c #5B595E",
"F. c #BFC9D1",
"G. c #AAA4A3",
"H. c #958A82",
"J. c #603D36",
"K. c #3C6B90",
"L. c #8896A3",
"P. c #9D9A9A",
"I. c #812C2C",
"U. c #E7CB9A",
"Y. c #8C7F77",
"T. c #C3D0DA",
"R. c #385873",
"E. c #A0755F",
"W. c #B08F76",
"Q. c #D0D6DB",
"!. c #415A6F",
"~. c #BCBEC4",
"^. c #758DA0",
"/. c #99A8B5",
"(. c #E8D0AC",
"). c #704538",
"_. c #969292",
"`. c #9A9EA5",
"'. c #393F46",
"]. c #48525D",
"[. c #C3AF9A",
"{. c #887667",
"}. c #CFC5C0",
"|. c #96383C",
" X c #5D6772",
".X c #9B1B1B",
"XX c #6E7F8E",
"oX c #642B2A",
"OX c #7A95AB",
"+X c #A61B1A",
"@X c #8F302F",
"#X c #ABB2BA",
"$X c #261110",
"%X c #7D868E",
"&X c #3B4752",
"*X c #833531",
"=X c #777678",
"-X c #92684F",
";X c #705A55",
":X c #320E0B",
">X c #DBC5A8",
",X c #C19E83",
"<X c #2E5F88",
"1X c #7E6C60",
"2X c #846756",
"3X c #6F2F2B",
"4X c #9D3333",
"5X c #535358",
"6X c #C52827",
"7X c #B89A7F",
"8X c #9B2F30",
"9X c #CABAAD",
"0X c #42464C",
"qX c #B67F42",
"wX c #C19877",
"eX c #DCCDBD",
"rX c #D6AF81",
"tX c #849FB5",
"yX c #CC9E7B",
"uX c #D84C4B",
"iX c #705549",
"pX c #31465B",
"aX c #B29E8C",
"sX c #4F5C67",
"dX c #807E7F",
"fX c #73645E",
"gX c #9EB1BF",
"hX c #D1A35E",
"jX c #C29446",
"kX c #805C49",
"lX c #CAA78A",
"zX c #8D9DAB",
"xX c #DDDEE0",
"cX c #D2AE93",
"vX c #375F80",
"bX c #D8D2CF",
"nX c #B58062",
"mX c #BDA68F",
"MX c #C01D1E",
"NX c #666567",
"BX c #A17B4A",
"VX c #E5C685",
"CX c #905645",
"ZX c #BA645A",
"AX c #A8B9C8",
"SX c #A3694F",
"DX c #9F4B47",
"FX c #DCBC8D",
"GX c #AF4344",
"HX c #844337",
"JX c #4F6F8A",
"KX c #4B789B",
"LX c #934144",
"PX c #B66740",
"IX c #BF905D",
"UX c #DBB06A",
/* pixels */
"9 y , 9 - , 9 9 d.d.> - 9 - - , - > 9 y y h a S S y y y S S S -.R.y.pX-.a f r G G G m 9 - - 9 9 9 9 9 9 9 > > > > > > > > > > > > > > > > 9 ",
"- S a ; < < : : %   % % o ; ; 4 % 6 < % : : y p.p.- # o 0 o 3 a b l E > h 7 E E E w f >   % : : < % < < : : : : : : : : : : : : : : : : : : ",
"9 y 9 6 :.: :   O . + 3 6 m G G 6 6 % ; % < , | S 3 # 3 - o # 4 w g *.:.f b E l n H G f 4 : : : < % < < < < : : : : : : : : : : : : : : : : ",
": 4 6 :.:.: : o o   % ; f y.&X5.h % % # 3     # 3 3 3 3 0 3 % :.w n n E r b w n g n ^ G b 7 7 7 6 % % % % < < : : : : : : : : : : : : : : : ",
":.: : : 6 6 < < 6 :.:.b pXsX].#.-.- % % o O O   . * 3   % q 9 b p g k H w 5.H k k n H ^ G w w r 6 % % % % < < < < < < : : : < % < : : : < < ",
": 6 : % 3 0 4 7 w #.'.'.k ^ #.G y - o   O O . 1 1 . O 3 q ; > m n M B H H H H H B N N N ^ ^ H w 7 4 %   % % % % % % % < < < < ; - ; < < < % ",
": < % . @ * 4 w L B.B.Y.5X5.h , - o O . + . . + . O . - 9 4 6 E H K N N H n k B N N N K N N k w 7 6 %         #     # # % < % 0 | S ; < < % ",
"6 % o X & 1 7 k L N.lX[._.!.y * * 3 o . + X + + + 1 * * ; ; :.*.k M B N N k k k B K K K K M g H 7 6 % #     o O O O o o % % # - d.-.0 < < % ",
"; o 1 $ $ 2 4 k C N.(.(.}.tXd.@ * 5 * . X $ + + + + 1 - 0 4 r w g g B N H t H N B K K z v  .x p r 6 # ; #   . 3 3 . O O O   o # 0 0 ; < % % ",
"; q 1 & & 2 > w M e.mX}.Q.T.OXd.9 ; 3 5 @ & & X + + O # > m G w H N k g t p H H B K z o.x.v / d r 9 , - q O . O . . O O   # # # % % % % % % ",
"; o 3 1 1 3 0 > =.l &Xb.F.Q.T.zXR.-.> S , 1 c & + X * # ; f w l g s t d d k H H B K L fXH.C.M I w -.d.| , * 2 . . 1 O O O # # # # % % % % % ",
"o o . 3 3 q 0 o 4 4 f !.zXF.Q.F.^.V V 0 5 $ = & X + 1 0 6 *.e p I x x ..t B ^ H [ K Y aXeXaXY t w d.K.vXS 3 . O . 1 . O O # # % # # % # # # ",
"1 . 3 3 3 3 3 1 1 c 5 d.3.L.F.Q.AXR.m - - c = & X . O ; 6 *.Z I d x x o.0XN k B K z D 7X>XN.R { Z m d.d.- o o O 1 1 1 . O o # % # #   # # o ",
"X X X 1 3 3 * 1 1 2 ] KXR.!.zXF.T.AXR.> 3 2 = & & & +   > f *.I x { / l.D.N g N z u iX7XlX{.7.i I *.6 4 <   3 . . 1 . . O O % # % # # # o o ",
"& & & & X 2 * * * 3 - | 9 V R.OXT.Q.gX3.y * @ $ & X . # > b e d x i i l.x.j s K u C kXlX(.lXiXi g r > 0 o O . . . . . . O     % # # # O O O ",
"& & & & & X * 3 3 - ; 9 9 9 a R.tXF.T.gXvXV a - o : 6 r *.Z d x i F 2.Y Y 2.j u z D W.(.(.lXiXi I T ; * .   . . . . + . . o # # % # #   O O ",
"& & & X X X X X * * * * - 9 a V R.tXF.T.AXg.pX=.G P P I ..d x { $X~ Q %.oXu.>.j z D 7X>XcXW.Y / ..T O = & + , o O X & X O o - , 3 #   O O O ",
"& & & X X X X X 2 * * * * - a a V R.tXT.T.AXL.[ [ k.L u a.i $X~ Q ! +.0.*XoXF  .M x.mXcXW.HXj.2.M r 1 & & & o 0 3 & & & * , S S 3 O O O O O ",
"X X X X & X X X & @ @ - - - , , 0 a vXtXF.T./.l.fXN.B.E.HXX.! +._ z.z.8.DXoX$XM K o.W.wXDX_ 0.3Xa.5., + + X > 4 ; + + +   0 - - o O O O O O ",
"X + X X X X X X $ $ @ * * * - - 2 2 - d.OXAXA.aX[.>X,XZX@X8Xh.q.1.6X4.8.GX*Xm.;.M z 2XSX0.i.8.DXJ.g f U 3 % 7 r f 3 X + O o o       O O O O ",
"+ . + + + + + X @ $ @ - * - - - @ @ 2 - 3. XH.mXU.FXIXGX8.h.uX( J O.1.z.8X*X2XC j C E.E.0.6.h.GXSXL y.d.4 b H H r ; X @ . O O   O . . . . 3 ",
"+ . + + + + + X @ $ U U - * - - 2 @ ] 0 m [ B.rXVXhXPX6.h.1.( ( &.6Xq.` 0.oXB.J.m.R -XSX0.@.,.,.LXe.0Xy.5.sX%XdXw :.  1 O O . . + + + + 1 1 ",
"+ + + + + X X & $ $ = $ U * * * 2 - , 9 w fXU.VXUXjX8X8X8.8.q.4.8.` +.) ) ' 2XJ.%.%.n.0.+.! v.I.oXj.;.'.5X=XZ.P.5.:.# . . . & & & @ X X + 1 ",
"+ + + + X & $ $ = = = = $ @ * * * - , V H fXU.VXUXqX_ <.9.9.4X@X*XX.u.j.j.' iXHXv.@X4X@XI.) W W W } F >.A H.H.C.w 7 # O   . + & & $ X X + + ",
"+ + + X @ $ $ = $ $ = $ $ @ 2 * * - , V ^ 1XU.VXhXPX0.|.I.! ) Q ' m.a.u a.2.J.|.4Xq.8.,.I.X.m.a.~ j.7.B.N.1XfXM E 4 #   ; o + & & + + + + + ",
"+ + + X @ $ $ $ $ $ $ $ @ 2 2 2 2 1 * h N 1XFXUXqX*X) X.f.u.u.R C i j z i $.) 9..X+Xs.+X_ X.R e.C ~ 7.B.lX,X{.M T # o o 0 0 X & X + . . + + ",
"+ + + X & $ $ $ $ $ $ $ X @ @ @ @ @ . f H fX,XIXI.) X.3Xu.7.e.e.j / { u 2.' v.<.6XV.J MXz.n.7.e.e.2.j.E.cXcXY.k 7 O . o > > + & X + . . . 1 ",
"+ 1 X X @ $ = = = = $ $ $ $ $ = $ $ 2 4 p o.B.-X%.W W u.m.L Y v i >.2.m.u.n.@.6.( O.O.J 6._ f.R C a.j.W.lX7XY.H % @ X 3 > > + & X . . O O O ",
". + X X @ $ = = = = = = = $ = = $ @ * > *.N A ;Xm.j.j.Y Y x.o.i F $.W ) _ @.8.uX( J O.O.4.i.! W >.C R J.2XiXu l * $ = X 9 9 2 @ X . O O O O ",
"+ + X X $ = = = = = = = $ $ $ $ $ 1 - 4 b n '.k.u R R e.o.A L i ~ Q ! @.z.+X1.S.( J O.O.( 6.0.} R e.o.7.7.m.{ b U = = $ - 0 2 @ 2 O O O O O ",
"+ + X @ $ $ = = = = = = = @ @ @ $ - a h b P P s K K j j L x.;.$X$.Q _ 6.4.( ( V.&.V.J J ( 8._ f.C o.C.A o.a...m c = = $ * 0 2 & 1 O O O O O ",
"+ X X $ $ = = = = = = = $ @ $ @ & 5 y r.w n p K z v / { j z 2.~ Q v..X4.( J V.&.&.V.J J ( 8.@.oXY A C.A x.v P b U = = $ 2 0 2 & X . O O O O ",
"$ & X = $ & = = = = = = @ $ = $ = = | 3.^ ..M C o.Y u j / / ~ ! 0.i.4.J &.&.&.&.&.V.O.O.J 1.@.f.).x.C.sX'.[ e b 5 & = c * 2 $ = & X X 2 2 1 ",
"$ $ @ @ $ @ $ & = = = $ @ @ U 2 $ X -.#.M ;.C m.7.Y z  .x { %.0..Xq.( O.&.1.&.&.&.V.J J J 4.i.%.u.e.5X#.w E f a S = & 2 * , = = & & X & X X ",
"c ] @ * , , 5 , U @ U 2 , , , - U - =.5XP.H.B.iX7.e.M t x $X%._ z.q.&.J &.&.&.J J O.J &.1.z.PXHXj.>.t e r h 5 @ $ = = c S | c & & & $ $ @ @ ",
"<XK.| - - 4 4 > 4 > a 9 a a V V 9 m #.M.H.{.B.B.B.fXk.[ / $XQ <.z.6X&.&.&.&.J O.O.J J 1.q.z.PXnX2Xe.K H m 9 2 @ = = = @ | p.] $ $ = $ $ @ @ ",
"<XK.| S h *.E G =.G =.=.m h m m =.^ M H.iX7XaXG.G.M.`.b.x.m.! <.+XMXV.&.&.( O.O.O.O.V.4.z.@XnX,X>XW.l.H r 4 - U = = = @ U 5 U $ = = $ @ @ 2 ",
"] p., a b *.#.y.].&X&X&X=.r.3.r.#.0XK Y.1X[.9X}.~.~.F.w.x.f._ 6.+Xs.MX6X6X6XV.J J J 6X6.` PXIXFX(.eXA.sXw =.r.V | ] U * 2 q 2 $ = $ @ X X X ",
"@ S 0 > f 5.sX=Xb.dXc.sXw *.T E E P s NXx.Y Y.`./.zX/.%Xe.f._ 6.6.q.6XMXMXMXMXMXMX6Xs.z.i.PXyXcX(.eXA.dXNXb.zXzXL.g.w *.6 - = = = = $ @ @ X ",
"3 5 # > V !.L.w.T.~.#Xb.#.T > > > G 5.k s s [ sXg.r.pX'.2.! 9..X6.8.q.4.6Xq.4.q.6.q.q.,.@.DXwXFX>X(.>X>X9XA.t.t.w.c.#.l :.; & = = = $ $ $ @ ",
". 5 3 > V !.zX#Xt.xXt.L.r.h - * q - a m =.5.w 7 9 4 G [ $.n.@.` <.` @.z..X.Xi.@.@.@.@.i.0.X.W.FX>X>X>X>X(.9XA.t.w.NX[ H T 9 1 U $ @ @ $ $ $ ",
". . 3 9 a g./.w.A.xX~.L.r.9 @ $ @ $ $ - y V a 3 , , G t ' @X,.6.@._ +.+.+.+.9.9.9.+.+.+.) X.CXnXwXFX(.(.mX{.l.H.b.sXn e 7 a - 5 5 U @ X X + ",
". . . , , JX/./.#XxXF./.3.f @ $ = = = = = U c $ @ , G / f._ i.,.4Xn.Q ! +.0._ ` ` @XLXDX) W oXSXnXVXU.U.mXo.s #.pXy.r.m 7 h h ; 0 S U 2 @ + ",
"* . + U , vXOXgX#XxXQ.AXXX-.@ @ = = = = = = = $ @ 0 H >.n.9.<.@.v.Q $.Q X.I.4X,.8.ZXLX3XW } f.*XPXhXVXyXmXk.I r V JXd.9 ; 9 > h 0 S 5 * - * ",
". + . & + -.JX/./.~.xXF.tXR.5 = = = = = = = & @ @ 7 g 7.|.` 8X4XX.W $.' X.@.i.q.8.8XI.oX} F ' n.v.PXhXFXaX'.e > , -.- - * q 0 a | K.p., 3 3 ",
"O 1 . + + 9 R.^.w.w.A.F.F.^., X = = = = = $ $ c 2 T j oX@X` ,.@X%.$.F W ! 9.` +Xs.z.9.) F $X$.f.HXv.qXwX{.'.e 6 0 S 0 3 X X 5 K.OXtXKXS     ",
"O 1 . X + 3 V g.L.w.A.xXF.tX-.- - * 2 @ @ X - S 9 l m.) <.<.9.! W $XF Q 9.z.s.1.6X4.6.DX} F $X} n.0.PXnXiX .e f h 4 0 U & = $ ] OXtXKX| 3   ",
"O O . X . * > m g.L.#XQ.F.zXy.f 9 o 3 2 2 3 0 m w  .' 0.,.i.0.Q ~ F 2.Q 0.6.q.1.1.h.uXI.$.F i F Q n.*XkXe.s ^ =.V 4 ; @ & = & ] K.K.| S *   ",
"O O . 1 . 1 3 > r.g./.AX~.~.%X#.> o @ 1 O . > ^ z W ! _ i.0.Q } a.a.2.} n.@..Xs.4.8.8X! $.F i F ~ } J.R  .k 5.f > 0 @ $ = $ $ c | 5 , U * o ",
"O O O + + 1 3 0 a g.tX/.#Xt.P.&X4 - @ $ @ 3 m B ' ! _ @.0.! ~ a.C C 2.W ! 9.<.+X+X+X9.3X$.$Xa.a.R 7.R u t n G m 0 0 @ = = $ = = c @ @ $ X 1 ",
"O O O . + + 1 3 o V g.tXgXF.~.b.3.,   2   > ^ i Q v.|.@XX.u.a.L Y o.m.%.0.<.+Xq.4.q.@.LX~ F u L Y iXe.u [ g w f 0 * @ $ $ $ = = = & $ $ X X ",
"O O O . + X + 1 - ; V JXtX/.F.F.^.h - 2 0 > 5.R ).LXDX3Xu.R v o.C.A m.u.n.` 6.6X4.4.8XI.W m.C Y ;X;XD u N t l r.y , @ @ $ $ $ $ $ $ $ @ X X ",
"O O . 1 + X X X * 0 > V g.JX/.AX/.3.4 0 4 7 n e.LXLX*Xf.} a.k.D.C.x.a.W ! +.` +X+X.X_ %.:Xj v x.;XiXD v ..P G JXd.S @ @ @ $ $ $ @ @ @ @ 1 . ",
". . . + X X X X . 3 o > V r.JX/.AXOX3.4 6 m n K R f.f.' m.7.o.C.A x.C $.Q 9..Xq.q.z.9.X.F { z L Y Y e.z d I 5.vXd.S @ 2 @ @ @ @ @ 2 @ @ 2 1 ",
". + + + X & & & @ X * 9 > 4 V JXtXtXOX-.V m w I { F ' u.7.Y D C.A A Y ' ) 8Xq.S.S.h.8XI.~ $Xz v e.Y C u t d w m a - 2 2 2 2 @ @ @ 2 @ ] c @ ",
"+ + + X X & & & & X U o , , 0 V R.g.tX^.3.r e e k u j.j.7.iX;XA A A Y ' f.LX4X,.,.GXLXf.F $Xu z v Y L z ..d e b > 0 q 2 2 2 2 @ @ @ U | | @ ",
"+ + X @ X & @ X X X & X 1 * * * y V JXOXXX=.e I I  .R Y iXiXD ;X;XA L { s s j >.j ;.s t x { ;.z L o.L K P Z e r 0 q 2 2 2 @ 2 @ 2 2 @ U $ @ ",
"| 2 . @ X + + + X $ | ] @ X X X 5 9 a d.3.r e e t  .C Y D ;X;XA A x.B P w b f 7 T T E E P ..u L e.L z t I I *.7 0 q 2 2 2 2 2 2 2 2 2 2 X 2 ",
"K.] 1 . 1 1 * U X ] p.p.c X & & & @ 2 o > m n B K u j j v o.x.A A 0Xp b vXK.| 0 % 6 6 7 *.P z k.k.[ n P P e e *.; q q 2 2 2 2 2 2 2 2 2 2 2 ",
"p.5 O O . * * O O U p.p.= & & & & & 2 0 h 5.g L L z K t ..g &XD.D.&Xp b d.K.| - 0 ; 4 7 e t z v K k l E T 7 *.*.; * * 2 1 2 2 1 2 2 1 1 . . ",
"3 O O 3 . * * O 3 3 , U & & & & & & . ; b p z o.L K g e E E w #.[ ^ e 7 9 , , y a V V r Z s u z g l E T h f 4 ; 3 * 2 2 1 2 1 1 1 1 O O O O ",
", 3 3 * 1 3 * , , 3 o 3 1 X & + & & 1 4 w n o.x.v t P E f > 4 *.e *.:.h 0 %     ; V 3.r Z g K K p E 7 7 > 0 3 * 2 X X 2 1 1 1 1 . O O O O O ",
"3 . 3 * - 5 , 0 - 3 3 3 . + & + X + > E p [ ].&Xg H b f >   o 9 7 7 : ; # % o % < ; m T e N z M l r 7 > 0 3   . X X 2 1 1 O o o o o         ",
"o * 3 o S <X<XS 3 o 3 1 1 . X X + % f w s 0X5X[ e E f 4 % * X o ; ; o o o # 3 % 4 :.T e H '.z  .l 7 7 6 ; # 3 X + 1 1 O o   ; ; o o         ",
"o 3 o o 5 <X<X| 3 o # o 3   & * 9 :.w B '.o.v g l r ; o . 1 + o o o   o O O # < 6 r l t v R >.i n E :.4 ; % # * . O   % 6 7 7 f a 9 > % %   ",
"o 3 o # 3 S S - 3 3   o - o X   7 w [ _.~.P.v s w 7   O . . o # #     O O O % % f *.k D.fXR J.Y M p l T 7 4 ; ; # # # % 6 7 f m V V 9 % %   ",
"o # # o % o o % % o o   o   1 > w ^ l.A.bXZ.o.t w f o . . . O # #   #     O   # f r sX#X_.R 2XW.fXNX X&X5.E 4 % # O O O     0 a y y 9 % %   ",
"% % # o     o o o o o O o 3 3 7 H D.l.1X{.1Xz t w 4 . + . . O # #     #   O O o ; 7 3.L.dXL 1XY.;X1X_.l.].l T :.< # O . . . . * y 9 ; % % # ",
"% % o 3 % % # o % o o     o < r NXM.9XN.9XM.M p b ; . + + + O   % #   # O O O o ; 6 T 5.N  .z u >.a.C j s P r h ;   O . . . . .   % % % % # ",
"  % * - o %   % %     o - S % E l.Y.Y.B.H.=Xs p 7 o . + + + O O   # o O O . O O % > 7 e Z d d x { { { x I P T 7 % O O O O . O O         o o ",
"  # * - o o     , o % 0 | K.5 *.s ;.;.;.j B P r ; o + + + . O   #   # # O O . .   # ; 7 r b l n p p n l r 7 6 6 %     % % 4 6 % % o       O ",
"  % o   %     %     3 3 5 p.* T Z x x ..d I E 4 # + + + + O O # # # o   O O . O + O % 6 :.6 7 T T 7 7 6 6 %       % % % 4 f 7 6 4           ",
"y y y , a y y y y y 5 -.<Xp.-.a G 5.5.#.=.=.V y 5 5 S S 5 5 y y y y y y 5 5 5 S S 5 5 y a a a a a y y y y 5 5 5 5 y y a V V V V a y y 5 5 y "
};
