/* XPM */
static char *_037_fdb607c49c770f994f7c63662e21a62870d9ba69b651051e0b33c8ec6e0f698e_1[] = {
/* columns rows colors chars-per-pixel */
"70 73 256 2 ",
"   c #04335D",
".  c #043663",
"X  c #043B69",
"o  c #05365F",
"O  c #033560",
"+  c #033867",
"@  c #053F6C",
"#  c #04355B",
"$  c #05416F",
"%  c #043259",
"&  c #043C6E",
"*  c #083B65",
"=  c #054273",
"-  c #0D3C63",
";  c #083559",
":  c #042D52",
">  c #0F3759",
",  c #103F66",
"<  c #032F55",
"1  c #043965",
"2  c #043D66",
"3  c #073861",
"4  c #0B3354",
"5  c #11426B",
"6  c #083052",
"7  c #0C304D",
"8  c None",
"9  c #10395E",
"0  c #0B395E",
"q  c #053A5E",
"w  c #183045",
"e  c #0B1E32",
"r  c #123049",
"t  c #181D25",
"y  c #164166",
"u  c #3A2D2D",
"i  c #251917",
"p  c #152230",
"a  c #163D61",
"s  c #21232A",
"d  c #0B141C",
"f  c #143552",
"g  c #1E2532",
"h  c #143958",
"j  c #292222",
"k  c #232C39",
"l  c #13283C",
"z  c #383233",
"x  c #0D1114",
"c  c #0C4573",
"v  c #403636",
"b  c #17344E",
"n  c #1D2937",
"m  c #193B57",
"M  c #2A292D",
"N  c #2C303C",
"B  c #292D38",
"V  c #1D4060",
"C  c #433430",
"Z  c #09172A",
"A  c #645756",
"S  c #16466D",
"D  c #69544E",
"F  c #2E1614",
"G  c #1E374E",
"H  c #212E3E",
"J  c #D8292A",
"K  c #302E33",
"L  c #45393A",
"P  c #0F1C2A",
"I  c #0D1824",
"U  c #0A416E",
"Y  c #5F4C49",
"T  c #0C2A44",
"R  c #482F2A",
"E  c #0E2940",
"W  c #43120F",
"Q  c #4D1311",
"!  c #5B1311",
"~  c #3A1915",
"^  c #253243",
"/  c #1C191B",
"(  c #D22E30",
")  c #611917",
"_  c #82201F",
"`  c #8F1A19",
"'  c #481D1B",
"]  c #124A77",
"[  c #313741",
"{  c #191314",
"}  c #411A16",
"|  c #1C4F79",
" . c #1F1E20",
".. c #12181F",
"X. c #672421",
"o. c #544948",
"O. c #DD272F",
"+. c #6B1311",
"@. c #8E2324",
"#. c #2C3C4D",
"$. c #36120F",
"%. c #531B18",
"&. c #D02C2A",
"*. c #0A243C",
"=. c #223D55",
"-. c #20486B",
";. c #332925",
":. c #082A49",
">. c #32211F",
",. c #A73435",
"<. c #841515",
"1. c #C92F2E",
"2. c #331D19",
"3. c #304F69",
"4. c #C02D2D",
"5. c #25374A",
"6. c #AC2A29",
"7. c #56342E",
"8. c #B53334",
"9. c #781312",
"0. c #731C1B",
"q. c #B82D2D",
"w. c #AAAAAD",
"e. c #503D3C",
"r. c #25445D",
"t. c #C6C5C8",
"y. c #3B4E61",
"u. c #4D211F",
"i. c #9A2828",
"p. c #235680",
"a. c #3B2A26",
"s. c #B41F20",
"d. c #295274",
"f. c #5B2422",
"g. c #4A6379",
"h. c #C03738",
"j. c #4F2824",
"k. c #494344",
"l. c #736D6A",
"z. c #A12322",
"x. c #5B5250",
"c. c #69727A",
"v. c #7A2825",
"b. c #8A9199",
"n. c #722523",
"m. c #412322",
"M. c #A79E99",
"N. c #A28A74",
"B. c #977F6C",
"V. c #CE2726",
"C. c #645B5E",
"Z. c #B6ADAA",
"A. c #BCB7B8",
"S. c #D1393A",
"D. c #5B595E",
"F. c #BFC9D1",
"G. c #AAA4A3",
"H. c #958A82",
"J. c #603D36",
"K. c #3C6B90",
"L. c #8896A3",
"P. c #9D9A9A",
"I. c #812C2C",
"U. c #E7CB9A",
"Y. c #8C7F77",
"T. c #C3D0DA",
"R. c #385873",
"E. c #A0755F",
"W. c #B08F76",
"Q. c #D0D6DB",
"!. c #415A6F",
"~. c #BCBEC4",
"^. c #758DA0",
"/. c #99A8B5",
"(. c #E8D0AC",
"). c #704538",
"_. c #969292",
"`. c #9A9EA5",
"'. c #393F46",
"]. c #48525D",
"[. c #C3AF9A",
"{. c #887667",
"}. c #CFC5C0",
"|. c #96383C",
" X c #5D6772",
".X c #9B1B1B",
"XX c #6E7F8E",
"oX c #642B2A",
"OX c #7A95AB",
"+X c #A61B1A",
"@X c #8F302F",
"#X c #ABB2BA",
"$X c #261110",
"%X c #7D868E",
"&X c #3B4752",
"*X c #833531",
"=X c #777678",
"-X c #92684F",
";X c #705A55",
":X c #320E0B",
">X c #DBC5A8",
",X c #C19E83",
"<X c #2E5F88",
"1X c #7E6C60",
"2X c #846756",
"3X c #6F2F2B",
"4X c #9D3333",
"5X c #535358",
"6X c #C52827",
"7X c #B89A7F",
"8X c #9B2F30",
"9X c #CABAAD",
"0X c #42464C",
"qX c #B67F42",
"wX c #C19877",
"eX c #DCCDBD",
"rX c #D6AF81",
"tX c #849FB5",
"yX c #CC9E7B",
"uX c #D84C4B",
"iX c #705549",
"pX c #31465B",
"aX c #B29E8C",
"sX c #4F5C67",
"dX c #807E7F",
"fX c #73645E",
"gX c #9EB1BF",
"hX c #D1A35E",
"jX c #C29446",
"kX c #805C49",
"lX c #CAA78A",
"zX c #8D9DAB",
"xX c #DDDEE0",
"cX c #D2AE93",
"vX c #375F80",
"bX c #D8D2CF",
"nX c #B58062",
"mX c #BDA68F",
"MX c #C01D1E",
"NX c #666567",
"BX c #A17B4A",
"VX c #E5C685",
"CX c #905645",
"ZX c #BA645A",
"AX c #A8B9C8",
"SX c #A3694F",
"DX c #9F4B47",
"FX c #DCBC8D",
"GX c #AF4344",
"HX c #844337",
"JX c #4F6F8A",
"KX c #4B789B",
"LX c #934144",
"PX c #B66740",
"IX c #BF905D",
"UX c #DBB06A",
/* pixels */
"h V a h 9 a f G r.pXG =.b > 9 - 9 9 9 y y 9 a S S y , y S 5 5 -.R.y.=.=.m f f m m m b f > > 8 9 8 9 9 > > > > > > > > > > > > > > > > > > > ",
"9 y a 4 6 : : 7 7 :.7 7 6 4 0 #   % % % < < 5 p.| S 3 o 3 2 * 9 b l l G =.b *.T r b r 7 6 : : < < % < : : : : : : : : : : : : : : : : : : : ",
"- y a 7 7 : <   O   9 a 7 a a 9 % % %   % < - | S * # o 3 1 3 4 r p P w G w *.E l w G b 7 6 : < % % < < < : : : : : : : : : : : : : : : : : ",
"  0 4 :.:.:   + X . ; h b R.3.V - o   o 3   % 8 q q 3 * * o % :.l P I n H n e l n n n w r 7 6 4 % % % < < < : : : : : : : : : : : : : : : : ",
"% < :.T 7 ; O . + 6 T H #.!.!.-.| U     O o     o 3 3 3 o - y m P d ..n k t I p n g p p l r b 7 4 % % < < < < < : : < < < < < < < : : : : : ",
"% < :.7 > 3 o ; f &XL L K ^ a , S @ . O . . + 1 . O O # ; 9 a G I d t g g ..d t k n p p l w r 7 4 ; % % % % < < % % % % < < % ; - > < : : < ",
"% < 7 7 ; q ; b '.B.BXBXY N > U + . . . 1 . . + + X * 3 0 4 :.Z I t s g s t ..t B B n n k ^ w b 7 6 % % % # % % % % #   % % # - | S ; < : < ",
"% % 7 4 # ; 7 w L BXjXjX-X0Xh 2 X 1 O O . 1 + X + + . 3 9 > T Z P k B B B M s g g k k N N ^ ^ G f 6 % # # # # q # # 8   8 % 8 , p.| 0 : : < ",
"o o # q # q 7 H C BXjXjXIXY.3.* * 3 * . 1 + X & + + 1 3 > 7 e Z P N g g B B B k g n N N N ^ ^ G b 6 ; 0 # # o * 3 o O O O # # o 0 0 # % < < ",
"+ . q q q q ; r K J.qXhXFX9XL.r.0 ; , 5 @ X X X X X 1 o > 7 e Z P n g k N k k k N N N N N N B H E 6 9 9 o - * o o . 8 O O o # # # # % % % < ",
"& X . q q 2 1 0 r N {.W.>X(.}.L.3.V 9 3 * c @ $ & & . ; h b e Z g g g N N n n n k k k B N N M t Z h vXd.- - 3 o . . . O o o o # # # # % # # ",
"& & 1 0 3 X & X 3 m '.fXmX>XbXt.^.r.h ; , & $ & & & 1 0 h T Z Z k B B B g p g k N #.[ M M z a.j P V K.vX5 o o 1 1 . . . o o o o # # # # # # ",
"& & * 0 - X & & X y w &X_.Z.}.Q.AX!.f y - U c & & + O 0 f *.Z P g B N g t P n ^ n B N K v D {.{.&XV 3.-.a - o O . . . . o o     # # # # O o ",
"& X + * * X @ @ X 0 r. X].b.#XF.T.zXR.a 0 c U c $ X O 0 f *.Z p g M M t t n g g p g B L ;XN.,XaXsXb 7 4 ; 0 o . 1 8 . . o o     #   o o o O ",
"q 2 X X X @ 2 q q f G y.#.y.L.gXF.T.gXR.-.3 . & & X ; 6 T *.P p s t ..x t g I t g N v Y W.(.U.7X0Xr 7 4 %     * + . . . o o   %       8 8 o ",
"q q 2 2 2 2 2 q q m w 5.G w !.OXgXF.xXgXvX9 - *   o : *.e e I d d d x x x d d k B N u 7.E.U.yXiXM E h 9     %   O . . . O   # #       O O O ",
"2 2 2 2 X X 2 2 - a h f b b G y.b./.T.Q.tXR.3.b r *.e e Z I d d d d x x x { p N N M R E.nXrXyX-Xv w 0 . O o 6 4 o . + + % ; , 5 q O O O #   ",
"2 2 X + X X X X - - a h b b G G y.L.gXT.T.AX^.[ [ H k k t ....d d d x { { / g B B z iXwXrXU.U.7Xx.G o & + * > 4 # O X X 3 0 S S 3 O O O O O ",
"2 2 X X X X X X @ , , h f b b m 9 3.OXgXF.Q.w.=XC.5XN K s x x x d d { i i { x I B v 2X,XrXU.U.yXe.w o X . o > 7 ; o + +   4 0 3   O O O O O ",
". . . + + X 8 X X U , 9 f b b h 2 2 d.OXgXt.}.G.Y.A L u j x x t x x $X~ 2.{ x d B v {.lXyXrXyXE.e.k 7 ; 0 4 T w > 3 X + o           O . . . ",
"o O . + + 1 1 X X @ - 9 f b f h * X , R.L.w.}.eXmX{.1XD i { j / x { } f.' $Xx t k v 1XlX7XyXZXn.} j pXV m f w l T 4 . + 1 3 0 3 . . . 1 . 1 ",
"o O O . 1 1 2 @ @ @ U - > f f h 5 ] * y y.NXP.9X[.,XwX-Xm.F >.F } Q +._ n.u.j j z o.iXW.W.SXv.0.) ~ 5Xy.#.].%XXXw :.% O . . . . + + 1 1 1 1 ",
"3 o . . + X @ @ @ $ 5 , 9 > h h y -., > E '.D.A B.,XE.).f.} f.X.@.` +Xs.i.v.j.m.7.W.CX3X3Xn.+.,.@X) } L C.dXG.b.k E 4 O + X + + @ U X + + + ",
"3 3 . + + @ @ @ = = c 5 , 9 h h f V 9 f l [ t z fX{.f.) %.Q *X8Xh.( O.&.z.0.' ' ).wXyXcXwXSXI.@X,.ZXn.~ D H.H.;Xz H b ; . 2 1 + @ U X + + 8 ",
"o O . + @ $ $ 8 $ = @ @ - , 9 h m b b w P t s s M u ' %.W ! ,.h.uXS.( 4.4Xf.~ 2.CXZXZXZXSXHX) v.4XGXZXHXE.2X2XB.[.l.#.> O X 1 . 1 + . 1 + + ",
"3 . . X $ = = = $ @ @ @ U , a h b w w w P d t B K ;.} W Q @XGX8.h.h.h.6.v.} 2.$XoX@.` ` _ I.) ) @X|.DXHXE.kXkX7XmXY.c.r.; 1 1 O . . . 8 1 + ",
"* 1 1 X $ = $ $ $ $ $ $ U , , , m w r l p ..N D.C.u :XW %.*X4X,.,.4X8X_ %.m.>.$.v.6.6X6X6.,._ ! ) n.3X%.u.j.iXN.W.W.G.y.> O *     . O 8 O . ",
"X X X X @ $ $ $ $ $ @ $ $ @ , S V m r w l p '.=XY.J.u.f.oXf.) n.3Xv.0.%.m.R >.$.v.z.6X&.q.6.@.! W } j.u.~ j.).7.-X7XM.].h O 3 4   . O O . O ",
". X @ @ X @ $ $ $ $ $ $ $ $ c ] , h f G b P M x.J.j.' oXoX%.} $.~ j.m.R C K i ~ +.<.+XMX+X.X@.) ' R Y e.2.i ).kX-XN.fX#.9 X 3 9 3 O O O O O ",
"O 2 @ @ @ $ $ $ $ = = = $ $ = = @ * > h r P t C m.j.$.' u.j.R C u C ;.C C ;.$Xu._ z.MXV.V.4.8X) 2.u o.C ;.i iXN.nXW.e.^ - $ X 3 3 O O   O O ",
"1 X @ @ $ U @ 1 1 U U $ $ $ $ $ = $ * > r P / u e.e.;.a.j.Y D A x.v >.R m.' u.n.,.8.V.J J 1.8.) F s z >.;.u D 7XyX,Xx.G * = & 1 3 O O   8 O ",
"@ $ @ @ @ U o : : ; 0 > 0 - U @ = c S y G p / i 2.a.u >.R D A A x.j F u.%.) @.i.h.( J J &.6Xq.0.~ / u a.C C iX7XcX[.c.V * = $ q q .         ",
"@ @ 2 X , 9 T r =.w p e e b f f - 5 -.3.H d { { >.C e.a.>.C x.x.z i $XQ +..X4.( O.O.O.( 1.6X4.4X%.;.z C Y 7.).W.,XY.g.S U @ , q # 1 2 2 1 . ",
"@ @ c S - 6 E #.#.&X[ [ g P e e T h V #.B s  .;.C o.Y u >.;.L o.C F W +..X4.O.O.O.O.O.( 1.( &.6.%.R L Y D iXJ.7.C K m c ] $ @ - * X & $ X 2 ",
"c ] U * 0 a !.%Xb.5Xk.0X'.#.#.#.5.G l 0XM.H.dXD v L L C >.>.u C 2.W ) _ 6.1.S.&.( ( ( ( ( J J 6X0.oXY C.C.C.x.C s l 4 @ ] ] 5 , * @ $ = $ X ",
"p.K.| , y V g.zXw.t.A.w.%Xn P l n k [ G.H.B.H.Y.{.A o.k.j j 2.:X:X! _ 4Xh.S.uXS.h.1.( O.O.J J 1.<.Q j.x.D.].'.g P 7 - c p.p.| a @ $ $ = @ X ",
"K.KX| - > E pX`.w.xXbXt.`.#.w w n M K H.D aXmXaXZ.G.P._.l.o.>.~ %.0.i.h.S.uXS.1.1.1.( O.O.O.&.6X.X0.%.R v g I P r a 5 = = ] U , U $ 8 $ @ X ",
"] <XS S V *.#.`.Z.Z.xXt.b.#.r.=.&X0XM 1X1X[.9X9X9XbXQ.F.t.b. .F Q _ .X1.6X( &.6X1.( O.J O.S.4..XPXqXCX7.v N ^ pX3.a ; 2 c ] $ $ = 8 @ @ X X ",
"c c * - h 5.].P.G.Z.xXt.b.5.l E l t B NXA o.Y.M.M.P.w.#X~.`.M F Q _ +X( J O.J ( ( ( O.J O.S.6._ qXhXrXN.1Xv sX^.L.g.b : % X $ = = $ $ @ @ & ",
"@ 1 - , m y.].l.G.Z.xXt./.^.=.b 7 r 5.n t  .k.D.NX XL.b. XD./ ~ ) ` +XJ J J V.1.1.1.J O.( q.@XHXqXhXU.eXaXo.NX#Xw.=X#.w :.o $ = = $ $ $ $ $ ",
"+ * - 9 V y.].C.P.Z.bXbXF.zX3.V 0 ; a f e Z e p ^ =.#.[ s / $XQ _ s.MXJ MXMX+X+X+X+XMXMXs..X_ nXcX>X(.eXG.dXP.~.Z.P.D.k *.:.c = = = $ 8 $ @ ",
"X O   ; V y.].NX=XM.G.t.F.#XOX-.- $ U U , 9 4 7 e w n ..{ F } ! @.q.6XO.&.4.q.8.q.4.1.6Xh.,.*XW.9XeX}.}.}.}.A.A.w.M.C.K P e ; @ $ = @ X X + ",
"+ . * 0 a 3. X%X=XG.G.A.Q.~.zX3., ] = & c = 2 0 m G n { ~ ' X.0.9.` s.q.4.q.q.q.q.q.6X1.h.|.3X{.7XcXU.cXeX9Xw.~.t.w.l.'.g p b 0 2 c @ @ @ + ",
". + * ; y 3.!.c.b.dXM.w.xXT./.!.5 ] c $ = $ 2 0 b ^ K ~ W ! _ 8X_ <.` <.@.@.` ` .X.X+X+X.X_ f.kXW.VXVXU.(.eXZ.w./.L.sX[ N n r h 0 S S * U 1 ",
". 1 *   0 -.3.c.`._.dXw.t.t.F.^.-.* U c = U , m ^ / $.oXv.9.<.4X8.i._ +.Q ! ! ! +.9.<.9.+.+.! X.BXjXjXVXU.(.Z.c.g.R.=.5.^ H =.r.d.K.p.- 3 o ",
"O . * .   9 R.^.XXb.=XP.A.A.F.zXR.9 O $ U - f n >.%.0.8X,.,.8X8X@Xn.! W $.' %.X.@X8X6.6.@.@.! W f.BXqXjXUXrXaX0Xl b m G G G V vX^.tXKXS     ",
"* O O . X - a g.^.XX%X=XP.t.bX~.^.R.9 9 9 b k u 3X<.<..X6.8.4Xn.W $.$X$Xm.u.3XI.,.q.S.uX,.v.Q :X$.%.X.PXhXFXmXL I E f h f > 5 p.OXtXKX| o 8 ",
". O . . X * ; a !.XXc.%XdXG.Z.t./.XXr.^ H s m.3XLX4Xi.<.9.0.X.W $X/ j i a.} n._ +Xs.4.h.i.0.%.%.u.' Q X.SXE.{.v p r > 0 * U = ] K.K.| S * % ",
"O . . . + + . o 9 !.XXb._.Y.G.}.~.L.'.u ~ ) n.I.|.I.) W :X:XF $X/  .;.u R } ! +.<..X6.z..X<.+.! u.7.} W u.7.R i k b ; @ = = = c | c U U * O ",
"O O . + + + + 1 - g.^.XXP.P.M.Z.G.G.H.7.) @X@Xv.) Q $.F i / / /  .j ;.u u ' Q ) +.` 6.,.h.GX,.+.oXJ.7.R } } } F B G 9 U = = = ] c @ U U X . ",
"O O . + + X + X * a R.g.c.`.P.P.dXP.;XoX|.|.|.I.Q :XF F  . ./  . .;.;.L C a.} %.n._ @.i.8.h.8.@.f.R C R } $.j.R K ^ a U = = = = = & @ @ + + ",
"O O . + X & & X . y V !.g.c.=XP._.l.e.J.3XLX*X%.W ~ F i  . . . .u C u v z ;.F ~ Q ! +.9.` z.z.` f.j.R R J.j.' j.u #.a * @ = = @ @ @ $ X + + ",
"O O . + & & & & U y 4 3.g.sX Xc.P.P.H.7.' oXu.W ~ F i /  . .M K v v C u v z ;.>.~ Q ! +.@.8.6.` DXoXm.7.7.u.7.>.v pXa * 2 $ = @ @ @ @ @ 1 . ",
"O . . + & & & & + o - a m r.!. X=XP.G.=Xm.F ~ F F i /  .s M z v C C L L o.L z ;.$X$.Q ) _ ,.8.8X|.oXW } 7.R R i s w h - 2 @ @ @ @ X @ @ X 1 ",
". . . 8 X & & & c c 3 o > a m g.%Xc.%XdXv j i j  . .s M M K C C C e.Y x.C.x.v ;.i F ~ Q ) +.9.9.v.X.Q } 2.;.C K ..e 7 0 , 2 X U @ X U ] c 2 ",
". . 1 + X & & & & & X * 3 0 9 V R.!.^.XXXXM ..t  .M z z v C L e.Y D D A A x.L K / i F $.Q X.n.n.*X*X).J.2.j u M t e T ; q 2 2 @ U @ c | ] @ ",
"3 . 1 X X & $ & & & $ @ 1 1 - - y V g.^.^.5.d d ..s k.x.x.D D D D ;X;XD x.A x.v  .{ i $X$X$.$.$.W W ~ F { i j  .t p T ; q 2 2 2 2 X @ U U @ ",
"| * o X @ X + X & c | ] @ X X @ U U - -.3.l d d .. .z o.Y D D D D D D Y D ;Xx.L K { { / { { { $X:X:XF ;.j  .t p p e :.% q q 2 2 2 X X X @ 2 ",
"K.S o . . 1 @ U & ] p.p.c X X & $ c X ; h r Z ..t / i j >.C e.o.Y D A D ;XfXA L z / x ..I d d / F >.u K g I I Z p E :.# q q q 2 2 2 2 2 2 1 ",
"p., o O . * * O . c p.p.c & & & & $ & 3 a r I s M M j / x / M z v o.A C.C.C.D.k.[ s d P p d d t i a.K p P e e e 7 4 ; q q 2 1 * 2 1 1 . . . ",
"3   o o o - - o 1 2 U c & & & & & X 1 ; 7 e ..K v v z M ..I P p N '.5XD.D.D.D.5X[ k P P P d ../ >.u M P *.6 % ; 0 q q q q 1 * * 1 1 . O O O ",
"- # 0 3 q o - , , 3 . 1 X & & & & X 1 4 T P s k.o.L M s p *.*.*.l p g g g k B s p p I d d d ..s z M p *.; q 2 @ 1 q q q q 8 X X . 3 o   O # ",
"o # 3 - , 5 , 0 , 3 O 1 1 X & & & +   :.Z I v x.x.z s g r 4 > 4 T e Z P Z Z Z I Z Z I x x { / u K p e 6 q q O 1 . 3 q # q 2 1 1 O o o       ",
"# 3 0 # 5 <X<XS 3 o 3 * 1 + & & X O 4 w P  .k.Y v  .t l 4   o o 4 7 r b r T r T E e P ../ i F a.j P *.6 # o 1 1 O o # # # # o   o o       8 ",
"o o o o 5 <X<X| 3 O o o 3   U X X % r p j C e.v  .t E 4 o . . + O ; ; ; ; % 6 7 T E n  .C F $.} j g w r 7 6   o # # # # < < 6 > 9 9 ; % %   ",
"3 o o # 3 S S 0 * 3   3 8 o X   ; 7 e N _.[.aXC.s e 7 o . + . + O             4 b e p 5X1XR J.).;.s n w b 7 6 % #   # # < < 4 9 V a 9 ;     ",
"8   #   # o o % % o 3 o o   * 4 r p B H.9XeXZ.D.l T ; + + . O O O       O O O # f r sXw._.C 2XW.fXl.c.&X^ E f 4 % #       % 0 - -.V 9 ;     ",
"% %   # #   3 o o o o   8 - 3 7 ^ x.A 1X{.Y.k.p T 6 . X + .   ;     #   O O O   6 f !.zX=XC 1XN.;Xl._.c.].l T 6 %     O O o 3 - a 9 ; %     ",
"# % o 3 # %   o     o     3 < E D.aX[.N.9XM.[ w 6 o + & + O ; 4 4 %     8 O O o 0 6 E ^ B  .z u >.;.z M g P E > ; % O O O   o 3 o ; ;       ",
"% # - - o #   8 %     3 - S 6 l l.B.N.B.H.=Xg :.  . & & + o 4 4 6 % #   o O o O 0 > T e Z d x x x x x x P e T :.<             o   ; ;   8 o ",
"% # - - o o o o ,   < 3 p.K.5 e s a.a.;.K B P 6 . + & & + o 4 4 4 # o O O O O .   # ; f r w l n n p l w G 7 6 ; ; % % % % 8 6 8 % ;     8   ",
"%   o o %           0 3 , p.- :.I / x d I Z E ; . + & X + . ; 4 ; o o O O O . . . O   ; 6 7 r T 7 7 7 7 6 ; o     % % % < 7 7 7 % # %   #   ",
"y y y a a y y y y 5 5 -.<Xp.| V G 5.5.=.=.=.V a 5 5 S S S 5 y y y y 5 5 5 5 5 5 S 5 5 5 a a a a y y y 8 5 5 5 5 5 5 y y a m m m y y y y 5 y "
};
