/* XPM */
static char *_037_fdb607c49c770f994f7c63662e21a62870d9ba69b651051e0b33c8ec6e0f698e_2[] = {
/* columns rows colors chars-per-pixel */
"70 73 256 2 ",
"   c #04335D",
".  c #043663",
"X  c #043B69",
"o  c #05365F",
"O  c #033560",
"+  c #033867",
"@  c #053F6C",
"#  c #04355B",
"$  c #05416F",
"%  c #043259",
"&  c #043C6E",
"*  c #083B65",
"=  c #054273",
"-  c #0D3C63",
";  c #083559",
":  c #042D52",
">  c #0F3759",
",  c #103F66",
"<  c #032F55",
"1  c #043965",
"2  c #043D66",
"3  c #073861",
"4  c #0B3354",
"5  c #11426B",
"6  c #083052",
"7  c #0C304D",
"8  c None",
"9  c #10395E",
"0  c #0B395E",
"q  c #053A5E",
"w  c #183045",
"e  c #0B1E32",
"r  c #123049",
"t  c #181D25",
"y  c #164166",
"u  c #3A2D2D",
"i  c #251917",
"p  c #152230",
"a  c #163D61",
"s  c #21232A",
"d  c #0B141C",
"f  c #143552",
"g  c #1E2532",
"h  c #143958",
"j  c #292222",
"k  c #232C39",
"l  c #13283C",
"z  c #383233",
"x  c #0D1114",
"c  c #0C4573",
"v  c #403636",
"b  c #17344E",
"n  c #1D2937",
"m  c #193B57",
"M  c #2A292D",
"N  c #2C303C",
"B  c #292D38",
"V  c #1D4060",
"C  c #433430",
"Z  c #09172A",
"A  c #645756",
"S  c #16466D",
"D  c #69544E",
"F  c #2E1614",
"G  c #1E374E",
"H  c #212E3E",
"J  c #D8292A",
"K  c #302E33",
"L  c #45393A",
"P  c #0F1C2A",
"I  c #0D1824",
"U  c #0A416E",
"Y  c #5F4C49",
"T  c #0C2A44",
"R  c #482F2A",
"E  c #0E2940",
"W  c #43120F",
"Q  c #4D1311",
"!  c #5B1311",
"~  c #3A1915",
"^  c #253243",
"/  c #1C191B",
"(  c #D22E30",
")  c #611917",
"_  c #82201F",
"`  c #8F1A19",
"'  c #481D1B",
"]  c #124A77",
"[  c #313741",
"{  c #191314",
"}  c #411A16",
"|  c #1C4F79",
" . c #1F1E20",
".. c #12181F",
"X. c #672421",
"o. c #544948",
"O. c #DD272F",
"+. c #6B1311",
"@. c #8E2324",
"#. c #2C3C4D",
"$. c #36120F",
"%. c #531B18",
"&. c #D02C2A",
"*. c #0A243C",
"=. c #223D55",
"-. c #20486B",
";. c #332925",
":. c #082A49",
">. c #32211F",
",. c #A73435",
"<. c #841515",
"1. c #C92F2E",
"2. c #331D19",
"3. c #304F69",
"4. c #C02D2D",
"5. c #25374A",
"6. c #AC2A29",
"7. c #56342E",
"8. c #B53334",
"9. c #781312",
"0. c #731C1B",
"q. c #B82D2D",
"w. c #AAAAAD",
"e. c #503D3C",
"r. c #25445D",
"t. c #C6C5C8",
"y. c #3B4E61",
"u. c #4D211F",
"i. c #9A2828",
"p. c #235680",
"a. c #3B2A26",
"s. c #B41F20",
"d. c #295274",
"f. c #5B2422",
"g. c #4A6379",
"h. c #C03738",
"j. c #4F2824",
"k. c #494344",
"l. c #736D6A",
"z. c #A12322",
"x. c #5B5250",
"c. c #69727A",
"v. c #7A2825",
"b. c #8A9199",
"n. c #722523",
"m. c #412322",
"M. c #A79E99",
"N. c #A28A74",
"B. c #977F6C",
"V. c #CE2726",
"C. c #645B5E",
"Z. c #B6ADAA",
"A. c #BCB7B8",
"S. c #D1393A",
"D. c #5B595E",
"F. c #BFC9D1",
"G. c #AAA4A3",
"H. c #958A82",
"J. c #603D36",
"K. c #3C6B90",
"L. c #8896A3",
"P. c #9D9A9A",
"I. c #812C2C",
"U. c #E7CB9A",
"Y. c #8C7F77",
"T. c #C3D0DA",
"R. c #385873",
"E. c #A0755F",
"W. c #B08F76",
"Q. c #D0D6DB",
"!. c #415A6F",
"~. c #BCBEC4",
"^. c #758DA0",
"/. c #99A8B5",
"(. c #E8D0AC",
"). c #704538",
"_. c #969292",
"`. c #9A9EA5",
"'. c #393F46",
"]. c #48525D",
"[. c #C3AF9A",
"{. c #887667",
"}. c #CFC5C0",
"|. c #96383C",
" X c #5D6772",
".X c #9B1B1B",
"XX c #6E7F8E",
"oX c #642B2A",
"OX c #7A95AB",
"+X c #A61B1A",
"@X c #8F302F",
"#X c #ABB2BA",
"$X c #261110",
"%X c #7D868E",
"&X c #3B4752",
"*X c #833531",
"=X c #777678",
"-X c #92684F",
";X c #705A55",
":X c #320E0B",
">X c #DBC5A8",
",X c #C19E83",
"<X c #2E5F88",
"1X c #7E6C60",
"2X c #846756",
"3X c #6F2F2B",
"4X c #9D3333",
"5X c #535358",
"6X c #C52827",
"7X c #B89A7F",
"8X c #9B2F30",
"9X c #CABAAD",
"0X c #42464C",
"qX c #B67F42",
"wX c #C19877",
"eX c #DCCDBD",
"rX c #D6AF81",
"tX c #849FB5",
"yX c #CC9E7B",
"uX c #D84C4B",
"iX c #705549",
"pX c #31465B",
"aX c #B29E8C",
"sX c #4F5C67",
"dX c #807E7F",
"fX c #73645E",
"gX c #9EB1BF",
"hX c #D1A35E",
"jX c #C29446",
"kX c #805C49",
"lX c #CAA78A",
"zX c #8D9DAB",
"xX c #DDDEE0",
"cX c #D2AE93",
"vX c #375F80",
"bX c #D8D2CF",
"nX c #B58062",
"mX c #BDA68F",
"MX c #C01D1E",
"NX c #666567",
"BX c #A17B4A",
"VX c #E5C685",
"CX c #905645",
"ZX c #BA645A",
"AX c #A8B9C8",
"SX c #A3694F",
"DX c #9F4B47",
"FX c #DCBC8D",
"GX c #AF4344",
"HX c #844337",
"JX c #4F6F8A",
"KX c #4B789B",
"LX c #934144",
"PX c #B66740",
"IX c #BF905D",
"UX c #DBB06A",
/* pixels */
"9 y a > - , 9 a d.-.a a 9 , c 5 - 9 9 a a 9 a -.S y , 5 5 S S S d.3.pXr.b w w =.G G m h > 9 9 - 8 > > > > > > > > > > > > > > > > > > > > > ",
"9 y 9 6 < < : : 6 < % % ; o o <   % % % < < y d.d.S 3 o 1 2 X , > T *.r G w l E r b b 4 6 : : : < < < < < 8 8 : : : : : : : : : : 8 : : : : ",
"9 a 9 6 : : <   o o o < 6 V =.G 6 <   o % 8 9 -.S - o o 1 2 1 0 m E e l ^ l e e l w r r 7 6 : : < % < < < : : : : : : : : : 8 : : : : 8 : : ",
"7 4 6 :.: : < % : : 0 > b pXy.#.h o   . o   % ; 3 3 3 - - 3 % 6 w p P n n p p n p p *.*.T r 7 6 6 % < < < : : : : : : : : 8 8 < : : : : : : ",
":.7 : : < % : % m T w w 5.].].5.-., O   O       o 3 3 0 3 - a m p I ..g k p t g n n p l l E r r 6 < % % < < < : : 8 < < : : : < < 8 : : < < ",
"7 6 <   * * % 7 n N z v '.'.&X=.y , O O O O O 1 O . . o ; 9 a G p ../ g B g t ..g k n n n l w w 4 % % % % % < % < % 8 % < < < 0 - > < < < < ",
"7 : % + = @ 4 w v B.E.N.{.].r ; 3 . . 1 + . . + 1 X * 3 ; ; T e p s  .M B B B k k k H H 8 k ^ G 7 6 6 % % % % % % # # # % % % - d.S ; < < % ",
"6 ; o & = X 6 k C E.).W.[.L.R.- * . 1 + + + + X + + . 3 9 > T Z p M K B B B B k k k ^ ^ N k H ^ r 6 < % # o o o 8 # o # # # o - d.-.0 < < < ",
"6 q X $ = & 4 k C -XHX7XeXbXgXvX, 3 5 @ + + & $ & + 1 o 0 f e Z P M N N B N N N N k k N N B B H r > ; < 0 - o o 3 o o # # 8 # o 0 0 % 8 % % ",
"4 # 2 X $ & 0 H M J.-XN.9XbXQ.AXvXy 0 - * @ = & & X X o 0 > *.Z I t g N N k k k k g N [ s M K s e > y 9 0 3 o o 3 3 3 o o o o # # % % % % % ",
"4 # 3 1 2 X 3 f w '.l.=XZ.}.}.Q.gXR.V - @ @ 8 = & X 2 # ; 4 e Z I s k N k n n ^ N [ N s v L ;./ P m d.d.- 3 * . . . 1 o O # # # # # % % % % ",
"; q q q 3 1 1 q h m #.sX`.Z.}.bXQ.L.3.a q @ 2 @ & + . # 4 T Z Z P k k g P p n H k N K L ;XB.2Xe.[ 3.K.vXS 3 * . . . . . . o # % # # # # # # ",
"; q q q 2 2 2 2 q q h !.%XZ.}.eXF.T.tX3.y y * 2 @ . 3 0 f E Z P k B g t p n k g B K e.;XB.lX,X;X[ =.3.d.,   O . . . . . . o   # # # # # o o ",
"q q q 2 2 2 2 2 2 # a JX].b.A.A.t.T.Q.tXvXy 3 ] = 1 3 0 f E Z p k s t t s g g g K u Y N.cX>XW.j...e 7 > % % o . . . . . O o   % %   # # o o ",
"q 2 2 2 2 X 2 2 0 4 f =.5.].b.w.A.A.T.T.tXd.y 5 * * 0 6 :.l p p ..x x d d I t M ;.u m.).,XlXCX' / E f 4 ;   % o . . . . . o   % %   # # o o ",
"q 2 2 2 @ X 2 3 ; h m G l 5.y.b.w.~.T.Q.Q./.R.h > 4 7 e e e p t x x x x ..g K K u C J.-XlXlX-Xj...r h 4 ; 3 o O . O . . . o o ;       # # # ",
"2 2 2 8 X X X * 9 a h f r b 5.].b.w.F.T.T.T.#XsX[ P p P Z Z d x x x d x t g M M u Y E.wX(.(.,XD t r 9 ; O +     o   . & + . y y 0 # o o o o ",
"2 2 2 X X X X * , , a h b b b 5.y.L.AX~.AXQ.Q.Z.NXs K '.N d d x x / j  ...d x  .;.iX7XcX(.(.lXD p 7 9 5 + + 3 # # # . & & X -.-.0 # # o o o ",
"X 1 1 X + X + X U , , > f b b m h 3.L.#XF.F.Q.}.M.1XY.H.iX>.x x { i 2.>.i x x ;.C 2X,XcXcXlXE.7.s 7 ; * 1 o # 6 4 4 O + . O 9 9 ;   o o o o ",
"1 + + + X + X X @ U , 9 f b b h - 0 y.L.#X~.t.A.9X7XmXwXnX-XF { $X} Q W $.F i >.7.E.,XlXyXSXv.) i l > ; - 9 4 r f > * + + . o ;     o o 1 3 ",
". . . + + + X X X @ - 9 f b b f q q m y.L./.`.Y.aXlXVXhXSX3XW Q Q ) +.n.oX~ m.R ).kXW.wXSXv.<._ } p r.V h r w w E 7 o + X X * 3 O O . 1 1 1 ",
". . . . . + 2 @ @ @ U 9 > f b f > 0 9 V pXc.%Xx.N.yXhXjX*X+._ @.@.` ` 4XHX%.' 7.W.-X-XkXoX) 4X@.%.j &X&X#. XL.XXn E 4 O . + + . 8 + 1 . 1 1 ",
". . . + + X 2 @ @ $ U , 9 > f f f V -.9 E 0Xx.B.U.rXjXqX+.<.6.q.q.4.h.i.n.f.' f.N.,XcX,XE.3X@.,.LX7.>.k.D.dXw._.B n f 3 X & X + @ @ X X + + ",
"3 . . + + @ @ @ $ = c 5 , 9 h f G b 9 9 E [ C E.VXyXqX*X9.6.1.uXS.6Xh.,.n.u.' 2XnXE.E.E.).%.9.,.DXE.u.~ Y N.aXiXu B b ; 1 X + X @ U X + + X ",
". O O + @ @ $ $ $ = $ @ - a a h m 5.G b e ..C E.yXnX3X! 8Xh.4.S.( h.,.v.%.2.F J.3XI.I.n.X.! +.@X|.LX%.oXE.kX-XE.mXl.#.> q 1 . . + . . . X X ",
"3 . 8 X $ $ = $ $ $ $ @ U , , , a b ^ ^ p  .C -XE.3XQ ! ` 8.8.8.8.8Xv.%.2.;.m.).LX|.4X|.|.0.+.+.0.X.oX).B.kXE.wXcXY.c.=.6 2 1 . . . . . . + ",
"* . . X $ $ $ $ $ @ @ $ U , , 5 5 > w B M i a.J.oXQ Q ) +.<._ @Xv.) ' m.;.;.~ 3X|.,.8.h.8.@.9.+.! Q W } ).kX-XIXE.N.w.!.h 3 o * . . . . . . ",
"X X 8 X @ @ $ @ $ @ @ $ U U U c ] - b k ;.$XF a.m.} W ! X.n.Q %.f.} F j >.2.$.) <..Xs.s.+Xz._ +.%.j.m.2.J.N.nXnX-XB._.pX7 9 % o . . O O . . ",
"1 2 @ @ X @ $ $ $ $ $ $ $ $ c ] ] U 9 w B { {  .j m.X.n.%.' j.R C >./ / F W ! _ .Xs.&.V.&.4.8XX.J.Y a.>.R N.yXyX-XB.NX#.m y 0 , * . O O O O ",
"o 2 @ @ @ @ $ $ $ $ $ = $ $ $ = @ 2 * > w P I t  .2.j.f.m.C Y L ;./ / i } ! <.z.h.1.&.J J 4.@.Q m.u ;.j o.B.lXwX-XB.k.G h * o * * . O   o O ",
"1 2 @ @ @ @ * 3 . @ U $ $ @ @ @ q 2 2 U - :.Z I / >.i >.L Y D v j / / F %.<.6.4.uXS.&.J J 4.@.} F j K L A N.7XE.N.aX0Xb * @ $ @ 2 .         ",
"@ @ @ @ @ U   : : 4 0 * 3 U U 2 * 5 5 ] c % Z .. .u K z o.D D v i $XF u._ z.1.1.( &.J J J 1.@X%.2.u L v v ;XiXJ.B.G. XV 2 2 @ 2 1 . O   #   ",
"@ @ @ 2 3 9 :.r =.E e e e b h f > , S -.a e I s L o.v M ;.v Y a.F W %.I.i.h.S.1.1.&.J J J 1.i.) m.u e.o.Y D R 2.fX=Xg.V , * @ q 2 2 + 1 1 o ",
"@ @ 2 U 5 h E G 5.&X[ [ k P p e *.f h =.n ..s z Y C.o.z s K u $XW ! _ ` q.S.uXS.( &.J J J &.8.9.' L o.A fXY a.i K ^ =.y | ] @ q 1 + @ @ @ 2 ",
"U p.c * - h pXXXc.B t t k #.#.=.#.w e k %Xk.u C e.Y L s  .;.F $.! <..X4.S.uXuX( J J J J J J 4.9.Q j.Y D A L z B P *.9 c | | ] @ @ & $ @ @ @ ",
"p.K.] , y b e n [ t s s k p e E *.5.g  .{.mXW.B.;Xo.z M t / F Q 0.` q.1.uXS.( &.J J J J J ( 6.@.X.%.oXY u K k l T 4 U c p.<Xp.X X $ $ $ 8 @ ",
"<XKXp., 4 e Z [ 0X0X0X'.'.^ G b 5.#.g u mXN.E.W.N.Y.C.sX5Xs :X! _ z.q.1.S.( &.( ( ( J &.1.h.z.PXqXCXkX2XD z g P r , U $ = ] ] = = $ $ & @ & ",
"| <XS 5 f e n sXNXl.l.c.].5.r.-.pXpX[ z N.-XlXlX9XZ.w.#Xb.L m.! ` s.4.1.( J ( &.&.&.J ( 1.6.@.PXjXVXVX(.mXL  .[ pX=.9 S 8 = $ = = = $ @ X & ",
"& U * y V =.].b.w.}.A.A.%X5.*.:.7 E p M 1X2XlXcX}.~.~.F.b.L $.) z.s.V.( ( J J V.J J ( ( q..X,.nXhXVX(.(.eX1Xv A %XsXl *.6 @ $ c = = $ @ & & ",
"& & * a m pXsX`.Z.}.xXt./.^.r.f 0 y m n NXD Y Y.M.b.zXzXD.a.W _ q.MXMX( &.( J J J J ( 1.z.<.ZXyXrXrXU.(.eXM.x.Y.P.=X'.p *.; 3 X $ = 8 $ 8 = ",
"& X 1 - V y.sX`.w.A.xXt.gXzX3.V * 5 y 7 n ..t [ ].pXr.#.j :XQ _ q.4.6X1.1.1.&.&.&.( 1.h.8X@XnXcX>X>X>XeXbXA.=XM.G.P.l.N P e 7 0 * @ $ $ $ & ",
"X + 1 - a y.sX`.G.A.xXbX#X/.OX-.5 $ 2 q ; h h b E b =.P $XW +.9.` z.q.8.8.8.4.1.&.1.q.8.4X*XCXwX>X>X9X>XeX}.t.t.t.~.P.5Xk p E h , 5 X @ X . ",
"& X .   9 R.g.zXw.A.xXt.F.gXL.3., U = $ @ @ @ 5 y m w t m.I.8X.X<.<.9._ _ ` ` .X.X.X.X_ X.Q u.-XwXrXU.(.>X9XA.~.#X#Xb.].g H H b 9 S U X @ 1 ",
"+ X + O - d.y.c.`.w.bXQ.F.#XzX3.a U $ $ $ $ @ - a G M i Q _ 6.6.8X_ ! ! ! +.9.<.` <.<.+.) W :X7.BXhXhXU.(.(.Z.dXb.L.c.N I k 5.=.h -.S * U 1 ",
"+ X X + 3 -.3.JXzXw.w.A.~.~.#X^.r.* X $ = @ - m w / F f.n.<.` z.@X0.Q W Q +.` 6.1.4.6.@.) W ~ } X.qXqXUXU.(.aX0X#.y.#.^ H n w r.d.K.p.- o O ",
"X + + X O - vX^.%X`.`.A.xXt.w.L.R.y 2 @ $ 3 f ^ a.W ! 0.@.4X,.8X0.Q :X:XW n.4Xh.4.S.uXuXI.W $.:X%.v.qXjXhXrXmXo.t ^ ^ G G r -.K.^.tXKXS     ",
"+ . + U .   y vXXXXX`.w.bXt.w.w.^.vX0 o - f n m.f.+.9.<.` ` i.|.oXm.2.F } X._ .X4.h.h.@X) } ~ R u.f.X.qXyXFX,XL ..H #.b r 4 - | OXtXKX| 3   ",
"+ . + X + * 9 a g.XXc.`.A.bX}.t.gXXX3.b w g m.X._ ` ` ` _ n.) %.u.a.;.>.$.' +.<.s.s.z.<.) %.~ e.7.' j.oXBXE.B.L s k 5.r 4 , 2 ] K.K.| S -   ",
". . . + + + 1 3 y g.c.L.w.}.}.bXF.L.].K F u.n.9.9.` ` 0.n.f.~ 2.a.R C u F f.) ` 4.1.1.8.GXI.' C v R 2.m.j.u.R 2.M k b f 0 2 $ c | c U , * O ",
". . . + X + + 1 0 vX^.XXP.Z.}.}.~.G.Y.7.f.0._ <.<.<.9.! W $Xi j u C C u 2.7.n.8Xq.6X6X4.8.v.u.u z C a.a.F :XF >.M H b h , @ = = c @ @ @ 1 . ",
"O . . + X 8 X + o y R.g.c.b.G.w.w.G.fXJ.n.v._ _ i._ ! W :Xi K v C e.o.L >.~ %.+.i.+X+Xz.@.! ~ a.K z L C 2.$X>.v k w f 9 U $ = = = $ @ @ + + ",
"O . . + X X & X 1 ; V !. Xc.=XP.w.P.A oXn.I.|.|.|.) W ~ >.u L L e.x.A A u ~ W ! 9.` 6.z._ v.J.R z z k.L C $X>.K N G h - @ $ = = = $ $ @ 1 X ",
". . + + & & & & c o 9 V !.sX Xc.b.`.H.).X.@XDX*XX.W :X>.u C L L x.C.C.A u $.W 0.` .Xq.8.8X0.) ~ a.C v o.v i / ..^ =.a , @ = = = = @ @ @ 1 + ",
". . + + & & & & X * , > f r.y. XXX`.G.B.oX%.f.f.} F >.u v C e.Y C.C.A o.>.:X:X! 9.9..X6.z.<.+.Q ~ u z k.v { / d p w h - @ = = = $ X @ @ 2 . ",
". . + X & & & & $ . * 3 9 a -.g.XXc.=XP.H.m.$.$.F >.;.z z u e.A D.5XD.'.j i :XW +.9.z.q.8.z.` 0.W >.;.u ;.{ t ..Z e :.; * $ = = $ @ @ ] c 8 ",
". 1 . + X & & & $ X X X 3 9 > V R.!.%X%Xb.K u a.>.u z z C L o.C.C.5XD.K / / $X:XQ 0.@X4X|.|.|.*X} 2.i ;.i  .t P Z Z :.% 3 @ $ $ $ @ U | ] $ ",
"3 8 1 X 8 & $ & & & $ @ 1 1 * - a V g.^.^.[ s u z v L L e.Y A A A A D z  .i i $X:X:X~ ~ ~ } 2.2.$X2.;.;./  .t P Z Z *.6 0 * 2 X X @ @ U U @ ",
"| * o X @ X X X $ = | ] @ + X - 5 a a 3.r.w I / v e.Y A A A A A D ;XD C j ;.;. ./ { / / ../ ../ { 2.u j / ..t I Z Z *.6 9 3 3 2 X 2 8 @ 8 2 ",
"K.S o o 1 1 U U & ] p.p.c X & X X + o % 4 b P t / j L Y Y x.C.C.C.;XD u j L k.s ..d d d P d ....j ;.;./ x d I Z e *.:.4 9 9 0 * 2 2 2 2 2 1 ",
"p., o o . * * o . c p.p.= & & & & X + - > *.I B M i >.>.j z ].D.A A Y C ;.o.C.'.k p I P P d ../ u M  ...d Z Z Z T 7 > 9 9 9 3 3 * 2 1 1 . . ",
"o # o o o - * o * 2 U c & & & & & X . 0 b P g z v ;.j / ..p H ^ [ v L u  .v 5X0X[ H P p P d /  .K t I P l T 7 7 > 9 9 9 0 3 3 o . 1 . o o o ",
"- 3 # 0 o o - , , 3 1 1 X & & X X & + 4 w g k.o.z j t P e E r *.p I ....x t M g p p I I d { / j M I Z E f > 0 - * * * * . 1 2 1 1 . o # # # ",
"q # 0 - - y y 0 , 3 3 1 . + & & $ X 3 T P K Y A L s P e T 7 > 4 T e Z Z I I I I Z Z Z d x i j >.s I Z r 4 q q 1 2 X * 1 . 1 2 2 . o o #   8 ",
"# 0 0 ; y <X<XS 3 o 3 1 . . & X +   > l s Y Y v  .d Z T 4 ; o # # 6 6 7 T *.*.T E E l ..{ F F 2...Z E 7 > # 2 1 1 1 1 . O O o o o #         ",
"q o # # S 8 <X8 3 o o 8 8 % @ * 2 6 r H v Y C j ..P T ; o o O . O o # # % < 6 7 T r n s C F $.$./ g w r 7 6 # # # o o # < 6 6 ; 9 9 ; 4 % o ",
"3 o o # 0 S 8 - - 3 o . - o X   4 r #.b.~.aXR  .I *.6 o 1 . O O O       # # % % b E g 5X1XR J.J.>.s k w w r 6 % % # # % < 6 4 9 y a 9 4 %   ",
"8 #   # # o o %   O o O o   3 4 b ^ c.A.bXZ.o.t e :.% . + + . 8   8     O     % 7 b sXw._.R 2XN.fXl.=X&XH E f % %   O O     8 a -.y 8 ; % 8 ",
"  %         o o o o     o - - 7 k A l.l.{.l.z e :.% . + + O   % % % #   O O O   : h g.zX=XC 1XH.A l._.c.].l E 6 %   O . O O 9 , a 9 > % %   ",
"# % o 3   %   o   8 o     o < E C.aX[.N.9XM.k T % . + & +   ; 4 4 %     O O O O 0 4 E ^ N  .z z ;.j 8 B g Z E > ;   O O O O O 3 0 ; ;       ",
"    - - 8     % %   o o - S % l fXB.B.B.H.=Xn :.O + & X .   4 4 4 % %   O O O o 0 ; T e Z d d d x 8 x x P e T :.%     O O             o 8 o ",
"%   - - 8 o o # ,   < 3 p.K.5 e j >.a.;.M N e 4 . X & & 8 o ; 4 ; % %   O O O O o ; > b r w l l n p l w b 7 : 4 % % 8 % % 6 6 < % #       O ",
"%   8 o %   # %   o 0 0 , p.- T I x x t I Z T ; . X & 8 + O   % ; 8 #     O O . 1 o 3 ; :.7 r r 7 f f 6 6 % o     % % % < 7 7 7 % # %   #   ",
", y y y a y , , 5 y y -.<Xp.-.a G 5.5.=.=.=.V y 5 S S S S 5 5 y y y y y 8 5 5 S S 5 5 5 a a a a y y y , 5 5 5 5 5 y y y a m m m a y y y y y "
};
