/* XPM */
static char *_037_fdb607c49c770f994f7c63662e21a62870d9ba69b651051e0b33c8ec6e0f698e_3[] = {
/* columns rows colors chars-per-pixel */
"70 73 256 2 ",
"   c #04335D",
".  c #043663",
"X  c #043B69",
"o  c #05365F",
"O  c #033560",
"+  c #033867",
"@  c #053F6C",
"#  c #04355B",
"$  c #05416F",
"%  c #043259",
"&  c #043C6E",
"*  c #083B65",
"=  c #054273",
"-  c #0D3C63",
";  c #083559",
":  c #042D52",
">  c #0F3759",
",  c #103F66",
"<  c #032F55",
"1  c #043965",
"2  c #043D66",
"3  c #073861",
"4  c #0B3354",
"5  c #11426B",
"6  c #083052",
"7  c #0C304D",
"8  c None",
"9  c #10395E",
"0  c #0B395E",
"q  c #053A5E",
"w  c #183045",
"e  c #0B1E32",
"r  c #123049",
"t  c #181D25",
"y  c #164166",
"u  c #3A2D2D",
"i  c #251917",
"p  c #152230",
"a  c #163D61",
"s  c #21232A",
"d  c #0B141C",
"f  c #143552",
"g  c #1E2532",
"h  c #143958",
"j  c #292222",
"k  c #232C39",
"l  c #13283C",
"z  c #383233",
"x  c #0D1114",
"c  c #0C4573",
"v  c #403636",
"b  c #17344E",
"n  c #1D2937",
"m  c #193B57",
"M  c #2A292D",
"N  c #2C303C",
"B  c #292D38",
"V  c #1D4060",
"C  c #433430",
"Z  c #09172A",
"A  c #645756",
"S  c #16466D",
"D  c #69544E",
"F  c #2E1614",
"G  c #1E374E",
"H  c #212E3E",
"J  c #D8292A",
"K  c #302E33",
"L  c #45393A",
"P  c #0F1C2A",
"I  c #0D1824",
"U  c #0A416E",
"Y  c #5F4C49",
"T  c #0C2A44",
"R  c #482F2A",
"E  c #0E2940",
"W  c #43120F",
"Q  c #4D1311",
"!  c #5B1311",
"~  c #3A1915",
"^  c #253243",
"/  c #1C191B",
"(  c #D22E30",
")  c #611917",
"_  c #82201F",
"`  c #8F1A19",
"'  c #481D1B",
"]  c #124A77",
"[  c #313741",
"{  c #191314",
"}  c #411A16",
"|  c #1C4F79",
" . c #1F1E20",
".. c #12181F",
"X. c #672421",
"o. c #544948",
"O. c #DD272F",
"+. c #6B1311",
"@. c #8E2324",
"#. c #2C3C4D",
"$. c #36120F",
"%. c #531B18",
"&. c #D02C2A",
"*. c #0A243C",
"=. c #223D55",
"-. c #20486B",
";. c #332925",
":. c #082A49",
">. c #32211F",
",. c #A73435",
"<. c #841515",
"1. c #C92F2E",
"2. c #331D19",
"3. c #304F69",
"4. c #C02D2D",
"5. c #25374A",
"6. c #AC2A29",
"7. c #56342E",
"8. c #B53334",
"9. c #781312",
"0. c #731C1B",
"q. c #B82D2D",
"w. c #AAAAAD",
"e. c #503D3C",
"r. c #25445D",
"t. c #C6C5C8",
"y. c #3B4E61",
"u. c #4D211F",
"i. c #9A2828",
"p. c #235680",
"a. c #3B2A26",
"s. c #B41F20",
"d. c #295274",
"f. c #5B2422",
"g. c #4A6379",
"h. c #C03738",
"j. c #4F2824",
"k. c #494344",
"l. c #736D6A",
"z. c #A12322",
"x. c #5B5250",
"c. c #69727A",
"v. c #7A2825",
"b. c #8A9199",
"n. c #722523",
"m. c #412322",
"M. c #A79E99",
"N. c #A28A74",
"B. c #977F6C",
"V. c #CE2726",
"C. c #645B5E",
"Z. c #B6ADAA",
"A. c #BCB7B8",
"S. c #D1393A",
"D. c #5B595E",
"F. c #BFC9D1",
"G. c #AAA4A3",
"H. c #958A82",
"J. c #603D36",
"K. c #3C6B90",
"L. c #8896A3",
"P. c #9D9A9A",
"I. c #812C2C",
"U. c #E7CB9A",
"Y. c #8C7F77",
"T. c #C3D0DA",
"R. c #385873",
"E. c #A0755F",
"W. c #B08F76",
"Q. c #D0D6DB",
"!. c #415A6F",
"~. c #BCBEC4",
"^. c #758DA0",
"/. c #99A8B5",
"(. c #E8D0AC",
"). c #704538",
"_. c #969292",
"`. c #9A9EA5",
"'. c #393F46",
"]. c #48525D",
"[. c #C3AF9A",
"{. c #887667",
"}. c #CFC5C0",
"|. c #96383C",
" X c #5D6772",
".X c #9B1B1B",
"XX c #6E7F8E",
"oX c #642B2A",
"OX c #7A95AB",
"+X c #A61B1A",
"@X c #8F302F",
"#X c #ABB2BA",
"$X c #261110",
"%X c #7D868E",
"&X c #3B4752",
"*X c #833531",
"=X c #777678",
"-X c #92684F",
";X c #705A55",
":X c #320E0B",
">X c #DBC5A8",
",X c #C19E83",
"<X c #2E5F88",
"1X c #7E6C60",
"2X c #846756",
"3X c #6F2F2B",
"4X c #9D3333",
"5X c #535358",
"6X c #C52827",
"7X c #B89A7F",
"8X c #9B2F30",
"9X c #CABAAD",
"0X c #42464C",
"qX c #B67F42",
"wX c #C19877",
"eX c #DCCDBD",
"rX c #D6AF81",
"tX c #849FB5",
"yX c #CC9E7B",
"uX c #D84C4B",
"iX c #705549",
"pX c #31465B",
"aX c #B29E8C",
"sX c #4F5C67",
"dX c #807E7F",
"fX c #73645E",
"gX c #9EB1BF",
"hX c #D1A35E",
"jX c #C29446",
"kX c #805C49",
"lX c #CAA78A",
"zX c #8D9DAB",
"xX c #DDDEE0",
"cX c #D2AE93",
"vX c #375F80",
"bX c #D8D2CF",
"nX c #B58062",
"mX c #BDA68F",
"MX c #C01D1E",
"NX c #666567",
"BX c #A17B4A",
"VX c #E5C685",
"CX c #905645",
"ZX c #BA645A",
"AX c #A8B9C8",
"SX c #A3694F",
"DX c #9F4B47",
"FX c #DCBC8D",
"GX c #AF4344",
"HX c #844337",
"JX c #4F6F8A",
"KX c #4B789B",
"LX c #934144",
"PX c #B66740",
"IX c #BF905D",
"UX c #DBB06A",
/* pixels */
"h V a > h a f G r.pXG =.b > 9 - 9 9 9 y y 9 a S S y , y S 5 5 -.R.y.=.=.m f f m m m b f > > 9 9 8 9 9 > > > > > > > > > > > > > > > > > > > ",
"9 y a 4 6 : : :.7 :.7 7 7 6 0 % % % %   < < , p.| S 3 o o 1 * 9 b l l b =.b *.T r b b 7 6 : : < < % < < : : 8 : : : : : : : : : : : 8 : : : ",
"- y a 7 6 : <       9 a 7 V a > % % %   % 8 - | S - # o 3 1 3 4 r p P w G w *.E l w G b 7 6 : < % % < 8 < : : : : : : : : : : : : : : : : 8 ",
"  o 4 :.:.<   + X . ; h b R.3.V 9     o 3 # % # o q q * - o % :.l P I p H n e l n n n w r 7 6 4 ; % % < < : : : : : : : : : : : : : : : 8 : ",
"% < :.T 7 ;   . + 6 r H #.!.!.-.| U     O O # O O o q 3 3 - a m P d ..g k p I p n n p l l r b 7 4 ; % % < < < < < < < < < < < 6 < < : : : : ",
"% < :.7 > 3 o   7 &XL L K ^ a , S @ O O O . . + . O . # ; 0 a G I d t g g ..d t k n p p l w b b 4 4 % % < < < < % < % < < < % ; - > < : < 6 ",
"% < 7 7 ; q ; b '.B.BXBXY N > U X O . . . . . + + X 1 3 0 ; :.Z I t s g s t ..t B k n k k ^ w b 4 6 % % % % % # % %   # % < # - | S ; : < < ",
"% % 7 4 q ; 7 w L BXjXjX-X0Xh 1 X 1 . O . . + + + + . 3 9 > T Z P B B B B M s s g k k N N ^ ^ G f 6 % # # # # o # o O O % % # , p.-.0 < : < ",
"O o # q # q 4 H C BXjXjXIXY.3.* * 3 * 3 1 + + & X + 1 3 > 7 e Z P N g g B B B B g k N N N ^ ^ G b 6 ; 0 o # o * 3 8 O O # # # o 3 0 # % < < ",
"+ + q q q q ; b K J.qXhXFX9XL.3.0 ; , 5 @ X + X + X 1 o > 7 e Z P g g B N k k N ^ N k N N N B H E 6 9 9 o - 1   O . O O O 8 # 8 # % # % < < ",
"& + . q q 2 1 q r N {.W.>X(.}.L.3.V 9 0 * c & U & X . o h b e Z g g g N N n n n k k k B B N M t Z h vXd.- - 3 O . . . O O o # # # 8 % # 8 # ",
"& & + 0 3 X & X 3 m '.fX[.>XbXt.^.r.h ; U @ = & & & . 0 h T Z Z k B k k g p g k N #.[ M M z a.j P V K.vX, 0 O . 1 . . . . o   # # # # # # # ",
"& & X 3 * X & & X y G &X_.Z.}.Q.AX!.f y - U c & & X o 0 f *.Z P g B N M t t n N n N N K v D {.{.&XV 3.-.a 3 o   . . . . 8 o     # # # o o o ",
"& X X * * X & @ @ 0 r. X].b.#XF.T.zXR.a 0 c $ c & & O > f *.8 p g M M t t n n g p g B L ;XN.,XaXsXb f 4 ; 3 o . . 8 . . .       # # # O o o ",
"2 2 X 2 @ @ 2 q q f G y.#.y.L.gXF.T.gXR.-.0 . & & X o 6 T *.P p s t ..x t g I P g N v Y W.(.U.7X0Xr 7 4 %     * 1 . . . . o   8 # 8 # o # o ",
"q 2 2 X X X 2 q 0 m w 5.^ w !.OXgXF.xXgXvX9 - * o 3 : *.e e I d d d x x x d d k B N u 7.E.U.yXiXM E h 0     %   8 . . 8 O   # # #   O O O O ",
"2 2 2 2 X X X 2 - a h f b r 5.y.b./.T.Q.tXR.3.f r *.e e I I d d d d x x x ..g N N K R E.nXrXyX-Xv w 0 . 8 o 6 4 o O + +   ; , 5 q O O O O O ",
"2 2 2 X X X X X - - a h b b G G y.L.gXT.T.AX^.[ [ H n k t ....d d d x { { / g k B u iXwXrXU.U.7XA G 3 & X * > 4 o . X & . 0 S S 3 O O O O O ",
"2 + X X X X X X @ , a h f b b m 9 3.OXgXF.Q.w.=XC.5XN K s x x d d d { i i { d I k v 2X,XrXU.U.yXe.w o X . o > 7 ; O + +   4 0 0     O o O O ",
". 1 + + X X X X X U - 9 f b b h 2 2 d.OXgXt.}.G.Y.A v u j x x t x x $X~ 2.{ x d k v {.lXyXrXyXE.e.k 7 ; 9 4 T w > - 1 + o   ;     O O O . . ",
"O . . . + + + X X @ - 8 f b b h * X , R.L.w.}.eXmX{.1XD i { j / x { } f.' $Xx t k z {.lX7XyXZXn.W j pXV m f w l T 4 . + 1 * 3 . . . . 1 1 1 ",
"o o . . 1 X X X @ @ , - > f f h 5 ] X y y.NXP.9X[.,XwX-Xm.F >.F } Q +._ n.u.j j z o.iXW.W.SXv.0.) ~ 5Xy.#.].%XXXw T %   . + . 8 + + + 1 1 1 ",
"3 3 . . 8 X @ @ $ $ U , 9 > f h y -.- > E '.D.A B.,XE.).f.} f.X.@.` +Xs.i.v.j.m.7.W.CX3X3Xn.+.,.@X) } L C.dXG.b.k E 4 O 1 X + X @ @ @ + 1 1 ",
"0 3 . 1 X @ @ $ = = c 5 , 9 9 f m V h f l [ t z fX{.f.) %.Q *X8Xh.( O.&.z.0.' ' ).wXyXcXwXSXI.@X,.ZXn.~ D H.H.;Xz H b ; . X 1 + @ U 8 + + + ",
"o o . 1 @ $ $ $ $ $ $ @ - , a h m b b w P t s s M u ' %.W ! ,.h.uXS.O.4.4Xf.~ 2.CXZXZXZXSXHX) v.,.GXZXHXE.2X2XB.[.l.#.8 o 2 1 . . + . . + 1 ",
"3 . . X $ = = = $ @ @ @ * , , 9 b w w w P d t B K ;.} W Q @XGX8.h.h.h.6.v.} 2.$XoX@.` ` _ I.) ) @X|.DXHXE.kXkX7XmXY.c.r.% 1 1 O . . . . . X ",
"* 1 1 X $ = = $ = $ $ $ U , , , m w r l p I N D.C.u :XW Q *X4X,.,.4X8X_ %.' >.$.v.6.4.s.6.,._ ! ) n.3X%.u.j.iXN.W.W.G.y.> O 3   O . . . . 1 ",
"* X @ X @ @ @ $ = $ $ $ $ U , S V m r w n p '.=XY.J.u.f.oXf.) n.3Xv.0.%.' R ;.$.v.z.6X&.q.6.@.! W } j.u.~ j.).7.-X7XM.].h 3 o 4 o O O O . . ",
". X @ @ 8 @ $ $ $ $ @ $ $ $ c ] , h f G b P g x.J.j.' oXoXu.} $.~ j.' R C K i ~ +.<.+XMX+X.X@.) ' R Y e.2.i ).kX-XN.fX#.a X 3 9 3 O O O O O ",
"O X @ @ @ $ $ U $ $ $ $ = = = c @ @ > h r P t v m.j.$.' u.7.C C u C ;.C C ;.F u._ z.MXV.V.4.8X) 2.K o.C ;.i Y N.nXN.e.^ - = + * * O O   O O ",
"1 @ @ @ 8 U @ . 1 U U U $ $ = $ = = * > r P / u e.e.;.m.j.Y D A x.v >.R m.' %.n.,.8.V.J J 1.8.) F s z >.;.u D 7XyX,Xx.G * = & 2 q o O       ",
"@ @ @ @ @ U 8 : : ; > 0 0 - U @ = c S y G p / i >.a.u >.C D A A x.j F u.Q ) @.i.4.( J J J 6Xq.0.~ / u u C C iX7XcX[.c.V * = @ q q q O       ",
"@ @ X * - 9 T r =.w p e e b f > - 5 -.3.w d { { >.C e.a.>.C x.x.z { $XQ +..X4.( O.O.O.( 6X6X4.4X%.;.z C Y 7.).W.,XY.g.S @ @ 5 q q 1 + + 1 q ",
"@ @ c S , 6 T #.#.'.[ [ g P e e T h V #.B s  .;.C Y o.C >.;.L o.C F W +..X6XO.O.O.O.O.( 1.( &.6.%.R v Y D iXJ.7.C K m c ] = , - * X @ $ X 8 ",
"c ] U - 0 a !.%Xb.].0X0X'.#.#.#.5.G l 0XM.H.dXA L L L v >.>.u C 2.W ) _ 6.1.S.&.( ( ( ( ( J J 6X0.oXY C.C.C.x.C s p ; $ ] ] 5 , * & = = $ @ ",
"p.K.| , y V g.zXw.t.A.w.%Xn P l n B [ G.H.Y.H.Y.{.C.o.k.j j 2.:X:X! _ ,.h.S.uXS.h.1.( O.O.J J 1.<.Q j.x.D.].'.g P 7 - c p.p.| y @ $ = = 8 @ ",
"K.KX| - h E pX`.G.xXbXt.zX#.w w k M K H.D aXmXaXZ.G.P._.l.o.>.~ %.0.i.h.S.uXS.1.1.1.( O.O.O.V.6X@.0.%.C z s I P r a U $ = ] 5 , U = $ & @ X ",
"] <XS y V *.#.`.Z.Z.xXt.b.#.r.=.&X0Xj 1X1X[.9X9X9XbXQ.F.~.b. .F Q _ .X4.6X( &.6X1.( O.J O.S.4..XPXqXCX7.v [ 5.pX3.V ; X c ] $ $ = $ $ @ @ X ",
"c c * - f 5.].P.G.Z.xXt.b.5.*.E l t K NXA o.Y.M.M.P.w.#XAX`.M F Q <.+X( J O.J ( ( ( O.J O.S.,._ qXhXrXN.1Xv sX^.L.g.b : % X $ = 8 = $ & $ $ ",
"& 1 - , m y.].l.G.Z.xXt./.^.=.b 7 r #.n t  .k.D.NX XL.b. XD./ ~ ) ` +XJ J J V.1.1.&.J O.( q.@XHXqXhXU.eXaXo.NX#Xw.=X#.l :.3 $ = = = $ = = = ",
"+ * , > V y.].C.P.Z.bXbXF.zX3.V 0 ; a f e Z e p ^ =.#.[ t / $X%._ s.MXJ MXMX+X+X+X+XMXMXs..X_ nXcX>X(.eXG.dXP.~.Z._.D.B *.:.U c = $ & @ 8 $ ",
"X O   ; V y.].NXl.P.G.t.F.#XOX-.- U U U , 9 4 7 e w n ..{ F } ! @.q.V.O.&.4.q.8.q.4.1.6Xh.,.*XW.9XeX}.}.}.}.A.A.Z.M.C.M P e ; @ $ = @ X X 1 ",
". . * 0 a 3. X%X=XG.G.A.Q.~.zX3.U ] $ & c c 2 0 m G n { ~ ' X.0.9.` s.q.4.q.q.8.q.q.6X1.h.|.3X{.7XcXU.cXeX9Xw.~.t.w.l.'.g p f q q c @ X @ 1 ",
". 1 * o a 3.!.c.b.dXM.w.xXT./.!., ] c $ = 8 q 0 b ^ K ~ W ! _ 8X_ <.` <.@.@.` ` .X.X+X+X.X_ f.kXW.VXVXU.(.eXZ.w./.L.sX[ N k r h 0 S S * @ 1 ",
". . *   0 -.3.c.`._.dXw.t.t.F.^.-.* U c = U , m H / F oXv.9.<.4X8.i._ +.! ! ! ! +.9.<.9.+.+.! X.BXjXjXVXU.(.Z.c.g.R.r.5.^ w =.r.d.K.p., o o ",
". . * .   9 R.^.XXb.=XP.A.A.F.zXR.> o @ @ , h n >.%.0.4X,.,.8X8X@Xn.! W $.' %.X.@X8X6.6.@.@.! W f.BXqXjXUXrXaX0Xl f m b G G V vX^.tXKXS   8 ",
"X . . . * * a g.^.XX%X=XP.t.bX~.^.R.- 0 9 b k R 3X<.<..X6.8.4Xn.W $.$X$X~ u.3XI.,.q.S.uX,.v.Q :X$.%.X.PXhXFXmXL I E f h f > 5 p.OXtXKX| 3   ",
"O O . . X * ; a !.XXc.%XdXG.Z.t./.XXr.w H s m.3XLX4Xi.<.9.0.X.W $X/  .i m.} n._ .Xs.4.h.i.0.%.%.u.' Q X.SXE.{.v p r > 0 * U $ ] K.K.| S - % ",
"O O . . X + 1 3 h !.XXb._.Y.G.}.~.b.'.u ~ ) n.I.|.I.) W :X:XF $X/  .;.u R W ! +.<..X6.z..X<.+.! u.7.' W u.7.R i k b ; @ c = $ c ] 5 U U * O ",
"O O . + X + X 1 - g.^.XXP.P.M.Z.G.G.H.7.) @X@X_ ) Q $.F i / /  . .j ;.u u ' Q ) +.@.6.8.h.GX,.+.oXJ.e.R } } } F B G 9 U = = $ c c @ U U X . ",
"O O . + X X X X - a R.g.c.`.P.P.dXP.;XoX|.|.|.I.Q :XF 2. . . . . .;.;.L C a.} %.n._ @.i.8.h.8.@.f.R C R } $.j.7.K H h U $ = = = $ @ @ @ X + ",
"O 8 + + X & & X . y V !.g.c.=XP._.l.e.J.3XLX*X%.W ~ F i  . . . .u C u v z ;.F ~ Q ! +.9.` z.z.` ) j.R R J.j.' j.u #.a - $ = = $ @ @ $ @ 8 1 ",
"O . + + & & & & U y 4 3.g.sX Xc.P.P.H.7.' oXu.W ~ F i /  .s M K v v C u v z ;.>.~ Q ! +.@.8.6.` DXoXm.7.7.j.7.>.z pXa * X $ = @ @ 8 @ @ 1 . ",
"O . 8 X & & & & + 3 9 a m r.!. X=XP.G.=Xm.F ~ F F i /  . .M z v C C L L o.L z ;.$X$.Q ! _ ,.8.8X|.oXW } 7.R R i s w h - 2 @ $ U @ X @ @ X 1 ",
"O . . + & & & & c c 3 o ; a m g.%Xc.dXdXv j i j /  .s M M u C C C e.Y x.C.x.v ;.i F ~ Q ) +.9.9.v.X.Q } 2.;.C K ..e 7 q , 2 X U U 2 U ] c X ",
"O . . + & & & & & & X * 3 - 9 V R.!.^.XXXXg ..t  .M z z v L L e.Y D D A A x.L K / $XF $.Q X.n.n.*X*X).J.2.j u M t e T % q q 2 U U @ c | ] @ ",
"3 . 1 8 & & $ & & & @ @ 8 1 * - y V g.^.^.5.d d ..s k.x.x.D D D D ;X;XD x.A x.v j { i F $X$.$.$.W ~ ~ i { i M  .t p T ; q q 2 2 X X @ U U @ ",
"| * . X @ X + & & c | ] U X X * U 5 - -.3.l d d .. .z o.Y D D D D D D Y D ;Xx.v M { { / { { { $X:X:XF ;.j  .t p p e :.% q q q 2 2 X 2 @ @ @ ",
"K.S o O . 1 @ U & ] p.p.c X X & $ c X   h r Z I / / i i >.u e.o.Y D A D ;XfXA L z ..x ..I d d  .F 2.u K g I I Z p E :.# q q 2 2 2 2 2 2 2 2 ",
"p., o o O 8 * . 1 c p.p.c & & & & $ & 3 a r I s M M j / x / K z v o.A C.C.C.D.k.[ s d P p d ..t i ;.K p P e e e 7 f ; q q 2 1 1 2 1 1 . . . ",
"3   # o o 3 * o 1 1 U c $ & & & & X 1 ; 7 e d K v v z M ..I P p N '.5XD.D.D.D.5X[ k P p P d ../ >.u M e *.6 % % 0 q q q q 3 * * 1 . . O O O ",
", 0 q q o o - , , 3 . 1 + & & & & X . > E P g k.o.L M s p *.*.*.l p g g g k B g p p I d d x ..s z M p E ; q q @ 2 q q q q 1 1 + 3 O         ",
"3 8 0 - - 5 5 0 , 3 3 1 + X & & & +   :.Z ..v x.x.z s g w 4 ; 4 T e Z P Z Z Z I Z Z I x x { / u K p e 7 q . O 1 . o q q q q 1 1 O           ",
"# 0 0 8 5 <X<XS 3 o * * . . & X + O 4 w P  .k.Y v  .t l 4   o o 4 7 r b T T T T *.e p ../ i F a.j P e 6 # o * 1 . o # # # # # o #           ",
"o 3 # # 5 <X<X8 3 O o o *   U X X ; r p s C e.v  .t E 4 o . + + o ; ; ; ; ; 6 7 T E n  .C F $.} j g w 7 6 6   O   # # # < : 6 > 9 9 ; 6 8   ",
"3 o o # 3 S 8 - 3 3   o - o @   ; 7 e K _.[.aXC.s e 7 o . . . + .           % 4 f e g 5X1XR J.).;.s n w b 7 6 % % # # # < : 4 9 V a 9 ; %   ",
"o     #   o o % % o 3 O o   1 ; r p B H.9XeXZ.D.l T ; . + . . O o 8     O O   ; f w sXw._.C 2XW.fXl.c.&X^ E f % %         % > a -.V 9 ; %   ",
"  <         8 o o o     3 - - 7 ^ x.A 1X{.Y.k.p T 6 . + + .   ; ;       O O O   6 f !.`.=XC 1XN.;Xl._.c.].l T : <     O O   0 - a 9 ; 8 %   ",
"  % o 3   %         o     3 < E D.aX[.N.9XM.[ E 6   + X + . ; 4 4 % %     O O O 3 6 E 8 B  .z z ;.;.z M g Z E > ;     O O O o 0 ; ; % %   # ",
"  % - - 8 % % % % %   . , S % l l.B.N.B.H.=Xp 7   . X & + o 4 4 4 % 8   O O O O 3 ; T Z Z d x x x x x x I e T :.< %       %         ; ; # o ",
"%   - - 8   o   ,   < 0 | K.5 *. .a.a.;.K B e 4 o + X X + o ; 6 4 #     O O O O     > 7 r w l n n p l w b 7 6 ; 8 # % % % % 6 < % ;     8 8 ",
"%   o 8 % %   %     o 0 5 p.- T I { x d I Z T ; O + X X + 8 ; 4 ;   O   O O O . O O   ; 6 7 r T 7 b 7 7 6 %   8   % 8 % 6 7 7 7 <     8     ",
"y , y , 8 y , y y 5 5 -.<Xp.-.a G 5.5.=.=.=.V y 5 5 S S S S y y y y y 5 5 5 5 5 5 5 5 5 a a a a a y y y y 5 5 5 5 5 y y y m m m a y y 5 5 8 "
};
