/* XPM */
static char *result[] = {
/* columns rows colors chars-per-pixel */
"70 73 23 1 ",
"  c black",
". c #3A0000",
"X c #003600",
"o c #3A3600",
"O c #660000",
"+ c #663600",
"@ c #006100",
"# c #666100",
"$ c #903600",
"% c #B66100",
"& c #3A8800",
"* c #66AC00",
"= c #908800",
"- c #B6AC00",
"; c #DB8800",
": c #FFAC00",
"> c #90CF00",
", c #B6CF00",
"< c #B6F200",
"1 c #DBCF00",
"2 c #FFCF00",
"3 c #DBF200",
"4 c #FFF200",
/* pixels */
"4444444444444444444444444444444444444444444444444444444444444444444444",
"4444444444444444444444444444444444444444444444444444444444444444444444",
"4444444444444444444444444444444444444444444444444444444444444444444444",
"4444444444444444444444444444444444444444444444444444444444444444444444",
"4444444444444444444444444444444444444444444444444444444444444444444444",
"4444444444444444444444444444444444444444444444444444444444444444444444",
"4444444444444444444444444444444444444444444444444444444444444444444444",
"44444$    <44$*444:X34$    <4444% *444$@444%@444% *4444444444444444444",
"44444$&44$@44$*444:X34$&44%@4444O#@444: >42.>444O#@4444444444444444444",
"44444$&44;X34$*444:X34$&44:X344:X1.<444%@4%@444:X1.<444444444444444444",
"44444$&44$&44$*444:X34$&44$@444%&4$&4442.,.>444%&4$&444444444444444444",
"44444$    >44$*444:X34$   &4442.>4;X3444% @4442.>4;X344444444444444444",
"44444$&44: >4$*444:X34$&4: <44;X342.>4442.<444;X342.>44444444444444444",
"44444$&444O*4$&444;X34$&44$&44$     &4442.<444$     &44444444444444444",
"44444$&44: >4; <44O*44$&44: <: >444; <442.<44: >444; <4444444444444444",
"44444$    *444;   &444$&444O*%@44444O*442.<44%@44444O*4444444444444444",
"4444444444444444444444444444444444444444444444444444444444444444444444",
"4444444444444444444444444444444444444444444444444444444444444444444444",
"4444444444444444444444444444444444444444444444444444444444444444444444",
"4444444444444444444444444444444444444444444444444444444444444444444444",
"4444444444444444444444444444444444444444444444444444444444444444444444",
"4444444444444444444444444444444444444444444444444444444444444444444444",
"4444444444444444444444444444444444444444444444444444444444444444444444",
"4444444444444444444444444444444444444444444444444444444444444444444444",
"4444444444444444444444444444444444444444444444444444444444444444444444",
"44444$    <44$    &4%&44: >4$*444444% *4444$ *4444: X34444444444444444",
"44444$&44%@44$*44444%&42.*44$*444444O#@4444$oX3444%#X34444444444444444",
"44444$&44:X34$*44444%&4O*444$*44444:X1.<444$*O>442.-X34444444444444444",
"44444$&44$@44$*44444%&$&4444$*44444%&4$&444$*%&44;@:X34444444444444444",
"44444$   &444$    <4%  >4444$*44442.>4;X344$*: <4O>:X34444444444444444",
"44444$&4: <44$*44444%&; <444$*4444;X342.>44$*4O*:X3:X34444444444444444",
"44444$&44$&44$*44444%&4$@444$*4444$     &44$*4;@%&4:X34444444444444444",
"44444$&44: <4$*44444%&44O&44$*444: >444; <4$*42. <4:X34444444444444444",
"44444$&444O*4$    &4%&442.*4$    o@44444O*4$*44$@44:X34444444444444444",
"4444444444444444444444444444444444444444444444444444444444444444444444",
"4444444444444444444444444444444444444444444444444444444444444444444444",
"4444444444444444444444444444444444444444444444444444444444444444444444",
"4444444444444444444444444444444444444444444444444444444444444444444444",
"4444444444444444444444444444444444444444444444444444444444444444444444",
"4444444444444444444444444444444444444444444444444444444444444444444444",
"4444444444444444444444444444444444444444444444444444444444444444444444",
"44444444444444444444444444444444444444444444%X34444444%X34444444444444",
"4444444444444444444444444444444444444444444444444444444444444444444444",
"4444; <4444$*4$    &4$    <44$    &4$    <44%@44$*4444%@44$    <444444",
"44444O*444: <4$*44444$&44%@44$*44444$&44$@44%@44$*4444%@44$&44%@444444",
"44444%@444%@44$*44444$&44:X34$*44444$&44;X34%@44$*4444%@44$&44:X344444",
"44444: <44O*44$*44444$&44$@44$*44444$&44$&44%@44$*4444%@44$&44$@444444",
"444444O*4:X344$    <4$   &444$    <4$    >44%@44$*4444%@44$   &4444444",
"444444;@4%&444$*44444$&4: <44$*44444$&44: >4%@44$*4444%@44$&4: <444444",
"4444442.>O>444$*44444$&44$&44$*44444$&444O*4%@44$*4444%@44$&44$&444444",
"4444444$oX3444$*44444$&44: <4$*44444$&44: >4%@44$*4444%@44$&44: <44444",
"4444444; *4444$    &4$&444O*4$    &4$    *44%@44$    >%@44$&444O*44444",
"4444444444444444444444444444444444444444444444444444444444444444444444",
"4444444444444444444444444444444444444444444444444444444444444444444444",
"4444444444444444444444444444444444444444444444444444444444444444444444",
"4444444444444444444444444444444444444444444444444444444444444444444444",
"4444444444444444444444444444444444444444444444444444444444444444444444",
"4444444444444444444444444444444444444444444444444444444444444444444444",
"4444444444444444444444444444444444444444444444444444444444444444444444",
"444444444444%X344444444444%X344444444444444444444444444444444444444444",
"4444444444444444444444444444444444444444444444444444444444444444444444",
"44444:   *44%@44% &444;@44%@4;     &4444444444444444444444444444444444",
"44442.*44+34%@44%o <44;@44%@444442.>4444444444444444444444444444444444",
"44442.>44444%@44%&$@44;@44%@44444$&44444444444444444444444444444444444",
"44444$ >4444%@44%&2.>4;@44%@4444;X344444444444444444444444444444444444",
"444444%  >44%@44%&4%X3;@44%@4442.>444444444444444444444444444444444444",
"44444444; >4%@44%&44O&;@44%@444$&4444444444444444444444444444444444444",
"444444444$*4%@44%&44: =@44%@44;X34444444444444444444444444444444444444",
"4444;&44: >4%@44%&444$ @44%@42.>44444444444444444444444444444444444444",
"44444$   >44%@44%&4442.@44%@4;     @4444444444444444444444444444444444",
"4444444444444444444444444444444444444444444444444444444444444444444444",
"4444444444444444444444444444444444444444444444444444444444444444444444",
"4444444444444444444444444444444444444444444444444444444444444444444444"
};
