/* XPM */
static char *result[] = {
/* columns rows colors chars-per-pixel */
"70 73 44 1 ",
"  c #00A2E8",
". c #00A2ED",
"X c #00A2F0",
"o c #00B2F0",
"O c #00B2F4",
"+ c #3AA2E8",
"@ c #3AB2ED",
"# c #66A2E8",
"$ c #66B2E8",
"% c #66B2ED",
"& c #00C2F7",
"* c #3AC2F4",
"= c #3AC2F7",
"- c #3AD2FB",
"; c #66C2F0",
": c #66C2F4",
"> c #66D2F7",
", c #66D2FB",
"< c #66E1FB",
"1 c #66E1FF",
"2 c #90B2E8",
"3 c #90C2ED",
"4 c #90C2F0",
"5 c #90D2F7",
"6 c #B6C2E8",
"7 c #B6D2F4",
"8 c #90F0FF",
"9 c #B6E1F4",
"0 c #B6E1FB",
"q c #B6F0FF",
"w c #B6FFFF",
"e c #DBD2ED",
"r c #DBE1F0",
"t c #DBE1F7",
"y c #DBF0FB",
"u c #DBF0FF",
"i c #DBFFFF",
"p c #FFE1F0",
"a c #FFF0F4",
"s c #FFF0F7",
"d c #FFFFF7",
"f c #FFF0FB",
"g c #FFFFFB",
"h c white",
/* pixels */
"                                                                      ",
"                                                                      ",
"                                                                      ",
"                                                                      ",
"                                                                      ",
"                                                                      ",
"                                                                      ",
"                                                                      ",
"                                                                      ",
"                                                                      ",
"                                                                      ",
"                                                                      ",
"                                                                      ",
"                                                                      ",
"                                                                      ",
"                                                                      ",
"                                                                      ",
"     ,hhhhhhhhhhy9%           X8hha#             owhhp+               ",
"    Xwhhhhhhhhhhhhhs2         Xwhhd#             Oihha+               ",
"    Xwhhhhhhhhhhhhhhh6        Xwhhd#             Oihha+               ",
"    Xwhhg4;;;;:0ihhhhg2       Xwhhd#             Oihha+               ",
"    Xwhhd#       -hhhhp       Xwhhd#             Oihha+               ",
"    Xwhhd#        1hhha+      Xwhhd#             Oihha+               ",
"    Xwhhd#        Oihhd#      Xwhhd#             Oihha+               ",
"    Xwhhd#        Xwhhg2      Xwhhd#             Oihha+               ",
"    Xwhhd#        Xwhhd#      Xwhhd#             Oihha+               ",
"    Xwhhd#        Oihha+      Xwhhd#             Oihha+               ",
"    Xwhhd#        1hhhe       Xwhhd#             Oihha+               ",
"    Xwhhd#       =hhhd#       Xwhhd#             Oihha+               ",
"    Xwhhd%@@@@@:qhhhg2        Xwhhd#             Oihha+               ",
"    Xwhhhhhhhhhhhhhr+         Xwhhd#             Oihha+               ",
"    Xwhhhhhhhhhhhhhhs3        Xwhhd#             Oihha+               ",
"    Xwhhhhhhhhhhhhhhhhe       Xwhhd#             Oihha+               ",
"    Xwhhd#      @>ihhhhe      Xwhhd#             Oihha+               ",
"    Xwhhd#        .8hhhg2     Xwhhd#             Oihha+               ",
"    Xwhhd#         Xwhhhe     Xwhhd#             Oihha+               ",
"    Xwhhd#          -hhha+    Xwhhd#             Oihha+               ",
"    Xwhhd#          &hhhd#    Xwhhg2             &hhhp                ",
"    Xwhhd#          Oihhd#    .8hhh6             -hhhp                ",
"    Xwhhd#          &hhhd#     1hhhp            .8hhh6                ",
"    Xwhhd#          -hhha+     &hhhg2           &hhhd#                ",
"    Xwhhd#         Oihhhe      .8hhhd#         owhhhe                 ",
"    Xwhhd#        *ihhhd#       &hhhhg3       *ihhhd#                 ",
"    Xwhhg4;;;;;;5uhhhhh6         1hhhhhg94;:0ihhhhg2                  ",
"    Xwhhhhhhhhhhhhhhhhe           <hhhhhhhhhhhhhhg2                   ",
"    Xwhhhhhhhhhhhhhhs$             *qhhhhhhhhhhhr+                    ",
"     ,hhhhhhhhhhgy7$                 o5yhhhhft3+                      ",
"                                                                      ",
"                                                                      ",
"                                                                      ",
"                                                                      ",
"                                                                      ",
"                                                                      ",
"                                                                      ",
"                                                                      ",
"                                                                      ",
"                                                                      ",
"                                                                      ",
"                                                                      ",
"                                                                      ",
"                                                                      ",
"                                                                      ",
"                                                                      ",
"                                                                      ",
"                                                                      ",
"                                                                      ",
"                                                                      ",
"                                                                      ",
"                                                                      ",
"                                                                      ",
"                                                                      ",
"                                                                      ",
"                                                                      "
};
