/* XPM */
static char *result[] = {
/* columns rows colors chars-per-pixel */
"70 73 33 1 ",
"  c #A349A4",
". c #B349A4",
"X c #A349B4",
"o c #C249A4",
"O c #C249B4",
"+ c #D26BA4",
"@ c #A349C3",
"# c #A36BD3",
"$ c #B36BD3",
"% c #E18BA4",
"& c #E18BB4",
"* c #F0A9B4",
"= c #A38BE1",
"- c #B3A9F0",
"; c #D2A9E1",
": c #C2A9F0",
"> c #F0C7C3",
", c #FFC7C3",
"< c #FFE3D3",
"1 c #C2C7FF",
"2 c #E1C7E1",
"3 c #FFC7E1",
"4 c #D2E3FF",
"5 c #F0E3E1",
"6 c #FFE3E1",
"7 c #FFFFE1",
"8 c #E1E3FF",
"9 c #F0E3F0",
"0 c #FFE3F0",
"q c #E1FFFF",
"w c ivory",
"e c azure",
"r c white",
/* pixels */
"                                                                      ",
"                                                                      ",
"                                                                      ",
"                                                                      ",
"                                                                      ",
"                                                                      ",
"                                                                      ",
"                                                                      ",
"                                                                      ",
"                                                                      ",
"                                                                      ",
"                                                                      ",
"                                                                      ",
"                                                                      ",
"                                                                      ",
"                                                                      ",
"                                                                      ",
"                                                                      ",
"                                                                      ",
"                                                                      ",
"                                                                      ",
"                                                                      ",
"                                                                      ",
"                                                                      ",
"                                                                      ",
"                                                                      ",
"     -rr%      @q7o          -rr%      @4r6o     -r*       -rr%       ",
"    X4rr,      @q7o         X4rr,      @qrr,     -r*      X4rr,       ",
"    #e3q7o     @q7o         #e3q7o     @q0ew+    -r*      #e3q7o      ",
"    -r%1r%     @q7o         -r%1r%     @q<:r<.   -r*      -r%1r%      ",
"   X47o=r<.    @q7o        X47o=r<.    @q7O4r%   -r*     X47o=r<.     ",
"   =r, X4w+    @q7o        =r, X4w+    @q7o=r<.  -r*     =r, X4w+     ",
"   1w+  -r*    @q7o        1w+  -r*    @q7oX4r*  -r*     1w+  -r*     ",
"  @q<.  #e<.   @q7o       @q<.  #e<.   @q7o #e7o -r*    @q<.  #e<.    ",
"  =r*   X4r%   @q7o       =r*   X4r%   @q7o  1r, -r*    =r*   X4r%    ",
"  1r522228r,   @q7o       1r522228r,   @q7o  @qw+-r*    1r522228r,    ",
" #errrrrrrr7o  @q7o      #errrrrrrr7o  @q7o   -r,-r*   #errrrrrrr7o   ",
" -r*     X4r%  @q7o      -r*     X4r%  @q7o   @qw;r*   -r*     X4r%   ",
"X4w+      -r,  @q7o     X4w+      -r,  @q7o    =rrr*  X4w+      -r,   ",
"#e<.      @qw+ @qr09999>$e<.      @qw+ @q7o    X4rr*  #e<.      @qw+  ",
"-r*        1r* @qrrrrrr<:r*        1r* @q7o     #er&  -r*        1r*  ",
"                                                                      ",
"                                                                      ",
"                                                                      ",
"                                                                      ",
"                                                                      ",
"                                                                      ",
"                                                                      ",
"                                                                      ",
"                                                                      ",
"                                                                      ",
"                                                                      ",
"                                                                      ",
"                                                                      ",
"                                                                      ",
"                                                                      ",
"                                                                      ",
"                                                                      ",
"                                                                      ",
"                                                                      ",
"                                                                      ",
"                                                                      ",
"                                                                      ",
"                                                                      ",
"                                                                      ",
"                                                                      ",
"                                                                      ",
"                                                                      ",
"                                                                      ",
"                                                                      ",
"                                                                      ",
"                                                                      ",
"                                                                      "
};
