/* XPM */
static char *result[] = {
/* columns rows colors chars-per-pixel */
"70 73 36 1 ",
"  c #C8BFE7",
". c #C8BFEB",
"X c #C8BFEF",
"o c #D2BFE7",
"O c #DBBFE7",
"+ c #DBBFEF",
"@ c #DBCAE7",
"# c #C8CAF3",
"$ c #DBCAF3",
"% c #C8D5F7",
"& c #D2D5F3",
"* c #D2D5F7",
"= c #E4CAE7",
"- c #E4CAEB",
"; c #EDD5E7",
": c #D2E0FB",
"> c #DBE0FB",
", c #DBEAFF",
"< c #F6E0EB",
"1 c #F6E0EF",
"2 c #F6EAEF",
"3 c #FFEAEF",
"4 c #EDEAF7",
"5 c #E4E0FB",
"6 c #F6EAF3",
"7 c #F6EAF7",
"8 c #E4F4FF",
"9 c #EDFFFF",
"0 c #FFF4F3",
"q c #FFF4F7",
"w c #FFFFF7",
"e c #F6F4FB",
"r c #F6F4FF",
"t c #F6FFFF",
"y c #FFFFFB",
"u c white",
/* pixels */
"                                                                      ",
"                                                                      ",
"                                                                      ",
"                                                                      ",
"                                                                      ",
"                                                                      ",
"                                                                      ",
"                                                                      ",
"                                                                      ",
"                                                                      ",
"                                                                      ",
"                                                                      ",
"                                                                      ",
"                                                                      ",
"                                                                      ",
"                                                                      ",
"                                                                      ",
"                                                                      ",
"               ,uuuuuy6@      ,uuuuuuuu3   ,u<     :uwO               ",
"               ,uyeeruuu<     ,uyeeeeee<   ,u<    %uu;                ",
"               ,u<   .,uy=    ,u<          ,u<   #tu<                 ",
"               ,u<    X9u<    ,u<          ,u<  .8u3                  ",
"               ,u<    .8u3    ,u<          ,u<  ,u0o                  ",
"               ,u<    .8u<    ,u<          ,u< :uwO                   ",
"               ,u<    #tu;    ,u<          ,u<%uy=                    ",
"               ,u<   &tu3o    ,uyeeeee1    ,u7tu;                     ",
"               ,uuuuuuu2o     ,uuuuuuu3    ,u7tu<                     ",
"               ,uyeruuq@      ,u<          ,u<:uy=                    ",
"               ,u<  .8uwO     ,u<          ,u< ,uwO                   ",
"               ,u<   X9u<     ,u<          ,u< X9u3                   ",
"               ,u<    :uwO    ,u<          ,u<  #tu<                  ",
"               ,u<    X9u;    ,u<          ,u<   :uu;                 ",
"               ,u<     ,u0o   ,u<          ,u<    ,uwO                ",
"               ,u<     #tu;   ,uyeeeeee1   ,u<    X9u0o               ",
"               ,u<     .8u3   ,uuuuuuuu3   ,u<     #tu;               ",
"                                                                      ",
"                                                                      ",
"                                                                      ",
"                                                                      ",
"                                                                      ",
"                                                                      ",
"                                                                      ",
"                                                                      ",
"                                                                      ",
"                                                                      ",
"                                                                      ",
"                                                                      ",
"                                                                      ",
"                                                                      ",
"                                                                      ",
"                                                                      ",
"               ,u<            ,uu;        >uuqO         .8uu3         ",
"               ,u<           #tuu3        ,uuu3         %uuu0o        ",
"               ,u<           :u7ty=       ,ueuwO       .8u4u0o        ",
"               ,u<          .8y-8u<       ,u18u;       #t0*u0o        ",
"               ,u<          #t0o%u0o      ,u<:u0o      ,u<%u0o        ",
"               ,u<          :u< X9y=      ,u<X9y=     X9y=%u0o        ",
"               ,u<         X9wO  ,u<      ,u< ,u3     :u3 %u0o        ",
"               ,u<         %u3   %u0o     ,u< %uwO   .8u; %u0o        ",
"               ,u<         ,u;   X9u;     ,u< .8u<   %u0o %u0o        ",
"               ,u<        X9wO    :u3     ,u<  :u0o  ,u<  %u0o        ",
"               ,u<        %uueeeeetuwO    ,u<  #ty= #twO  %u0o        ",
"               ,u<       .8uuuuuuuuuu;    ,u<   ,u3 :u3   %u0o        ",
"               ,u<       #twO      :u3    ,u<   %uw+9y=   %u0o        ",
"               ,u<       :u3       #ty=   ,u<   X9ueu0o   %u0o        ",
"               ,u<      .8u;       X9u<   ,u<    :uuu;    %u0o        ",
"               ,uuuuuuuw$ty=        ,u0o  ,u<    #tuwO    %u0o        ",
"               ,uuuuuuuw5u0o        %uy=  ,u<    .,u<     %u0o        ",
"                                                                      ",
"                                                                      ",
"                                                                      ",
"                                                                      ",
"                                                                      "
};
