/* XPM */
static char *result[] = {
/* columns rows colors chars-per-pixel */
"70 73 26 1 ",
"  c #7092BE",
". c #7092C9",
"X c #7092D4",
"o c #70A6DF",
"O c #70B8EA",
"+ c #8A92BE",
"@ c #A292BE",
"# c #BAA6BE",
"$ c #D2B8BE",
"% c #A292C9",
"& c #8AA6DF",
"* c #BAA6D4",
"= c #8ACAF4",
"- c #A2DCFF",
"; c #BAEDFF",
": c #D2CADF",
"> c #E8CAC9",
", c #FFDCD4",
"< c #FFEDDF",
"1 c #D2DCF4",
"2 c #D2FFFF",
"3 c #FFFFEA",
"4 c #FFEDF4",
"5 c #E8FFFF",
"6 c #FFFFF4",
"7 c white",
/* pixels */
"                                                                      ",
"                                                                      ",
"                                                                      ",
"                                                                      ",
"                                                                      ",
"                                                                      ",
"                                                                      ",
"                                                                      ",
"                                                                      ",
"                                                                      ",
"                                                                      ",
"                                                                      ",
"                                                                      ",
"                                                                      ",
"                                                                      ",
"                                                                      ",
"                                                                      ",
"             =6#     o5> =777776# =77777$   =777776#                  ",
"             o5>     =6# =6#      =6#  =7$  =6#                       ",
"             .;<+   .;<+ =6#      =6#  X2,  =6#                       ",
"              =7$   o5>  =6#      =6#  X2,  =6#                       ",
"              X2,   =6#  =6#      =6#  -6#  =6#                       ",
"               -3@ .;<+  =77777>  =7777<+   =77777>                   ",
"               O7$ o5>   =6#      =6# =7$   =6#                       ",
"               X2, =3@   =6#      =6# .;3@  =6#                       ",
"                -3%;,    =6#      =6#  O7$  =6#                       ",
"                O7:5$    =6#      =6#  X2,  =6#                       ",
"                X273@    =6#      =6#   -3@ =6#                       ",
"                 -7,     =777777$ =6#   O7> =777777$                  ",
"                                                                      ",
"                                                                      ",
"                                                                      ",
"                                                                      ",
"                                                                      ",
"                                                                      ",
"                                                                      ",
"                                                                      ",
"            .;3@          .;3@                     .;3@               ",
"            .;3@          .;3@                     .;3@               ",
"                                                                      ",
"  =77777$   .;<+  O6#     .;<+  =77777$    =777<+  .;<+  O76#   o5>   ",
"  =6#  =7$  .;<+  O6#     .;<+  =6#  =7$  =6#  =>  .;<+  =77,   o5>   ",
"  =6#  o5>  .;<+  O6#     .;<+  =6#  X2, X2,       .;<+  =616#  o5>   ",
"  =6#  o5>  .;<+  O6#     .;<+  =6#  X2, X2<+      .;<+  =6*2,  o5>   ",
"  =6#  -3@  .;<+  O6#     .;<+  =6#  -6#  -7,      .;<+  =6#=6# o5>   ",
"  =77777,   .;<+  O6#     .;<+  =7777<+    -77<+   .;<+  =6#X2, o5>   ",
"  =6#  o5,  .;<+  O6#     .;<+  =6# =7$     .;77>  .;<+  =6# =7$o5>   ",
"  =6#   =6# .;<+  O6#     .;<+  =6# .;3@      X26# .;<+  =6# X2<&5>   ",
"  =6#   O7$ .;<+  O6#     .;<+  =6#  O7$       O7$ .;<+  =6#  O7:5>   ",
"  =6#   =6# .;<+  O6#     .;<+  =6#  X2,       =6# .;<+  =6#  .;45>   ",
"  =6#  o5,  .;<+  O6#     .;<+  =6#   -3@O3@  o5,  .;<+  =6#   O77>   ",
"  =77777>   .;<+  O77777<+.;<+  =6#   O7> O7777>   .;<+  =6#   .;7>   ",
"                                                                      ",
"                                                                      ",
"                                                                      ",
"                                                                      ",
"                                                                      ",
"                                                                      ",
"                                                                      ",
"                                                                      ",
"                                                                      ",
"                                                                      ",
"                                                                      ",
"                                                                      ",
"                                                                      ",
"                                                                      ",
"                                                                      ",
"                                                                      ",
"                                                                      ",
"                                                                      ",
"                                                                      ",
"                                                                      ",
"                                                                      "
};
